<?xml version="1.0" encoding="UTF-8"?>
<svg width="16px" height="16px" viewBox="0 0 16 16" version="1.1" xmlns="http://www.w3.org/2000/svg" xmlns:xlink="http://www.w3.org/1999/xlink">
    <!-- Generator: Sketch 61 (89581) - https://sketch.com -->
    <title>phone</title>
    <desc>Created with Sketch.</desc>
    <defs>
        <linearGradient x1="50%" y1="100%" x2="99.9798297%" y2="0%" id="linearGradient-1">
            <stop stop-color="#A50D73" offset="0%"></stop>
            <stop stop-color="#680F4B" offset="100%"></stop>
        </linearGradient>
    </defs>
    <g id="Symbols" stroke="none" stroke-width="1" fill="none" fill-rule="evenodd">
        <g id="Contact-Info" transform="translate(-1.000000, -44.000000)" fill="url(#linearGradient-1)" fill-rule="nonzero">
            <g id="phone">
                <g transform="translate(1.000000, 44.000000)">
                    <path d="M9.229,9.229 C7.646,10.811 5.812,12.325 5.087,11.6 C4.05,10.563 3.41,9.659 1.122,11.498 C-1.165,13.336 0.592,14.562 1.597,15.566 C2.757,16.726 7.081,15.628 11.355,11.355 C15.628,7.081 16.723,2.757 15.562,1.597 C14.557,0.591 13.337,-1.165 11.499,1.122 C9.66,3.409 10.563,4.049 11.602,5.087 C12.324,5.812 10.811,7.646 9.229,9.229 Z" id="Path"></path>
                </g>
            </g>
        </g>
    </g>
</svg>