<?xml version="1.0" encoding="UTF-8"?>
<svg width="18px" height="12px" viewBox="0 0 18 12" version="1.1" xmlns="http://www.w3.org/2000/svg" xmlns:xlink="http://www.w3.org/1999/xlink">
    <!-- Generator: Sketch 61 (89581) - https://sketch.com -->
    <title>mail</title>
    <desc>Created with Sketch.</desc>
    <defs>
        <linearGradient x1="50%" y1="72.2222162%" x2="100%" y2="27.7777838%" id="linearGradient-1">
            <stop stop-color="#A50D73" offset="0%"></stop>
            <stop stop-color="#680F4B" offset="100%"></stop>
        </linearGradient>
    </defs>
    <g id="Symbols" stroke="none" stroke-width="1" fill="none" fill-rule="evenodd">
        <g id="Contact-Info" transform="translate(-1.000000, -84.000000)" fill="url(#linearGradient-1)" fill-rule="nonzero">
            <g id="mail">
                <g transform="translate(1.000000, 84.000000)">
                    <path d="M0.574,1.286 C1.062,1.548 7.822,5.18 8.074,5.315 C8.326,5.45 8.652,5.514 8.98,5.514 C9.308,5.514 9.634,5.45 9.886,5.315 C10.138,5.18 16.898,1.548 17.386,1.286 C17.875,1.023 18.337,0 17.44,0 L0.521,0 C-0.376,0 0.086,1.023 0.574,1.286 Z M17.613,3.489 C17.058,3.778 10.226,7.338 9.886,7.516 C9.546,7.694 9.308,7.715 8.98,7.715 C8.652,7.715 8.414,7.694 8.074,7.516 C7.734,7.338 0.941,3.777 0.386,3.488 C-0.004,3.284 -8.20365468e-07,3.523 -8.20365468e-07,3.707 C-8.20365468e-07,3.891 -8.20365468e-07,11 -8.20365468e-07,11 C-8.20365468e-07,11.42 0.566,12 0.99999918,12 L16.9999992,12 C17.434,12 17.9999992,11.42 17.9999992,11 C17.9999992,11 17.9999992,3.892 17.9999992,3.708 C17.9999992,3.524 18.004,3.285 17.613,3.489 Z" id="Shape"></path>
                </g>
            </g>
        </g>
    </g>
</svg>