<?xml version="1.0" encoding="UTF-8"?>
<svg width="592px" height="154px" viewBox="0 0 592 154" version="1.1" xmlns="http://www.w3.org/2000/svg" xmlns:xlink="http://www.w3.org/1999/xlink">
    <!-- Generator: Sketch 61.2 (89653) - https://sketch.com -->
    <title>logo-allianz</title>
    <desc>Created with Sketch.</desc>
    <g id="Page-1" stroke="none" stroke-width="1" fill="none" fill-rule="evenodd">
        <g id="logo-allianz" transform="translate(0.000000, -3.000000)" fill="#FFFFFF">
            <path d="M53.56928,85.66379 L31.87032,85.66379 L43.3979,48.16526 L53.56928,85.66379 Z M21.69893,123.56917 L28.47986,100.71744 L56.28166,100.71744 L63.06258,123.56917 L86.11773,123.56917 L61.7064,36.84112 C60.35021,31.14513 57.63784,29.31428 51.53501,29.31428 L17.63038,29.31428 L17.63038,37.11235 L20.34275,37.11235 C24.4113,37.11235 26.44558,38.40073 26.44558,41.51996 C26.44558,43.48643 26.44558,44.7748 24.4113,49.45364 L-2.99999999e-05,123.56917" id="path37627"></path>
            <path d="M115.27571,123.56917 L115.27571,36.23083 C115.27571,31.68761 112.56334,29.31428 107.8167,29.31428 L86.79582,29.31428 L86.79582,37.11235 L88.15201,37.11235 C92.22056,37.11235 94.25484,38.80759 94.25484,42.46929 L94.25484,123.56917" id="path37629" fill-rule="nonzero"></path>
            <path d="M153.2489,123.56917 L153.2489,36.23083 C153.2489,31.68761 150.53653,29.31428 145.78988,29.31428 L124.76901,29.31428 L124.76901,37.11235 L126.1252,37.11235 C130.19375,37.11235 132.22803,38.80759 132.22803,42.46929 L132.22803,123.56917" id="path37631" fill-rule="nonzero"></path>
            <path d="M191.90018,37.65483 C191.90018,31.41637 187.15353,27.75467 179.69451,27.75467 C171.5574,27.75467 167.48885,31.41637 167.48885,37.65483 C167.48885,44.0289 171.5574,47.75841 179.69451,47.75841 C187.15353,47.75841 191.90018,44.0289 191.90018,37.65483 M191.22209,123.56917 L191.22209,59.96408 C191.22209,55.55647 188.50972,52.97972 184.44116,52.97972 L163.42029,52.97972 L163.42029,60.64217 L164.77648,60.64217 C168.84503,60.64217 170.20122,62.3374 170.20122,66.20253 L170.20122,123.56917" id="path37633"></path>
            <path d="M241.40094,89.32549 L241.40094,103.42981 C237.33239,107.49837 232.58574,109.80388 228.51718,109.80388 C224.44863,109.80388 222.41435,107.83742 222.41435,102.54829 C222.41435,96.7167 223.77054,94.47899 228.51718,92.64814 C231.90765,91.22415 235.29811,90.34263 241.40094,89.32549 M211.56487,72.44098 L213.59915,71.62727 C219.02389,69.45737 222.41435,68.64366 226.48291,67.89776 C228.51718,67.62652 231.22955,67.35529 232.58574,67.35529 C239.36667,67.35529 241.40094,69.59299 241.40094,75.83144 L241.40094,77.59448 C231.90765,79.1541 229.19528,79.69657 223.77054,80.84933 C221.05816,81.52742 218.34579,82.40894 215.63342,83.5617 C206.81822,87.08778 202.74966,93.86871 202.74966,104.51476 C202.74966,117.87319 208.1744,124.24726 220.38007,124.24726 C225.12672,124.24726 229.87337,123.16231 233.26383,120.99241 C236.6543,119.4328 238.01048,118.61909 242.07904,114.88958 L242.07904,117.05948 C242.07904,121.46708 244.11331,123.56917 248.18187,123.56917 L268.52465,123.56917 L268.52465,116.31357 L267.84656,116.31357 C263.778,116.31357 261.74372,114.48272 261.74372,110.82102 L261.74372,76.17049 C261.74372,58.13323 255.64089,52.03039 238.01048,52.03039 C231.90765,52.03039 226.48291,52.70849 221.05816,53.99686 C215.63342,55.28524 212.92105,56.23457 206.81822,59.4216" id="path37635"></path>
            <path d="M300.395,123.56917 L300.395,75.69583 C305.14165,71.28822 308.53211,69.59299 313.27876,69.59299 C318.02541,69.59299 319.3816,71.62727 319.3816,78.81505 L319.3816,123.56917 L340.40247,123.56917 L340.40247,75.42459 C340.40247,65.52444 339.04628,61.25245 336.33391,57.52294 C332.94345,53.86124 328.87489,52.16601 322.77206,52.16601 C314.63495,52.16601 308.53211,55.14962 299.03882,63.35454 L299.03882,59.55722 C299.03882,55.14962 297.00454,52.97972 292.93598,52.97972 L272.5932,52.97972 L272.5932,60.64217 L273.2713,60.64217 C277.33985,60.64217 279.37413,62.3374 279.37413,66.20253 L279.37413,123.56917" id="path37637"></path>
            <g id="g37643-Clipped" transform="translate(344.662200, 0.148300)">
                <g id="g37643" transform="translate(125.937539, 78.798037) scale(-1, 1) rotate(-180.000000) translate(-125.937539, -78.798037) translate(0.490408, 0.817388)">
                    <path d="M60.3502414,46.8561987 L29.1579818,46.8561987 L58.9940562,89.4404139 L58.9940562,103.951596 L14.2399446,103.951596 C8.8152038,103.951596 6.780926,101.781699 6.780926,96.5603862 L6.780926,83.7444361 L14.2399446,83.7444361 L14.2399446,85.1684306 C14.2399446,89.0335584 16.2742224,90.5931714 20.342778,90.5931714 L36.6170004,90.5931714 L6.1028334,48.0089561 L6.1028334,33.3621559 L60.3502414,33.3621559" id="path37645" fill-rule="nonzero"></path>
                    <path d="M180.372632,37.2272837 L180.372632,117.106592 C180.372632,123.548472 177.660261,125.650559 171.557428,125.650559 L153.248928,125.650559 L153.248928,116.835355 L155.283205,116.835355 C158.673668,116.835355 160.029854,115.546979 160.029854,111.614042 L160.029854,37.2272837 L180.372632,37.2272837 Z M191.222113,37.2272837 L210.886799,37.2272837 L210.886799,97.5097159 C210.886799,103.612549 208.174428,106.053683 202.071595,106.053683 L191.222113,106.053683 L191.222113,37.2272837 Z M149.180372,37.2272837 L149.180372,106.053683 L138.33089,106.053683 C132.228057,106.053683 129.515687,103.612549 129.515687,97.5097159 L129.515687,37.2272837 L149.180372,37.2272837 Z M233.941947,77.3703657 C233.941947,40.0074634 206.818243,12.7481409 170.201243,12.7481409 C133.584242,12.7481409 106.460538,40.0074634 106.460538,77.3703657 C106.460538,114.733268 133.584242,141.99259 170.201243,141.99259 C206.818243,141.99259 233.941947,114.733268 233.941947,77.3703657 M246.825706,77.3703657 C246.825706,121.107338 214.277262,153.92702 170.201243,153.92702 C126.803316,153.92702 93.5767788,121.107338 93.5767788,77.3703657 C93.5767788,33.4977744 126.803316,0.6780926 170.201243,0.6780926 C214.277262,0.6780926 246.825706,33.4977744 246.825706,77.3703657" id="path37647"></path>
                </g>
            </g>
        </g>
    </g>
</svg>