<?xml version="1.0" encoding="UTF-8"?>
<svg width="548px" height="65px" viewBox="0 0 548 65" version="1.1" xmlns="http://www.w3.org/2000/svg" xmlns:xlink="http://www.w3.org/1999/xlink">
    <!-- Generator: Sketch 61.2 (89653) - https://sketch.com -->
    <title>logo-wienenergie</title>
    <desc>Created with Sketch.</desc>
    <g id="Page-1" stroke="none" stroke-width="1" fill="none" fill-rule="evenodd">
        <g id="logo-wienenergie" transform="translate(-22.000000, -42.000000)" fill-rule="nonzero">
            <polygon id="Path" points="0 0 600 0 600 145 0 145"></polygon>
            <polygon id="Path" points="1.5 1.5 145 1.5 145 143.5 1.5 143.5"></polygon>
            <path d="M49.4,103.5 C49.7454091,103.522735 50.0186156,103.80132 50.0346126,104.147107 C50.0506095,104.492894 49.8042909,104.795514 49.4624562,104.850042 C49.1206214,104.90457 48.7923771,104.693603 48.7,104.36 L63.3,93.56 L25.3,93.56 C25.6687607,93.5712177 25.9613095,93.8744377 25.959314,94.2433636 C25.9573185,94.6122895 25.6615068,94.9123271 25.2926463,94.9195551 C24.9237858,94.9267831 24.616447,94.6385645 24.6,94.27 L44.6,79.47 L60.1,79.47 C63.6,79.57 65.4,79.97 66.5,80.67 C68.2,85.47 70.5,100.57 70.6,101.37 C70.7,100.67 72.9,85.47 74.7,80.67 C75.8,79.97 77.6,79.57 81.1,79.47 L119.2,79.47 C119.167809,79.1828866 119.320557,78.9067776 119.580893,78.7814945 C119.841228,78.6562115 120.152307,78.7091097 120.356598,78.9134015 C120.56089,79.1176934 120.613789,79.428772 120.488505,79.6891073 C120.363222,79.9494426 120.087113,80.1021907 119.8,80.07 L83.5,106.97 C83.1794806,106.943197 82.9371087,106.668423 82.950522,106.347065 C82.9639352,106.025707 83.2283619,105.772087 83.55,105.772087 C83.8716381,105.772087 84.1360648,106.025707 84.149478,106.347065 C84.1628913,106.668423 83.9205194,106.943197 83.6,106.97 L49.4,106.97 L49.4,103.5 Z" id="Path" fill="#FFFFFF"></path>
            <path d="M121.4,53.6 C121.416592,53.23279 121.721998,52.9452379 122.089541,52.9507701 C122.457084,52.9563023 122.753698,53.2529159 122.760045,53.6204589 C122.764762,53.988002 122.47721,54.2934084 122.11,54.31 L101.91,69.11 C101.589481,69.0831968 101.347109,68.8084235 101.360522,68.4870652 C101.373935,68.1657069 101.638362,67.912087 101.96,67.912087 C102.281638,67.912087 102.546065,68.1657069 102.559478,68.4870652 C102.572891,68.8084235 102.330519,69.0831968 102.01,69.11 L85.7,69.11 C82.2,69.01 80.4,69.46 79.3,68.76 C81.5444919,69.384967 79.6153865,66.8015679 79.3,69.11 C78.9846135,71.4184321 81.6298771,68.76 79.3,68.76 C76.9701229,68.76 76.9701229,68.76 76.8,68.76 C76.6298771,68.76 74.5555081,68.534967 76.8,67.91 C75.1,63.11 72.8,48.01 72.7,47.31 C72.6100617,47.9395684 70.2685217,62.5872395 68.6,68.4870652 C68.4133377,69.1470957 68.7811099,67.4371019 68.6,67.91 C66.6932972,67.2946635 65.518023,65.3831948 65.8294774,63.4040154 C66.1409319,61.4248361 67.8464645,59.9667068 69.85,59.9667068 C71.8535355,59.9667068 69.5385455,61.4248361 69.85,63.4040154 C70.0675856,64.7866922 69.1287809,66.8424953 68.6,67.91 C68.3718779,68.3705337 69.174659,68.3016096 68.6,68.4870652 C67.5,69.1870652 68.2,69.01 64.7,69.11 L22.8,69.11 C23.0836195,69.1235258 23.3289779,69.3118534 23.4153691,69.5823337 C23.5017602,69.8528139 23.4109951,70.1484991 23.1877264,70.3239245 C22.9644577,70.4993499 22.6556929,70.517581 22.4133315,70.3696489 C22.1709701,70.2217167 22.0460393,69.9387673 22.1,69.66 L23.3,68.76 L58.5,42.66 L96.6,42.66 C96.7010414,42.3565477 96.9998934,42.164523 97.3178917,42.1987249 C97.6358899,42.2329269 97.8870731,42.4841101 97.9212751,42.8021083 C97.955477,43.1201066 97.7634523,43.4189586 97.46,43.52 L83.2,53.4 L121.4,53.6 Z" id="Path" fill="#FFFFFF"></path>
            <path d="M240.3,60.3 L230.3,68.1 L230.3,91 C230.3,91.6 230.3,91.5 230.9,91.5 L240.3,91.5 C240.9,91.5 240.9,91.4 240.9,91 L240.9,60.9 C240.9,60.3 240.9,60.3 240.3,60.3 M313.1,53.7 L304.1,53.7 C303.6,53.7 303.6,53.8 303.6,54.4 L303.6,71.1 C303.6,71.1 289,58.4 280.6,52.7 C280.3,52.5 279.9,53.1 279.9,53.1 L279.9,91 C279.9,91 280.1,91.6 280.5,91.6 L289.5,91.6 C290,91.6 290,91.6 290,91.1 L290,74 C290,74 304,86.1 313,92.4 C313.7,92.9 313.7,91.8 313.7,91.8 L313.7,54.3 C313.514929,54.4092861 313.285071,54.4092861 313.1,54.3 M274.2,83.4 L256.6,83.6 L256.6,77.1 L273.5,77.1 C274,77.1 274.1,77 274.1,76.3 L274.1,69.5 C274.1,68.8 274,68.7 273.5,68.7 L256.6,68.7 L256.6,62.4 L273.9,62.6 C274.3,62.6 274.5,62.3 274.5,61.9 L274.5,55.1 C274.5,54.4 274.4,54.4 273.9,54.4 L246.6,54.4 C246,54.4 246.1,54.5 246.1,55 L246.1,91.5 C246.1,92.2 246.2,92.3 246.8,92.3 L274.3,92.3 C274.9,92.3 275,92.2 275,91.5 L275,84.3 C274.9,83.4 274.9,83.4 274.2,83.4 M406.5,54.3 L397.5,54.3 C397,54.3 397,54.4 397,55 L397,71.7 C397,71.7 382.4,59 374,53.3 C373.7,53.1 373.3,53.7 373.3,53.7 L373.3,91 C373.3,91 373.5,91.6 373.9,91.6 L382.9,91.6 C383.4,91.6 383.4,91.6 383.4,91.1 L383.4,74 C383.4,74 397.4,86.1 406.4,92.4 C407.1,92.9 407.1,91.8 407.1,91.8 L407.1,54.3 C406.914929,54.4092861 406.685071,54.4092861 406.5,54.3 M367.6,83.4 L350,83 L350,76.5 L366.9,76.5 C367.4,76.5 367.5,76.4 367.5,75.7 L367.5,68.9 C367.5,68.2 367.4,68.1 366.9,68.1 L350,68.1 L350,61.8 L367.3,62 C367.7,62 367.9,61.7 367.9,61.3 L367.9,54.5 C367.9,53.8 367.8,53.8 367.3,53.8 L340,53.8 C339.4,53.8 339.4,53.9 339.4,54.4 L339.4,90.9 C339.4,91.6 339.5,91.7 340.1,91.7 L367.6,91.7 C368.2,91.7 368.3,91.6 368.3,90.9 L368.3,83.7 C368.3,82.8 368.3,82.8 367.6,82.8 M440.3,82.8 L422.7,83 L422.7,76.5 L439.6,76.5 C440.1,76.5 440.2,76.4 440.2,75.7 L440.2,68.9 C440.2,68.2 440.1,68.1 439.6,68.1 L422.7,68.1 L422.7,61.8 L440,62 C440.4,62 440.6,61.7 440.6,61.3 L440.6,54.5 C440.6,53.8 440.5,53.8 440,53.8 L412.7,53.8 C412.1,53.8 412.1,53.9 412.1,54.4 L412.1,90.9 C412.1,91.6 412.2,91.7 412.8,91.7 L440.3,91.7 C440.9,91.7 441,91.6 441,90.9 L441,83.7 C441,82.8 441,82.8 440.3,82.8 M473.8,76.7 C477.5,75.1 479.4,71.4 479.4,66.3 C479.4,59.5 474.5,53.5 465.2,53.5 L446.5,53.5 C446.3,53.5 446,53.4 446,54 L446,90.9 C446,91.5 446,91.4 446.5,91.4 L456.4,91.4 C456.8,91.4 456.9,91.3 456.9,90.9 L456.9,80.3 L463.9,80.2 C463.9,80.2 468.3,86.7 470.3,90.3 C470.8,91.3 471.1,91.4 471.6,91.4 L482.3,91.4 C483,91.4 483.2,91 482.4,89.9 C478.8,84.7 475.3,79.1 473.8,76.7 M462.9,72.7 L456.9,72.9 L456.9,61.9 L462.9,61.9 C466.4,61.9 468,64.2 468,67.1 C467.9,70.3 466.1,72.6 462.9,72.7 M535.1,53.6 L525.2,53.6 C524.7,53.6 524.7,53.5 524.7,54.1 L524.7,91 C524.7,91.6 524.7,91.5 525.2,91.5 L535.1,91.5 C535.6,91.5 535.7,91.4 535.7,91 L535.7,54.1 C535.7,53.6 535.6,53.6 535.1,53.6 M519.2,73.2 L510.3,73.2 C509.9,73.2 509.8,73.3 509.8,73.6 L509.8,82.3 C509.8,82.6 509.7,82.7 509.3,82.7 L504.6,82.7 C497.9,82.7 492.8,79.2 492.8,72.7 C492.8,66.5 497.2,61.7 504.5,61.7 L518.8,61.7 C519.3,61.7 519.4,61.6 519.4,61.2 L519.4,54 C519.4,53.5 519.3,53.5 518.8,53.5 L503.2,53.5 C491.6,53.5 481.8,60.6 481.8,72.6 C481.8,84.6 490.3,91.3 502.9,91.3 L519.1,91.3 C519.5,91.3 519.6,91.2 519.6,90.9 L519.6,73.5 C519.6,73.4 519.5,73.2 519.2,73.2 M568.9,82.8 L551.3,83 L551.3,76.5 L568.2,76.5 C568.7,76.5 568.8,76.4 568.8,75.7 L568.8,68.9 C568.8,68.2 568.7,68.1 568.2,68.1 L551.3,68.1 L551.3,61.8 L568.6,62 C569,62 569.2,61.7 569.2,61.3 L569.2,54.5 C569.2,53.8 569.1,53.8 568.6,53.8 L541.3,53.8 C540.7,53.8 540.7,53.9 540.7,54.4 L540.7,90.9 C540.7,91.6 540.8,91.7 541.4,91.7 L568.9,91.7 C569.5,91.7 569.6,91.6 569.6,90.9 L569.6,83.7 C569.6,82.8 569.6,82.8 568.9,82.8 M205.2,69.4 L204.2,70.2 L204.2,55.8 L185.7,70.3 L184.6,71.2 L184.6,53.4 L172.5,62.8 L172.5,91.9 L190.6,78 L191.6,77.2 L191.6,91.9 L240.9,53.4 L225.8,53.4 L205.2,69.4 Z" id="Shape" fill="#FFFFFF"></path>
        </g>
    </g>
</svg>