<?xml version="1.0" encoding="UTF-8"?>
<svg width="710px" height="128px" viewBox="0 0 710 128" version="1.1" xmlns="http://www.w3.org/2000/svg" xmlns:xlink="http://www.w3.org/1999/xlink">
    <!-- Generator: Sketch 61.2 (89653) - https://sketch.com -->
    <title>logo-rbi</title>
    <desc>Created with Sketch.</desc>
    <g id="Page-1" stroke="none" stroke-width="1" fill="none" fill-rule="evenodd">
        <g id="logo-rbi" fill-rule="nonzero">
            <polygon id="path50" fill="#000000" points="0.830426 122.7301 117.559916 122.7301 117.559916 7.50288 0.830426 7.50288"></polygon>
            <path d="M276.093746,0 C270.929386,0 266.642106,1.956 263.249996,5.875 C261.625786,7.7387 260.558136,9.76976 260.031246,11.96875 C259.700306,13.44926 259.531246,15.72444 259.531246,18.78125 L259.531246,23.4375 L254.937496,23.4375 L254.937496,34.1875 L259.531246,34.1875 L259.531246,60.21875 L272.562496,60.21875 L272.562496,34.1875 L281.687496,34.1875 L281.687496,23.4375 L272.562496,23.4375 L272.562496,17.46875 C272.562496,13.3538 274.080486,11.3125 277.093746,11.3125 C278.238976,11.3125 279.775906,11.71697 281.687496,12.53125 L281.687496,1.28125 C280.015396,0.42342 278.149046,0 276.093746,0 Z M303.562496,0 C298.402486,0 294.115206,1.956 290.718746,5.875 C289.094536,7.7387 287.995636,9.76976 287.468746,11.96875 C287.137806,13.44926 286.968746,15.72444 286.968746,18.78125 L286.968746,23.4375 L282.406246,23.4375 L282.406246,34.1875 L286.968746,34.1875 L286.968746,60.21875 L300.031246,60.21875 L300.031246,34.1875 L309.124996,34.1875 L309.124996,23.4375 L300.031246,23.4375 L300.031246,17.46875 C300.031246,13.3538 301.553566,11.3125 304.562496,11.3125 C305.712076,11.3125 307.213396,11.71697 309.124996,12.53125 L309.124996,1.28125 C307.452896,0.42342 305.617796,0 303.562496,0 Z M664.093746,0.6875 L664.093746,60.21875 L677.156246,60.21875 L677.156246,45.21875 L691.437496,60.21875 L709.749996,60.21875 L690.124996,40.4375 L708.562496,23.4375 L690.718746,23.4375 L677.156246,36.6875 L677.156246,0.6875 L664.093746,0.6875 Z M243.468746,2 C241.461356,2 239.749456,2.72365 238.312496,4.15625 C236.879886,5.58886 236.156246,7.3051 236.156246,9.3125 C236.156246,11.3199 236.879886,13.03179 238.312496,14.46875 C239.749456,15.90136 241.461356,16.625 243.468746,16.625 C245.476146,16.625 247.188036,15.90136 248.624996,14.46875 C250.057606,13.03179 250.781246,11.3199 250.781246,9.3125 C250.781246,7.3051 250.057606,5.58886 248.624996,4.15625 C247.188036,2.72365 245.476146,2 243.468746,2 Z M363.062496,2 C361.055096,2 359.338856,2.72365 357.906246,4.15625 C356.473636,5.58886 355.749996,7.3051 355.749996,9.3125 C355.749996,11.3199 356.473636,13.03179 357.906246,14.46875 C359.338856,15.90136 361.055096,16.625 363.062496,16.625 C365.069886,16.625 366.786136,15.90136 368.218746,14.46875 C369.655706,13.03179 370.374996,11.3199 370.374996,9.3125 C370.374996,7.3051 369.655706,5.58886 368.218746,4.15625 C366.786136,2.72365 365.069886,2 363.062496,2 Z M140.281246,6.15625 L140.281246,60.21875 L154.343746,60.21875 L154.343746,39.40625 L167.656246,60.21875 L185.249996,60.21875 L168.249996,38.0625 C171.977396,37.39626 174.911406,35.60062 177.062496,32.6875 C179.069896,29.96162 180.093746,26.65234 180.093746,22.78125 C180.093746,17.23369 178.271206,13.02148 174.687496,10.15625 C171.391186,7.47826 166.920256,6.15625 161.281246,6.15625 L140.281246,6.15625 Z M520.624996,6.15625 L520.624996,60.21875 L542.281246,60.21875 C547.872376,60.21875 552.384746,59.1096 555.781246,56.90625 C559.839616,54.32406 561.843746,50.41641 561.843746,45.15625 C561.843746,36.93506 558.175866,32.33299 550.812496,31.375 L550.812496,31.25 C554.783746,29.2426 556.781246,25.57036 556.781246,20.21875 C556.781246,10.84799 551.421876,6.15625 540.718746,6.15625 L520.624996,6.15625 Z M154.343746,16.90625 L155.687496,16.90625 C162.188676,16.90625 165.437496,19.16681 165.437496,23.65625 C165.437496,28.15439 162.188666,30.375 155.687496,30.375 L154.343746,30.375 L154.343746,16.90625 Z M534.687496,16.90625 L535.687496,16.90625 C538.221876,16.90625 540.073496,17.16061 541.218746,17.6875 C542.986616,18.44954 543.874996,19.93036 543.874996,22.125 C543.874996,25.6129 541.314126,27.375 536.249996,27.375 L534.687496,27.375 L534.687496,16.90625 Z M204.249996,22.21875 C198.894036,22.21875 194.466136,24.1143 190.999996,27.9375 C187.533856,31.76506 185.812496,36.38174 185.812496,41.78125 C185.812496,47.1851 187.557166,51.7872 191.062496,55.5625 C194.615716,59.4815 199.091006,61.4375 204.468746,61.4375 C209.707146,61.4375 213.448536,59.6608 215.656246,56.125 L215.656246,60.21875 L228.687496,60.21875 L228.687496,23.4375 L215.656246,23.4375 L215.656246,27.03125 C212.930356,23.82637 209.126966,22.21875 204.249996,22.21875 Z M330.781246,22.21875 C324.706796,22.21875 319.816026,23.95471 316.062496,27.46875 C312.308956,30.98279 310.437496,35.80055 310.437496,41.875 C310.437496,48.04089 312.468546,52.87045 316.531246,56.40625 C320.354436,59.75046 325.409156,61.4375 331.718746,61.4375 C336.212536,61.4375 340.124536,60.39904 343.468746,58.34375 C347.104706,56.09685 349.431616,52.9231 350.437496,48.8125 L337.906246,48.8125 C336.565086,51.0594 334.477916,52.1875 331.656246,52.1875 C326.208836,52.1875 323.468746,49.4474 323.468746,44 L350.937496,44 L350.937496,42.65625 C350.937496,36.34668 349.160796,31.34524 345.624996,27.6875 C342.089186,24.03412 337.138736,22.21875 330.781246,22.21875 Z M394.468746,22.21875 C390.066406,22.21875 386.357026,23.27616 383.343746,25.375 C379.947286,27.72205 378.249996,30.99571 378.249996,35.25 C378.249996,39.02965 379.682666,41.76974 382.499996,43.4375 C383.597306,44.06017 386.212146,44.86912 390.374996,45.875 C393.192306,46.54122 394.593746,47.59864 394.593746,49.03125 C394.593746,49.94133 394.141116,50.66061 393.187496,51.1875 C392.421106,51.61859 391.532766,51.8125 390.531246,51.8125 C387.182686,51.8125 383.727646,50.58449 380.187496,48.09375 L375.468746,57.21875 C380.058316,60.04043 385.008786,61.4375 390.312496,61.4375 C395.045766,61.4375 399.018116,60.36984 402.218746,58.21875 C405.850246,55.73236 407.656246,52.23943 407.656246,47.75 C407.656246,41.9194 404.088236,38.27636 396.968746,36.84375 C394.909096,36.41265 393.710286,36.16262 393.374996,36.0625 C391.846586,35.48771 391.093746,34.67443 391.093746,33.625 C391.093746,32.81073 391.592226,32.16649 392.593746,31.6875 C393.355766,31.30431 394.229516,31.09375 395.187496,31.09375 C397.621636,31.09375 399.971746,31.71312 402.218746,32.90625 L406.593746,24.59375 C403.101496,23.01309 399.054026,22.21875 394.468746,22.21875 Z M431.906246,22.21875 C425.831866,22.21875 420.905366,23.95471 417.156246,27.46875 C413.402746,30.98279 411.531246,35.80055 411.531246,41.875 C411.531246,48.04089 413.557996,52.87045 417.624996,56.40625 C421.448246,59.75046 426.498616,61.4375 432.812496,61.4375 C437.301866,61.4375 441.249496,60.39904 444.593746,58.34375 C448.225376,56.09685 450.529746,52.9231 451.531246,48.8125 L438.999996,48.8125 C437.663246,51.0594 435.571626,52.1875 432.749996,52.1875 C427.302626,52.1875 424.562496,49.4474 424.562496,44 L452.031246,44 L452.031246,42.65625 C452.031246,36.34668 450.258876,31.34524 446.718746,27.6875 C443.182866,24.03413 438.259366,22.21875 431.906246,22.21875 Z M482.499996,22.21875 C477.309496,22.21875 473.378496,24.18936 470.687496,28.15625 L470.687496,23.4375 L457.624996,23.4375 L457.624996,60.21875 L470.687496,60.21875 L470.687496,41.15625 C470.687496,35.46935 472.958366,32.625 477.499996,32.625 C480.269496,32.625 482.060746,33.78668 482.874996,36.125 C483.210366,37.17878 483.374996,39.22442 483.374996,42.28125 L483.374996,60.21875 L496.406246,60.21875 L496.406246,37.46875 C496.406246,27.28806 491.779376,22.21875 482.499996,22.21875 Z M584.374996,22.21875 C579.018996,22.21875 574.622366,24.1143 571.156246,27.9375 C567.689996,31.76506 565.937496,36.38174 565.937496,41.78125 C565.937496,47.1851 567.713496,51.7872 571.218746,55.5625 C574.771996,59.4815 579.215996,61.4375 584.593746,61.4375 C589.832126,61.4375 593.573616,59.6608 595.781246,56.125 L595.781246,60.21875 L608.812496,60.21875 L608.812496,23.4375 L595.781246,23.4375 L595.781246,27.03125 C593.055376,23.82637 589.251996,22.21875 584.374996,22.21875 Z M641.937496,22.21875 C636.747116,22.21875 632.815996,24.18936 630.124996,28.15625 L630.124996,23.4375 L617.062496,23.4375 L617.062496,60.21875 L630.124996,60.21875 L630.124996,41.15625 C630.124996,35.46935 632.395746,32.625 636.937496,32.625 C639.706866,32.625 641.498126,33.78667 642.312496,36.125 C642.643366,37.17877 642.812496,39.22442 642.812496,42.28125 L642.812496,60.21875 L655.843746,60.21875 L655.843746,37.46875 C655.843746,27.28806 651.212496,22.21875 641.937496,22.21875 Z M236.937496,23.4375 L236.937496,60.21875 L249.999996,60.21875 L249.999996,23.4375 L236.937496,23.4375 Z M356.531246,23.4375 L356.531246,60.21875 L369.593746,60.21875 L369.593746,23.4375 L356.531246,23.4375 Z M331.437496,30.6875 C333.253306,30.6875 334.865286,31.2057 336.249996,32.28125 C337.639076,33.3568 338.477206,34.74875 338.812496,36.46875 L323.687496,36.46875 C324.497426,32.59765 327.087406,30.6875 331.437496,30.6875 Z M432.531246,30.6875 C434.346996,30.6875 435.959116,31.2057 437.343746,32.28125 C438.728496,33.3568 439.570996,34.74875 439.906246,36.46875 L424.781246,36.46875 C425.591246,32.59765 428.181116,30.6875 432.531246,30.6875 Z M207.687496,33.53125 C210.269686,33.53125 212.305856,34.33941 213.812496,35.9375 C215.319136,37.54429 216.062496,39.5323 216.062496,41.875 C216.062496,44.26559 215.319136,46.23107 213.812496,47.78125 C212.305856,49.34014 210.269686,50.09375 207.687496,50.09375 C205.105306,50.09375 203.069136,49.34014 201.562496,47.78125 C200.060206,46.23107 199.281246,44.26559 199.281246,41.875 C199.281246,39.5323 200.060206,37.54429 201.562496,35.9375 C203.069136,34.33941 205.105306,33.53125 207.687496,33.53125 Z M587.812496,33.53125 C590.394626,33.53125 592.430866,34.33941 593.937496,35.9375 C595.444126,37.54429 596.218746,39.5323 596.218746,41.875 C596.218746,44.26559 595.444126,46.23108 593.937496,47.78125 C592.430866,49.34014 590.394626,50.09375 587.812496,50.09375 C585.230246,50.09375 583.194126,49.34014 581.687496,47.78125 C580.185116,46.23108 579.437496,44.26559 579.437496,41.875 C579.437496,39.5323 580.185116,37.54429 581.687496,35.9375 C583.194126,34.33941 585.230246,33.53125 587.812496,33.53125 Z M534.687496,37.84375 L536.124996,37.84375 C539.948246,37.84375 542.458746,38.01281 543.656246,38.34375 C546.334116,39.11449 547.656246,40.89707 547.656246,43.71875 C547.656246,46.29657 546.334116,47.99822 543.656246,48.8125 C542.223626,49.23924 539.812876,49.46875 536.468746,49.46875 L534.687496,49.46875 L534.687496,37.84375 Z M552.624996,70.1875 L552.624996,126.3125 L562.812496,126.3125 L562.812496,70.1875 L552.624996,70.1875 Z M410.156246,75.15625 C406.859866,75.15625 404.093746,77.83305 404.093746,81.125 C404.093746,84.42131 406.938246,87.03125 410.156246,87.03125 C413.452496,87.03125 416.124996,84.42131 416.124996,81.125 C416.124996,77.83305 413.452496,75.15625 410.156246,75.15625 Z M140.249996,75.24995 L140.249996,126.31245 L151.124996,126.31245 L151.124996,75.24995 L140.249996,75.24995 Z M204.124996,81.81245 L204.124996,92.99995 L200.437496,92.99995 L200.437496,101.74995 L204.124996,101.74995 L204.124996,126.31245 L214.312496,126.31245 L214.312496,101.74995 L220.812496,101.74995 L220.812496,92.99995 L214.312496,92.99995 L214.312496,81.81245 L204.124996,81.81245 Z M383.656246,81.81245 L383.656246,92.99995 L379.968746,92.99995 L379.968746,101.74995 L383.656246,101.74995 L383.656246,126.31245 L393.843746,126.31245 L393.843746,101.74995 L400.343746,101.74995 L400.343746,92.99995 L393.843746,92.99995 L393.843746,81.81245 L383.656246,81.81245 Z M181.531246,92.0937 C177.394516,92.0937 173.169296,93.84786 171.562496,97.9062 L171.562496,92.99995 L161.374996,92.99995 L161.374996,126.31245 L171.562496,126.31245 L171.562496,109.1562 C171.562496,104.48389 172.858436,100.6562 178.218746,100.6562 C183.121846,100.6562 184.062496,103.64833 184.062496,107.93745 L184.062496,126.31245 L194.249996,126.31245 L194.249996,105.3437 C194.249996,101.82096 193.935656,98.91256 191.562496,96.1562 C189.110946,93.32146 185.206396,92.0937 181.531246,92.0937 Z M241.874996,92.0937 C231.228386,92.0937 224.031246,98.96682 224.031246,109.68745 C224.031246,120.63887 231.529356,127.4062 242.249996,127.4062 C250.140246,127.4062 256.126326,123.8815 259.187496,116.5312 L249.781246,115.06245 C248.017696,117.89719 245.569356,119.74995 242.124996,119.74995 C237.221896,119.74995 234.668286,116.21888 234.437496,111.62495 L259.281246,111.62495 L259.281246,109.99995 C259.281246,99.20094 252.826406,92.0937 241.874996,92.0937 Z M286.156246,92.0937 C282.324346,92.0937 279.189506,93.84068 276.968746,96.9062 L276.968746,92.99995 L266.781246,92.99995 L266.781246,126.31245 L276.968746,126.31245 L276.968746,110.4062 C276.968746,105.19828 278.572836,101.12495 284.468746,101.12495 C286.306326,101.12495 287.674456,101.65954 289.281246,102.49995 L290.749996,92.99995 C289.295606,92.46435 287.763036,92.0937 286.156246,92.0937 Z M315.781246,92.0937 C311.644516,92.0937 307.450536,93.84786 305.843746,97.9062 L305.843746,92.99995 L295.656246,92.99995 L295.656246,126.31245 L305.843746,126.31245 L305.843746,109.1562 C305.843746,104.48389 307.139686,100.6562 312.499996,100.6562 C317.403096,100.6562 318.312496,103.64832 318.312496,107.93745 L318.312496,126.31245 L328.499996,126.31245 L328.499996,105.3437 C328.499996,101.82096 328.216926,98.91256 325.843746,96.1562 C323.392196,93.32146 319.456396,92.0937 315.781246,92.0937 Z M352.781246,92.0937 C342.748606,92.0937 335.781246,99.88561 335.781246,109.68745 C335.781246,120.02925 342.213006,127.4062 352.781246,127.4062 C356.765556,127.4062 360.607096,125.55779 362.906246,122.18745 L362.906246,126.31245 L373.156246,126.31245 L373.156246,92.99995 L362.906246,92.99995 L362.906246,97.2812 C360.380676,93.83249 357.070366,92.0937 352.781246,92.0937 Z M440.718746,92.0937 C429.919746,92.0937 422.343746,98.67738 422.343746,109.7812 C422.343746,120.811 429.825996,127.4062 440.624996,127.4062 C451.349996,127.4062 458.874996,120.56049 458.874996,109.68745 C458.874996,98.81005 451.439366,92.0937 440.718746,92.0937 Z M486.374996,92.0937 C482.242616,92.0937 478.012996,93.84786 476.406246,97.9062 L476.406246,92.99995 L466.218746,92.99995 L466.218746,126.31245 L476.406246,126.31245 L476.406246,109.1562 C476.406246,104.48389 477.702246,100.6562 483.062496,100.6562 C487.965626,100.6562 488.906246,103.64832 488.906246,107.93745 L488.906246,126.31245 L499.093746,126.31245 L499.093746,105.3437 C499.093746,101.82096 498.779376,98.91256 496.406246,96.1562 C493.954616,93.32146 490.054496,92.0937 486.374996,92.0937 Z M523.374996,92.0937 C513.342366,92.0937 506.343746,99.88561 506.343746,109.68745 C506.343746,120.02925 512.806866,127.4062 523.374996,127.4062 C527.359376,127.4062 531.169616,125.55779 533.468746,122.18745 L533.468746,126.31245 L543.749996,126.31245 L543.749996,92.99995 L533.468746,92.99995 L533.468746,97.2812 C530.943246,93.83249 527.664126,92.0937 523.374996,92.0937 Z M405.031246,92.99995 L405.031246,126.31245 L415.218746,126.31245 L415.218746,92.99995 L405.031246,92.99995 Z M242.031246,99.2187 C246.167976,99.2187 248.303806,101.4224 249.374996,105.24995 L234.843746,105.24995 C235.762536,101.4224 237.972906,99.2187 242.031246,99.2187 Z M354.781246,101.12495 C359.610316,101.12495 362.968746,104.94111 362.968746,109.68745 C362.968746,114.43815 359.684346,118.3437 354.781246,118.3437 C349.960886,118.3437 346.437496,114.43815 346.437496,109.68745 C346.437496,104.94111 349.960886,101.12495 354.781246,101.12495 Z M440.562496,101.12495 C445.844496,101.12495 448.374996,104.80408 448.374996,109.7812 C448.374996,114.6843 445.691996,118.3437 440.562496,118.3437 C435.580996,118.3437 432.843746,114.45352 432.843746,109.7812 C432.843746,104.95648 435.432996,101.12495 440.562496,101.12495 Z M525.343746,101.12495 C530.168496,101.12495 533.562496,104.94111 533.562496,109.68745 C533.562496,114.43814 530.246866,118.3437 525.343746,118.3437 C520.518996,118.3437 516.999996,114.43814 516.999996,109.68745 C516.999996,104.94111 520.518996,101.12495 525.343746,101.12495 Z M-1.42108547e-14,5.71876 L-1.42108547e-14,126.00001 L120.249996,126.06251 L120.218796,5.71876 L-1.42108547e-14,5.71876 L-1.42108547e-14,5.71876 Z M3.218746,9.12501 L116.843746,9.12501 L116.750046,122.71876 L3.218746,122.68756 L3.218746,9.12501 L3.218746,9.12501 Z M27.468746,16.75001 C23.864786,16.59324 19.745656,17.82788 15.624996,21.84376 C7.225276,30.03446 6.531246,40.49621 6.531246,43.53126 L11.124996,38.81251 L28.781246,56.50001 L33.718746,51.59376 L33.718746,39.96876 L38.749996,45.00001 L38.749996,59.06251 L45.812496,66.09376 L9.937496,101.93751 L24.093746,116.06251 L59.937496,80.34376 L96.124996,116.46876 L110.281246,102.31251 L74.062496,66.09376 L81.124996,59.09376 L81.124996,45.00001 L86.156246,39.96876 L86.156246,51.65626 L91.093746,56.50001 L108.749996,38.81251 L113.531246,43.53126 C113.531246,40.48751 112.654066,30.03446 104.249996,21.84376 C94.835696,12.6646 85.400306,18.04156 82.156246,21.28126 L65.093746,38.34376 L69.343746,42.56251 L59.937496,51.93751 L50.531246,42.56251 L54.781246,38.34376 L37.718746,21.28126 C35.891516,19.45893 32.102416,16.95157 27.468746,16.75001 L27.468746,16.75001 Z" id="path206" fill="#FFFFFF"></path>
        </g>
    </g>
</svg>