<?xml version="1.0" encoding="UTF-8"?>
<svg width="1042px" height="460px" viewBox="0 0 1042 460" version="1.1" xmlns="http://www.w3.org/2000/svg" xmlns:xlink="http://www.w3.org/1999/xlink">
    <!-- Generator: Sketch 61.2 (89653) - https://sketch.com -->
    <title>lc-logo_full</title>
    <desc>Created with Sketch.</desc>
    <g id="Page-1" stroke="none" stroke-width="1" fill="none" fill-rule="evenodd">
        <g id="lc-logo_full" transform="translate(0.000000, -1.000000)" fill="#FFFFFF">
            <g id="g10" transform="translate(521.499999, 230.500007) scale(-1, 1) rotate(-180.000000) translate(-521.499999, -230.500007) translate(-0.000001, 0.000007)">
                <g id="g12" transform="translate(0.666667, 0.533333)">
                    <polyline id="path16" fill-rule="nonzero" points="137.78933 188.917329 194.930662 188.917329 194.930662 201.951995 152.102663 201.951995 152.102663 270.381327 137.78933 270.381327 137.78933 188.917329"></polyline>
                    <polyline id="path18" points="212.705328 236.398661 212.705328 188.917329 273.68666 188.917329 273.68666 201.718662 227.018661 201.718662 227.018661 223.598661 267.86666 223.598661 267.86666 236.398661 250.573327 236.398661 227.018661 236.398661 212.705328 236.398661"></polyline>
                    <polygon id="path20" points="212.705328 270.381327 212.705328 257.581327 239.63904 257.581327 273.103993 257.581327 273.103993 270.381327"></polygon>
                    <path d="M322.415992,270.96266 L286.573326,188.917329 L301.235992,188.917329 C315.371992,222.097328 313.875992,218.993328 328.817325,253.855994 C343.714658,219.383995 342.569325,221.838661 356.398658,188.917329 L371.527991,188.917329 L335.682658,270.96266 L322.415992,270.96266 Z" id="path22" opacity="0.99"></path>
                    <polyline id="path24" fill-rule="nonzero" points="445.278656 214.054661 401.638657 270.381327 388.370657 270.381327 388.370657 188.917329 402.453323 188.917329 402.453323 246.873327 447.373322 188.917329 459.361322 188.917329 459.361322 270.381327 445.278656 270.381327 445.278656 214.054661"></polyline>
                    <polyline id="path26" fill-rule="nonzero" points="513.67732 217.662661 513.67732 231.511994 479.229321 231.511994 479.229321 217.662661 513.67732 217.662661"></polyline>
                    <path d="M604.419985,201.951995 L595.226652,211.261328 C591.735985,208.002661 588.203985,205.423995 584.635985,203.523995 C581.066652,201.622662 576.799986,200.671995 571.834652,200.671995 C567.954652,200.671995 564.367986,201.427995 561.070653,202.941328 C557.773319,204.454662 554.921319,206.529328 552.51732,209.166661 C550.110653,211.805328 548.24932,214.889328 546.930653,218.418661 C545.610653,221.949328 544.950653,225.731994 544.950653,229.765328 C544.950653,233.799994 545.610653,237.563994 546.930653,241.054661 C548.24932,244.546661 550.110653,247.59066 552.51732,250.19066 C554.921319,252.789327 557.773319,254.845327 561.070653,256.35866 C564.367986,257.87066 567.954652,258.627994 571.834652,258.627994 C576.489319,258.627994 580.639985,257.695994 584.287985,255.83466 C587.933319,253.971994 591.386652,251.527994 594.643985,248.503994 L603.838652,259.093327 C601.898652,260.95466 599.842652,262.66266 597.670652,264.21466 C595.497318,265.763993 593.131985,267.10266 590.571985,268.229327 C588.010652,269.353327 585.198652,270.22666 582.134652,270.847993 C579.069319,271.467993 575.674652,271.77866 571.950652,271.77866 C565.745319,271.77866 560.081319,270.673327 554.959986,268.461327 C549.838653,266.25066 545.41732,263.223993 541.69332,259.383994 C537.967987,255.543994 535.078653,251.06266 533.022653,245.942661 C530.966653,240.821327 529.938653,235.351994 529.938653,229.533328 C529.938653,223.637328 530.98532,218.127995 533.08132,213.007995 C535.175987,207.887995 538.066653,203.445328 541.751986,199.682662 C545.435986,195.919995 549.799986,192.951995 554.843986,190.779995 C559.886653,188.606662 565.395986,187.521329 571.369319,187.521329 C575.171986,187.521329 578.641319,187.850662 581.785319,188.510662 C584.927985,189.169329 587.817319,190.139995 590.454652,191.418662 C593.093319,192.699995 595.555985,194.211995 597.845318,195.958662 C600.133318,197.703995 602.325318,199.702662 604.419985,201.951995" id="path28" fill-rule="nonzero"></path>
                    <path d="M701.563982,229.765328 C701.563982,235.506661 700.517316,240.938661 698.421316,246.058661 C696.326649,251.17866 693.417316,255.639994 689.693316,259.441327 C685.969316,263.243993 681.507983,266.25066 676.309316,268.461327 C671.111983,270.673327 665.37065,271.77866 659.085317,271.77866 C652.801317,271.77866 647.059984,270.651993 641.861317,268.403993 C636.663984,266.153327 632.163984,263.107993 628.362651,259.26666 C624.559984,255.42666 621.611984,250.947994 619.517318,245.825327 C617.422651,240.705327 616.375985,235.274661 616.375985,229.533328 C616.375985,223.791994 617.422651,218.361328 619.517318,213.239995 C621.611984,208.119995 624.522651,203.658662 628.245318,199.857328 C631.970651,196.055995 636.430651,193.049329 641.629317,190.838662 C646.827984,188.626662 652.569317,187.521329 658.853317,187.521329 C665.13865,187.521329 670.87865,188.645329 676.077316,190.895995 C681.27465,193.145329 685.77465,196.191995 689.577316,200.031995 C693.378649,203.871995 696.326649,208.351995 698.421316,213.473328 C700.517316,218.593328 701.563982,224.023994 701.563982,229.765328 Z M686.551983,229.533328 C686.551983,225.575994 685.873316,221.833328 684.51465,218.302661 C683.155983,214.773328 681.27465,211.709328 678.87065,209.109328 C676.465316,206.510662 673.57465,204.454662 670.199983,202.941328 C666.823983,201.427995 663.119983,200.671995 659.085317,200.671995 C655.051984,200.671995 651.327984,201.447995 647.913317,202.999995 C644.501317,204.551995 641.571984,206.646662 639.127984,209.283995 C636.683984,211.921328 634.782651,215.006661 633.425317,218.535995 C632.066651,222.065328 631.387984,225.807994 631.387984,229.765328 C631.387984,233.723994 632.066651,237.466661 633.425317,240.995994 C634.782651,244.526661 636.663984,247.59066 639.069317,250.19066 C641.474651,252.789327 644.363984,254.845327 647.73865,256.35866 C651.113317,257.87066 654.81865,258.627994 658.853317,258.627994 C662.887984,258.627994 666.611983,257.851994 670.025317,256.299994 C673.43865,254.747994 676.367983,252.653327 678.811983,250.01466 C681.255983,247.377327 683.155983,244.293327 684.51465,240.763994 C685.873316,237.233327 686.551983,233.489327 686.551983,229.533328" id="path30" fill-rule="nonzero"></path>
                    <path d="M795.44798,229.765328 C795.44798,235.506661 794.39998,240.861327 792.305314,245.825327 C790.210647,250.791994 787.242647,255.097327 783.402647,258.743994 C779.562647,262.39066 774.985314,265.239993 769.671981,267.297327 C764.355981,269.353327 758.518648,270.381327 752.155981,270.381327 L721.781315,270.381327 L721.781315,188.917329 L752.155981,188.917329 C758.518648,188.917329 764.355981,189.965329 769.671981,192.059995 C774.985314,194.154662 779.562647,197.025328 783.402647,200.671995 C787.242647,204.318662 790.210647,208.642661 792.305314,213.647995 C794.39998,218.651995 795.44798,224.023994 795.44798,229.765328 L795.44798,229.765328 Z M780.43598,229.533328 C780.43598,225.499994 779.757314,221.793328 778.399981,218.418661 C777.041314,215.045328 775.141314,212.134661 772.697314,209.690661 C770.253314,207.247995 767.285314,205.346662 763.794648,203.987995 C760.302648,202.630662 756.423981,201.951995 752.155981,201.951995 L736.095982,201.951995 L736.095982,257.347994 L752.155981,257.347994 C756.423981,257.347994 760.302648,256.647994 763.794648,255.251994 C767.285314,253.855994 770.253314,251.915994 772.697314,249.433327 C775.141314,246.951995 777.041314,244.022661 778.399981,240.646661 C779.757314,237.271994 780.43598,233.567994 780.43598,229.533328" id="path32" fill-rule="nonzero"></path>
                    <polyline id="path34" points="815.666646 236.398661 815.666646 188.917329 876.649311 188.917329 876.649311 201.718662 829.981313 201.718662 829.981313 223.598661 870.829312 223.598661 870.829312 236.398661 854.401312 236.398661 829.981313 236.398661 815.666646 236.398661"></polyline>
                    <polyline id="path36" points="876.066645 270.381327 815.666646 270.381327 815.666646 257.581327 876.066645 257.581327 876.066645 270.381327"></polyline>
                    <path d="M965.645309,188.917329 L943.650643,219.757328 C946.52131,220.533328 949.139976,221.639994 951.50531,223.074661 C953.871976,224.509328 955.907976,226.254661 957.615976,228.311994 C959.322643,230.367994 960.661309,232.733328 961.630643,235.409327 C962.599976,238.086661 963.085309,241.131994 963.085309,244.546661 C963.085309,248.503994 962.387976,252.09066 960.990643,255.311994 C959.594643,258.53066 957.595976,261.24666 954.997309,263.457327 C952.39731,265.669327 949.21731,267.375993 945.454643,268.57866 C941.691976,269.779993 937.482643,270.381327 932.827977,270.381327 L896.517311,270.381327 L896.517311,188.917329 L910.831977,188.917329 L910.831977,217.314661 L928.754643,217.314661 L948.771976,188.917329 L965.645309,188.917329 Z M948.538643,243.730661 C948.538643,239.541327 947.026643,236.205327 943.999976,233.723994 C940.97331,231.239994 936.899977,229.997328 931.779977,229.997328 L910.831977,229.997328 L910.831977,257.347994 L931.662643,257.347994 C937.01731,257.347994 941.167976,256.203994 944.115976,253.91466 C947.063976,251.625327 948.538643,248.23066 948.538643,243.730661" id="path38" fill-rule="nonzero"></path>
                    <path d="M995.638642,249.085327 C995.638642,251.799994 996.802642,254.107994 999.130642,256.009327 C1001.45864,257.909327 1004.71597,258.859994 1008.90531,258.859994 C1012.63064,258.859994 1016.31597,258.14266 1019.96131,256.707994 C1023.60931,255.271994 1027.29464,253.195994 1031.01731,250.481327 L1038.69864,261.303993 C1034.50931,264.639993 1030.02797,267.181327 1025.25731,268.92666 C1020.48531,270.673327 1015.11331,271.545327 1009.13997,271.545327 C1005.10531,271.545327 1001.37997,270.98266 997.966642,269.857327 C994.551975,268.731993 991.623975,267.12266 989.179975,265.027993 C986.735975,262.933327 984.815975,260.43066 983.418642,257.521327 C982.022642,254.613327 981.323975,251.373327 981.323975,247.805327 C981.323975,244.002661 981.926642,240.782661 983.129309,238.145327 C984.331975,235.506661 986.077309,233.257328 988.366642,231.394661 C990.654642,229.533328 993.486642,227.981328 996.861308,226.739994 C1000.23597,225.499994 1004.09597,224.373328 1008.44131,223.363994 C1012.24264,222.434661 1015.32664,221.542661 1017.69331,220.687994 C1020.05864,219.834661 1021.92131,218.923995 1023.27864,217.953328 C1024.63731,216.983995 1025.56797,215.917328 1026.07197,214.753329 C1026.57597,213.589328 1026.82797,212.270661 1026.82797,210.795995 C1026.82797,207.615995 1025.52931,205.094662 1022.92931,203.231995 C1020.33064,201.369328 1016.81997,200.438662 1012.39731,200.438662 C1007.27731,200.438662 1002.69997,201.350662 998.665308,203.174662 C994.630642,204.997328 990.635975,207.615995 986.678642,211.029328 L978.066642,200.787995 C982.954642,196.366662 988.269309,193.087995 994.009308,190.954662 C999.751975,188.819995 1005.76397,187.753329 1012.04797,187.753329 C1016.31597,187.753329 1020.23331,188.297329 1023.80264,189.383995 C1027.37197,190.469329 1030.43597,192.059995 1032.99731,194.154662 C1035.55597,196.249328 1037.55464,198.810662 1038.98931,201.835995 C1040.42531,204.861328 1041.14264,208.314661 1041.14264,212.193328 C1041.14264,215.606661 1040.57997,218.574661 1039.45597,221.094661 C1038.32931,223.617328 1036.68131,225.829328 1034.50931,227.727994 C1032.33731,229.629328 1029.60264,231.239994 1026.30397,232.558661 C1023.00664,233.878661 1019.22531,235.081327 1014.95731,236.166661 C1011.07864,237.097327 1007.87864,237.989327 1005.35731,238.842661 C1002.83597,239.697327 1000.85731,240.626661 999.421308,241.635994 C997.986642,242.645327 996.997308,243.730661 996.453308,244.894661 C995.910642,246.058661 995.638642,247.455994 995.638642,249.085327" id="path40" fill-rule="nonzero"></path>
                    <polyline id="path42" points="445.739989 445.727989 445.739989 281.829326 459.282655 281.829326 459.282655 459.269322 0.0442666656 459.269322 0.0442666656 0.0306666659 459.282655 0.0306666659 459.282655 177.470662 445.739989 177.470662 445.739989 13.573333 13.5859997 13.573333 13.5859997 445.727989 445.739989 445.727989"></polyline>
                    <path d="M501.597321,153.08133 L498.551988,156.085329 C497.743988,155.278663 496.887988,154.618663 495.985321,154.103996 C495.081321,153.590663 494.030654,153.331996 492.833321,153.331996 C491.859988,153.331996 490.969321,153.519996 490.162654,153.894663 C489.355988,154.271996 488.659988,154.778663 488.075988,155.417329 C487.491988,156.058663 487.039988,156.809329 486.721321,157.671996 C486.399988,158.533329 486.239988,159.466663 486.239988,160.467996 C486.239988,161.441329 486.399988,162.351996 486.721321,163.201329 C487.039988,164.050663 487.478654,164.793329 488.034654,165.433329 C488.591988,166.073329 489.259988,166.581329 490.037321,166.957329 C490.817321,167.331996 491.665321,167.521329 492.583988,167.521329 C493.862654,167.521329 494.941321,167.263996 495.817321,166.747996 C496.694654,166.233329 497.521321,165.573329 498.301321,164.766663 L501.430654,168.146662 C500.401321,169.286662 499.197321,170.205329 497.819988,170.899996 C496.443988,171.595996 494.711988,171.943996 492.626654,171.943996 C490.983988,171.943996 489.459988,171.637329 488.055988,171.026662 C486.650655,170.414662 485.441321,169.579996 484.425321,168.522662 C483.409321,167.463996 482.617321,166.241329 482.046655,164.850663 C481.475988,163.458663 481.190655,161.970663 481.190655,160.383996 C481.190655,158.799996 481.475988,157.317329 482.046655,155.939996 C482.617321,154.562663 483.409321,153.353329 484.425321,152.310663 C485.441321,151.266663 486.643988,150.446663 488.034654,149.847996 C489.426654,149.24933 490.942654,148.950663 492.583988,148.950663 C494.726654,148.950663 496.491988,149.33333 497.883988,150.098663 C499.274654,150.862663 500.513321,151.85733 501.597321,153.08133 L501.597321,153.08133 Z M511.278654,157.838663 C511.278654,159.285329 511.459987,160.558663 511.822654,161.657329 C512.183987,162.757329 512.697321,163.667996 513.366654,164.390663 C514.03332,165.114663 514.826654,165.657329 515.743987,166.018663 C516.66132,166.379996 517.67732,166.561329 518.790654,166.561329 L519.082654,166.561329 L519.082654,171.902662 C517.134654,171.985329 515.522654,171.526662 514.24132,170.525329 C512.961321,169.523996 511.974654,168.189329 511.278654,166.518663 L511.278654,171.483996 L506.229321,171.483996 L506.229321,149.450663 L511.278654,149.450663 L511.278654,157.838663 Z M526.55332,158.674663 L542.74532,158.674663 C542.771986,158.923996 542.794653,159.161329 542.807986,159.383996 C542.822653,159.606663 542.82932,159.829329 542.82932,160.050663 C542.82932,161.635996 542.606653,163.151996 542.16132,164.599996 C541.715986,166.045329 541.055986,167.311996 540.178653,168.395996 C539.302653,169.482662 538.203987,170.343996 536.882653,170.983996 C535.559987,171.623996 534.023987,171.943996 532.271987,171.943996 C530.68532,171.943996 529.238653,171.637329 527.930653,171.026662 C526.622654,170.414662 525.48932,169.586662 524.530654,168.542662 C523.570654,167.499996 522.82532,166.282663 522.29732,164.890663 C521.767987,163.499996 521.50532,162.011996 521.50532,160.426663 C521.50532,158.702663 521.795987,157.135996 522.379987,155.731996 C522.96532,154.326663 523.763987,153.123996 524.779987,152.12133 C525.795987,151.119996 526.991987,150.342663 528.36932,149.78533 C529.74532,149.227996 531.227987,148.950663 532.81332,148.950663 C534.843987,148.950663 536.590653,149.326663 538.050653,150.075996 C539.510653,150.827996 540.76932,151.830663 541.826653,153.08133 L538.863987,155.710663 C537.97332,154.849329 537.06932,154.194663 536.150653,153.749329 C535.23332,153.303996 534.14932,153.08133 532.89732,153.08133 C531.254653,153.08133 529.863987,153.561329 528.723987,154.521329 C527.582653,155.481329 526.859987,156.865329 526.55332,158.674663 L526.55332,158.674663 Z M526.511987,162.011996 C526.734653,163.735996 527.35332,165.134663 528.36932,166.206663 C529.38532,167.277329 530.671987,167.811996 532.227987,167.811996 C533.063987,167.811996 533.807987,167.659996 534.46132,167.351996 C535.114653,167.047996 535.678653,166.637329 536.150653,166.122663 C536.623987,165.606663 537.00132,164.994663 537.278653,164.286663 C537.555987,163.577329 537.73732,162.818663 537.82132,162.011996 L526.511987,162.011996 Z M566.406653,149.450663 L566.406653,162.513329 C566.406653,165.461329 565.613319,167.750662 564.026653,169.377329 C562.442653,171.005329 560.007986,171.818662 556.723986,171.818662 C554.915986,171.818662 553.371986,171.651996 552.091986,171.318662 C550.811986,170.983996 549.56132,170.538662 548.335986,169.982662 L549.71332,165.934663 C550.714653,166.351996 551.702653,166.686662 552.675986,166.935996 C553.650653,167.186662 554.762653,167.311996 556.014653,167.311996 C557.766653,167.311996 559.109319,166.909329 560.042653,166.102663 C560.973319,165.294663 561.439986,164.126663 561.439986,162.595996 L561.439986,162.054663 C560.578653,162.331996 559.679986,162.554663 558.747986,162.721329 C557.817319,162.887996 556.682653,162.971996 555.346653,162.971996 C554.066653,162.971996 552.878653,162.825329 551.779986,162.533329 C550.679986,162.241329 549.734653,161.803996 548.94132,161.219996 C548.147986,160.634663 547.52932,159.897329 547.083986,159.006663 C546.638653,158.117329 546.41732,157.074663 546.41732,155.877329 L546.41732,155.794663 C546.41732,154.681329 546.631986,153.701329 547.063986,152.851996 C547.494653,152.003996 548.06532,151.294663 548.774653,150.723996 C549.483986,150.15333 550.311986,149.72133 551.25732,149.430663 C552.202653,149.138663 553.20532,148.991996 554.261319,148.991996 C555.930653,148.991996 557.350653,149.298663 558.518653,149.910663 C559.687986,150.52133 560.646653,151.27333 561.398653,152.163996 L561.398653,149.450663 L566.406653,149.450663 Z M561.523986,157.421329 C561.523986,156.726663 561.375986,156.093329 561.085319,155.522663 C560.793319,154.951996 560.382653,154.465329 559.853319,154.062663 C559.326653,153.658663 558.705319,153.346663 557.995986,153.123996 C557.287986,152.90133 556.517319,152.790663 555.679986,152.790663 C554.483986,152.790663 553.475986,153.067996 552.654653,153.623996 C551.834653,154.181329 551.42532,154.987996 551.42532,156.045329 L551.42532,156.127996 C551.42532,157.267996 551.86932,158.145329 552.759986,158.757329 C553.650653,159.369329 554.887986,159.674663 556.473319,159.674663 C557.447986,159.674663 558.373319,159.590663 559.247986,159.425329 C560.126653,159.258663 560.883986,159.049329 561.523986,158.799996 L561.523986,157.421329 Z M578.298652,167.145329 L584.223985,167.145329 L584.223985,171.483996 L578.298652,171.483996 L578.298652,177.535996 L573.247986,177.535996 L573.247986,171.483996 L570.451986,171.483996 L570.451986,167.145329 L573.247986,167.145329 L573.247986,155.543996 C573.247986,154.319996 573.402652,153.29733 573.706652,152.475996 C574.013319,151.655996 574.451986,150.994663 575.022652,150.494663 C575.593319,149.994663 576.266652,149.631996 577.046652,149.40933 C577.825319,149.187996 578.673319,149.075996 579.591986,149.075996 C580.537319,149.075996 581.371985,149.17333 582.095985,149.366663 C582.818652,149.562663 583.501319,149.839996 584.139985,150.20133 L584.139985,154.333329 C583.139985,153.833329 582.095985,153.582663 581.010652,153.582663 C580.147985,153.582663 579.481319,153.798663 579.007986,154.229329 C578.534652,154.661329 578.298652,155.362663 578.298652,156.335996 L578.298652,167.145329 Z M592.529319,158.674663 L608.721318,158.674663 C608.747985,158.923996 608.769318,159.161329 608.783985,159.383996 C608.797318,159.606663 608.803985,159.829329 608.803985,160.050663 C608.803985,161.635996 608.581318,163.151996 608.135985,164.599996 C607.690651,166.045329 607.030651,167.311996 606.154652,168.395996 C605.277318,169.482662 604.178652,170.343996 602.858652,170.983996 C601.535985,171.623996 599.998652,171.943996 598.246652,171.943996 C596.661318,171.943996 595.214652,171.637329 593.906652,171.026662 C592.598652,170.414662 591.465319,169.586662 590.505319,168.542662 C589.546652,167.499996 588.801319,166.282663 588.273319,164.890663 C587.743985,163.499996 587.479985,162.011996 587.479985,160.426663 C587.479985,158.702663 587.771985,157.135996 588.355985,155.731996 C588.941319,154.326663 589.739985,153.123996 590.755985,152.12133 C591.771985,151.119996 592.966652,150.342663 594.345318,149.78533 C595.721318,149.227996 597.203985,148.950663 598.787985,148.950663 C600.819985,148.950663 602.565318,149.326663 604.026652,150.075996 C605.486652,150.827996 606.745318,151.830663 607.802651,153.08133 L604.839985,155.710663 C603.949318,154.849329 603.045318,154.194663 602.126652,153.749329 C601.209318,153.303996 600.123985,153.08133 598.871985,153.08133 C597.230652,153.08133 595.839985,153.561329 594.698652,154.521329 C593.558652,155.481329 592.835985,156.865329 592.529319,158.674663 L592.529319,158.674663 Z M592.487985,162.011996 C592.710652,163.735996 593.327985,165.134663 594.345318,166.206663 C595.359985,167.277329 596.646652,167.811996 598.203985,167.811996 C599.039985,167.811996 599.783985,167.659996 600.437318,167.351996 C601.090652,167.047996 601.654652,166.637329 602.126652,166.122663 C602.599985,165.606663 602.975985,164.994663 603.254652,164.286663 C603.531985,163.577329 603.713318,162.818663 603.797318,162.011996 L592.487985,162.011996 Z M635.678651,155.293329 L629.751984,171.483996 L624.326651,171.483996 L633.382651,149.28533 L637.931984,149.28533 L646.945317,171.483996 L641.645317,171.483996 L635.678651,155.293329 Z M668.68665,149.450663 L668.68665,162.513329 C668.68665,165.461329 667.893317,167.750662 666.307983,169.377329 C664.72265,171.005329 662.287983,171.818662 659.005317,171.818662 C657.197317,171.818662 655.651984,171.651996 654.371984,171.318662 C653.093317,170.983996 651.84265,170.538662 650.617317,169.982662 L651.99465,165.934663 C652.99465,166.351996 653.983984,166.686662 654.957317,166.935996 C655.93065,167.186662 657.04265,167.311996 658.29465,167.311996 C660.047983,167.311996 661.39065,166.909329 662.32265,166.102663 C663.25465,165.294663 663.721317,164.126663 663.721317,162.595996 L663.721317,162.054663 C662.85865,162.331996 661.961317,162.554663 661.029317,162.721329 C660.097317,162.887996 658.963984,162.971996 657.627984,162.971996 C656.347984,162.971996 655.15865,162.825329 654.061317,162.533329 C652.961317,162.241329 652.01465,161.803996 651.22265,161.219996 C650.429317,160.634663 649.81065,159.897329 649.365317,159.006663 C648.919984,158.117329 648.697317,157.074663 648.697317,155.877329 L648.697317,155.794663 C648.697317,154.681329 648.913317,153.701329 649.345317,152.851996 C649.775984,152.003996 650.34665,151.294663 651.055984,150.723996 C651.765317,150.15333 652.593317,149.72133 653.53865,149.430663 C654.483984,149.138663 655.485317,148.991996 656.54265,148.991996 C658.211984,148.991996 659.63065,149.298663 660.799983,149.910663 C661.967983,150.52133 662.927983,151.27333 663.679983,152.163996 L663.679983,149.450663 L668.68665,149.450663 Z M663.803983,157.421329 C663.803983,156.726663 663.657317,156.093329 663.36665,155.522663 C663.073317,154.951996 662.663983,154.465329 662.13465,154.062663 C661.60665,153.658663 660.98665,153.346663 660.277317,153.123996 C659.567984,152.90133 658.797317,152.790663 657.961317,152.790663 C656.765317,152.790663 655.757317,153.067996 654.935984,153.623996 C654.115984,154.181329 653.705317,154.987996 653.705317,156.045329 L653.705317,156.127996 C653.705317,157.267996 654.15065,158.145329 655.039984,158.757329 C655.93065,159.369329 657.167984,159.674663 658.75465,159.674663 C659.729317,159.674663 660.65465,159.590663 661.529317,159.425329 C662.40665,159.258663 663.163983,159.049329 663.803983,158.799996 L663.803983,157.421329 Z M680.035983,149.450663 L680.035983,179.914662 L674.987983,179.914662 L674.987983,149.450663 L680.035983,149.450663 Z M701.110649,159.049329 C701.110649,157.323996 700.651982,155.981329 699.733316,155.021329 C698.814649,154.062663 697.618649,153.582663 696.143983,153.582663 C694.642649,153.582663 693.481316,154.049329 692.659983,154.981329 C691.839983,155.913329 691.429316,157.239996 691.429316,158.965329 L691.429316,171.483996 L686.379983,171.483996 L686.379983,157.463996 C686.379983,154.875996 687.061316,152.81733 688.425316,151.287996 C689.787983,149.75733 691.721316,148.991996 694.225316,148.991996 C695.923983,148.991996 697.314649,149.374663 698.398649,150.139996 C699.483983,150.90533 700.387982,151.815996 701.110649,152.87333 L701.110649,149.450663 L706.159982,149.450663 L706.159982,171.483996 L701.110649,171.483996 L701.110649,159.049329 Z M716.341315,158.674663 L732.533315,158.674663 C732.561315,158.923996 732.582648,159.161329 732.597315,159.383996 C732.610648,159.606663 732.617315,159.829329 732.617315,160.050663 C732.617315,161.635996 732.394648,163.151996 731.949315,164.599996 C731.503982,166.045329 730.843982,167.311996 729.966648,168.395996 C729.090648,169.482662 727.991982,170.343996 726.671982,170.983996 C725.349315,171.623996 723.811982,171.943996 722.059982,171.943996 C720.473315,171.943996 719.027982,171.637329 717.718649,171.026662 C716.411982,170.414662 715.277315,169.586662 714.318649,168.542662 C713.358649,167.499996 712.614649,166.282663 712.085316,164.890663 C711.557316,163.499996 711.293316,162.011996 711.293316,160.426663 C711.293316,158.702663 711.583982,157.135996 712.167982,155.731996 C712.754649,154.326663 713.551982,153.123996 714.567982,152.12133 C715.583982,151.119996 716.779982,150.342663 718.157315,149.78533 C719.534649,149.227996 721.015982,148.950663 722.601315,148.950663 C724.631982,148.950663 726.378649,149.326663 727.839982,150.075996 C729.298648,150.827996 730.557315,151.830663 731.614648,153.08133 L728.653315,155.710663 C727.762648,154.849329 726.857315,154.194663 725.939982,153.749329 C725.021315,153.303996 723.937315,153.08133 722.685315,153.08133 C721.043982,153.08133 719.651982,153.561329 718.511982,154.521329 C717.370649,155.481329 716.647982,156.865329 716.341315,158.674663 L716.341315,158.674663 Z M716.299982,162.011996 C716.522649,163.735996 717.141315,165.134663 718.157315,166.206663 C719.173315,167.277329 720.459982,167.811996 722.017315,167.811996 C722.851982,167.811996 723.595982,167.659996 724.250649,167.351996 C724.903982,167.047996 725.466649,166.637329 725.939982,166.122663 C726.411982,165.606663 726.789315,164.994663 727.066648,164.286663 C727.345315,163.577329 727.526648,162.818663 727.609315,162.011996 L716.299982,162.011996 Z M767.169314,171.569329 L762.870648,171.569329 L757.987981,156.378663 L753.563981,171.483996 L748.390648,171.483996 L755.526648,149.28533 L760.033314,149.28533 L764.999981,164.349329 L769.922647,149.28533 L774.430647,149.28533 L781.649314,171.483996 L776.599981,171.483996 L772.093314,156.378663 L767.169314,171.569329 Z M791.665314,174.863996 L791.665314,179.663996 L786.23998,179.663996 L786.23998,174.863996 L791.665314,174.863996 Z M791.497314,149.450663 L791.497314,171.483996 L786.449314,171.483996 L786.449314,149.450663 L791.497314,149.450663 Z M804.18398,167.145329 L810.109313,167.145329 L810.109313,171.483996 L804.18398,171.483996 L804.18398,177.535996 L799.134647,177.535996 L799.134647,171.483996 L796.338647,171.483996 L796.338647,167.145329 L799.134647,167.145329 L799.134647,155.543996 C799.134647,154.319996 799.28798,153.29733 799.593313,152.475996 C799.89998,151.655996 800.338647,150.994663 800.909313,150.494663 C801.478647,149.994663 802.153313,149.631996 802.93198,149.40933 C803.71198,149.187996 804.55998,149.075996 805.477313,149.075996 C806.42398,149.075996 807.257313,149.17333 807.982646,149.366663 C808.705313,149.562663 809.386646,149.839996 810.026646,150.20133 L810.026646,154.333329 C809.025313,153.833329 807.982646,153.582663 806.89598,153.582663 C806.034647,153.582663 805.366647,153.798663 804.893313,154.229329 C804.421313,154.661329 804.18398,155.362663 804.18398,156.335996 L804.18398,167.145329 Z M820.250646,161.886663 C820.250646,163.611996 820.710646,164.954663 821.627979,165.914663 C822.546646,166.873329 823.742646,167.351996 825.217313,167.351996 C826.719979,167.351996 827.881313,166.886662 828.701313,165.954663 C829.522646,165.022663 829.931979,163.694663 829.931979,161.970663 L829.931979,149.450663 L834.981312,149.450663 L834.981312,163.473329 C834.981312,166.059996 834.299979,168.118662 832.937313,169.647996 C831.574646,171.178662 829.639979,171.943996 827.135979,171.943996 C826.273313,171.943996 825.502646,171.839996 824.819979,171.630662 C824.138646,171.422662 823.513313,171.137329 822.942646,170.775996 C822.371979,170.414662 821.871979,170.002662 821.439979,169.543996 C821.007979,169.085329 820.613313,168.590662 820.250646,168.063996 L820.250646,179.914662 L815.201313,179.914662 L815.201313,149.450663 L820.250646,149.450663 L820.250646,161.886663 Z M863.358645,160.467996 C863.358645,162.054663 863.066645,163.542663 862.482645,164.933329 C861.897312,166.325329 861.083978,167.541329 860.041312,168.583996 C858.997312,169.627996 857.759979,170.447996 856.326645,171.046662 C854.894645,171.643996 853.329312,171.943996 851.630645,171.943996 C849.935979,171.943996 848.369312,171.637329 846.937312,171.026662 C845.505312,170.414662 844.266646,169.586662 843.223979,168.542662 C842.179979,167.499996 841.359979,166.275996 840.761312,164.870663 C840.163979,163.466663 839.863979,161.970663 839.863979,160.383996 C839.863979,158.799996 840.155979,157.317329 840.739979,155.939996 C841.325312,154.562663 842.138646,153.353329 843.182646,152.310663 C844.225312,151.266663 845.462646,150.446663 846.895979,149.847996 C848.327979,149.24933 849.878645,148.950663 851.549312,148.950663 C853.245312,148.950663 854.817312,149.255996 856.263979,149.86933 C857.711979,150.48133 858.957312,151.307996 859.999979,152.351996 C861.042645,153.394663 861.863979,154.611996 862.461312,156.003996 C863.059978,157.394663 863.358645,158.881329 863.358645,160.467996 L863.358645,160.467996 Z M858.309312,160.383996 C858.309312,159.410663 858.155979,158.499996 857.850645,157.651996 C857.542645,156.802663 857.099979,156.058663 856.514645,155.417329 C855.930645,154.778663 855.226645,154.271996 854.406645,153.894663 C853.586645,153.519996 852.661312,153.331996 851.630645,153.331996 C850.658645,153.331996 849.761312,153.519996 848.939979,153.894663 C848.118645,154.271996 847.410645,154.778663 846.811979,155.417329 C846.214646,156.058663 845.747979,156.817329 845.414646,157.693329 C845.081312,158.569329 844.913312,159.494663 844.913312,160.467996 C844.913312,161.441329 845.066646,162.351996 845.371979,163.201329 C845.678646,164.050663 846.123979,164.793329 846.707979,165.433329 C847.291979,166.073329 847.994645,166.581329 848.814645,166.957329 C849.635979,167.331996 850.546645,167.521329 851.549312,167.521329 C852.550645,167.521329 853.461312,167.331996 854.281312,166.957329 C855.102645,166.581329 855.813312,166.066663 856.410645,165.413329 C857.007979,164.759996 857.474645,164.002663 857.809312,163.138663 C858.142645,162.277329 858.309312,161.358663 858.309312,160.383996 Z M882.971978,159.049329 C882.971978,157.323996 882.513311,155.981329 881.594645,155.021329 C880.675978,154.062663 879.481311,153.582663 878.005311,153.582663 C876.502645,153.582663 875.341311,154.049329 874.521311,154.981329 C873.701311,155.913329 873.290645,157.239996 873.290645,158.965329 L873.290645,171.483996 L868.241312,171.483996 L868.241312,157.463996 C868.241312,154.875996 868.922645,152.81733 870.286645,151.287996 C871.650645,149.75733 873.582645,148.991996 876.086645,148.991996 C877.783978,148.991996 879.175978,149.374663 880.259978,150.139996 C881.345311,150.90533 882.249311,151.815996 882.971978,152.87333 L882.971978,149.450663 L888.021311,149.450663 L888.021311,171.483996 L882.971978,171.483996 L882.971978,159.049329 Z M900.457311,167.145329 L906.382644,167.145329 L906.382644,171.483996 L900.457311,171.483996 L900.457311,177.535996 L895.406644,177.535996 L895.406644,171.483996 L892.611978,171.483996 L892.611978,167.145329 L895.406644,167.145329 L895.406644,155.543996 C895.406644,154.319996 895.561311,153.29733 895.866644,152.475996 C896.173311,151.655996 896.611978,150.994663 897.181311,150.494663 C897.751978,149.994663 898.426644,149.631996 899.205311,149.40933 C899.983978,149.187996 900.833311,149.075996 901.750644,149.075996 C902.695977,149.075996 903.530644,149.17333 904.254644,149.366663 C904.978644,149.562663 905.659977,149.839996 906.298644,150.20133 L906.298644,154.333329 C905.298644,153.833329 904.254644,153.582663 903.169311,153.582663 C902.306644,153.582663 901.639977,153.798663 901.166644,154.229329 C900.693311,154.661329 900.457311,155.362663 900.457311,156.335996 L900.457311,167.145329 Z M940.93731,171.569329 L936.63731,171.569329 L931.754643,156.378663 L927.331977,171.483996 L922.158644,171.483996 L929.29331,149.28533 L933.799977,149.28533 L938.766643,164.349329 L943.690643,149.28533 L948.19731,149.28533 L955.415976,171.483996 L950.367976,171.483996 L945.859976,156.378663 L940.93731,171.569329 Z M977.575976,149.450663 L977.575976,162.513329 C977.575976,165.461329 976.782642,167.750662 975.197309,169.377329 C973.611976,171.005329 971.178642,171.818662 967.894642,171.818662 C966.086643,171.818662 964.541309,171.651996 963.261309,171.318662 C961.982643,170.983996 960.730643,170.538662 959.506643,169.982662 L960.883976,165.934663 C961.885309,166.351996 962.873309,166.686662 963.845309,166.935996 C964.821309,167.186662 965.933309,167.311996 967.185309,167.311996 C968.937309,167.311996 970.279976,166.909329 971.211976,166.102663 C972.143976,165.294663 972.609309,164.126663 972.609309,162.595996 L972.609309,162.054663 C971.747976,162.331996 970.850642,162.554663 969.918642,162.721329 C968.986642,162.887996 967.851976,162.971996 966.517309,162.971996 C965.237309,162.971996 964.047976,162.825329 962.950643,162.533329 C961.850643,162.241329 960.905309,161.803996 960.111976,161.219996 C959.318643,160.634663 958.699976,159.897329 958.254643,159.006663 C957.809309,158.117329 957.586643,157.074663 957.586643,155.877329 L957.586643,155.794663 C957.586643,154.681329 957.802643,153.701329 958.233309,152.851996 C958.665309,152.003996 959.235976,151.294663 959.945309,150.723996 C960.654643,150.15333 961.481309,149.72133 962.427976,149.430663 C963.373309,149.138663 964.374643,148.991996 965.431976,148.991996 C967.101309,148.991996 968.521309,149.298663 969.689309,149.910663 C970.857309,150.52133 971.817309,151.27333 972.569309,152.163996 L972.569309,149.450663 L977.575976,149.450663 Z M972.693309,157.421329 C972.693309,156.726663 972.546642,156.093329 972.255976,155.522663 C971.962642,154.951996 971.553309,154.465329 971.023976,154.062663 C970.495976,153.658663 969.875976,153.346663 969.166642,153.123996 C968.457309,152.90133 967.686642,152.790663 966.850642,152.790663 C965.654643,152.790663 964.646643,153.067996 963.825309,153.623996 C963.005309,154.181329 962.594643,154.987996 962.594643,156.045329 L962.594643,156.127996 C962.594643,157.267996 963.039976,158.145329 963.929309,158.757329 C964.821309,159.369329 966.057309,159.674663 967.643976,159.674663 C968.618642,159.674663 969.543976,159.590663 970.418642,159.425329 C971.295976,159.258663 972.053309,159.049329 972.693309,158.799996 L972.693309,157.421329 Z M999.317308,155.961329 L999.317308,156.045329 C999.317308,157.046663 999.107975,157.894663 998.691975,158.590663 C998.273308,159.285329 997.737308,159.877329 997.085308,160.363996 C996.430642,160.850663 995.699975,161.261329 994.893308,161.594663 C994.086642,161.929329 993.279975,162.221329 992.473309,162.470663 C991.834642,162.665329 991.214642,162.867996 990.617309,163.075996 C990.018642,163.283996 989.489309,163.506663 989.030642,163.742663 C988.570642,163.979996 988.202642,164.245329 987.925309,164.535996 C987.645309,164.829329 987.506642,165.170663 987.506642,165.558663 L987.506642,165.642663 C987.506642,166.282663 987.779975,166.811996 988.321309,167.227996 C988.863975,167.645329 989.621309,167.854662 990.595975,167.854662 C991.514642,167.854662 992.514642,167.666662 993.599975,167.290662 C994.685308,166.915996 995.755975,166.406663 996.811975,165.767996 L998.817308,169.357329 C997.647975,170.134662 996.354642,170.747996 994.934642,171.193329 C993.515975,171.637329 992.111975,171.859996 990.721309,171.859996 C989.635975,171.859996 988.613309,171.707996 987.653309,171.401329 C986.693309,171.095996 985.858642,170.650662 985.149309,170.066662 C984.439975,169.482662 983.883975,168.773329 983.479975,167.937329 C983.077309,167.102662 982.874642,166.170663 982.874642,165.141329 L982.874642,165.058663 C982.874642,164.002663 983.083975,163.118663 983.502642,162.409329 C983.918642,161.699996 984.454642,161.101329 985.107975,160.613329 C985.761309,160.126663 986.499975,159.730663 987.319975,159.425329 C988.139975,159.118663 988.954642,158.839996 989.761309,158.590663 C990.399975,158.394663 991.019975,158.207996 991.618642,158.026663 C992.215975,157.845329 992.743975,157.638663 993.202642,157.401329 C993.662642,157.165329 994.023975,156.893329 994.289308,156.587996 C994.551975,156.281329 994.685308,155.919996 994.685308,155.501329 L994.685308,155.417329 C994.685308,154.694663 994.386642,154.117329 993.787975,153.687996 C993.189309,153.255996 992.347975,153.039996 991.263975,153.039996 C990.122642,153.039996 988.933309,153.26933 987.695975,153.727996 C986.457309,154.187996 985.239975,154.862663 984.042642,155.751996 L981.790642,152.330663 C983.181309,151.24533 984.690642,150.423996 986.318642,149.86933 C987.945309,149.311996 989.551975,149.03333 991.138642,149.03333 C992.278642,149.03333 993.350642,149.18133 994.350642,149.471996 C995.353308,149.763996 996.221308,150.194663 996.959975,150.76533 C997.695975,151.335996 998.273308,152.051996 998.691975,152.914663 C999.107975,153.775996 999.317308,154.793329 999.317308,155.961329 Z M1010.12531,167.145329 L1016.05064,167.145329 L1016.05064,171.483996 L1010.12531,171.483996 L1010.12531,177.535996 L1005.07464,177.535996 L1005.07464,171.483996 L1002.27864,171.483996 L1002.27864,167.145329 L1005.07464,167.145329 L1005.07464,155.543996 C1005.07464,154.319996 1005.22797,153.29733 1005.53331,152.475996 C1005.83997,151.655996 1006.27864,150.994663 1006.84931,150.494663 C1007.41997,149.994663 1008.09331,149.631996 1008.87331,149.40933 C1009.65197,149.187996 1010.49997,149.075996 1011.41864,149.075996 C1012.36397,149.075996 1013.19864,149.17333 1013.92264,149.366663 C1014.64531,149.562663 1015.32797,149.839996 1015.96664,150.20133 L1015.96664,154.333329 C1014.96664,153.833329 1013.92264,153.582663 1012.83731,153.582663 C1011.97464,153.582663 1011.30664,153.798663 1010.83464,154.229329 C1010.36131,154.661329 1010.12531,155.362663 1010.12531,156.335996 L1010.12531,167.145329 Z M1024.35597,158.674663 L1040.54797,158.674663 C1040.57464,158.923996 1040.59597,159.161329 1040.61064,159.383996 C1040.62397,159.606663 1040.63064,159.829329 1040.63064,160.050663 C1040.63064,161.635996 1040.40797,163.151996 1039.96264,164.599996 C1039.51731,166.045329 1038.85731,167.311996 1037.98131,168.395996 C1037.10397,169.482662 1036.00531,170.343996 1034.68531,170.983996 C1033.36264,171.623996 1031.82531,171.943996 1030.07331,171.943996 C1028.48797,171.943996 1027.04131,171.637329 1025.73331,171.026662 C1024.42531,170.414662 1023.29197,169.586662 1022.33197,168.542662 C1021.37331,167.499996 1020.62797,166.282663 1020.09997,164.890663 C1019.57064,163.499996 1019.30664,162.011996 1019.30664,160.426663 C1019.30664,158.702663 1019.59864,157.135996 1020.18264,155.731996 C1020.76797,154.326663 1021.56664,153.123996 1022.58264,152.12133 C1023.59731,151.119996 1024.79331,150.342663 1026.17197,149.78533 C1027.54797,149.227996 1029.03064,148.950663 1030.61464,148.950663 C1032.64664,148.950663 1034.39197,149.326663 1035.85331,150.075996 C1037.31331,150.827996 1038.57197,151.830663 1039.62931,153.08133 L1036.66664,155.710663 C1035.77597,154.849329 1034.87197,154.194663 1033.95331,153.749329 C1033.03597,153.303996 1031.95064,153.08133 1030.69864,153.08133 C1029.05731,153.08133 1027.66664,153.561329 1026.52531,154.521329 C1025.38531,155.481329 1024.66131,156.865329 1024.35597,158.674663 L1024.35597,158.674663 Z M1024.31464,162.011996 C1024.53731,163.735996 1025.15464,165.134663 1026.17197,166.206663 C1027.18664,167.277329 1028.47331,167.811996 1030.03064,167.811996 C1030.86664,167.811996 1031.60931,167.659996 1032.26397,167.351996 C1032.91731,167.047996 1033.48131,166.637329 1033.95331,166.122663 C1034.42664,165.606663 1034.80264,164.994663 1035.08131,164.286663 C1035.35864,163.577329 1035.53997,162.818663 1035.62397,162.011996 L1024.31464,162.011996" id="path44" fill-rule="nonzero"></path>
                </g>
            </g>
        </g>
    </g>
</svg>