<?xml version="1.0" encoding="UTF-8"?>
<svg width="1021px" height="356px" viewBox="0 0 1021 356" version="1.1" xmlns="http://www.w3.org/2000/svg" xmlns:xlink="http://www.w3.org/1999/xlink">
    <!-- Generator: Sketch 61.2 (89653) - https://sketch.com -->
    <title>logo-oebb</title>
    <desc>Created with Sketch.</desc>
    <g id="Page-1" stroke="none" stroke-width="1" fill="none" fill-rule="evenodd">
        <g id="logo-oebb" fill="#FFFFFF" fill-rule="nonzero">
            <g id="g823" transform="translate(510.500000, 178.000000) scale(-1, 1) rotate(-180.000000) translate(-510.500000, -178.000000) ">
                <path d="M814.281,152.441 L911.656,152.441 C925.012,152.441 952.227,150.594 952.227,112.711 C952.227,66.5078 919.762,65.5938 898.285,65.5938 L814.281,65.5938 L814.281,152.441 Z M814.281,286.895 L899.234,286.895 C924.055,286.895 943.625,277.656 943.625,248.547 C943.625,221.754 925.973,210.195 895.422,210.195 L814.281,210.195 L814.281,286.895 Z M742.695,7.82813 L899.719,7.82813 C921.672,7.82813 960.344,11.0586 984.203,30.9336 C1015.22,56.7969 1020.47,84.5156 1020.47,102.078 C1020.47,142.273 999.473,171.844 978.949,187.098 C1004.24,207.422 1011.87,236.07 1011.87,256.402 C1011.87,270.262 1005.19,344.648 886.348,344.648 L742.688,344.648 L742.695,7.82813" id="path827"></path>
                <path d="M483.559,152.441 L580.922,152.441 C594.297,152.441 621.496001,150.594 621.496001,112.711 C621.504,66.5078 589.043,65.5938 567.563,65.5938 L483.559,65.5938 L483.559,152.441 Z M483.559,286.895 L568.516,286.895 C593.332,286.895 612.902,277.656 612.902,248.547 C612.902,221.754 595.238,210.195 564.699,210.195 L483.559,210.195 L483.559,286.895 Z M411.965,7.82813 L568.996,7.82813 C590.949,7.82813 629.609,11.0586 653.48,30.9336 C684.496,56.7969 689.75,84.5156 689.75,102.078 C689.75,142.273 668.746,171.844 648.227,187.098 C673.527,207.422 681.148,236.07 681.148,256.402 C681.148,270.262 674.473,344.648 555.629,344.648 L411.965,344.648 L411.965,7.82813" id="path829"></path>
                <polyline id="path831" points="254.395 344.43 254.395 344.648 130.797 210.09 213.645 210.09 336.855 344.43 254.395 344.43"></polyline>
                <path d="M313.59,292.398 L265.816,240.301 C278.766,222.164 285.859,200.566 285.859,177.828 C285.859,148.965 274.629,121.836 254.219,101.43 C233.809,81.0234 206.68,69.7695 177.828,69.7695 C148.969,69.7695 121.836,81.0234 101.43,101.43 C81.0195,121.836 69.7813,148.965 69.7813,177.828 C69.7813,236.746 117.219,284.785 175.914,285.809 L232.066,347.035 C214.742,352.582 196.535,355.645 177.828,355.645 C79.7773,355.645 0,275.879 0,177.828 C0,130.32 18.5,85.6719 52.082,52.0898 C85.668,18.5 130.328,0 177.828,0 C225.324,0 269.98,18.5 303.555,52.0898 C337.148,85.6719 355.641,130.32 355.641,177.828 C355.641,220.273 340.715,260.371 313.59,292.398" id="path833"></path>
            </g>
        </g>
    </g>
</svg>