<?xml version="1.0" encoding="UTF-8"?>
<svg width="326px" height="417px" viewBox="0 0 326 417" version="1.1" xmlns="http://www.w3.org/2000/svg" xmlns:xlink="http://www.w3.org/1999/xlink">
    <!-- Generator: Sketch 61.2 (89653) - https://sketch.com -->
    <title>logo-drei</title>
    <desc>Created with Sketch.</desc>
    <g id="Page-1" stroke="none" stroke-width="1" fill="none" fill-rule="evenodd">
        <g id="logo-drei" fill-rule="nonzero">
            <path d="M93.4872,182.754 L93.4872,182.60494 C93.5009897,182.571013 93.4872,182.557223 93.4872,182.516949 L93.4872,182.754001 L93.4872,182.754 Z M271.1942,174.92189 C267.41363,172.12433 262.79977,168.72287 261.1875,166.87352 C262.068728,165.21328 264.12799,162.11695 265.91627,159.56345 C274.92073,146.41335 291.72247,121.92825 291.72247,86.84775 C291.72247,46.78735 262.42067,-0.00025 179.87447,-0.00025 C140.78947,-0.00025 96.54217,12.89885 58.43347,35.41845 C24.22687,55.64245 2.11327,79.20535 2.11327,95.43805 C2.11327,99.30661 3.61044,102.85647 6.44915,105.68885 C17.14665,116.35245 46.97735,116.10165 81.50915,116.10165 C132.84315,116.10165 154.00075,118.913 154.00075,127.07715 C154.00075,136.96874 93.48715,161.34475 93.48715,182.60495 C93.48715,207.21125 144.28605,211.79095 167.28005,215.89745 C188.95335,219.78615 191.16885,231.51305 191.16885,239.56215 C191.16885,254.60955 185.62692,267.97595 175.55235,277.16955 C166.02673,285.87567 154.23175,291.40385 136.94205,290.60465 C142.42991,251.05225 114.40135,224.37295 73.62985,224.37295 C27.56045,224.37295 5e-05,262.53605 5e-05,299.41195 C5e-05,357.58235 53.72475,416.51095 156.42705,416.51095 C197.06265,416.51095 238.14615,403.10975 269.11405,379.74305 C294.75725,360.40705 325.33995,325.23145 325.33995,267.47505 C325.33995,214.84045 290.11035,188.87835 271.19435,174.92205 L271.1942,174.92189 Z" id="_48208384" fill="#FFFFFF"></path>
            <path d="M93.4872,182.754 L93.4872,182.60494 C93.5009897,182.571013 93.4872,182.557223 93.4872,182.516949 L93.4872,182.754001 L93.4872,182.754 Z M271.1942,174.92189 C267.41363,172.12433 262.79977,168.72287 261.1875,166.87352 C262.068728,165.21328 264.12799,162.11695 265.91627,159.56345 C274.92073,146.41335 291.72247,121.92825 291.72247,86.84775 C291.72247,46.78735 262.42067,-0.00025 179.87447,-0.00025 C140.78947,-0.00025 96.54217,12.89885 58.43347,35.41845 C24.22687,55.64245 2.11327,79.20535 2.11327,95.43805 C2.11327,99.30661 3.61044,102.85647 6.44915,105.68885 C17.14665,116.35245 46.97735,116.10165 81.50915,116.10165 C132.84315,116.10165 154.00075,118.913 154.00075,127.07715 C154.00075,136.96874 93.48715,161.34475 93.48715,182.60495 C93.48715,207.21125 144.28605,211.79095 167.28005,215.89745 C188.95335,219.78615 191.16885,231.51305 191.16885,239.56215 C191.16885,254.60955 185.62692,267.97595 175.55235,277.16955 C166.02673,285.87567 154.23175,291.40385 136.94205,290.60465 C142.42991,251.05225 114.40135,224.37295 73.62985,224.37295 C27.56045,224.37295 5e-05,262.53605 5e-05,299.41195 C5e-05,357.58235 53.72475,416.51095 156.42705,416.51095 C197.06265,416.51095 238.14615,403.10975 269.11405,379.74305 C294.75725,360.40705 325.33995,325.23145 325.33995,267.47505 C325.33995,214.84045 290.11035,188.87835 271.19435,174.92205 L271.1942,174.92189 Z M105.3152,182.63208 L105.220861,182.63208 C105.444123,176.15508 123.126861,164.84728 134.860861,157.36808 C152.116561,146.34528 165.734661,137.64598 165.734661,127.07718 C165.734661,122.80938 164.095441,118.8931 160.971961,115.78338 C149.257961,104.11048 116.331661,104.22538 81.4740609,104.38148 C68.7848609,104.41475 55.3158609,104.814652 42.4910609,103.717385 C55.5599609,99.381725 71.4336609,90.878485 88.9813609,81.515785 C114.658461,67.782785 143.323061,52.458285 170.206161,46.326485 C163.072071,53.453575 158.390361,62.064885 158.390361,69.070085 C158.390361,71.929365 160.144941,74.984775 165.036561,74.984775 C169.359301,74.984775 174.461061,73.311625 180.361961,71.366405 C195.957461,66.278665 216.756961,59.497405 240.157561,76.678285 C232.149251,76.644358 225.564161,78.853555 221.831461,81.759895 C218.240011,84.551325 217.474791,87.559015 217.474791,89.564205 C217.474791,92.802815 219.913381,95.540185 223.273911,99.340885 C228.538511,105.275715 235.739811,113.398985 235.739811,126.339185 C235.739811,137.063885 231.221171,148.208785 224.724011,156.134985 C225.699359,149.156955 224.493964,138.839185 220.333411,134.103385 C218.382931,131.887835 215.814771,130.715715 212.908201,130.715715 C208.166291,130.715715 203.565791,134.556475 196.560601,140.363255 C191.634831,144.434935 185.523801,149.502765 177.773601,154.515655 C154.765801,169.319255 128.634501,184.447655 109.461601,184.447655 C108.323401,184.447655 105.315061,184.135745 105.315061,182.632225 L105.3152,182.63208 Z M133.9126,301.72208 C154.2307,302.81935 170.8364,297.35228 183.4645,285.81448 C195.8155,274.54068 202.8817,257.67798 202.8817,239.56188 C202.8817,229.29748 199.2572,221.94718 191.2489,215.55818 C221.2958,221.73006 253.5309,237.10248 270.1234,261.16048 C261.49915,258.15892 256.1332,257.35277 250.4963,257.35277 C246.18757,257.35277 242.33914,262.09555 242.33914,267.79267 C242.33914,270.69923 243.49113,274.25566 244.9675,278.76137 C249.48636,292.68367 256.7695,315.08917 237.90148,343.34077 C238.274459,331.67407 235.28603,322.31127 231.56041,317.67657 C228.9651,314.45897 226.32952,313.77496 224.57516,313.77496 C218.74212,313.77496 215.70685,319.29588 211.47906,326.93826 C203.85708,340.73936 191.41176,363.18486 152.19846,374.16666 C157.78745,365.60326 159.70487,356.41606 157.67253,351.44996 C156.66326,348.99058 154.63704,347.50742 152.23238,347.50742 L152.082663,347.50742 C148.315883,347.669394 143.634393,349.00459 138.187463,350.52189 C120.511463,355.47458 94.441263,362.75069 67.504063,341.08448 C72.978793,340.644304 77.707563,338.97706 80.905063,336.21343 C83.215603,334.23515 84.482723,331.77577 84.482723,329.32339 C84.482723,325.63081 81.427103,322.77853 77.544753,319.17399 C69.855353,312.05369 59.719653,302.61629 67.843153,283.00299 C68.913273,287.2848 70.885423,291.12622 73.662843,294.18799 C76.928373,297.81249 80.858003,299.88576 84.468743,299.88576 C92.429993,299.88576 92.429993,293.11786 92.429993,288.64696 C92.429993,282.75898 97.795063,277.60316 103.899693,277.60316 C121.223493,277.60316 127.753693,303.18546 122.001893,317.06756 C127.753733,312.60911 132.212393,306.04476 133.912693,301.72226 L133.9126,301.72208 Z M262.0686,370.37908 C233.071,392.23558 194.5759,404.77568 156.4266,404.77568 C61.4545,404.77568 11.7336,351.75518 11.7336,299.41168 C11.7336,268.28768 34.9513,235.86958 73.6905,235.86958 C96.5762,235.86958 132.2129,247.11628 127.7542,291.65438 C127.090981,287.14186 121.22401,271.28918 103.9002,271.28918 C94.25266,271.28918 86.0955,279.22942 86.0955,288.64688 C86.0955,292.48064 85.201358,293.55164 84.46919,293.55164 C78.06705,293.55164 70.07279,284.12736 71.71219,268.34864 C46.81409,296.11214 64.55796,315.78634 73.2365,323.81544 C75.17384,325.63087 78.12812,328.34744 78.16205,329.32344 C78.16205,332.05314 71.02796,336.52473 53.12215,334.88551 C84.32015,372.03931 120.65405,362.01181 139.89525,356.59271 C144.70589,355.25774 150.44395,352.78522 151.94115,355.03382 C154.47539,358.46921 147.67948,374.43772 138.49995,382.79122 C191.05335,375.92811 208.29535,345.75232 217.00145,330.00072 C219.94194,324.70285 222.46152,320.09599 224.57572,320.09599 C230.04979,320.09599 234.92762,342.48059 231.23571,359.65449 C266.07941,327.20929 256.05191,292.37959 250.96421,276.80399 C249.73102,273.00263 248.67468,269.70995 248.67468,267.79275 C248.67468,264.91333 249.581955,264.11418 251.58102,263.60593 C260.29349,263.60593 270.46922,266.7224 282.57612,272.50138 C250.34782,197.05528 138.88612,207.40788 111.81412,190.71418 C132.29442,189.61691 158.28982,174.57648 181.18942,159.84038 C189.27872,154.61036 195.55262,149.41358 200.60642,145.21998 C205.89116,140.83704 210.45708,137.03656 212.90942,137.03656 C219.68454,137.03656 220.62662,156.93466 217.13717,169.12956 C234.08167,158.20116 242.06217,141.76536 242.06217,126.33876 C242.06217,111.00726 233.59376,101.44686 228.02467,95.13286 C226.28345,93.16137 223.89214,90.49908 223.81027,89.56379 C223.81027,88.69679 224.461231,87.67351 225.71434,86.74544 C231.56139,82.46385 242.95624,80.87146 254.83314,83.56111 C228.70184,49.98451 196.22274,59.53701 178.39094,65.36391 C172.99807,67.13228 165.01754,69.63171 165.01754,67.41026 C165.01754,61.06131 173.40496,48.08106 188.30944,39.05666 C157.88344,36.99039 116.08884,59.83516 86.01444,75.93956 C61.40774,89.08966 38.25084,101.44066 24.92474,101.44066 C16.70652,101.44066 13.82684,98.45311 13.82684,95.43776 C13.82684,72.63306 94.57784,11.71936 179.87484,11.71936 C212.19114,11.71936 238.60034,19.69353 256.24924,34.78186 C271.55364,47.88426 280.00894,66.36616 280.00894,86.84736 C280.00894,118.28946 265.12464,139.97666 256.22824,152.92306 C251.66254,159.59005 249.16222,163.25486 249.16222,167.15116 C249.16222,173.23505 254.83307,177.42186 264.22952,184.35216 C282.70532,197.99016 313.61242,220.76096 313.61242,267.47456 C313.61242,320.40076 285.57792,352.62906 262.06912,370.37856 L262.0686,370.37908 Z" id="_76397856" fill="#000000"></path>
        </g>
    </g>
</svg>