<?xml version="1.0" encoding="UTF-8"?>
<svg width="200px" height="42px" viewBox="0 0 200 42" version="1.1" xmlns="http://www.w3.org/2000/svg" xmlns:xlink="http://www.w3.org/1999/xlink">
    <!-- Generator: Sketch 61.2 (89653) - https://sketch.com -->
    <title>logo-verbund</title>
    <desc>Created with Sketch.</desc>
    <g id="Page-1" stroke="none" stroke-width="1" fill="none" fill-rule="evenodd">
        <g id="logo-verbund" fill="#FFFFFF" fill-rule="nonzero">
            <path d="M29.599084,1.9614607 L29.312156,2.7689365 C28.493705,5.2242902 27.29425,8.5545399 25.767102,12.8616 C25.058405,14.823061 24.730711,15.751266 24.34814,16.789225 L21.406733,24.694648 C20.149265,28.186393 19.776102,29.30902 19.177159,32.193982 L18.83065,32.193982 C18.120384,28.644224 18.015334,28.238134 16.764139,24.528449 L14.093981,16.728077 L11.913012,10.076985 C11.585318,9.1503473 11.312501,8.3303282 10.926794,7.182615 C10.436037,5.7087757 10.000157,4.2380721 9.507832,2.761097 L9.274213,1.9614607 L0,1.9614607 L0.523683,3.527807 C2.81127,10.453284 4.338419,14.866962 6.90039,21.789303 C9.352608,28.551717 10.933066,32.636134 13.662804,39.238621 L14.162969,40.539989 L23.13771,40.539989 L23.64101,39.280954 C26.533812,32.739616 28.601891,27.833613 30.892614,22.055849 C33.617648,15.298139 36.071434,8.8618511 38.034463,3.3051632 L38.540899,1.9614607 L29.599084,1.9614607 L29.599084,1.9614607 Z M47.692814,13.521692 C39.654118,13.534235 34.414149,18.982737 34.39847,27.468289 C34.417285,36.113768 39.527117,41.123253 48.403079,41.142068 C51.937158,41.142068 55.203123,40.348704 58.365606,38.703962 L58.365606,32.647109 C55.830289,34.24011 52.840277,35.060129 49.599398,35.060129 C45.141818,35.078944 42.44187,33.203719 42.17062,29.771555 L42.154941,29.581837 L59.690494,29.581837 L59.729692,29.147525 C59.784569,28.228727 59.784569,27.469856 59.784569,27.033976 C59.765754,18.364979 55.403816,13.538939 47.692814,13.521692 Z M42.250584,24.103545 L42.28351,23.898148 C42.717822,20.941062 44.774926,19.051725 47.692814,19.059565 C50.499381,19.043886 52.188024,20.803085 52.44673,23.907555 L52.463977,24.103545 L42.250584,24.103545 Z M98.94793,13.576569 C97.052321,13.576569 95.50479,13.84625 93.334797,14.655294 L93.096474,14.746233 L93.096474,-2.6645353e-15 L85.054642,-2.6645353e-15 L85.054642,40.130764 C88.615375,40.657583 90.815159,40.866115 93.548033,40.866115 C105.22899,40.844165 111.12592,36.043211 111.14473,26.706282 C111.13219,18.708352 106.32497,13.587544 98.94793,13.576569 Z M100.9235,32.643973 C99.560984,33.87165 97.521128,34.459618 94.802364,34.459618 C94.255162,34.459618 93.929036,34.459618 93.275216,34.459618 L93.096474,34.459618 L93.096474,20.636886 L93.215635,20.596121 C94.429201,20.153969 95.438938,19.9830632 96.657207,19.9830632 C98.626507,19.981498 100.21324,20.643158 101.29196,21.877107 C102.37069,23.114191 102.936711,24.906317 102.936711,27.140595 C102.93984,29.569294 102.28445,31.416297 100.9235,32.643973 Z M117.96046,38.244563 C119.87175,39.999059 122.92761,40.872387 127.43536,40.872387 C130.85969,40.866115 134.06294,40.544693 138.5848,39.72781 L139.47224,39.586697 L139.47224,14.17708 L131.43041,14.17708 L131.43041,33.666253 L131.28616,33.697612 C130.18705,33.915552 128.97662,34.080183 127.81637,34.080183 C126.1387,34.080183 125.0051,33.807366 124.28542,33.048495 C123.57202,32.289625 123.3337,31.107417 123.33056,29.379576 L123.33056,14.17708 L115.2856,14.17708 L115.2856,29.268254 C115.29343,34.224431 115.99273,36.428918 117.96046,38.244563 Z M158.31073,13.576569 C154.22004,13.576569 150.18266,14.162969 145.2892,15.445523 L145.2892,40.539989 L153.33417,40.539989 L153.33417,20.627479 L153.4596,20.589849 C155.16236,20.097524 156.2254,19.983066 157.38252,19.983066 C158.90183,19.983066 159.98213,20.285674 160.68142,21.041408 C161.376,21.797143 161.64568,22.94956 161.64882,24.575487 L161.64568,40.539989 L169.69379,40.539989 L169.69379,24.254064 C169.69065,20.059894 169.15756,18.178397 167.45167,16.414494 C165.65014,14.554948 162.59114,13.576569 158.31073,13.576569 Z M188.12775,13.576569 C179.42426,13.589112 173.86601,19.043886 173.85346,27.523166 C173.87228,36.323868 179.06521,40.844165 189.27233,40.872387 C192.65903,40.869251 195.7729,40.550965 200,39.751328 L200,-2.6645353e-15 L191.95817,-2.6645353e-15 L191.95817,14.067326 L191.73396,14.007745 C190.4953,13.684755 189.48243,13.576569 188.12775,13.576569 Z M191.95974,20.472255 L191.95974,34.221295 L191.80608,34.243246 C190.59879,34.406309 189.82737,34.461186 188.89133,34.461186 C186.70722,34.461186 184.98722,33.837156 183.82069,32.620455 C182.6573,31.408457 182.06306,29.628874 182.06306,27.36167 C182.06306,25.041157 182.68396,23.191019 183.8693,21.91944 C185.04837,20.652566 186.78405,19.983066 188.9462,19.983066 C189.99357,19.983066 190.83554,20.097524 191.84057,20.429922 L191.95974,20.472255 Z M81.711849,14.25234 C80.073378,13.788238 78.572884,13.576569 76.506374,13.576569 C72.478402,13.576569 68.122736,14.427946 63.923862,16.082096 L63.923862,40.541557 L71.967262,40.541557 L71.967262,21.289139 L72.084856,21.249941 C73.845623,20.64159 75.507612,20.367205 77.431443,20.367205 C79.002493,20.367205 80.390097,20.561627 81.710281,20.986531 L81.710281,14.25234 L81.711849,14.25234 Z" id="Shape"></path>
        </g>
    </g>
</svg>