<svg xmlns="http://www.w3.org/2000/svg" viewBox="0 0 3743 800" fill="#ffffff"><path d="M3698 45v710H800V45h2898m45-45H755v800h2988V0z"></path><path d="M1019 549q-33-11-52-29l17-35q18 16 46 26a169 169 0 0058 10q39 0 59-13t19-35q0-16-11-26a71 71 0 00-26-16l-44-12q-35-9-57-17a95 95 0 01-37-27q-16-17-16-47a81 81 0 0113-46q14-20 41-32t67-13a213 213 0 0155 8q27 7 46 20l-15 36a163 163 0 00-42-19 158 158 0 00-44-6q-39 0-58 14t-19 36q0 16 11 26a75 75 0 0027 16l43 12q36 8 57 17a96 96 0 0137 26q16 17 16 47a80 80 0 01-13 45q-14 21-41 33t-68 12a216 216 0 01-69-11zM1479 447v109h-44V446l-126-205h49l100 166 102-166h44zM1747 549q-33-11-52-29l16-35q18 16 46 26a170 170 0 0058 10q39 0 59-13t19-35q0-16-11-27a71 71 0 00-26-15l-43-12q-36-9-58-17a95 95 0 01-37-27q-16-17-16-48a81 81 0 0114-45q13-20 40-32t67-13a213 213 0 0155 8q27 7 46 20l-15 36a163 163 0 00-42-19 158 158 0 00-44-6q-38 0-57 14t-20 36q0 16 11 26a75 75 0 0027 16l43 12q36 8 58 17a96 96 0 0137 26q15 17 15 47a80 80 0 01-13 45q-14 21-41 33t-68 12a216 216 0 01-68-11zM2152 280h-108v-39h260v39h-108v276h-44zM2660 517v39h-229V241h223v39h-178v97h158v38h-158v102zM3094 556l-1-229-113 191h-21l-114-190v228h-43V241h37l131 221 130-221h37v315zM3332 549q-33-11-52-29l17-35q18 16 46 26a170 170 0 0058 10q39 0 58-13t20-35q0-16-11-27a71 71 0 00-26-15l-44-12q-35-9-57-17a95 95 0 01-38-27q-15-17-15-47a81 81 0 0113-46q13-20 40-32t67-13a213 213 0 0155 8q27 7 47 20l-15 36a164 164 0 00-42-19 158 158 0 00-45-6q-38 0-57 14t-19 36q0 16 11 26a75 75 0 0026 16l44 12q35 8 57 17a96 96 0 0137 26q16 17 16 47a80 80 0 01-14 45q-13 21-41 33t-67 12a216 216 0 01-69-11z"></path><path d="M755 45v710H45V45h710m45-45H0v800h800V0z"></path><path d="M573 429H447v44h74c-13 57-62 99-121 99-69 0-125-58-125-130v-13h-48v12c0 96 78 173 173 173v1l13-1a173 173 0 00160-185zM237 384h51c20-43 63-73 112-73s92 30 112 73h51a173 173 0 00-282-68v-90h170v-45H236v203z"></path></svg>
