<?xml version="1.0" encoding="UTF-8"?>
<svg width="284px" height="59px" viewBox="0 0 284 59" version="1.1" xmlns="http://www.w3.org/2000/svg" xmlns:xlink="http://www.w3.org/1999/xlink">
    <!-- Generator: Sketch 61.2 (89653) - https://sketch.com -->
    <title>logo-voest</title>
    <desc>Created with Sketch.</desc>
    <g id="Page-1" stroke="none" stroke-width="1" fill="none" fill-rule="evenodd">
        <g id="logo-voest" fill="#FFFFFF" fill-rule="nonzero">
            <g id="Group">
                <polygon id="Path" points="0 8.7 4.28 8.7 11.66 23.59 19.08 8.7 23.36 8.7 11.66 31.14"></polygon>
                <path d="M22.48,19.74 C22.4239457,16.6796118 23.6239932,13.7298501 25.8006239,11.577782 C27.9772546,9.42571401 30.940445,8.25921882 34,8.35 C37.039832,8.28962266 39.9731454,9.46990728 42.1239983,11.6188735 C44.2748513,13.7678397 45.4577096,16.7001161 45.4,19.74 C45.4604654,22.7816014 44.2788242,25.7165004 42.1276623,27.8676623 C39.9765004,30.0188242 37.0416014,31.2004654 34,31.14 C30.9386766,31.2308851 27.9738905,30.0630392 25.7969456,27.9087708 C23.6200007,25.7545024 22.4211748,22.8021073 22.48,19.74 M41.48,19.74 C41.48,15.37 38.48,11.92 33.97,11.92 C29.46,11.92 26.42,15.36 26.42,19.74 C26.42,24.12 29.42,27.56 33.97,27.56 C38.52,27.56 41.48,24.12 41.48,19.74" id="Shape"></path>
                <path d="M47.8,19.74 C47.7301237,16.7502789 48.8663214,13.8582182 50.9525449,11.7155595 C53.0387684,9.57290081 55.899479,8.35993119 58.89,8.35 C65.07,8.35 69.58,12.81 69.66,20.67 L51.73,20.67 C51.9844615,24.5711346 55.2407302,27.5948127 59.15,27.56 C61.5652903,27.5615741 63.8834565,26.6091492 65.6,24.91 L68,27.56 C65.6456448,29.9046641 62.4422414,31.1961263 59.12,31.14 C56.0904766,31.1841463 53.1732116,29.9946157 51.0383446,27.8446613 C48.9034776,25.6947069 47.7345204,22.7691374 47.8,19.74 M51.91,17.36 L65.38,17.36 C64.9681078,14.0278637 62.0190371,11.6018025 58.67,11.84 C55.3927787,11.8441512 52.5692363,14.1497657 51.91,17.36" id="Shape"></path>
                <path d="M70.86,26.72 L74,24.72 C75.2234385,26.6761315 77.4050534,27.822339 79.71,27.72 C82.13,27.72 84.3,26.62 84.3,24.94 C84.3,23.26 82.83,22.33 79.91,21.41 L78,20.76 C73.65,19.3 72.11,16.87 72.11,14.22 C72.11,10.91 75.32,8.35 79.83,8.35 C82.8569402,8.18995384 85.7199331,9.73334621 87.25,12.35 L84.14,14 C83.2376727,12.4867322 81.5690489,11.6003962 79.81,11.7 C77.93,11.7 76.1,12.58 76.1,14.13 C76.1,15.5 77.04,16.56 79.91,17.49 L81.91,18.15 C86.11,19.52 88.34,21.51 88.34,24.77 C88.34,28.3 84.98,31.09 79.59,31.09 C76.1046558,31.2315967 72.7942688,29.5593783 70.84,26.67" id="Path"></path>
                <path d="M88.33,8.7 L92.7,8.7 L92.7,4 L96.5,2.1 L96.5,8.7 L103.17,8.7 L102.33,12.14 L96.5,12.14 L96.5,23.81 C96.5,26.06 97.34,27.34 99.77,27.34 L102.77,27.34 L102.77,30.78 L99.37,30.78 C95.13,30.78 92.7,28.57 92.7,24.38 L92.7,12.15 L89.17,12.15 L88.33,8.7 Z" id="Path"></path>
                <path d="M121.94,28.58 C120.006054,30.2738771 117.510447,31.1865563 114.94,31.14 C111.916646,31.1874677 109.005003,29.9983778 106.879212,27.8480442 C104.753421,25.6977106 103.597831,22.7726097 103.68,19.75 C103.595233,16.729203 104.746888,13.8046397 106.8686,11.6527251 C108.990312,9.50081041 111.898307,8.30793644 114.92,8.35 C117.490609,8.3024789 119.986553,9.21528128 121.92,10.91 L121.92,8.7 L125.72,8.7 L125.72,30.78 L121.92,30.78 L121.94,28.58 Z M121.94,23.99 L121.94,15.5 C120.403383,13.1857942 117.776256,11.8343757 115,11.93 C110.67,11.93 107.58,15.37 107.58,19.75 C107.58,24.13 110.67,27.57 115,27.57 C117.776256,27.6656243 120.403383,26.3142058 121.94,24" id="Shape"></path>
                <rect id="Rectangle" x="130.77" y="0" width="3.8" height="30.78"></rect>
                <path d="M139.56,8.7 L143.36,8.7 L143.36,10.91 C145.285812,9.20244457 147.786943,8.28774513 150.36,8.35 C153.383354,8.30253226 156.294997,9.49162222 158.420788,11.6419558 C160.546579,13.7922894 161.702169,16.7173903 161.62,19.74 C161.702169,22.7626097 160.546579,25.6877106 158.420788,27.8380442 C156.294997,29.9883778 153.383354,31.1774677 150.36,31.13 C147.786943,31.1922549 145.285812,30.2775554 143.36,28.57 L143.36,39.47 L139.56,39.47 L139.56,8.7 Z M143.36,15.5 L143.36,24 C144.877361,26.3315698 147.510413,27.6917902 150.29,27.58 C154.62,27.58 157.71,24.14 157.71,19.76 C157.71,15.38 154.62,11.94 150.29,11.94 C147.510413,11.8282098 144.877361,13.1884302 143.36,15.52" id="Shape"></path>
                <rect id="Rectangle" x="165.17" y="8.7" width="3.8" height="22.08"></rect>
                <path d="M174,8.7 L177.8,8.7 L177.8,11.22 C179.516184,9.25486192 182.045569,8.19510508 184.65,8.35 C189.65,8.35 193.17,11.84 193.17,17.35 L193.17,30.78 L189.37,30.78 L189.37,17.54 C189.460129,16.0351202 188.905119,14.5630702 187.843884,13.4922917 C186.782649,12.4215132 185.315626,11.8533469 183.81,11.93 C180.96039,11.7988505 178.429021,13.7353476 177.81,16.52 L177.81,30.78 L174,30.78 L174,8.7 Z" id="Path"></path>
                <path d="M196.53,19.74 C196.460154,16.7520063 197.594991,13.861479 199.679044,11.7191182 C201.763096,9.57675742 204.621217,8.36261058 207.61,8.35 C213.79,8.35 218.3,12.81 218.39,20.67 L200.46,20.67 C200.709575,24.5734555 203.968777,27.599857 207.88,27.56 C210.29529,27.5615741 212.613457,26.6091492 214.33,24.91 L216.76,27.56 C214.405645,29.9046641 211.202241,31.1961263 207.88,31.14 C204.847087,31.1922969 201.923551,30.0077593 199.782415,27.8590773 C197.641279,25.7103952 196.467034,22.7827107 196.53,19.75 M200.64,17.37 L214.1,17.37 C213.688108,14.0378637 210.739037,11.6118025 207.39,11.85 C204.112779,11.8541512 201.289236,14.1597657 200.63,17.37" id="Shape"></path>
            </g>
            <g id="Group" transform="translate(139.000000, 48.000000)">
                <g>
                    <polygon id="Path" points="16.35 2.45 16.35 10.82 15.28 10.82 15.28 0.19 24.45 8.68 24.45 0.3 25.52 0.3 25.52 10.94"></polygon>
                    <polygon id="Path" points="29.09 0.3 36 0.3 36 1.17 30.18 1.17 30.18 5 35 5 35 5.89 30.22 5.89 30.22 9.99 36 9.99 36 10.86 29.1 10.86"></polygon>
                    <path d="M42.71,9.48 L43.52,8.84 C44.3131337,9.63790307 45.3950206,10.0814767 46.52,10.07 C48.2,10.07 49.33,9.36 49.33,8.26 C49.33,7.16 48.48,6.54 47.08,6.01 L45.78,5.54 C43.91,4.86 43.16,3.94 43.16,2.67 C43.16,1.17 44.89,0.2 46.66,0.2 C47.9342067,0.17241693 49.1674721,0.650621879 50.09,1.53 L49.29,2.17 C48.5966822,1.42855051 47.6141841,1.02678548 46.6,1.07 C45.32,1.07 44.23,1.69 44.23,2.73 C44.23,3.6 44.73,4.2 46.14,4.73 L47.44,5.2 C49.1,5.81 50.44,6.65 50.44,8.2 C50.44,9.75 49,11.0100051 46.54,11.0100051 C45.1140012,11.0119293 43.7421756,10.4639155 42.71,9.48 L42.71,9.48 Z" id="Path"></path>
                    <polygon id="Path" points="54.84 1.18 51.36 1.18 51.36 0.3 59.42 0.3 59.42 1.17 55.92 1.17 55.92 10.82 54.85 10.82"></polygon>
                    <polygon id="Path" points="61.29 0.3 68.19 0.3 68.19 1.17 62.37 1.17 62.37 5 67.15 5 67.15 5.89 62.37 5.89 62.37 9.99 68.19 9.99 68.19 10.86 61.29 10.86"></polygon>
                    <path d="M71,0.3 L74.22,0.3 C76.89,0.3 78.48,1.41 78.48,3.37 C78.48,5.33 76.89,6.44 74.22,6.44 L72,6.44 L72,10.83 L71,10.83 L71,0.3 Z M74.22,5.59 C76.32,5.59 77.36,4.8 77.36,3.37 C77.36,1.94 76.36,1.13 74.22,1.13 L72,1.13 L72,5.59 L74.22,5.59 Z" id="Shape"></path>
                    <path d="M88.82,0.19 L94.76,10.83 L93.63,10.83 L91.83,7.62 L85.83,7.62 L84,10.82 L82.9,10.82 L88.82,0.19 Z M86.29,6.74 L91.35,6.74 L88.82,2.19 L86.29,6.74 Z" id="Shape"></path>
                    <polygon id="Path" points="96.57 0.3 97.64 0.3 97.64 5 105.21 5 105.21 0.3 106.29 0.3 106.29 10.82 105.21 10.82 105.21 5.82 97.64 5.82 97.64 10.82 96.57 10.82"></polygon>
                    <polygon id="Path" points="109.8 0.3 116.7 0.3 116.7 1.17 110.88 1.17 110.88 5 115.66 5 115.66 5.89 110.88 5.89 110.88 9.99 116.7 9.99 116.7 10.86 109.8 10.86"></polygon>
                    <path d="M123.85,0.19 L129.8,10.83 L128.67,10.83 L126.87,7.62 L120.87,7.62 L119.08,10.83 L117.95,10.83 L123.85,0.19 Z M121.32,6.74 L126.38,6.74 L123.85,2.19 L121.32,6.74 Z" id="Shape"></path>
                    <path d="M131.43,0.3 L134.85,0.3 C138.77,0.3 141.52,2.51 141.52,5.56 C141.52,8.61 138.76,10.82 134.85,10.82 L131.43,10.82 L131.43,0.3 Z M134.85,9.95 C138.21,9.95 140.41,8.11 140.41,5.56 C140.41,3.01 138.21,1.17 134.85,1.17 L132.5,1.17 L132.5,9.94 L134.85,9.95 Z" id="Shape"></path>
                    <path d="M142.42,10.07 C142.36599,9.65794783 142.572454,9.25543757 142.938628,9.05891504 C143.304801,8.8623925 143.754355,8.91282262 144.067884,9.18559289 C144.381413,9.45836315 144.493562,9.89661488 144.349597,10.2864586 C144.205632,10.6763022 143.835562,10.9364754 143.42,10.94 C142.914741,10.9442854 142.485668,10.570992 142.42,10.07 Z" id="Path"></path>
                    <path d="M0.36,5.56 C0.36,2.51 3.05,0.18 6.49,0.18 C9.93,0.18 12.62,2.51 12.62,5.56 C12.62,8.61 9.93,10.94 6.49,10.94 C3.05,10.94 0.36,8.62 0.36,5.56 Z M11.54,5.56 C11.54,3.01 9.38,1.06 6.54,1.06 C3.7,1.06 1.54,3.06 1.54,5.56 C1.54,8.06 3.7,10.06 6.54,10.06 C9.38,10.06 11.54,8.11 11.54,5.56 L11.54,5.56 Z" id="Shape"></path>
                </g>
            </g>
        </g>
    </g>
</svg>