<?xml version="1.0" encoding="UTF-8"?>
<svg width="115px" height="24px" viewBox="0 0 115 24" version="1.1" xmlns="http://www.w3.org/2000/svg" xmlns:xlink="http://www.w3.org/1999/xlink">
    <!-- Generator: Sketch 61.2 (89653) - https://sketch.com -->
    <title>logo-immoscout</title>
    <desc>Created with Sketch.</desc>
    <defs>
        <polygon id="path-1" points="0 0.095 50.759 0.095 50.759 23.51 0 23.51"></polygon>
    </defs>
    <g id="Page-1" stroke="none" stroke-width="1" fill="none" fill-rule="evenodd">
        <g id="logo-immoscout">
            <g id="Group" transform="translate(0.304000, 0.000000)">
                <g id="Clipped">
                    <mask id="mask-2" fill="white">
                        <use xlink:href="#path-1"></use>
                    </mask>
                    <g id="a"></g>
                    <path d="M45.552,22.872 C45.593,23.225 45.327,23.51 45.327,23.51 L45.027,23.415 C45.027,23.415 42.82,22.621 39.425,21.605 C39.425,21.605 36.421,20.695 35.2,20.286 C35.2,20.286 34.939,20.184 34.426,20.236 C33.913,20.286 32.139,20.423 30.972,20.548 L29.188,20.753 C25.966,21.13 24.494,21.196 24.494,21.196 C19.38,21.7 18.156,21.793 18.156,21.793 C15.456,21.995 13.736,22.323 9.698,22.591 L2.096,23.367 C2.096,23.367 1.554,23.427 1.55,23.424 L1.348,23.443 C1.18,23.329 1.16,23.196 1.16,23.196 L1.167,22.908 C1.488,22.79 1.127,22.438 1.127,22.438 C0.963,22.366 1.017,22.242 1.017,22.242 C1.019,22.218 1.032,22.204 1.041,22.188 C1.057,22.158 1.092,22.109 1.089,22.102 C1.053,22.009 1.222,21.675 1.222,21.675 C1.136,21.565 1.17,21.585 1.084,21.476 C1.03,21.406 1.004,21.197 0.991,21.049 C0.982,20.946 1.162,20.743 1.115,20.687 C1.038,20.596 0.958,20.514 0.882,20.417 C0.851702699,20.3716552 0.830948386,20.32062 0.821,20.267 C0.817103971,20.2295393 0.825908472,20.1918561 0.846,20.16 C0.9,20.081 0.902,20.078 0.834,19.952 C0.808,19.904 0.779,19.866 0.751,19.821 C0.692,19.722 0.886,19.503 0.868,19.361 C0.857942311,19.2924836 0.842221808,19.2249188 0.821,19.159 C0.805123324,19.1049852 0.791775478,19.050259 0.781,18.995 C0.77558775,18.9818249 0.770585346,18.9684852 0.766,18.955 C0.754778713,18.9249898 0.752011488,18.8924749 0.758,18.861 C0.750550292,18.8133514 0.749541252,18.7649175 0.755,18.717 L0.692,18.507 C0.676,18.453 0.679,18.406 0.699,18.374 C0.705,18.365 0.71,18.355 0.718,18.351 C0.758,18.328 0.743,18.231 0.76,18.176 L0.736,18.146 C0.709,18.112 0.698,18.087 0.706,18.062 C0.726,18.005 0.708,17.921 0.713,17.855 C0.715491727,17.7739491 0.701192189,17.6932588 0.671,17.618 C0.658,17.582 0.651,17.543 0.641,17.505 C0.628,17.455 0.631,17.416 0.645,17.391 C0.667,17.352 0.692,17.321 0.715,17.284 C0.731,17.259 0.728,17.193 0.707,17.142 C0.691237342,17.1047722 0.674227738,17.0680849 0.656,17.032 C0.630389902,16.9921435 0.603029843,16.9534391 0.574,16.916 C0.503856341,16.83641 0.472389024,16.7299333 0.488,16.625 C0.501,16.548 0.486,16.507 0.444,16.46 C0.414245801,16.4268111 0.389025818,16.3898218 0.369,16.35 C0.288,16.186 0.292,16.136 0.385,16.123 C0.469,16.111 0.485,16.089 0.457,15.911 C0.431,15.743 0.434,15.642 0.521,15.618 C0.566,15.606 0.608,15.552 0.59,15.42 C0.572,15.286 0.629,15.043 0.553,15.011 C0.456,14.971 0.446,14.801 0.391,14.701 C0.391,14.698 0.399,14.661 0.404,14.663 C0.419,14.669 0.435,14.694 0.45,14.7 C0.469,14.707 0.486,14.703 0.504,14.704 C0.491,14.664 0.481,14.613 0.464,14.589 C0.411,14.518 0.394,14.465 0.394,14.345 C0.394,14.205 0.385,14.018 0.264,13.915 C0.245,13.898 0.222,13.801 0.219,13.751 C0.217,13.716 0.244,13.687 0.264,13.674 C0.285,13.66 0.315,13.674 0.339,13.664 C0.36,13.654 0.377,13.63 0.397,13.612 C0.379,13.569 0.365,13.515 0.344,13.484 C0.312717467,13.4372779 0.276141633,13.3943265 0.235,13.356 C0.169,13.295 0.136,13.185 0.179,13.136 C0.25,13.057 0.193,12.991 0.148,12.908 C0.121464101,12.8601211 0.0993717207,12.8099111 0.082,12.758 C0.073940098,12.725277 0.0725795065,12.6912622 0.078,12.658 C0.094,12.628 0.15,12.521 0.28,12.528 C0.337,12.532 0.345,12.45 0.343,12.43 C0.326,12.386 0.186,12.424 0.166,12.405 C0.117,12.358 0.171,12.341 0.121,12.305 C0.071,12.267 -0.013,12.053 0.001,11.985 C0.01,11.947 0.044,11.939 0.07,11.932 C0.108,11.922 0.161,11.953 0.095,11.802 C0.051,11.704 0.07,11.745 0.1,11.625 C0.114,11.565 0.145,11.59 0.123,11.521 L0.164,11.485 C0.164,11.485 0.809,11.388 0.9,11.378 C1.083,11.359 0.93,11.106 0.93,11.106 C0.877,10.765 0.918,10.621 0.915,10.576 C0.892,10.302 0.799,10.261 0.691,10.194 C0.666,10.178 0.633,10.073 0.619,10.006 C0.614,9.983 0.649,9.929 0.672,9.93 C0.71,9.932 0.725,9.908 0.766,9.931 C0.779,9.938 0.79,9.881 0.803,9.889 C0.8,9.86 0.82,9.87 0.81,9.851 C0.783,9.798 0.76,9.838 0.734,9.784 C0.707652427,9.73498674 0.688457694,9.68245379 0.677,9.628 C0.674,9.608 0.709,9.578 0.731,9.572 C0.768,9.563 0.788,9.461 0.747,9.352 C0.717,9.271 0.713,9.275 0.693,9.184 C0.661,9.035 0.677,8.943 0.733,8.887 C0.801,8.821 0.793,8.755 0.711,8.625 C0.704,8.615 0.698,8.602 0.691,8.594 C0.655,8.555 0.619,8.522 0.621,8.433 C0.625,8.33 0.698,8.257 0.729,8.263 C0.752,8.269 0.765,8.213 0.768,8.195 C0.784,8.081 0.78,8.116 0.751,8.055 C0.718,7.986 0.643,7.988 0.579,7.98 C0.454,7.964 0.469,7.915 0.402,7.824 C0.342,7.744 0.322,7.714 0.372,7.646 C0.385,7.628 0.465,7.613 0.487,7.616 C0.537,7.622 0.518,7.582 0.524,7.486 C0.525,7.459 0.533,7.436 0.539,7.416 C0.589,7.254 0.587,7.254 0.531,7.006 C0.491,6.83 0.461,6.666 0.528,6.546 C0.572,6.467 0.54,6.206 0.598,6.192 C0.633,6.183 0.635,6.082 0.644,6.028 C0.65,5.991 0.656,5.978 0.676,5.975 C0.688,5.974 0.703,5.936 0.71,5.913 C0.725,5.866 0.648,5.789 0.63,5.751 C0.601868451,5.68564985 0.570837648,5.62158626 0.537,5.559 C0.489,5.474 0.453,5.405 0.524,5.373 C0.572,5.351 0.559,5.246 0.526,5.2 C0.452,5.095 0.436,4.971 0.41,4.845 C0.407,4.83 0.402,4.814 0.4,4.799 C0.395,4.721 0.31,4.652 0.348,4.58 C0.368,4.542 0.418,4.567 0.448,4.542 C0.502,4.497 0.62,4.43 0.558,4.38 C0.54,4.365 0.562,4.273 0.548,4.251 C0.506,4.188 0.49,4.138 0.445,4.097 C0.367,4.028 0.402,4.06 0.346,3.93 L0.335,3.862 C0.313,3.791 0.399,3.785 0.399,3.785 L1.225,3.68 C1.225,3.68 3.405,3.445 5.467,3.236 C5.467,3.236 7.044,3.079 13.664,2.393 C13.664,2.393 16.462,2.145 19.651,1.708 C19.651,1.708 22.441,1.368 28.189,0.894 C28.189,0.894 32.112,0.484 34.934,0.133 C34.934,0.133 35.969,-0.031 36.691,0.334 C36.691,0.334 41.294,2.308 42.921,2.937 L50.649,6.322 C50.846,6.43 50.717,6.517 50.717,6.517 C50.704,6.537 50.68,6.544 50.661,6.555 C50.624,6.576 50.555,6.605 50.556,6.613 C50.566,6.701 50.569,6.803 50.607,6.867 C50.677,6.984 50.639,6.957 50.71,7.073 C50.756,7.147 50.7,7.329 50.653,7.457 C50.621,7.545 50.283,7.662 50.323,7.722 C50.391,7.822 50.465,7.912 50.528,8.016 C50.549,8.05 50.558,8.114 50.548,8.159 C50.541,8.191 50.498,8.227 50.466,8.241 C50.357,8.291 50.353,8.293 50.392,8.418 C50.407,8.465 50.432,8.506 50.45,8.551 C50.49,8.651 50.125,8.777 50.088,8.901 C50.0720991,8.96033974 50.0643612,9.02157007 50.065,9.083 C50.065,9.122 50.058,9.176 50.049,9.231 C50.0506286,9.24327428 50.0516299,9.25562367 50.052,9.268 C50.0541147,9.29835566 50.0432049,9.3281759 50.022,9.35 C50.0106989,9.39340759 49.9909936,9.43417715 49.964,9.47 L49.96,9.664 C49.9603291,9.71042893 49.9338449,9.75288146 49.892,9.773 C49.88,9.779 49.868,9.785 49.856,9.787 C49.791,9.794 49.768,9.88 49.721,9.919 L49.741,9.952 C49.764,9.989 49.768,10.012 49.745,10.03 C49.69,10.074 49.681,10.156 49.641,10.21 C49.587,10.282 49.605,10.363 49.601,10.442 C49.6,10.466 49.596,10.49 49.594,10.514 C49.59,10.56 49.568,10.591 49.537,10.608 C49.491,10.634 49.442,10.653 49.395,10.677 C49.361,10.693 49.337,10.749 49.344,10.797 C49.349,10.834 49.358,10.87 49.366,10.905 C49.386,10.947 49.406,10.988 49.429,11.025 C49.483,11.113 49.498,11.203 49.421,11.293 C49.371,11.353 49.373,11.392 49.411,11.443 C49.433,11.476 49.456,11.514 49.466,11.556 C49.508,11.718 49.48,11.758 49.346,11.741 C49.224,11.727 49.193,11.741 49.154,11.897 C49.116,12.045 49.067,12.127 48.937,12.123 C48.869,12.12 48.787,12.153 48.755,12.268 C48.721,12.385 48.742,12.53 48.832,12.578 C48.948,12.641 48.889,12.785 48.92,12.885 C48.92,12.887 48.893,12.915 48.887,12.912 C48.869,12.902 48.857,12.877 48.839,12.868 C48.816,12.856 48.79,12.855 48.765,12.848 C48.767,12.885 48.758,12.932 48.772,12.956 C48.814,13.032 48.815,13.081 48.762,13.18 C48.699,13.297 48.632,13.456 48.755,13.578 C48.773,13.596 48.764,13.684 48.745,13.727 C48.733,13.757 48.683,13.773 48.65,13.778 C48.614,13.783 48.578,13.763 48.542,13.764 C48.508,13.766 48.473,13.781 48.439,13.791 C48.444,13.832 48.441,13.881 48.456,13.913 C48.4805599,13.9638104 48.5125807,14.0106619 48.551,14.052 C48.615,14.122 48.614,14.224 48.532,14.251 C48.4,14.296 48.45,14.368 48.476,14.451 C48.4919797,14.497425 48.5010762,14.5459395 48.503,14.595 C48.503,14.622 48.477,14.678 48.463,14.679 C48.358,14.692 48.25,14.81 48.146,14.711 C48.131,14.696 48.099,14.706 48.074,14.705 C48.078,14.747 48.07,14.806 48.088,14.827 C48.136,14.881 48.197,14.917 48.251,14.962 C48.305,15.008 48.327,15.211 48.276,15.264 C48.249,15.292 48.198,15.289 48.16,15.287 C48.102,15.284 48.042,15.243 48.068,15.388 C48.085,15.483 48.058,15.583 47.95,15.586 C47.863,15.588 47.854,15.686 47.854,15.749 C47.854,15.892 47.804,15.978 47.704,16.037 C47.653,16.067 47.591,16.094 47.69,16.152 C47.78,16.205 47.82,16.299 47.798,16.459 C47.781,16.589 47.761,16.752 47.881,16.84 C47.908,16.86 47.908,16.958 47.899,17.018 C47.896,17.038 47.824,17.074 47.792,17.066 C47.74,17.053 47.695,17.011 47.648,16.98 C47.633,16.97 47.62,16.957 47.606,16.946 C47.598,16.971 47.578,17.003 47.583,17.02 C47.599,17.073 47.629,17.117 47.643,17.17 C47.655,17.215 47.663,17.27 47.653,17.316 C47.649,17.334 47.587,17.349 47.554,17.346 C47.499,17.343 47.467,17.336 47.476,17.439 C47.481,17.515 47.45,17.6 47.437,17.682 C47.417,17.815 47.354,17.887 47.252,17.917 C47.131,17.953 47.112,18.01 47.169,18.142 C47.174,18.153 47.178,18.166 47.184,18.175 C47.216,18.217 47.252,18.255 47.209,18.329 C47.159,18.414 47.131,18.342 47.091,18.326 C47.061,18.316 46.997,18.322 46.991,18.337 C46.971,18.405 46.946,18.49 46.961,18.549 C46.976,18.616 47.03,18.666 47.071,18.719 C47.136,18.803 47.216,18.872 47.27,18.967 C47.318,19.05 47.286,19.097 47.198,19.093 C47.1664854,19.0920048 47.1352294,19.0869635 47.105,19.078 C47.04,19.058 46.982,19.068 46.932,19.148 C46.918,19.169 46.898,19.185 46.88,19.201 C46.74,19.321 46.743,19.321 46.713,19.544 C46.693,19.704 46.661,19.848 46.516,19.929 C46.421,19.982 46.352,20.209 46.264,20.204 C46.213,20.201 46.166,20.285 46.13,20.327 C46.106,20.357 46.092,20.366 46.063,20.362 C46.045,20.359 46.023,20.329 46.003,20.346 C45.962,20.381 46.021,20.525 46.027,20.562 C46.039,20.627 46.054,20.689 46.074,20.75 C46.102,20.835 46.123,20.903 46.01,20.909 C45.934,20.913 45.907,21.004 45.932,21.053 C45.989,21.161 45.957,21.269 45.937,21.383 C45.935,21.396 45.936,21.411 45.931,21.423 C45.906,21.49 45.992,21.573 45.909,21.621 C45.865,21.647 45.806,21.611 45.755,21.624 C45.6580443,21.6470901 45.5630783,21.6778538 45.471,21.716 C45.459,21.721 45.443,21.798 45.453,21.821 C45.4807084,21.8849614 45.5185248,21.9440494 45.565,21.996 C45.642,22.076 45.69,22.177 45.71,22.302 C45.726,22.397 45.715,22.483 45.64,22.56 C45.514,22.69 45.552,22.873 45.552,22.873" id="Path" fill="#333333" fill-rule="nonzero" mask="url(#mask-2)"></path>
                </g>
            </g>
            <path d="M20.137,9.063 C19.584,8.588 18.847,8.327 18.058,8.327 C16.645,8.327 15.534,8.971 15.09,10.027 C14.62,8.779 13.49,8.327 12.547,8.327 C11.501,8.327 10.638,8.785 10.188,9.565 L9.947,8.567 L8.527,8.567 L8.527,18.122 L10.267,18.122 L10.267,12.244 C10.267,10.837 11.058,9.927 12.284,9.927 C13.338,9.927 13.944,10.583 13.944,11.726 L13.944,18.122 L15.684,18.122 L15.684,12.244 C15.684,10.837 16.476,9.927 17.701,9.927 C18.756,9.927 19.361,10.583 19.361,11.726 L19.361,18.122 L21.101,18.122 L21.101,11.301 C21.101,10.378 20.768,9.605 20.137,9.063 M33.68,9.063 C33.126,8.588 32.388,8.327 31.6,8.327 C30.188,8.327 29.076,8.971 28.633,10.027 C28.163,8.779 27.032,8.327 26.089,8.327 C25.043,8.327 24.18,8.785 23.731,9.565 L23.489,8.567 L22.069,8.567 L22.069,18.122 L23.809,18.122 L23.809,12.244 C23.809,10.837 24.601,9.927 25.826,9.927 C26.881,9.927 27.486,10.583 27.486,11.726 L27.486,18.122 L29.226,18.122 L29.226,12.244 C29.226,10.837 30.018,9.927 31.243,9.927 C32.298,9.927 32.903,10.583 32.903,11.726 L32.903,18.122 L34.643,18.122 L34.643,11.301 C34.643,10.378 34.31,9.605 33.679,9.063 M40.707,16.912 C39.265,16.912 37.806,15.729 37.806,13.469 C37.806,11.486 39.026,10.046 40.707,10.046 C42.367,10.046 43.572,11.486 43.572,13.469 C43.572,15.729 42.131,16.912 40.707,16.912 M40.689,8.327 C39.338,8.327 38.177,8.851 37.332,9.843 C36.534,10.779 36.094,12.067 36.094,13.469 C36.094,14.879 36.534,16.169 37.332,17.103 C38.175,18.09 39.336,18.613 40.689,18.613 C43.351,18.613 45.283,16.449 45.283,13.469 C45.283,10.489 43.351,8.327 40.689,8.327 M5.14,6.065 L5.14,18.122 L7.075,18.122 L7.075,5.388 L5.14,6.065 Z M98.603,16.403 C98.867,16.199 99.135,15.996 99.403,15.793 C101.873,13.921 104.426,11.984 104.426,9.153 C104.426,6.936 102.801,5.388 100.474,5.388 C98.43,5.388 96.23,6.735 96.23,9.692 C96.23,9.835 96.24,9.993 96.255,10.092 L97.921,9.459 C97.921,7.832 99.151,6.981 100.365,6.981 C101.545,6.981 102.735,7.72 102.735,9.369 C102.735,11.505 100.521,13.177 97.455,15.492 C97.018,15.822 96.563,16.165 96.094,16.526 L96.067,16.546 L96.067,18.122 L104.772,18.122 L104.772,16.403 L98.602,16.403 L98.603,16.403 Z M56.991,11.11 L56.837,11.052 C55.434,10.51 54.441,10.034 54.441,8.832 C54.441,7.647 55.426,7.027 56.4,7.027 C57.185,7.027 58.18,7.427 58.569,8.301 L60.221,7.686 L60.196,7.627 C59.546,6.08 57.83,5.387 56.419,5.387 C54.569,5.387 52.58,6.504 52.58,8.957 C52.58,11.351 54.495,12.097 56.034,12.696 L56.223,12.77 C57.795,13.39 58.825,13.89 58.825,15.115 C58.825,16.386 57.71,16.955 56.605,16.955 C55.513,16.955 54.208,16.397 53.824,14.831 L53.807,14.762 L52.055,15.399 C52.582,17.355 54.325,18.612 56.53,18.612 C57.64,18.612 58.672,18.288 59.437,17.7 C60.303,17.035 60.76,16.086 60.76,14.954 C60.76,12.55 58.758,11.785 56.991,11.111 M77.936,13.47 C77.936,15.747 76.482,16.94 75.046,16.94 C73.592,16.94 72.119,15.747 72.119,13.47 C72.119,11.47 73.35,10.019 75.046,10.019 C76.721,10.019 77.936,11.469 77.936,13.469 M75.028,8.327 C72.366,8.327 70.433,10.489 70.433,13.469 C70.433,16.449 72.366,18.612 75.028,18.612 C77.69,18.612 79.622,16.449 79.622,13.469 C79.622,10.489 77.69,8.327 75.028,8.327 M87.138,14.319 C87.138,16.083 85.855,17.035 84.648,17.035 C83.729,17.035 82.748,16.483 82.748,14.932 L82.748,8.816 L81.073,8.816 L81.073,14.932 C81.073,17.648 82.82,18.612 84.316,18.612 C85.519,18.612 86.579,18.032 87.129,17.084 L87.449,18.389 L88.812,18.389 L88.812,8.816 L87.138,8.816 L87.138,14.319 L87.138,14.319 Z M92.792,6.367 L91.245,7.004 L91.245,9.036 L89.779,9.036 L89.779,10.541 L91.245,10.541 L91.245,15.669 C91.245,18.23 92.61,18.612 93.425,18.612 C93.786,18.612 94.16,18.552 94.567,18.428 L94.616,18.413 L94.616,16.775 L94.513,16.845 C94.274,17.009 93.995,17.107 93.765,17.107 C93.147,17.107 92.792,16.629 92.792,15.797 L92.792,10.54 L94.616,10.54 L94.616,9.036 L92.792,9.036 L92.792,6.367 L92.792,6.367 Z" id="Shape" fill="#FFFFFF" fill-rule="nonzero"></path>
            <path d="M112.183,13.278 L112.183,9.473 L110.433,10.126 L110.433,13.278 L106.508,13.278 L111.296,5.388 L109.353,5.388 L104.289,13.713 L104.289,14.988 L110.434,14.988 L110.434,18.122 L112.184,18.122 L112.184,14.988 L114.445,14.988 L114.445,13.278 L112.183,13.278 Z M68.88,15.407 C68.38,16.345 67.447,16.92 66.398,16.92 C64.943,16.92 63.476,15.847 63.476,13.45 C63.476,11.798 64.355,10.019 66.285,10.019 C67.247,10.019 68.102,10.539 68.555,11.389 L70.186,10.757 L70.157,10.694 C69.48,9.234 67.996,8.327 66.285,8.327 C65.08,8.327 63.965,8.78 63.143,9.603 C62.217,10.533 61.728,11.869 61.728,13.469 C61.728,17.003 64.109,18.612 66.323,18.612 C68.043,18.612 69.567,17.664 70.4,16.077 L70.433,16.014 L70.419,16.008 L68.879,15.408 L68.88,15.407 Z" id="Shape" fill="#FFFFFF" fill-rule="nonzero"></path>
        </g>
    </g>
</svg>