<?xml version="1.0" encoding="UTF-8"?>
<svg width="155px" height="100px" viewBox="0 0 155 100" version="1.1" xmlns="http://www.w3.org/2000/svg" xmlns:xlink="http://www.w3.org/1999/xlink">
    <!-- Generator: Sketch 59.1 (86144) - https://sketch.com -->
    <title>logo</title>
    <desc>Created with Sketch.</desc>
    <g id="Symbols" stroke="none" stroke-width="1" fill="none" fill-rule="evenodd">
        <g id="Header_Nav" fill-rule="nonzero">
            <g id="Header">
                <g id="logo">
                    <g id="Layer_2" fill="#A50D73">
                        <g id="wabe" transform="translate(0.000000, 0.000000)">
                            <polygon id="Combined-Shape" points="43.1578947 0 86.3157895 24.921875 86.3157895 40.234375 83.9723744 40.234375 83.9723744 26.25 43.1578947 2.6953125 2.3434151 26.25 2.3434151 73.3984375 43.1578947 96.9140625 83.9723744 73.359375 83.9723744 58.984375 86.3157895 58.984375 86.3157895 74.765625 43.1578947 99.6875 7.10542736e-15 74.765625 7.10542736e-15 24.921875"></polygon>
                        </g>
                    </g>
                    <g id="Layer_1" transform="translate(25.263158, 42.105263)">
                        <g id="Lean-Hive_1_">
                            <polygon id="Path_1_" fill="#C2C4CA" points="0 15.3910931 10.9524567 15.3910931 10.9524567 12.9425101 2.77723008 12.9425101 2.77723008 0.233198381 0 0.233198381"></polygon>
                            <polygon id="Path" fill="#D8D8D8" points="93.0958817 15.3910931 95.8339959 15.3910931 95.8339959 12.9425101 95.8339959 0.233198381 93.0958817 0.233198381"></polygon>
                            <polyline id="Path" fill="#C2C4CA" points="14.08173 6.45182186 14.08173 15.3910931 25.816505 15.3910931 25.816505 12.9813765 16.8589601 12.9813765 16.8589601 8.86153846 24.7212593 8.86153846 24.7212593 6.45182186 21.3964064 6.45182186 16.8589601 6.45182186 14.08173 6.45182186"></polyline>
                            <polygon id="Path" fill="#A50D73" points="25.816505 0.233198381 14.4728892 0.233198381 14.4728892 2.56518219 25.816505 2.56518219"></polygon>
                            <path d="M37.4339323,0.233198381 L34.9305136,0.233198381 L28.16346,15.7797571 L30.9406901,15.7797571 C33.6005724,9.48340081 33.326761,10.0663968 36.143107,3.45910931 C38.959453,9.98866397 38.7247575,9.52226721 41.3455239,15.7797571 L44.2009858,15.7797571 L37.4339323,0.233198381" id="Path" fill="#C2C4CA" opacity="0.99"></path>
                            <path d="M105.534743,15.7797571 L108.038162,15.7408907 L114.609636,0.233198381 L111.832406,0.272064777 C109.250755,6.52955466 109.524567,5.9465587 106.786453,12.5538462 C103.891875,6.10202429 104.12657,6.56842105 101.427572,0.388663968 L98.57211,0.427530364 L105.534743,15.7797571" id="Path" fill="#D8D8D8" opacity="0.99"></path>
                            <polygon id="Path" fill="#C2C4CA" points="58.4000636 10.6882591 50.224837 0.233198381 47.7214183 0.233198381 47.7214183 15.3910931 50.3813007 15.3910931 50.3813007 4.58623482 58.7912228 15.3910931 61.02083 15.3910931 61.02083 0.233198381 58.4000636 0.233198381"></polygon>
                            <polygon id="Path" fill="#C2C4CA" points="71.1909684 10.3384615 71.1909684 7.61781377 64.5412625 7.61781377 64.5412625 10.3384615"></polygon>
                            <polygon id="Path" fill="#A50D73" points="129.082525 0.233198381 117.738909 0.233198381 117.738909 2.56518219 129.082525 2.56518219"></polygon>
                            <polygon id="Path" fill="#D8D8D8" points="117.738909 6.45182186 117.738909 15.3910931 129.473684 15.3910931 129.473684 12.9813765 120.516139 12.9813765 120.516139 8.86153846 128.378439 8.86153846 128.378439 6.45182186 125.210049 6.45182186 120.516139 6.45182186"></polygon>
                            <polygon id="Path" fill="#D8D8D8" points="75.10256 15.3910931 77.8406742 15.3910931 77.8406742 12.9425101 77.8406742 0.233198381 75.10256 0.233198381"></polygon>
                            <polygon id="Path" fill="#D8D8D8" points="75.10256 15.3910931 77.8406742 15.3910931 77.8406742 12.9425101 77.8406742 0.233198381 75.10256 0.233198381"></polygon>
                            <polygon id="Path" fill="#D8D8D8" points="86.0550167 15.3910931 88.7931309 15.3910931 88.7931309 12.9425101 88.7931309 0.233198381 86.0550167 0.233198381"></polygon>
                            <polygon id="Path" fill="#D8D8D8" points="86.4461759 7.2291498 75.10256 7.2291498 75.10256 9.5611336 86.4461759 9.5611336"></polygon>
                            <path d="M67.7878836,22.2704453 L70.6824614,22.2704453 C70.6824614,22.2315789 70.6824614,22.1927126 70.6824614,22.1538462 C70.6824614,22.1149798 70.6824614,22.0761134 70.6824614,22.037247 C70.6824614,21.7651822 70.6433455,21.4931174 70.5651137,21.2210526 C70.4868819,20.9489879 70.3695341,20.7546559 70.2130704,20.5603239 C70.0566068,20.3659919 69.8610272,20.2105263 69.6263317,20.0939271 C69.3916362,19.9773279 69.1178248,19.9384615 68.8048974,19.9384615 C68.531086,19.9384615 68.2572746,19.9773279 68.0225791,20.0939271 C67.7878836,20.2105263 67.592304,20.3659919 67.3967244,20.5214575 C67.2402608,20.7157895 67.0837971,20.9101215 67.0055653,21.1821862 C66.9273334,21.454251 66.8491016,21.6874494 66.8491016,21.9595142 C66.8491016,22.2704453 66.8882175,22.5425101 67.0055653,22.8145749 C67.122913,23.0477733 67.2402608,23.2809717 67.4358404,23.4364372 C67.6314199,23.6307692 67.8269995,23.7473684 68.061695,23.8639676 C68.2963905,23.9805668 68.5702019,24.0194332 68.8440134,24.0194332 C69.1960566,24.0194332 69.5089839,23.9417004 69.7827954,23.8251012 C70.0566068,23.708502 70.2913023,23.51417 70.4477659,23.2809717 L69.9001431,22.8145749 C69.7436794,22.9700405 69.5872158,23.0866397 69.4307521,23.1643725 C69.2742884,23.2421053 69.0787089,23.2809717 68.8440134,23.2809717 C68.531086,23.2809717 68.2963905,23.2032389 68.1008109,23.0477733 C67.9834632,22.8534413 67.8661154,22.5813765 67.7878836,22.2704453 Z M67.7878836,21.6874494 C67.8269995,21.3765182 67.9443473,21.1433198 68.1008109,20.9489879 C68.2963905,20.7546559 68.531086,20.6769231 68.8048974,20.6769231 C68.9613611,20.6769231 69.0787089,20.7157895 69.1960566,20.7546559 C69.3134044,20.7935223 69.4307521,20.8712551 69.5089839,20.9878543 C69.5872158,21.065587 69.6654476,21.1821862 69.7045635,21.2987854 C69.7436794,21.4153846 69.7827954,21.5708502 69.7827954,21.6874494 L67.7878836,21.6874494 Z M74.9069804,20.5991903 C74.7896327,20.4048583 74.633169,20.2105263 74.4375894,20.0939271 C74.2420099,19.9773279 74.0073144,19.8995951 73.7335029,19.8995951 C73.5770393,19.8995951 73.4596915,19.9384615 73.3032279,19.9773279 C73.1858801,20.0161943 73.0685324,20.0550607 72.9903005,20.1327935 C72.9120687,20.2105263 72.7947209,20.2882591 72.755605,20.3659919 C72.6773732,20.4437247 72.5991414,20.5214575 72.5600254,20.5991903 L72.5600254,20.0161943 L71.6603594,20.0161943 L71.6603594,23.9417004 L72.5600254,23.9417004 L72.5600254,21.7263158 C72.5600254,21.4153846 72.6382573,21.1821862 72.7947209,20.9878543 C72.9511846,20.8323887 73.1467642,20.7157895 73.4205756,20.7157895 C73.6552711,20.7157895 73.8899666,20.7935223 74.0073144,20.9489879 C74.163778,21.1044534 74.2028939,21.3376518 74.2028939,21.648583 L74.2028939,23.8639676 L75.10256,23.8639676 L75.10256,21.648583 C75.10256,21.3376518 75.1807919,21.1044534 75.3372555,20.9101215 C75.4937192,20.7546559 75.6892988,20.6769231 75.9631102,20.6769231 C76.1978057,20.6769231 76.4325012,20.7546559 76.5498489,20.9101215 C76.7063126,21.065587 76.7454285,21.2987854 76.7454285,21.6097166 L76.7454285,23.8251012 L77.6450946,23.8251012 L77.6450946,21.3376518 C77.6450946,20.8712551 77.5277469,20.4825911 77.2930514,20.2493927 C77.0583559,19.9773279 76.7063126,19.8607287 76.2760375,19.8607287 C75.9631102,19.8607287 75.7284147,19.9384615 75.4937192,20.0550607 C75.2590237,20.2105263 75.0634441,20.4048583 74.9069804,20.5991903 Z M82.8083956,21.9595142 C82.8083956,21.648583 82.7692797,21.3376518 82.6519319,21.1044534 C82.5345842,20.8712551 82.4172364,20.6380567 82.2216569,20.4825911 C82.0651932,20.2882591 81.8696136,20.1716599 81.6349181,20.0939271 C81.4002226,20.0161943 81.204643,19.9773279 80.9699475,19.9773279 C80.6570202,19.9773279 80.3832088,20.0550607 80.1876292,20.2105263 C79.9920496,20.3659919 79.79647,20.5214575 79.6400064,20.7157895 L79.6400064,20.0550607 L78.7403403,20.0550607 L78.7403403,25.1465587 L79.6400064,25.1465587 L79.6400064,23.3198381 C79.79647,23.51417 79.9529337,23.6696356 80.1876292,23.7862348 C80.3832088,23.9417004 80.6570202,23.9805668 81.0090634,23.9805668 C81.2437589,23.9805668 81.4784544,23.9417004 81.674034,23.8639676 C81.9087295,23.7862348 82.1043091,23.6307692 82.2607728,23.4753036 C82.4172364,23.2809717 82.5737001,23.0866397 82.6519319,22.8145749 C82.7301638,22.5813765 82.8083956,22.2704453 82.8083956,21.9595142 Z M81.8696136,21.9595142 C81.8696136,22.1538462 81.8304977,22.3093117 81.7913818,22.5036437 C81.7131499,22.6591093 81.6349181,22.7757085 81.5566863,22.8923077 C81.4393385,23.0089069 81.3219908,23.0866397 81.204643,23.1255061 C81.0872953,23.2032389 80.9308316,23.2032389 80.7743679,23.2032389 C80.6179043,23.2032389 80.4614406,23.1643725 80.3440929,23.1255061 C80.1876292,23.0477733 80.0702814,22.9700405 79.9920496,22.8923077 C79.8747019,22.7757085 79.79647,22.6591093 79.7573541,22.5036437 C79.6791223,22.3481781 79.6791223,22.1927126 79.6791223,21.9983806 C79.6791223,21.8040486 79.7182382,21.648583 79.7573541,21.4931174 C79.8355859,21.3376518 79.9138178,21.2210526 79.9920496,21.1044534 C80.1093974,20.9878543 80.2267451,20.9101215 80.3440929,20.8323887 C80.5005565,20.7546559 80.6179043,20.7546559 80.7743679,20.7546559 C80.9308316,20.7546559 81.0872953,20.7935223 81.204643,20.8323887 C81.3611067,20.9101215 81.4784544,20.9878543 81.5566863,21.065587 C81.674034,21.1821862 81.7522659,21.2987854 81.7913818,21.454251 C81.8304977,21.5708502 81.8696136,21.7651822 81.8696136,21.9595142 Z M87.6978852,21.9595142 C87.6978852,21.6874494 87.6587693,21.4153846 87.5414215,21.1821862 C87.4240738,20.9489879 87.306726,20.7157895 87.1111464,20.5214575 C86.9155669,20.3271255 86.7199873,20.1716599 86.4461759,20.0939271 C86.2114804,19.9773279 85.898553,19.9384615 85.6247416,19.9384615 C85.3509302,19.9384615 85.0380029,19.9773279 84.7641914,20.0939271 C84.5294959,20.2105263 84.2948004,20.3659919 84.0992209,20.5214575 C83.9036413,20.7157895 83.7862935,20.9101215 83.6689458,21.1821862 C83.551598,21.4153846 83.5124821,21.6874494 83.5124821,21.9595142 C83.5124821,22.2315789 83.551598,22.5036437 83.6689458,22.7368421 C83.7862935,22.9700405 83.9036413,23.2032389 84.0992209,23.3975709 C84.2948004,23.5919028 84.5294959,23.708502 84.7641914,23.8251012 C85.0380029,23.9417004 85.3118143,23.9805668 85.5856257,23.9805668 C85.898553,23.9805668 86.1723644,23.9417004 86.4461759,23.8251012 C86.7199873,23.708502 86.9155669,23.5530364 87.1111464,23.3975709 C87.306726,23.2032389 87.4631897,23.0089069 87.5414215,22.7368421 C87.6587693,22.5036437 87.6978852,22.2315789 87.6978852,21.9595142 Z M86.7982191,21.9595142 C86.7982191,22.1149798 86.7591032,22.3093117 86.7199873,22.4647773 C86.6808714,22.6202429 86.6026395,22.7368421 86.4852918,22.8534413 C86.367944,22.9700405 86.2505963,23.0477733 86.0941326,23.1255061 C85.9376689,23.2032389 85.7812053,23.2032389 85.5856257,23.2032389 C85.429162,23.2032389 85.2335824,23.1643725 85.1162347,23.1255061 C84.959771,23.0477733 84.8424233,22.9700405 84.7250755,22.8534413 C84.6077278,22.7368421 84.5294959,22.6202429 84.49038,22.4647773 C84.4121482,22.3093117 84.4121482,22.1538462 84.4121482,21.9595142 C84.4121482,21.7651822 84.4512641,21.6097166 84.49038,21.4931174 C84.5294959,21.3376518 84.6077278,21.2210526 84.7250755,21.1044534 C84.8424233,20.9878543 84.959771,20.9101215 85.1162347,20.8323887 C85.2726984,20.7546559 85.429162,20.7157895 85.6247416,20.7157895 C85.8203212,20.7157895 85.9767849,20.7546559 86.0941326,20.8323887 C86.2505963,20.9101215 86.367944,20.9878543 86.4852918,21.1044534 C86.6026395,21.2210526 86.6808714,21.3376518 86.7199873,21.4931174 C86.7591032,21.648583 86.7982191,21.8040486 86.7982191,21.9595142 Z M91.4530132,19.9773279 L90.6706949,19.9773279 L89.8101447,22.6979757 L89.0278264,20.0161943 L88.0890444,20.0161943 L89.3798696,23.9805668 L90.2013039,23.9805668 L91.1009699,21.2987854 L92.000636,23.9805668 L92.8220703,23.9805668 L94.1128955,20.0161943 L93.2132294,20.0161943 L92.3917952,22.6979757 L91.4530132,19.9773279 Z M95.3646049,22.2704453 L98.2591827,22.2704453 C98.2591827,22.2315789 98.2591827,22.1927126 98.2591827,22.1538462 C98.2591827,22.1149798 98.2591827,22.0761134 98.2591827,22.037247 C98.2591827,21.7651822 98.2200668,21.4931174 98.1418349,21.2210526 C98.0636031,20.9489879 97.9462554,20.7546559 97.7897917,20.5603239 C97.633328,20.3659919 97.4377484,20.2105263 97.2030529,20.0939271 C96.9683574,19.9773279 96.694546,19.9384615 96.3816187,19.9384615 C96.1078073,19.9384615 95.8339959,19.9773279 95.5993004,20.0939271 C95.3646049,20.2105263 95.1690253,20.3659919 94.9734457,20.5214575 C94.816982,20.7157895 94.6605184,20.9101215 94.5822865,21.1821862 C94.5040547,21.454251 94.4258229,21.6874494 94.4258229,21.9595142 C94.4258229,22.2704453 94.4649388,22.5425101 94.5822865,22.8145749 C94.6996343,23.0477733 94.816982,23.2809717 95.0125616,23.4364372 C95.2081412,23.6307692 95.4037208,23.7473684 95.6384163,23.8639676 C95.8731118,23.9805668 96.1469232,24.0194332 96.4207346,24.0194332 C96.7727779,24.0194332 97.0857052,23.9417004 97.3595166,23.8251012 C97.633328,23.708502 97.8680235,23.51417 98.0244872,23.2809717 L97.4768644,22.8145749 C97.3204007,22.9700405 97.163937,23.0866397 97.0074734,23.1643725 C96.8510097,23.2421053 96.6554301,23.2809717 96.4207346,23.2809717 C96.1078073,23.2809717 95.8731118,23.2032389 95.6775322,23.0477733 C95.5601844,22.8534413 95.4037208,22.5813765 95.3646049,22.2704453 Z M95.3646049,21.6874494 C95.4037208,21.3765182 95.5210685,21.1433198 95.6775322,20.9489879 C95.8731118,20.7546559 96.1078073,20.6769231 96.3816187,20.6769231 C96.5380824,20.6769231 96.6554301,20.7157895 96.7727779,20.7546559 C96.8901256,20.7935223 97.0074734,20.8712551 97.0857052,20.9878543 C97.163937,21.065587 97.2421689,21.1821862 97.2812848,21.2987854 C97.3204007,21.4153846 97.3595166,21.5708502 97.3595166,21.6874494 L95.3646049,21.6874494 Z M100.097631,22.4259109 C100.097631,22.1538462 100.136747,21.9595142 100.175863,21.7651822 C100.254094,21.5708502 100.332326,21.4153846 100.449674,21.259919 C100.567022,21.1433198 100.723485,21.0267206 100.879949,20.9878543 C101.036413,20.9101215 101.231992,20.9101215 101.427572,20.9101215 L101.466688,20.9101215 L101.466688,19.9773279 C101.114645,19.9773279 100.840833,20.0550607 100.606138,20.2105263 C100.371442,20.4048583 100.214979,20.6380567 100.058515,20.9101215 L100.058515,20.0161943 L99.1588488,20.0161943 L99.1588488,23.9417004 L100.058515,23.9417004 L100.058515,22.4259109 L100.097631,22.4259109 Z M105.612975,20.7546559 L106.669105,20.7546559 L106.669105,19.9773279 L105.612975,19.9773279 L105.612975,18.8890688 L104.713309,18.8890688 L104.713309,19.9773279 L104.204802,19.9773279 L104.204802,20.7546559 L104.713309,20.7546559 L104.713309,22.8145749 C104.713309,23.0477733 104.752425,23.2032389 104.791541,23.3587045 C104.830657,23.51417 104.908889,23.6307692 105.026236,23.708502 C105.143584,23.7862348 105.260932,23.8639676 105.37828,23.902834 C105.534743,23.9417004 105.652091,23.9805668 105.847671,23.9805668 C106.004134,23.9805668 106.160598,23.9805668 106.277946,23.9417004 C106.395293,23.902834 106.512641,23.8639676 106.629989,23.7862348 L106.629989,23.0477733 C106.434409,23.1255061 106.277946,23.1643725 106.082366,23.1643725 C105.925902,23.1643725 105.808555,23.1255061 105.730323,23.0477733 C105.652091,22.9700405 105.612975,22.8534413 105.612975,22.6591093 L105.612975,20.7546559 Z M110.893624,23.902834 L110.893624,21.5708502 C110.893624,21.065587 110.73716,20.6380567 110.463349,20.3659919 C110.189537,20.0550607 109.759262,19.9384615 109.172523,19.9384615 C108.859596,19.9384615 108.585785,19.9773279 108.351089,20.0161943 C108.116394,20.0939271 107.881698,20.1716599 107.686119,20.2493927 L107.920814,20.9878543 C108.116394,20.9101215 108.272857,20.8712551 108.468437,20.7935223 C108.624901,20.7546559 108.859596,20.7157895 109.055176,20.7157895 C109.368103,20.7157895 109.602799,20.7935223 109.759262,20.9489879 C109.915726,21.1044534 109.993958,21.2987854 109.993958,21.5708502 L109.993958,21.648583 C109.837494,21.6097166 109.68103,21.5708502 109.524567,21.5319838 C109.368103,21.4931174 109.172523,21.4931174 108.937828,21.4931174 C108.703132,21.4931174 108.507553,21.5319838 108.311973,21.5708502 C108.116394,21.6097166 107.95993,21.6874494 107.803466,21.8040486 C107.647003,21.9206478 107.568771,22.037247 107.490539,22.1927126 C107.412307,22.3481781 107.373191,22.5425101 107.373191,22.7368421 L107.373191,22.7368421 C107.373191,22.9311741 107.412307,23.1255061 107.490539,23.2809717 C107.568771,23.4364372 107.686119,23.5530364 107.803466,23.6696356 C107.920814,23.7862348 108.077278,23.8251012 108.233741,23.902834 C108.390205,23.9417004 108.585785,23.9805668 108.781364,23.9805668 C109.094292,23.9805668 109.328987,23.9417004 109.524567,23.8251012 C109.720146,23.708502 109.915726,23.5919028 110.033074,23.4364372 L110.033074,23.902834 L110.893624,23.902834 L110.893624,23.902834 Z M109.993958,22.5036437 C109.993958,22.6202429 109.954842,22.7368421 109.915726,22.8534413 C109.87661,22.9700405 109.798378,23.0477733 109.68103,23.1255061 C109.602799,23.2032389 109.485451,23.2421053 109.328987,23.2809717 C109.211639,23.3198381 109.055176,23.3587045 108.937828,23.3587045 C108.742248,23.3587045 108.546669,23.3198381 108.390205,23.2032389 C108.233741,23.0866397 108.15551,22.9700405 108.15551,22.7757085 L108.15551,22.7757085 C108.15551,22.5813765 108.233741,22.4259109 108.390205,22.3093117 C108.546669,22.1927126 108.781364,22.1538462 109.055176,22.1538462 C109.211639,22.1538462 109.407219,22.1538462 109.563683,22.1927126 C109.720146,22.2315789 109.87661,22.2704453 109.993958,22.3093117 L109.993958,22.5036437 L109.993958,22.5036437 Z M112.888536,23.902834 L112.888536,18.5004049 L111.988869,18.5004049 L111.988869,23.902834 L112.888536,23.902834 Z M114.7661,22.2704453 L117.660677,22.2704453 C117.660677,22.2315789 117.660677,22.1927126 117.660677,22.1538462 C117.660677,22.1149798 117.660677,22.0761134 117.660677,22.037247 C117.660677,21.7651822 117.621561,21.4931174 117.54333,21.2210526 C117.465098,20.9489879 117.34775,20.7546559 117.191286,20.5603239 C117.034823,20.3659919 116.839243,20.2105263 116.604548,20.0939271 C116.369852,19.9773279 116.096041,19.9384615 115.783113,19.9384615 C115.509302,19.9384615 115.235491,19.9773279 115.000795,20.0939271 C114.7661,20.2105263 114.57052,20.3659919 114.37494,20.5214575 C114.218477,20.7157895 114.062013,20.9101215 113.983781,21.1821862 C113.905549,21.4153846 113.827318,21.6874494 113.827318,21.9595142 C113.827318,22.2704453 113.866433,22.5425101 113.983781,22.8145749 C114.101129,23.0477733 114.218477,23.2809717 114.414056,23.4364372 C114.609636,23.6307692 114.805215,23.7473684 115.039911,23.8639676 C115.274606,23.9805668 115.548418,24.0194332 115.822229,24.0194332 C116.174273,24.0194332 116.4872,23.9417004 116.761011,23.8251012 C117.034823,23.708502 117.269518,23.51417 117.425982,23.2809717 L116.878359,22.8145749 C116.721895,22.9700405 116.565432,23.0866397 116.408968,23.1643725 C116.252504,23.2421053 116.056925,23.2809717 115.822229,23.2809717 C115.509302,23.2809717 115.274606,23.2032389 115.079027,23.0477733 C114.961679,22.8534413 114.844331,22.5813765 114.7661,22.2704453 Z M114.7661,21.6874494 C114.805215,21.3765182 114.922563,21.1433198 115.079027,20.9489879 C115.274606,20.7546559 115.509302,20.6769231 115.783113,20.6769231 C115.939577,20.6769231 116.056925,20.7157895 116.174273,20.7546559 C116.29162,20.7935223 116.408968,20.8712551 116.4872,20.9878543 C116.565432,21.065587 116.643664,21.1821862 116.682779,21.2987854 C116.721895,21.4153846 116.761011,21.5708502 116.761011,21.6874494 L114.7661,21.6874494 Z M119.499125,21.6874494 C119.499125,21.3765182 119.577357,21.1433198 119.733821,20.9878543 C119.890285,20.8323887 120.12498,20.7157895 120.359676,20.7157895 C120.633487,20.7157895 120.829067,20.7935223 120.98553,20.9489879 C121.141994,21.1044534 121.220226,21.3376518 121.220226,21.648583 L121.220226,23.8639676 L122.119892,23.8639676 L122.119892,21.3765182 C122.119892,20.9101215 122.002544,20.5603239 121.767849,20.2882591 C121.533153,20.0161943 121.18111,19.8607287 120.711719,19.8607287 C120.555255,19.8607287 120.398792,19.8995951 120.281444,19.9384615 C120.164096,19.9773279 120.046748,20.0161943 119.929401,20.0939271 C119.812053,20.1716599 119.733821,20.2493927 119.655589,20.3271255 C119.577357,20.4048583 119.499125,20.4825911 119.46001,20.5991903 L119.46001,19.9773279 L118.560343,19.9773279 L118.560343,23.902834 L119.46001,23.902834 L119.46001,21.6874494 L119.499125,21.6874494 Z M124.310383,20.7546559 L125.366513,20.7546559 L125.366513,19.9773279 L124.310383,19.9773279 L124.310383,18.8890688 L123.410717,18.8890688 L123.410717,19.9773279 L122.90221,19.9773279 L122.90221,20.7546559 L123.410717,20.7546559 L123.410717,22.8145749 C123.410717,23.0477733 123.449833,23.2032389 123.488949,23.3587045 C123.528065,23.51417 123.606297,23.6307692 123.723644,23.708502 C123.840992,23.7862348 123.95834,23.8639676 124.075688,23.902834 C124.193035,23.9417004 124.349499,23.9805668 124.545079,23.9805668 C124.701542,23.9805668 124.858006,23.9805668 124.975354,23.9417004 C125.092702,23.902834 125.210049,23.8639676 125.327397,23.7862348 L125.327397,23.0477733 C125.131817,23.1255061 124.975354,23.1643725 124.779774,23.1643725 C124.623311,23.1643725 124.505963,23.1255061 124.427731,23.0477733 C124.349499,22.9700405 124.310383,22.8534413 124.310383,22.6591093 L124.310383,20.7546559 Z M129.082525,22.7368421 L129.082525,22.7368421 C129.082525,22.5425101 129.043409,22.3870445 128.965177,22.2704453 C128.886945,22.1538462 128.808714,22.037247 128.691366,21.9595142 C128.574018,21.8817814 128.45667,21.8040486 128.300207,21.7263158 C128.143743,21.648583 128.026395,21.6097166 127.869932,21.5708502 C127.752584,21.5319838 127.635236,21.4931174 127.517888,21.454251 C127.400541,21.4153846 127.322309,21.3765182 127.244077,21.3376518 C127.165845,21.2987854 127.087613,21.259919 127.048497,21.1821862 C127.009381,21.1433198 126.970266,21.065587 126.970266,20.9878543 L126.970266,20.9878543 C126.970266,20.8712551 127.009381,20.7935223 127.126729,20.7157895 C127.244077,20.6380567 127.361425,20.5991903 127.517888,20.5991903 C127.674352,20.5991903 127.869932,20.6380567 128.065511,20.7157895 C128.261091,20.7935223 128.45667,20.8712551 128.65225,20.9878543 L129.004293,20.3659919 C128.808714,20.2105263 128.574018,20.1327935 128.300207,20.0550607 C128.065511,19.9773279 127.7917,19.9384615 127.557004,19.9384615 C127.361425,19.9384615 127.165845,19.9773279 127.009381,20.0161943 C126.852918,20.0550607 126.696454,20.1327935 126.579106,20.2493927 C126.461759,20.3659919 126.344411,20.4825911 126.266179,20.6380567 C126.187947,20.7935223 126.148831,20.9489879 126.148831,21.1433198 L126.148831,21.1433198 C126.148831,21.3376518 126.187947,21.4931174 126.266179,21.6097166 C126.344411,21.7263158 126.422643,21.842915 126.53999,21.9206478 C126.657338,21.9983806 126.774686,22.0761134 126.93115,22.1149798 C127.087613,22.1538462 127.244077,22.2315789 127.361425,22.2704453 C127.478772,22.3093117 127.59612,22.3481781 127.674352,22.3870445 C127.7917,22.4259109 127.869932,22.4647773 127.948163,22.5036437 C128.026395,22.5425101 128.104627,22.5813765 128.143743,22.6591093 C128.182859,22.6979757 128.221975,22.7757085 128.221975,22.8534413 L128.221975,22.8534413 C128.221975,22.9700405 128.182859,23.0866397 128.065511,23.1643725 C127.948163,23.2421053 127.830816,23.2809717 127.635236,23.2809717 C127.439657,23.2809717 127.204961,23.2421053 127.009381,23.1643725 C126.774686,23.0866397 126.579106,22.9700405 126.344411,22.8145749 L125.953252,23.4364372 C126.187947,23.6307692 126.461759,23.7862348 126.774686,23.8639676 C127.087613,23.9805668 127.361425,24.0194332 127.635236,24.0194332 C127.830816,24.0194332 128.026395,23.9805668 128.221975,23.9417004 C128.417554,23.902834 128.574018,23.8251012 128.691366,23.708502 C128.808714,23.5919028 128.926061,23.4753036 129.004293,23.3198381 C129.082525,23.1643725 129.082525,22.9700405 129.082525,22.7368421 Z" id="Shape_1_" fill="#C2C4CA"></path>
                        </g>
                    </g>
                </g>
            </g>
        </g>
    </g>
</svg>