<?xml version="1.0" encoding="iso-8859-1"?>
<!-- Generator: Adobe Illustrator 23.0.1, SVG Export Plug-In . SVG Version: 6.00 Build 0)  -->
<svg version="1.1" xmlns="http://www.w3.org/2000/svg" xmlns:xlink="http://www.w3.org/1999/xlink" x="0px" y="0px"
	 width="600.001px" height="600px" viewBox="0 0 600.001 600" enable-background="new 0 0 600.001 600" xml:space="preserve">
<g id="Layer_3">
	<path fill-rule="evenodd" clip-rule="evenodd" fill="#202C46" d="M576.48,600c-175.52,0-351.04,0-526.56,0
		c0.176-0.53,0.369-1.055,0.525-1.59c3.036-10.448,6.474-20.747,11.023-30.656c6.393-13.927,15.444-25.557,28.739-33.546
		c5.414-3.253,10.861-6.452,16.335-9.602c21.689-12.486,43.452-24.846,65.069-37.454c10.014-5.841,19.809-12.07,28.85-19.389
		c0.157-0.126,0.413-0.13,0.776-0.236c0.135,0.511,0.273,0.95,0.366,1.398c1.744,8.405,4.314,16.551,7.945,24.331
		c13.421,28.762,34.971,49.895,61.967,65.908c1.209,0.717,2.149,0.611,3.298-0.09c4.436-2.707,8.944-5.298,13.382-8.001
		c22.757-13.86,45.061-28.395,66.234-44.607c16.921-12.957,31.524-28.049,42.653-46.339c0.162-0.267,0.386-0.496,0.699-0.893
		c2.301,1.488,4.555,2.975,6.838,4.416c34.638,21.851,69.964,42.531,105.775,62.393c13.284,7.367,26.422,15,39.632,22.502
		c2.9,1.647,5.32,3.836,7.285,6.504c1.421,1.93,2.839,3.882,4.025,5.957C568.333,573.244,572.89,586.436,576.48,600z"/>
	<path fill-rule="evenodd" clip-rule="evenodd" fill="#FAC3AF" d="M171.14,282.738c0.168-5.512,0.266-11.271,0.537-17.021
		c0.423-8.98,2.294-17.745,4.257-26.48c3.545-15.785,8.434-31.167,14.502-46.151c3.499-8.637,5.251-17.576,5.916-26.801
		c0.546-7.583,1.152-15.178,3.801-22.386c1.596-4.343,3.531-8.56,5.275-12.849c0.565-1.389,1.503-2.066,2.989-2.38
		c12.164-2.576,24.438-3.133,36.747-1.633c11.341,1.381,22.632,3.176,33.944,4.8c9.064,1.301,18.171,1.501,27.29,0.926
		c10.393-0.655,20.651-2.257,30.76-4.799c0.716-0.18,1.625-0.18,2.287,0.103c10.109,4.321,19.313,9.988,26.652,18.333
		c8.392,9.541,12.292,20.799,12.607,33.389c0.07,2.797,0.043,5.602-0.08,8.396c-0.144,3.275,0.514,6.364,1.855,9.317
		c1.157,2.546,2.31,5.101,3.609,7.575c4.263,8.113,6.598,16.763,7.523,25.85c1.438,14.091,2.362,28.212,2.454,42.377
		c0.069,10.733-0.933,21.401-2.235,32.045c-1.156,9.448-2.793,18.804-4.834,28.105c-2.346,10.694-6.657,20.459-12.779,29.514
		c-8.665,12.814-18.374,24.801-28.47,36.49c-1.673,1.938-3.458,3.782-5.063,5.772c-3.092,3.829-7.031,6.482-11.422,8.551
		c-9.182,4.327-18.875,6.962-28.853,8.612c-5.686,0.94-11.398,1.572-17.189,1.136c-2.825-0.214-5.508-0.863-8.129-1.91
		c-9.525-3.806-18.614-8.496-27.495-13.594c-15.237-8.746-29.697-18.592-42.423-30.786c-3.631-3.479-7.055-7.2-10.342-11.01
		c-9.24-10.709-14.707-23.316-18.115-36.905c-2.731-10.889-4.3-21.956-4.934-33.157C171.533,291.778,171.359,287.383,171.14,282.738
		z"/>
	<path fill-rule="evenodd" clip-rule="evenodd" fill="#463747" d="M171.105,259.342c-0.704-0.978-1.141-1.518-1.506-2.102
		c-4.759-7.611-8.962-15.497-11.99-23.978c-0.339-0.951-0.95-1.833-1.555-2.659c-11.486-15.684-19.694-32.856-23.758-51.941
		c-0.519-2.434-0.337-4.788,0.218-7.123c5.303-22.299,14.633-42.575,30.217-59.665c3.516-3.856,7.471-7.238,11.859-10.07
		c1.2-0.774,1.698-1.65,1.817-3.063c0.839-9.906,3.932-19.062,9.43-27.365c5.145-7.769,11.933-13.74,20.186-18.021
		c12.997-6.744,26.784-11.288,41.038-14.465c11.107-2.476,22.322-4.086,33.745-4.013c6.695,0.043,13.125,1.088,19.491,3.345
		c18.247,6.471,37.614,10.739,56.616,14.508c1.176,0.233,2.355,0.477,3.546,0.598c5.852,0.594,11.171,2.699,16.125,5.754
		c11.493,7.087,19.578,17.383,24.396,30.179c2.705,7.187,3.399,14.601,1.925,22.174c-0.186,0.957-0.301,1.781,0.472,2.657
		c7.304,8.289,11.6,18.093,14.342,28.678c1.511,5.83,2.11,11.788,2.782,17.747c1.381,12.231,2.709,24.471,4.366,36.666
		c0.576,4.239,2.024,8.365,3.157,12.52c0.24,0.882,0.425,1.609-0.036,2.492c-9.421,18.029-19.673,35.537-32.189,51.636
		c-0.096,0.124-0.238,0.21-0.557,0.484c-0.135-0.592-0.311-1.063-0.341-1.544c-0.443-7.183-0.702-14.382-1.343-21.547
		c-0.598-6.681-1.443-13.35-2.464-19.981c-0.833-5.412-3.11-10.393-5.454-15.309c-1.273-2.67-2.587-5.32-3.858-7.99
		c-1.609-3.381-2.331-6.915-2.153-10.691c0.25-5.274,0.234-10.553-0.64-15.792c-2.202-13.208-8.7-23.898-18.951-32.388
		c-6.086-5.04-12.898-8.86-20.124-11.999c-1.125-0.488-2.124-0.376-3.245-0.097c-14.585,3.646-29.381,5.425-44.428,4.991
		c-7.377-0.213-14.628-1.429-21.89-2.605c-11.84-1.919-23.697-3.724-35.717-4.065c-8.913-0.252-17.726,0.565-26.459,2.378
		c-1.699,0.353-2.788,1.067-3.595,2.683c-4.874,9.762-8.072,19.95-8.833,30.908c-0.538,7.728-1,15.516-3.337,22.973
		c-1.432,4.569-3.238,9.023-4.925,13.51c-6.457,17.166-11.665,34.682-14.903,52.755
		C172.088,253.256,171.659,256.017,171.105,259.342z"/>
	<path fill-rule="evenodd" clip-rule="evenodd" fill="#FAC3AF" d="M372.625,367.31c0,2.285,0.014,4.112-0.002,5.939
		c-0.197,22.081,2.118,43.888,6.977,65.435c0.913,4.05,2.676,7.565,5.647,10.362c2.846,2.679,5.947,5.085,8.954,7.591
		c0.728,0.608,1.523,1.137,2.482,1.846c-0.497,0.867-0.935,1.689-1.426,2.477c-8.749,14.035-19.624,26.238-32.138,36.988
		c-11.85,10.179-24.652,19.097-37.553,27.865c-16.405,11.152-33.218,21.663-50.333,31.69c-0.683,0.4-1.388,0.764-2.204,1.21
		c-1.926-1.132-3.884-2.206-5.766-3.399c-18.812-11.928-34.836-26.771-47.216-45.385c-8.323-12.513-14.149-26.095-17.303-40.815
		c-0.411-1.917-0.238-3.317,1.175-4.936c5.181-5.935,9.147-12.594,9.912-20.634c0.438-4.605,0.518-9.258,0.521-13.89
		c0.008-11.497-3.091-22.442-6.285-33.34c-1.797-6.132-3.908-12.171-5.874-18.253c-0.24-0.744-0.456-1.496-0.748-2.457
		c0.415,0.16,0.648,0.183,0.778,0.31c15.167,14.836,32.588,26.534,51.212,36.494c6.545,3.501,13.362,6.499,20.076,9.682
		c4.277,2.027,8.843,2.792,13.534,2.611c15.193-0.588,29.756-3.88,43.524-10.431c4.166-1.983,7.717-4.73,10.794-8.219
		c10.588-12.004,20.866-24.251,30.149-37.307C371.78,368.37,372.078,368.014,372.625,367.31z"/>
	<path fill-rule="evenodd" clip-rule="evenodd" fill="#ED9D8F" d="M148.895,222.274c2.492,3.488,4.863,6.792,7.207,10.113
		c0.27,0.382,0.422,0.856,0.581,1.305c3.28,9.24,7.926,17.784,13.255,25.976c0.635,0.977,1.014,1.913,0.912,3.113
		c-0.83,9.731-0.644,19.479-0.395,29.225c0.012,0.472,0.002,0.945,0.002,1.319c-7.453,4.699-15.971,0.797-17.342-7.777
		c-0.61-3.818,0.258-7.294,2.412-10.472c0.445-0.657,0.929-1.287,1.401-1.936c-1.52-4.245-3.089-8.422-4.512-12.649
		c-2.552-7.584-4.547-15.306-5.313-23.3c-0.397-4.156-0.413-8.298,0.673-12.375c0.164-0.615,0.369-1.222,0.591-1.819
		C148.444,222.791,148.632,222.626,148.895,222.274z"/>
	<path fill-rule="evenodd" clip-rule="evenodd" fill="#ED9D8F" d="M411.69,244.209c1.066,13.123-2.471,25.514-6.395,37.892
		c0.608,0.674,1.221,1.295,1.768,1.968c2.999,3.69,3.246,8.509,0.659,12.482c-2.436,3.742-7.447,5.66-11.759,4.499
		c-2.251-0.605-2.509-0.911-2.273-3.128c1.059-9.936,1.572-19.895,1.385-29.889c-0.015-0.808,0.241-1.759,0.699-2.415
		c4.884-7.004,9.834-13.962,14.772-20.928c0.175-0.247,0.401-0.459,0.603-0.686C411.329,244.072,411.509,244.141,411.69,244.209z"/>
	<path fill-rule="evenodd" clip-rule="evenodd" fill="#ED9D8F" d="M394.065,273.305c-0.092-14.165-1.017-28.286-2.454-42.377
		c-0.926-9.087-3.261-17.737-7.523-25.85c-1.3-2.474-2.452-5.029-3.609-7.575c-1.342-2.953-1.999-6.042-1.855-9.317
		c0.123-2.795,0.15-5.6,0.08-8.396c-0.315-12.589-4.216-23.848-12.607-33.389c-7.34-8.345-16.543-14.012-26.652-18.333
		c-0.662-0.283-1.571-0.283-2.287-0.103c-10.108,2.542-20.366,4.144-30.76,4.799c-0.142,0.009-0.282,0.014-0.424,0.022
		c21.415,3.079,83.343,17.63,49.726,81.09l-45.596,17.874c0,0-2.02,3.833-2.353,22c0,0,7.741,14.667,35.954,10
		c28.213-4.667,32.987-15,32.987-15s11.559,5.501,10.726,28.333c-0.833,22.833-6.499,56.501-27.166,86.167
		c-20.667,29.666-31.903,37.666-31.903,37.666s-11.097-6-25.764,0s-34.333,19.333-69-9c-34.654-28.322-50.496-45.948-57.746-66.291
		c0.279,1.235,0.569,2.469,0.877,3.7c3.408,13.589,8.875,26.196,18.115,36.905c3.288,3.81,6.711,7.53,10.342,11.01
		c12.725,12.194,27.186,22.04,42.423,30.786c8.881,5.098,17.97,9.788,27.495,13.594c2.621,1.047,5.304,1.696,8.129,1.91
		c5.791,0.436,11.504-0.195,17.189-1.136c9.978-1.65,19.671-4.285,28.853-8.612c4.391-2.069,8.33-4.722,11.422-8.551
		c1.605-1.99,3.391-3.835,5.063-5.772c10.096-11.69,19.805-23.676,28.47-36.49c6.122-9.055,10.434-18.819,12.779-29.514
		c2.041-9.302,3.678-18.657,4.834-28.105C393.132,294.706,394.134,284.038,394.065,273.305z"/>
	<path fill-rule="evenodd" clip-rule="evenodd" fill="#ED9D8F" d="M307.75,260.917c0,0,7.833,7.333,9.5,9
		c1.667,1.667-8.833,8.833-8.833,8.833L307.75,260.917z"/>
	<path fill-rule="evenodd" clip-rule="evenodd" fill="#ED9D8F" d="M285.701,232.75c0,0,3.475,16.083-5.572,26.292
		c-9.046,10.208-44.713,15.208-59.213,3.375c-14.5-11.834-17.652-20.206-15.743-26.603c1.909-6.397,38.243-16.231,38.243-16.231
		L285.701,232.75z"/>
	<path fill-rule="evenodd" clip-rule="evenodd" fill="#463747" d="M285.417,234.667c-4.747-0.982-9.713-2.737-14.195-3.369
		c-6.717-0.947-13.471-1.741-20.236-2.211c-8.37-0.581-16.766-0.605-25.157-0.143c-3.306,0.182-6.498,0.723-9.538,2.069
		c-2.921,1.293-5.849,2.57-8.777,3.848c-0.628,0.274-1.27,0.519-2.34,0.954c0.373-1.359,0.525-2.373,0.921-3.279
		c1.945-4.452,4.75-8.326,8.29-11.628c0.829-0.773,2.021-1.351,3.137-1.587c4.84-1.022,9.697-1.997,14.582-2.777
		c5.598-0.893,11.231-1.571,16.852-2.322c4.226-0.565,8.431-0.407,12.646,0.265c5.213,0.832,10.342,1.952,15.415,3.435
		c4.814,1.407,7.471,4.43,7.815,9.392C284.985,229.516,285.417,232.342,285.417,234.667z"/>
	<path fill-rule="evenodd" clip-rule="evenodd" fill="#463747" d="M310.195,234.297c-0.247-3.44,0.147-7.38,0.863-10.458
		c0.619-2.656,2.06-4.467,4.857-4.963c5.188-0.921,10.35-2.058,15.572-2.695c6.498-0.794,13.052-1.134,19.574-1.748
		c3.493-0.329,6.594,0.544,9.569,2.365c4.921,3.013,9.685,6.209,13.894,10.19c1.793,1.695,2.299,3.758,2.138,6.088
		c-0.02,0.295-0.186,0.58-0.343,1.035c-0.881-0.361-1.663-0.693-2.453-1.005c-4.455-1.761-8.904-3.535-13.37-5.269
		c-4.221-1.638-8.591-1.669-13.002-1.085c-11.572,1.534-23.508,4.682-34.905,7.171C311.904,234.074,311.2,234.144,310.195,234.297z"
		/>
	<path opacity="0.8" fill-rule="evenodd" clip-rule="evenodd" fill="#463747" d="M353.917,347.917c0,0,3.5-21.75,0-28.75
		s-22-11.016-57.5-11.008c-35.5,0.008-61.75,7.508-65,13.258s-1.25,29.75-1.25,29.75s-19.5-13.25-36.5-36
		c-13.891-18.59-19.334-42.014-21.652-53.917c-0.145,1.484-0.268,2.973-0.338,4.468c-0.271,5.75-0.369,11.508-0.537,17.021
		c0.219,4.645,0.393,9.039,0.642,13.43c0.634,11.201,2.203,22.269,4.934,33.157c3.408,13.589,8.875,26.196,18.115,36.905
		c3.288,3.81,6.711,7.53,10.342,11.01c12.725,12.194,27.186,22.04,42.423,30.786c8.881,5.098,17.97,9.788,27.495,13.594
		c2.621,1.047,5.304,1.696,8.129,1.91c5.791,0.436,11.504-0.195,17.189-1.136c9.978-1.65,19.671-4.285,28.853-8.612
		c4.391-2.069,8.33-4.722,11.422-8.551c1.605-1.99,3.391-3.835,5.063-5.772c10.096-11.69,19.805-23.676,28.47-36.49
		c6.122-9.055,10.434-18.819,12.779-29.514c2.041-9.302,3.678-18.657,4.834-28.105c0.521-4.248,0.987-8.5,1.362-12.759
		C386.768,306.219,372.051,334.223,353.917,347.917z M336.584,371.417c-7.417,13.25-21.917,19.75-26.917,13.5s-7.25-11.5-7.25-11.5
		l-12,1.496c0,0-2.75,10.793-15.75,12.398c-13,1.605-24.249-6.135-27.25-14.903c-4.333-12.658-6.583-36.099-4.833-41.295
		c1.535-4.559,31.334-10.696,53.834-10.446s43.75,6.07,46,9.66C344.667,333.917,344.001,358.167,336.584,371.417z"/>
	<path opacity="0.5" fill-rule="evenodd" clip-rule="evenodd" fill="#352638" d="M392.592,298.704c0.217-2.036,0.42-4.074,0.6-6.112
		c-2.45,5.198-6.109,12.488-10.702,20.276c-3.973,16.346-10.809,33.976-22.239,50.383c-20.667,29.666-31.903,37.666-31.903,37.666
		s-11.097-6-25.764,0s-34.333,19.333-69-9c-34.654-28.322-50.496-45.948-57.746-66.291c0.279,1.235,0.569,2.47,0.877,3.7
		c3.408,13.589,8.875,26.196,18.115,36.905c3.288,3.81,6.711,7.53,10.342,11.01c12.725,12.194,27.186,22.04,42.423,30.786
		c8.881,5.098,17.97,9.788,27.495,13.594c2.621,1.047,5.304,1.696,8.129,1.91c5.791,0.436,11.504-0.195,17.189-1.136
		c9.978-1.65,19.671-4.285,28.853-8.612c4.391-2.069,8.33-4.722,11.422-8.551c1.605-1.99,3.391-3.835,5.063-5.772
		c10.096-11.69,19.805-23.676,28.47-36.49c6.122-9.055,10.434-18.819,12.779-29.514c2.041-9.302,3.678-18.657,4.834-28.105
		c0.241-1.969,0.468-3.939,0.682-5.91C392.539,299.195,392.566,298.949,392.592,298.704z"/>
	<path opacity="0.5" fill-rule="evenodd" clip-rule="evenodd" fill="#352638" d="M355.438,327.671
		c-0.115-3.454-0.546-6.554-1.521-8.505c-3.5-7-22-11.016-57.5-11.008c-13.398,0.003-25.475,1.074-35.498,2.714
		c0.047,0.008,18.206,2.797,37.521,9.832c21.736,0.561,41.794,6.14,43.977,9.622c1.422,2.269,1.677,12.787-0.198,23.566
		C342.219,353.891,350.929,345.77,355.438,327.671z"/>
	<path fill-rule="evenodd" clip-rule="evenodd" fill="#ED9D8F" d="M342.417,330.327c-2.25-3.59-23.5-9.41-46-9.66
		s-52.298,5.888-53.834,10.446c-1.248,3.705-0.46,16.686,1.665,28.419l0.002,0.003c0,0-1.977-16.581,5.158-25.46l65.759,8.221
		l17.52-11.183c0,0,11.564,11.054,3.897,37.804c-0.494,1.724-0.877,3.188-1.163,4.424c0.402-0.626,0.794-1.264,1.163-1.924
		C344.001,358.167,344.667,333.917,342.417,330.327z"/>
	<path fill-rule="evenodd" clip-rule="evenodd" fill="#FFFFFF" d="M332.687,331.113c-1.922,5.487-4.936,9.727-8.961,13.272
		c-5.701,5.021-12.487,7.739-19.898,8.772c-11.75,1.638-23.285,0.599-34.418-3.691c-7.051-2.717-13.206-6.772-18.028-12.683
		c-0.641-0.786-1.199-1.64-1.975-2.708c1.052-0.148,1.745-0.303,2.444-0.337c6.625-0.326,13.25-0.809,19.877-0.861
		c2.827-0.022,5.653,0.923,8.494,1.33c5.215,0.747,10.427,1.567,15.667,2.083c5.306,0.522,10.575-0.251,15.618-1.852
		c3.932-1.248,7.927-1.765,11.97-2.222C326.404,331.885,329.327,331.517,332.687,331.113z"/>
	<path fill="#352638" d="M420.5,160.519c-0.672-5.959-1.271-11.918-2.782-17.747c-2.742-10.585-7.038-20.389-14.342-28.678
		c-0.772-0.877-0.657-1.7-0.472-2.657c1.475-7.573,0.78-14.987-1.925-22.174c-4.817-12.796-12.902-23.091-24.396-30.179
		c-4.954-3.055-10.273-5.16-16.125-5.754c-1.19-0.121-2.37-0.365-3.546-0.598c-1.569-0.311-3.144-0.632-4.717-0.951
		c5.269,7.06,6.727,15.002,1.221,23.636c-22,34.5-122-10-173,39c-44.406,42.665-29.918,100.461-25.429,114.695
		c0.355,0.498,0.705,0.998,1.066,1.492c0.605,0.826,1.215,1.708,1.555,2.659c3.028,8.481,7.231,16.367,11.99,23.978
		c0.365,0.584,0.802,1.124,1.506,2.102c0.554-3.325,0.983-6.085,1.476-8.835c3.238-18.073,8.446-35.59,14.903-52.755
		c1.688-4.487,3.493-8.941,4.925-13.51c2.337-7.457,2.799-15.245,3.337-22.973c0.762-10.958,3.96-21.146,8.833-30.908
		c0.807-1.616,1.896-2.33,3.595-2.683c8.733-1.813,17.545-2.63,26.459-2.378c12.02,0.341,23.877,2.146,35.717,4.065
		c7.262,1.177,14.513,2.393,21.89,2.605c15.047,0.434,29.843-1.345,44.428-4.991c1.121-0.28,2.12-0.392,3.245,0.097
		c7.226,3.139,14.038,6.959,20.124,11.999c10.251,8.491,16.749,19.181,18.951,32.388c0.874,5.24,0.89,10.518,0.64,15.792
		c-0.178,3.777,0.544,7.311,2.153,10.691c1.271,2.67,2.585,5.32,3.858,7.99c2.344,4.916,4.621,9.896,5.454,15.309
		c0.584,3.798,1.104,7.609,1.56,11.427c19.813-23.269,26.703-46.658,28.844-63.279C421.165,166.435,420.834,163.477,420.5,160.519z"
		/>
	<path fill="#88545D" d="M241.277,40.271c-7.919,1.999-15.671,4.48-23.212,7.556c2.126,49.813,28.916,71.692,50.49,81.25
		c0.599,0.096,1.197,0.191,1.795,0.288c4.968,0.805,9.931,1.62,14.932,2.128C236.511,106.054,237.027,62.692,241.277,40.271z"/>
	<path fill="#88545D" d="M220.198,125.834c3.289-0.332,6.591-0.519,9.906-0.559c-32.197-19.261-36.082-47.293-34.82-64.648
		c-3.581,3.103-6.746,6.673-9.447,10.751c-2.684,4.052-4.785,8.312-6.34,12.759C189.346,107.292,206.078,119.46,220.198,125.834z"/>
	<path fill-rule="evenodd" clip-rule="evenodd" fill="#88545D" d="M412.588,128.282c-1.164-2.476-2.475-4.876-3.957-7.191
		c-7.585,17.331-22.902,28.175-34.997,34.38c2.585,4.862,4.386,10.183,5.354,15.992c0.077,0.464,0.141,0.928,0.204,1.393
		C401.832,157.789,409.998,141.011,412.588,128.282z"/>
	<path fill="#352638" d="M347.495,226.753c4.411-0.584,8.781-0.554,13.002,1.085c4.466,1.733,8.915,3.508,13.37,5.269
		c0.79,0.312,1.572,0.643,2.453,1.005c-19.478-29.722-66.125,0.187-66.125,0.187c1.005-0.154,1.709-0.223,2.395-0.373
		C323.987,231.435,335.922,228.287,347.495,226.753z"/>
	<path fill="#352638" d="M216.291,231.012c3.04-1.346,6.232-1.887,9.538-2.069c8.391-0.462,16.787-0.438,25.157,0.143
		c6.765,0.47,13.519,1.264,20.236,2.211c4.482,0.632,9.449,2.387,14.195,3.369c0,0-60.985-31.29-80.243,1.147
		c1.07-0.435,1.712-0.68,2.34-0.954C210.442,233.583,213.37,232.305,216.291,231.012z"/>
	<path fill="#ED9D8F" d="M229.962,126.249c-7.21,0.112-14.397,0.908-21.546,2.422c-1.486,0.314-2.424,0.992-2.989,2.38
		c-1.744,4.289-3.679,8.506-5.275,12.849c-2.649,7.207-3.255,14.803-3.801,22.386c-0.091,1.261-0.207,2.515-0.34,3.765
		C203.638,145.138,219.083,132.394,229.962,126.249z"/>
	<path fill-rule="evenodd" clip-rule="evenodd" fill="#ED9D8F" d="M372.625,367.31c-0.547,0.704-0.845,1.06-1.112,1.437
		c-9.283,13.056-19.562,25.303-30.149,37.307c-3.077,3.488-6.628,6.236-10.794,8.219c-13.768,6.551-28.331,9.843-43.524,10.431
		c-4.691,0.181-9.257-0.584-13.534-2.611c-6.714-3.183-13.53-6.181-20.076-9.682c-18.624-9.96-36.045-21.658-51.212-36.494
		c-0.13-0.127-0.362-0.149-0.778-0.31c0.292,0.961,0.507,1.713,0.748,2.457c1.646,5.092,3.382,10.156,4.962,15.268
		c0.002,0.004,21.723,50.585,91.909,86.584c17.437,8.943,35.314,18.217,51.786,27.922c4.174-3.185,8.279-6.46,12.27-9.888
		c12.514-10.75,23.389-22.953,32.138-36.988c0.491-0.788,0.929-1.61,1.426-2.477c-0.959-0.709-1.754-1.237-2.482-1.846
		c-3.007-2.506-6.108-4.912-8.954-7.591c-2.971-2.797-4.733-6.313-5.647-10.362c-4.858-21.547-7.174-43.354-6.977-65.435
		C372.638,371.422,372.625,369.595,372.625,367.31z"/>
	<path opacity="0.8" fill-rule="evenodd" clip-rule="evenodd" fill="#463747" d="M372.629,370.298
		c-0.002-0.928-0.005-1.904-0.005-2.988c-0.547,0.704-0.845,1.06-1.112,1.437c-9.283,13.056-19.562,25.303-30.149,37.307
		c-3.077,3.488-6.628,6.236-10.794,8.219c-13.768,6.551-28.331,9.843-43.524,10.431c-4.691,0.181-9.257-0.584-13.534-2.611
		c-6.714-3.183-13.53-6.181-20.076-9.682c-18.624-9.96-36.045-21.658-51.212-36.494c-0.13-0.127-0.362-0.149-0.778-0.31
		c0.292,0.961,0.507,1.713,0.748,2.457c1.646,5.092,3.382,10.156,4.962,15.268c22.996,25.146,65.984,62.789,110.274,52.724
		C348.499,438.994,364.443,404.479,372.629,370.298z"/>
	<g>
		<path fill-rule="evenodd" clip-rule="evenodd" fill="#1D253D" d="M121.919,565.25c-26.803-1.354-49.537,7.848-67.087,19.254
			c-1.583,4.593-3.029,9.233-4.387,13.907c-0.156,0.535-0.349,1.06-0.525,1.59c55.147,0,110.295,0,165.443,0
			C195.023,585.65,161.609,567.253,121.919,565.25z"/>
		<path fill-rule="evenodd" clip-rule="evenodd" fill="#1D253D" d="M540.426,600c3.414-14.128,6.1-31.75,6.697-53.11
			c-12.231-6.968-24.418-14.018-36.728-20.846c-35.811-19.862-71.138-40.543-105.775-62.393c-2.283-1.441-4.537-2.928-6.838-4.416
			c-0.313,0.396-0.537,0.626-0.699,0.893c-11.129,18.29-25.732,33.382-42.653,46.339c-0.86,0.659-1.734,1.298-2.598,1.952
			c44.894,26.588,78.98,56.419,64.494,91.582C457.693,600,499.06,600,540.426,600z"/>
	</g>
	<path fill-rule="evenodd" clip-rule="evenodd" fill="#3F3B56" d="M80.586,553.917c75.284-3.563,95.199-45.091,100.129-72.259
		c-3.006,1.878-6.043,3.707-9.104,5.493c-21.617,12.608-43.38,24.968-65.069,37.454c-5.474,3.15-10.921,6.35-16.335,9.602
		c-13.295,7.989-22.346,19.619-28.739,33.546c-4.549,9.909-7.987,20.208-11.023,30.656c-0.156,0.535-0.349,1.06-0.525,1.59
		c9.387,0,18.773,0,28.16,0C71.873,570.266,80.586,553.917,80.586,553.917z"/>
	<path fill-rule="evenodd" clip-rule="evenodd" fill="#88545D" d="M316.717,233.002c0.361-0.082,0.727-0.166,1.09-0.249
		l5.414-15.244c-1.72,0.321-3.439,0.647-5.158,0.968C317.62,222.438,317.057,228.937,316.717,233.002z"/>
	<path fill-rule="evenodd" clip-rule="evenodd" fill="#88545D" d="M323.715,231.397c1.948-0.448,3.901-0.894,5.86-1.327
		l-2.125-13.307c-0.478,0.078-0.954,0.167-1.431,0.251L323.715,231.397z"/>
	<path fill-rule="evenodd" clip-rule="evenodd" fill="#88545D" d="M270.166,216.15l7.791,16.631c0.732,0.194,1.466,0.393,2.202,0.59
		c-1.198-5.023-2.678-11.244-3.698-15.604C274.373,217.169,272.275,216.632,270.166,216.15z"/>
	<path fill-rule="evenodd" clip-rule="evenodd" fill="#88545D" d="M265.804,230.574c1.443,0.183,2.884,0.378,4.324,0.577
		l-4.19-15.895c-0.319-0.062-0.639-0.122-0.958-0.181L265.804,230.574z"/>
	<g>
		<path fill-rule="evenodd" clip-rule="evenodd" fill="#3F3B56" d="M256.825,333.473c-1.657,0.092-3.315,0.184-4.973,0.265
			c-0.699,0.034-1.392,0.189-2.444,0.337c0.775,1.068,1.333,1.922,1.975,2.708c3.032,3.717,6.593,6.697,10.57,9.075
			C259.373,341.442,257.79,337.057,256.825,333.473z"/>
		<path fill-rule="evenodd" clip-rule="evenodd" fill="#3F3B56" d="M323.726,344.384c4.024-3.545,7.039-7.784,8.961-13.272
			c-2.705,0.325-5.124,0.626-7.493,0.903c-0.596,5.855-2.104,10.602-3.681,14.162C322.267,345.616,323.005,345.019,323.726,344.384z
			"/>
	</g>
</g>
<g id="Layer_2">
	<g>
		<g>
			<path fill="#B8494B" d="M397.516,458.358c-1.564-0.395-2.93-0.922-4.205-1.582c-1.254-0.701-2.423-1.537-3.603-2.532
				c-2.933-2.589-6.038-5.164-8.496-8.628c-0.339-0.402-0.576-0.893-0.845-1.358l-0.784-1.419l-0.57-1.543
				c-0.19-0.522-0.378-1.049-0.479-1.503c-0.48-1.895-0.978-3.781-1.314-5.689c-0.479-2.69-0.94-5.378-1.36-8.074
				c-0.902-5.001-1.531-10.046-2.197-15.08c-0.501-5.056-1.132-10.095-1.459-15.162c-0.155-1.923-0.302-3.732-0.444-5.485
				c-0.114-1.755-0.144-3.46-0.222-5.166c-0.069-1.706-0.14-3.416-0.212-5.186c-0.03-0.887-0.096-1.787-0.102-2.712
				c0.001-0.925,0.002-1.872,0.003-2.851c-0.001-3.211,0.567-6.694,1.231-8.75c0.277-0.858,0.883-1.025,1.226-0.302
				c0.263,0.553,0.55,1.132,0.692,1.801c0.614,2.918,0.542,5.855,0.531,9.04c-0.036,1.491,0.006,2.887-0.002,4.283
				c0.001,1.396,0.008,2.793,0.094,4.284l0.233,4.14c0.076,1.379,0.252,2.754,0.37,4.131c0.273,2.752,0.5,5.506,0.805,8.25
				c0.259,1.928,0.525,3.859,0.719,5.793l0.348,3.566l0.451,3.555c0.322,2.366,0.57,4.746,0.96,7.105l0.992,5.958
				c0.35,1.982,0.763,3.953,1.132,5.933c0.227,1.293,0.668,3.275,1.142,5.592c0.063,0.281,0.112,0.603,0.191,0.864
				c0.079,0.258,0.159,0.521,0.24,0.785c0.167,0.529,0.282,1.09,0.578,1.605c0.267,0.523,0.479,1.078,0.792,1.6l1.01,1.538
				c0.321,0.521,0.777,0.972,1.151,1.454c0.398,0.47,0.755,0.958,1.199,1.371c0.862,0.844,1.61,1.703,2.425,2.376
				c0.786,0.697,1.49,1.321,2.077,1.842c0.613,0.499,1.103,0.897,1.433,1.165C395.056,454.907,396.08,456.397,397.516,458.358z"/>
		</g>
	</g>
	<g>
		<g>
			<path fill="#B8494B" d="M199.953,372.347c2.114,2.372,3.223,4.698,4.079,7.548c2.165,7.204,5.418,14.296,7.276,21.645
				c0.638,2.595,1.191,5.205,1.777,7.816c1.081,4.867,2.025,9.78,2.414,14.862c0.185,2.595,0.184,5.021,0.21,7.513
				c0.027,2.48,0.021,4.979-0.083,7.502c-0.163,3.829-0.616,7.296-1.62,10.674c-1.031,3.369-2.599,6.575-4.719,9.893
				c-0.422,0.695-0.922,1.347-1.439,1.973c-0.511,0.633-1.046,1.233-1.599,1.764c-0.554,0.537-1.069,1.037-1.616,1.469
				c-0.58,0.426-1.122,0.783-1.599,1.063c-0.802,0.468-1.33,0.152-1.108-0.603c0.168-0.576,0.319-1.173,0.629-1.726
				c1.27-2.539,2.996-4.82,4.557-7.403c1.44-2.428,2.703-4.536,3.496-7.222c1.435-4.961,1.482-10.277,1.362-15.645
				c-0.052-1.892-0.134-3.796-0.156-5.704c-0.037-4.521-0.691-9.056-1.564-13.62c-0.717-3.838-1.712-7.646-2.671-11.456
				c-0.654-2.478-2.019-7.686-3.502-12.641c-1.458-4.961-2.968-9.678-3.457-11.286C199.925,376.514,200.028,374.712,199.953,372.347
				z"/>
		</g>
	</g>
	<g>
		<g>
			<path fill="#271A35" d="M171.755,260.933c0.031,6.501,0.222,12.525,0.395,18.541c0.195,6.016,0.415,12.028,0.837,18.49
				c0.525,8.174,1.586,16.372,3.286,24.451c0.874,4.033,1.893,8.037,3.116,11.976c1.251,3.929,2.692,7.79,4.361,11.54
				c1.7,3.737,3.662,7.324,5.891,10.734c2.219,3.428,4.777,6.639,7.437,9.746c2.658,3.114,5.523,6.052,8.47,8.891
				c2.936,2.852,6.015,5.552,9.137,8.18c8.835,7.393,18.302,14.056,28.194,20.055c9.219,5.562,18.754,10.674,28.568,15.022
				c1.228,0.534,2.46,1.056,3.695,1.55c1.22,0.471,2.507,0.995,3.657,1.305c2.333,0.67,4.986,0.823,7.591,0.867
				c5.257,0.03,10.59-0.609,15.848-1.528c5.259-0.957,10.476-2.22,15.561-3.846c5.068-1.641,10.077-3.584,14.581-6.214
				c2.239-1.346,4.325-2.78,5.958-4.681c1.807-2.004,3.604-4.021,5.375-6.06c3.55-4.072,7.035-8.201,10.455-12.379
				c5.178-6.36,9.904-12.459,14.234-18.527c1.095-1.51,2.141-3.03,3.165-4.553c1.05-1.507,2.017-3.046,2.995-4.571
				c1.006-1.513,1.862-3.087,2.797-4.621c0.461-0.771,0.853-1.566,1.282-2.348c0.406-0.789,0.877-1.559,1.223-2.365
				c3.06-6.316,4.888-13.318,6.477-20.625c1.564-7.318,2.806-14.997,3.821-23.214c1.721-13.48,3.053-28.227,3.446-37.09
				c0.142-3.688,0.716-4.595,1.171-1.565c0.377,2.313,0.655,4.758,0.791,7.635c0.239,6.274-0.008,12.613-0.497,19.087
				c-0.5,6.476-1.263,13.092-2.268,19.938c-0.968,6.416-2.113,12.384-3.518,18.307c-1.445,5.903-3.011,11.842-5.768,17.903
				c-2.579,5.561-5.792,10.688-9.136,15.697c-3.366,4.997-6.911,9.855-10.581,14.607c-7.344,9.505-15.042,18.7-23.041,27.656
				c-3.258,3.486-7.171,5.569-11.068,7.48c-3.931,1.853-7.978,3.333-12.073,4.586c-5.037,1.533-10.154,2.741-15.338,3.634
				c-5.184,0.885-10.431,1.48-15.788,1.46c-2.681-0.033-5.39-0.2-8.169-0.863c-1.449-0.384-2.667-0.848-3.908-1.329
				c-1.235-0.482-2.448-0.986-3.651-1.508c-4.807-2.087-9.492-4.368-14.11-6.779c-7.781-4.057-15.367-8.471-22.734-13.237
				c-3.689-2.375-7.307-4.862-10.861-7.443c-3.558-2.574-7.041-5.259-10.42-8.075c-4.401-3.66-11.142-9.51-17.907-17.405
				c-3.372-3.947-6.739-8.41-9.645-13.378c-2.906-4.969-5.276-10.375-7.176-15.847c-3.803-10.96-5.755-22.127-6.85-31.36
				c-1.09-9.249-1.344-16.609-1.444-20.333c-0.123-5.213,0.068-9.672,0.434-14.047C170.428,270.106,170.96,265.804,171.755,260.933z
				"/>
		</g>
	</g>
	<g>
		<g>
			<path fill="#B8494B" d="M149.121,220.908c-0.265,1.392-0.279,2.628-0.434,3.818c-0.056,0.602-0.108,1.206-0.22,1.803
				c-0.067,0.613-0.148,1.238-0.268,1.882c-0.509,3.303-0.137,6.787,0.406,10.181c0.346,1.701,0.606,3.399,1.043,5.08
				c0.379,1.688,0.757,3.367,1.133,5.037l0.763,3.553c0.305,1.176,0.615,2.351,0.952,3.52c0.747,2.806,1.76,5.547,2.648,8.321
				c0.451,1.385,1.006,2.739,1.506,4.109l1.928,5.106l-0.78,0.838l-0.383,0.425l-0.287,0.36c-0.227,0.283-0.43,0.595-0.637,0.898
				c-0.39,0.625-0.767,1.265-1.053,1.941c-0.603,1.339-0.979,2.759-1.09,4.186c-0.126,1.512,0.04,2.942,0.449,4.271
				c0.152,0.677,0.459,1.306,0.714,1.94c0.112,0.33,0.311,0.596,0.466,0.891c0.171,0.282,0.312,0.591,0.501,0.853
				c0.75,1.06,1.656,1.941,2.747,2.588c1.093,0.643,2.411,0.982,3.871,1.045c2.383,0.108,5.227-0.192,6.963-0.499
				c0.66-0.124,1.242,0.217,0.89,0.875c-0.132,0.261-0.294,0.509-0.484,0.75c-0.188,0.252-0.412,0.482-0.681,0.673
				c-2.358,1.695-5.471,2.263-8.743,1.66c-3.12-0.558-5.476-2.503-7.288-4.946c-0.844-1.15-1.489-2.409-2.003-3.701
				c-0.271-0.645-0.428-1.341-0.641-2.014c-0.146-0.692-0.276-1.397-0.362-2.106c-0.278-2.854,0.249-5.787,1.432-8.368
				c0.353-0.787,0.764-1.546,1.223-2.278c0.239-0.361,0.475-0.724,0.744-1.071c0.027-0.044,0.001-0.017,0.007-0.026
				c0.001,0.003,0.003,0.009,0.007,0.013l-2.092-5.683c-0.732-2.085-1.378-4.205-2.078-6.302c-0.605-1.76-1.052-3.582-1.59-5.368
				c-0.55-1.783-0.96-3.614-1.386-5.437c-0.135-0.595-0.307-1.353-0.506-2.23c-0.156-0.889-0.333-1.899-0.523-2.986
				c-0.094-0.543-0.191-1.104-0.292-1.68c-0.071-0.582-0.143-1.178-0.216-1.782c-0.12-1.213-0.334-2.438-0.368-3.685
				c-0.175-2.472-0.193-4.913-0.046-6.939c0.121-2.026,0.44-3.631,0.592-4.438c0.146-0.564,0.322-1.079,0.52-1.558
				c0.204-0.479,0.492-0.915,0.761-1.333C147.521,222.283,148.223,221.489,149.121,220.908z"/>
		</g>
	</g>
	<g>
		<g>
			<path fill="#B8494B" d="M411.977,241.714c0.442,0.477,0.75,0.99,1.029,1.5c0.295,0.517,0.486,1.041,0.621,1.567
				c0.279,1.056,0.458,2.153,0.361,3.303c-0.083,2.912-0.167,5.857-0.251,8.812c-0.128,1.461-0.271,2.923-0.436,4.381
				c-0.173,1.456-0.332,2.918-0.742,4.304c-0.517,1.974-1.103,3.924-1.584,5.9c-0.203,0.948-0.512,1.86-0.803,2.779l-0.875,2.754
				l-1.389,4.367c0.064,0.057,0.079,0.068,0.303,0.308c0.357,0.38,0.686,0.782,1.006,1.191c0.623,0.833,1.154,1.739,1.602,2.694
				c0.858,1.929,1.234,4.127,1.023,6.249c-0.173,1.65-0.587,3.115-1.234,4.466c-0.165,0.338-0.329,0.673-0.492,1.007l-0.615,0.934
				c-0.379,0.643-0.935,1.148-1.412,1.716c-2.131,2.07-4.906,3.433-8.219,3.862c-1.367,0.147-2.838-0.02-4.115-0.489
				c-1.278-0.471-2.371-1.311-2.928-2.179c-0.463-0.791-0.018-1.197,0.604-1.104c0.45,0.091,0.946,0.006,1.359,0.084
				c1.919,0.151,3.811,0.241,5.861-0.183c1.86-0.461,3.528-1.019,4.891-2.368c1.241-1.251,2.033-2.835,2.45-4.58
				c0.413-1.712,0.299-3.416-0.252-4.98c-0.398-1.102-1.047-2.124-1.8-3.068c-0.1-0.128-0.197-0.258-0.309-0.376l-0.16-0.182
				l-0.08-0.091l-0.172-0.165c-0.444-0.455-1.106-0.982-1.709-1.482l1.693-5.276l1.275-3.92c0.221-0.707,0.468-1.408,0.661-2.121
				l0.524-2.151l1.058-4.302c0.11-0.468,0.284-1.06,0.431-1.752c0.127-0.695,0.271-1.484,0.426-2.333
				c0.158-0.85,0.327-1.759,0.5-2.693c0.088-0.468,0.177-0.941,0.266-1.417c0.07-0.477,0.109-0.956,0.165-1.433
				c0.521-3.817,0.596-7.475,0.583-8.704c-0.027-0.856,0.107-1.603,0.324-2.37C411.55,243.428,411.854,242.651,411.977,241.714z"/>
		</g>
	</g>
	<g>
		<g>
			<path fill="#B8494B" d="M262.428,333.534c-4.063,0.188-8.128,0.375-12.186,0.562c-1.653,0.061-3.325-0.018-4.929-0.13
				c-0.487-0.034-0.936-0.371-1.075-0.619c-0.06-0.107,0.712-0.343,1.124-0.511c0.097-0.039,0.267-0.047,0.404-0.063
				c3.886-0.454,7.757-1.045,11.666-1.292c4.214-0.254,8.411-0.547,12.666-0.692l1.596-0.054l1.806,0.044
				c1.155,0.122,2.168,0.405,3.196,0.602c2.058,0.429,4.104,0.881,6.159,1.285c4.621,0.938,9.365,1.559,14.029,1.692l1.494,0.063
				l1.468-0.071l1.467-0.072c0.487-0.014,0.978-0.048,1.473-0.133c0.986-0.147,1.979-0.256,2.958-0.427
				c0.973-0.197,1.958-0.339,2.922-0.566c1.73-0.373,3.496-0.754,5.19-1.118c0.698-0.132,1.339-0.316,2.093-0.456
				c0.647-0.194,1.722-0.185,2.284-0.233c1.358-0.097,2.686-0.158,4.1-0.354l12.969-1.524c0.431-0.051,1.134,0.066,1.237,0.217
				c0.107,0.153-0.242,0.53-0.609,0.656c-1.09,0.372-2.254,0.771-3.45,0.966c-2.353,0.388-4.71,0.768-7.081,1.104l-3.553,0.515
				c-1.207,0.154-2.461,0.274-3.693,0.409l-0.574,0.06l-0.381,0.061c-0.215-0.004-0.596,0.146-0.896,0.219
				c-0.656,0.192-1.349,0.445-2.062,0.675c-0.706,0.241-1.423,0.469-2.15,0.682c-0.72,0.231-1.45,0.425-2.182,0.616
				c-0.815,0.234-1.64,0.426-2.47,0.585c-0.829,0.169-1.657,0.355-2.493,0.458l-2.505,0.352l-2.574,0.12
				c-3.434,0.126-6.768-0.261-10.087-0.708c-2.946-0.447-5.88-0.935-8.803-1.475l-4.369-0.859l-2.164-0.447l-1.05-0.215
				l-0.976-0.018c-0.699-0.04-1.611,0.01-2.427,0.019l-2.513,0.062l-5.046,0.18L262.428,333.534z"/>
		</g>
	</g>
	<g>
		<g>
			<path fill="#B8494B" d="M262.425,347.591c-3.943-2.239-7.6-5.05-10.623-8.457c-1.23-1.386-2.256-2.97-3.023-4.591
				c-0.233-0.497-0.151-1.096,0.023-1.32c0.068-0.098,0.629,0.534,1,0.83c0.086,0.069,0.183,0.222,0.27,0.34
				c2.512,3.334,5.77,5.994,9.131,8.396c3.64,2.585,7.656,4.665,11.904,6.124c4.238,1.47,8.616,2.612,13.104,3.258
				c5.04,0.898,10.258,0.837,15.348,0.584l3.237-0.417l1.617-0.212c0.54-0.066,1.057-0.236,1.586-0.349l3.159-0.746
				c1.037-0.294,2.038-0.695,3.063-1.027c0.456-0.148,0.915-0.298,1.374-0.447l1.328-0.558c0.885-0.373,1.794-0.689,2.664-1.038
				c2.666-1.245,5.211-2.876,7.321-5.04c1.708-1.585,3.146-3.433,4.49-5.332c1.271-1.949,2.378-4.02,3.181-6.196
				c0.163-0.431,0.562-1.061,0.736-1.106c0.188-0.057,0.398,0.448,0.338,0.878c-0.172,1.263-0.458,2.62-1.031,3.855
				c-0.538,1.23-1.217,2.386-1.889,3.551c-0.77,1.096-1.468,2.258-2.367,3.262c-0.434,0.515-0.85,1.047-1.303,1.546l-1.435,1.426
				c-0.918,0.998-2.036,1.766-3.071,2.636c-0.629,0.556-1.36,0.962-2.06,1.418c-0.71,0.439-1.402,0.912-2.13,1.319l-2.245,1.103
				c-0.75,0.363-1.483,0.772-2.273,1.029c-6.925,2.842-14.472,3.597-21.799,3.231l-4.899-0.351c-1.628-0.195-3.252-0.443-4.88-0.656
				c-3.238-0.542-6.468-1.228-9.6-2.263l-1.35-0.413l-1.316-0.516l-2.626-1.045c-0.867-0.368-1.698-0.822-2.548-1.229
				c-0.849-0.411-1.694-0.828-2.492-1.338L262.425,347.591z"/>
		</g>
	</g>
	<g>
		<g>
			<path fill="#271A35" d="M310.314,234.181c-0.642-2.338-0.95-4.591-0.944-6.879c0.004-1.143,0.101-2.298,0.336-3.474
				c0.246-1.169,0.607-2.382,1.353-3.534c0.468-0.722,1.098-1.406,1.906-1.876l1.18-0.512c0.394-0.166,0.762-0.239,1.145-0.364
				c0.761-0.245,1.517-0.417,2.272-0.594c0.756-0.191,1.514-0.347,2.271-0.498c3.031-0.628,6.076-1.145,9.13-1.618
				c6.106-0.944,12.234-1.716,18.34-2.078c2.159-0.118,4.304-0.213,6.523-0.151c1.033,0.012,2.437,0.116,3.521,0.584
				c1.08,0.427,2.06,0.927,3.029,1.446c4.172,2.299,8.044,4.955,11.75,7.902c0.922,0.743,1.828,1.51,2.706,2.331
				c0.874,0.839,1.738,1.655,2.498,2.78c0.095,0.139,0.189,0.284,0.274,0.458c0.088,0.16,0.175,0.329,0.245,0.55
				c0.087,0.229,0.112,0.38,0.141,0.528l0.092,0.462c0.145,0.61,0.186,1.245,0.248,1.873l0.013,0.954
				c0.003,0.159-0.018,0.319-0.025,0.479l-0.048,0.574c-0.145,1.035-0.423,1.995-0.774,2.821l-3.367-1.594l-2.259-1.016
				c-1.512-0.659-3.026-1.316-4.556-1.926c-1.532-0.602-3.06-1.223-4.613-1.737c-0.775-0.261-1.545-0.561-2.324-0.788l-2.343-0.664
				c-0.714-0.234-1.413-0.331-2.103-0.456c-0.345-0.062-0.688-0.123-1.028-0.184c-0.341-0.068-0.68-0.13-1.008-0.115
				c-0.657-0.019-1.31-0.038-2.004,0.027c-0.683,0.044-1.353,0.069-2.033,0.155c-2.704,0.253-5.34,0.673-7.971,1.079
				c-5.265,0.85-10.537,1.859-16.527,3.099c-4.911,1.023-10.328,1.859-13.583,2.258c-0.698,0.08-1.053,0.06-1.218-0.04
				c-0.149-0.099-0.027-0.283,0.495-0.539c0.79-0.363,1.627-0.744,2.635-1.064c4.4-1.397,8.999-2.337,13.972-3.341
				c4.664-0.933,8.756-1.555,13.453-2.363c2.175-0.366,4.358-0.705,6.556-0.998c1.111-0.113,2.202-0.276,3.331-0.347l1.691-0.112
				l1.777,0.032c1.137,0.18,2.276,0.374,3.403,0.589l3.25,0.903c2.121,0.693,4.235,1.405,6.294,2.225
				c2.901,1.106,5.831,2.364,8.577,3.645c-0.001,0.002-0.001,0.003,0.003,0.006c0.002,0.002,0.004,0,0.006-0.002
				c0.003-0.027-0.003,0.068,0.01-0.117c0.009-0.195,0.039-0.388,0.033-0.586c-0.008-0.396,0.005-0.791-0.053-1.189
				c-0.025-0.399-0.087-0.796-0.177-1.191c-0.039-0.181-0.076-0.435-0.115-0.556c-0.022-0.044-0.022-0.077-0.05-0.135l-0.104-0.195
				c-0.166-0.281-0.395-0.594-0.654-0.9c-0.52-0.615-1.123-1.22-1.752-1.804c-2.544-2.329-5.396-4.438-8.303-6.402
				c-1.314-0.882-2.648-1.73-4.007-2.522c-1.353-0.787-2.746-1.551-4.121-2.105c-0.342-0.141-0.68-0.251-0.983-0.329
				c-0.328-0.052-0.67-0.076-1.004-0.124c-0.764-0.013-1.52-0.065-2.314-0.033c-1.57,0.017-3.159,0.1-4.746,0.186
				c-4.137,0.234-12.852,0.958-21.129,2.139c-4.122,0.597-8.2,1.253-11.326,2.188c-0.417,0.098-0.693,0.276-1.035,0.397
				c-0.347,0.127-0.583,0.282-0.813,0.485c-0.46,0.389-0.807,0.888-1.073,1.381c-0.536,0.994-0.758,1.949-0.911,2.57
				c-0.395,1.77-0.589,3.362-0.766,4.942C310.445,230.763,310.309,232.347,310.314,234.181z"/>
		</g>
	</g>
	<g>
		<g>
			<path fill="#271A35" d="M285.314,234.901c0.014-2.809-0.193-5.4-0.63-7.888c-0.232-1.241-0.563-2.442-1.008-3.597
				c-0.488-1.129-1.138-2.179-2.049-2.979c-0.559-0.482-1.317-0.891-2.09-1.253c-0.778-0.362-1.59-0.677-2.417-0.97
				c-1.663-0.564-3.366-1.064-5.103-1.468c-3.464-0.839-7.015-1.432-10.565-1.898c-1.775-0.222-3.56-0.408-5.316-0.503
				c-0.885-0.061-1.721-0.049-2.57,0.011c-0.871,0.074-1.756,0.15-2.645,0.256c-3.554,0.398-7.109,0.876-10.639,1.331
				c-4.98,0.656-9.956,1.332-14.896,2.193c-2.526,0.46-5.074,0.913-7.517,1.53l-0.878,0.257l-0.439,0.127
				c-0.128,0.046-0.217,0.097-0.33,0.141l-0.325,0.128l-0.328,0.241c-0.218,0.144-0.446,0.372-0.67,0.56
				c-0.896,0.816-1.75,1.751-2.569,2.705c-1.616,1.934-3.111,3.997-4.348,6.171c-0.601,1.092-1.168,2.205-1.569,3.344
				c-0.48,1.524-0.407,1.324-0.385,1.586l4.176-1.92c1.926-0.87,3.871-1.705,5.835-2.514c1.009-0.372,1.97-0.791,3.021-1.121
				c0.528-0.162,1.04-0.344,1.582-0.486c0.562-0.096,1.162-0.23,1.681-0.268c2.152-0.259,4.253-0.355,6.373-0.463
				c7.16-0.301,13.463-0.218,19.789,0.028c6.323,0.274,12.667,0.724,19.868,1.702c5.909,0.793,12.252,2.43,15.85,4.001
				c1.516,0.601,1.752,1.045,0.425,0.885c-1.013-0.122-2.07-0.24-3.273-0.491c-5.289-0.956-10.664-1.914-16.545-2.624
				c-5.509-0.666-10.328-1.14-15.885-1.368c-5.142-0.195-10.294-0.247-15.437-0.119c-2.57,0.069-5.141,0.166-7.69,0.353
				c-1.275,0.088-2.549,0.206-3.764,0.373l-0.842,0.154c-0.284,0.063-0.58,0.182-0.869,0.27c-0.582,0.188-1.163,0.367-1.756,0.616
				c-3.324,1.285-6.634,2.814-9.921,4.321l-5.108,2.412c0.02-0.86-0.034-1.789,0.053-2.671l0.117-1.335
				c0.008-0.226,0.054-0.44,0.111-0.653c0.05-0.212,0.077-0.28,0.117-0.427c0.135-0.522,0.308-1.018,0.506-1.495
				c0.178-0.493,0.395-0.956,0.617-1.416c0.884-1.841,1.949-3.54,3.101-5.167c1.158-1.624,2.403-3.173,3.781-4.639
				c0.69-0.737,1.404-1.439,2.28-2.119c0.4-0.36,1.062-0.611,1.61-0.837l1.482-0.432c3.752-0.911,7.465-1.534,11.2-2.156
				c3.731-0.609,7.466-1.159,11.21-1.66c2.441-0.321,6.214-0.824,10.645-1.256c1.114-0.106,2.247-0.212,3.479-0.262
				c1.245-0.064,2.488,0.052,3.711,0.168c2.459,0.246,4.945,0.618,7.397,1.054c4.898,0.887,9.649,1.999,13.482,3.459
				c1.892,0.742,3.651,1.519,4.866,2.783c1.193,1.208,1.642,2.451,1.994,3.225c0.811,2.256,0.924,4.268,0.871,6.19
				C286.087,230.949,285.811,232.827,285.314,234.901z"/>
		</g>
	</g>
	<g>
		<g>
			<path fill="#020E28" d="M577.083,600.044c-1.679-5.191-3.477-10.141-5.333-14.951c-1.868-4.807-3.811-9.477-5.964-14.03
				c-2.146-4.552-4.509-9.005-7.359-13.17c-1.438-2.065-3.022-4.047-4.841-5.751c-0.475-0.391-0.93-0.821-1.419-1.189
				c-0.517-0.347-0.944-0.722-1.562-1.052c-1.156-0.681-2.322-1.366-3.499-2.059c-2.979-1.75-5.962-3.504-8.949-5.261
				c-2.989-1.755-5.977-3.517-9.036-5.203c-6.092-3.399-12.199-6.807-18.317-10.221c-12.244-6.829-24.53-13.682-36.819-20.536
				l-4.609-2.569l-4.564-2.658l-9.122-5.323c-6.076-3.554-12.147-7.105-18.21-10.65c-11.983-7.296-23.958-14.43-35.657-22.097
				l-3.104-1.999l-0.388-0.25c-0.063-0.041-0.021-0.015-0.037-0.025l-0.017-0.014c-0.011-0.021-0.025-0.007-0.042,0.022
				l-0.024,0.035l-0.372,0.603l-0.978,1.588c-0.663,1.051-1.379,2.065-2.066,3.099c-1.352,2.085-2.852,4.059-4.327,6.051
				c-1.435,2.024-3.069,3.889-4.613,5.824c-6.329,7.621-13.35,14.621-20.763,21.17l-5.338,4.382l-2.67,2.19l-2.75,2.056
				l-11.005,8.216c-7.49,5.25-14.944,10.558-22.605,15.547l-5.709,3.797l-5.775,3.692c-3.852,2.46-7.692,4.938-11.594,7.317
				c-3.883,2.407-7.769,4.812-11.696,7.149c-1.96,1.175-3.91,2.364-5.886,3.515l-2.956,1.737l-3.789,2.184
				c-0.458-0.154-0.917-0.454-1.374-0.678l-1.027-0.562l-1.511-0.864c-1.002-0.582-1.99-1.183-2.973-1.789
				c-1.964-1.215-3.887-2.488-5.794-3.785c-3.804-2.604-7.488-5.377-11.065-8.28c-7.122-5.842-13.838-12.202-19.877-19.179
				c-6.085-6.934-11.462-14.495-16.066-22.509c-4.548-8.046-8.217-16.603-10.857-25.476c-0.483-1.69-0.899-3.386-1.346-5.06
				c-0.237-0.834-0.404-1.682-0.577-2.525l-0.213-1.019l-0.041-0.188c-0.015-0.018,0.005-0.091-0.038-0.063l-0.162,0.141
				l-0.644,0.556l-0.318,0.274l-0.97,0.732c-0.67,0.504-1.339,1.007-2.005,1.508c-5.358,3.948-10.751,7.477-16.112,10.858
				c-10.719,6.763-21.275,12.976-31.886,19.127c-10.615,6.143-21.307,12.186-32.378,18.438c-5.531,3.131-11.166,6.298-16.863,9.634
				c-5.689,3.364-11.479,6.765-16.664,11.161c-4.266,3.583-8.148,7.769-11.422,12.389c-3.249,4.636-6.051,9.549-8.429,14.429
				c-4.789,9.755-8.023,19.226-10.475,26.286c-2.012,5.908-3.003,7.14-1.9,2.131c0.427-1.912,0.864-3.872,1.325-5.942
				c0.521-2.056,1.131-4.206,1.81-6.524c1.531-5.04,3.308-10.046,5.382-14.999c0.477-1.255,1.079-2.463,1.647-3.688
				c0.579-1.222,1.141-2.455,1.742-3.675c1.333-2.376,2.53-4.847,4.084-7.143c1.421-2.375,3.117-4.601,4.81-6.848
				c0.918-1.07,1.839-2.144,2.764-3.221c0.958-1.048,1.992-2.034,2.993-3.059c4.13-3.978,8.868-7.395,13.83-10.482
				c9.324-5.72,18.244-10.542,27.097-15.51c8.864-4.941,17.719-9.896,27.104-15.34c8.684-5.032,17.322-10.147,25.865-15.397
				c8.512-5.273,17.042-10.616,24.939-16.593l1.502-1.139l2.383-2.044l2.391-2.049l0.599-0.514l0.298-0.252l0.089,0.428l0.355,1.711
				l1.185,5.695c0.221,1.218,0.605,2.396,0.9,3.596c1.204,4.797,2.867,9.465,4.701,14.053c1.873,4.576,4.085,9.008,6.48,13.335
				c2.477,4.282,5.14,8.459,8.058,12.461c4.095,5.642,8.675,10.941,13.56,15.938c4.888,4.996,10.102,9.679,15.583,14.01
				c3.365,2.667,6.831,5.206,10.391,7.6c1.78,1.196,3.583,2.357,5.412,3.463c0.912,0.558,1.833,1.1,2.756,1.622l0.837,0.471
				c0.007,0.009,0.017,0,0.026-0.004l5.527-3.232c1.873-1.089,3.723-2.226,5.586-3.336c3.73-2.215,7.419-4.498,11.109-6.779
				c3.706-2.257,7.362-4.593,11.016-6.931l5.487-3.499c1.828-1.167,3.619-2.391,5.431-3.583c3.602-2.415,7.251-4.765,10.814-7.234
				l10.662-7.451c1.509-1.029,2.978-2.111,4.433-3.212l4.386-3.272l4.386-3.273c1.465-1.088,2.939-2.169,4.315-3.343
				c5.648-4.545,11.134-9.308,16.194-14.497c1.263-1.298,2.563-2.563,3.796-3.889l3.614-4.055c1.232-1.329,2.364-2.742,3.496-4.154
				c1.118-1.422,2.322-2.779,3.37-4.254l3.216-4.37l3.02-4.502c0.505-0.749,0.95-1.533,1.43-2.298l2.368-3.874l0.085-0.138
				c0.014-0.022,0.027-0.049,0.042-0.067l0.069,0.044l0.275,0.177l0.552,0.354l1.103,0.707l1.855,1.189l2.302,1.477
				c1.999,1.283,4.272,2.743,6.784,4.355c2.521,1.603,5.23,3.405,8.25,5.23c5.994,3.693,12.804,7.889,20.126,12.4
				c7.376,4.398,15.268,9.106,23.377,13.941c2.027,1.208,4.067,2.424,6.117,3.646c1.024,0.61,2.052,1.223,3.08,1.835l3.127,1.783
				c4.175,2.379,8.366,4.767,12.534,7.141c16.652,9.529,33.035,18.736,46.571,26.38c6.728,3.943,12.753,7.476,17.771,10.418
				c0.628,0.372,1.239,0.734,1.834,1.087c0.595,0.441,1.224,0.828,1.736,1.289c1.072,0.884,1.979,1.797,2.777,2.675
				c1.607,1.754,2.732,3.401,3.65,4.711c2.475,3.724,4.349,7.385,5.946,10.954c1.598,3.572,2.935,7.054,4.13,10.547
				C573.354,584.941,575.297,591.949,577.083,600.044z"/>
		</g>
	</g>
	<g>
		<g>
			<path fill="#271A35" d="M362.274,53.746c3.478,0.402,6.797,1.487,9.91,2.865c3.122,1.376,6.068,3.049,8.84,4.928
				c5.531,3.773,10.409,8.344,14.422,13.6c4.004,5.25,7.143,11.229,8.875,17.749c0.859,3.258,1.328,6.645,1.4,10.068
				c0.009,0.428,0.03,0.856,0.028,1.286l-0.052,1.288c-0.034,0.86-0.057,1.723-0.175,2.58c-0.11,0.856-0.156,1.726-0.325,2.578
				c-0.104,0.58-0.209,1.161-0.313,1.744l0.161,0.167l0.475,0.53c0.388,0.431,0.741,0.879,1.115,1.322
				c0.717,0.904,1.422,1.828,2.087,2.789c0.69,0.946,1.3,1.953,1.948,2.944c0.589,1.026,1.237,2.029,1.786,3.092
				c1.602,2.847,2.884,5.85,4.121,8.865c0.541,1.536,1.136,3.057,1.619,4.613l0.706,2.341c0.246,0.777,0.466,1.561,0.645,2.357
				c0.819,3.156,1.454,6.358,1.932,9.583c0.204,1.612,0.451,3.242,0.618,4.841l0.499,4.799c0.664,6.4,1.308,12.809,2.026,19.206
				c0.732,6.39,1.488,12.792,2.691,19.054c0.618,3.12,1.347,6.217,2.424,9.109c0.123,0.369,0.27,0.721,0.428,1.065l0.744,1.704
				c0.138,0.164-0.039,0.317-0.095,0.475l-0.236,0.471l-0.432,0.861l-0.555,1.089c-0.751,1.441-1.474,2.899-2.247,4.327
				c-1.526,2.867-3.053,5.735-4.658,8.56l-2.378,4.254l-2.475,4.201l-2.475,4.202l-2.588,4.137
				c-1.741,2.749-3.419,5.537-5.298,8.202l-2.751,4.04c-0.925,1.341-1.806,2.711-2.819,3.995l-9.02,11.892l-0.178-5.617
				l-0.211-5.486l-0.308-5.956c-0.228-3.933-0.485-7.861-0.802-11.778c-0.333-3.913-0.676-7.826-1.165-11.699
				c-0.491-3.864-1.029-7.741-1.904-11.423c-0.262-0.893-0.475-1.779-0.768-2.68c-0.317-0.903-0.609-1.814-0.962-2.705
				c-0.66-1.797-1.428-3.557-2.219-5.311c-1.589-3.516-3.476-6.911-5.112-10.672c-0.802-1.885-1.517-3.905-1.869-6.075
				c-0.065-0.553-0.166-1.072-0.195-1.654c-0.042-0.602-0.029-1.108-0.03-1.638l0.093-2.971c0.143-3.872,0.111-7.662-0.315-11.417
				c-0.564-5.248-1.927-10.371-4.058-15.157c-1.065-2.395-2.375-4.671-3.797-6.874c-0.762-1.068-1.477-2.169-2.321-3.179
				c-0.414-0.51-0.801-1.042-1.237-1.535l-1.313-1.474c-3.531-3.913-7.71-7.245-12.163-10.148c-2.227-1.456-4.548-2.781-6.919-4.015
				c-1.201-0.588-2.376-1.228-3.6-1.775l-3.096-1.381l-2.016,0.52l-2.666,0.635c-1.78,0.396-3.563,0.772-5.353,1.113
				c-3.581,0.672-7.175,1.275-10.793,1.72c-13.543,1.734-27.397,1.953-40.977-0.281c-13.339-2.165-26.673-4.489-40.031-5.002
				l-5.005-0.134c-1.668-0.041-3.328,0.106-4.992,0.15l-2.495,0.101l-1.247,0.05l-1.239,0.143l-4.956,0.579
				c-1.66,0.138-3.287,0.503-4.921,0.82l-4.309,0.842c-0.057-0.002-0.055,0.044-0.077,0.07l-0.08,0.147l-0.579,1.086
				c-0.387,0.724-0.73,1.481-1.098,2.221c-0.741,1.478-1.342,3.028-2.021,4.539c-2.495,6.136-4.333,12.571-5.02,19.101
				c-0.252,1.602-0.364,3.315-0.511,5.001c-0.137,1.688-0.291,3.379-0.456,5.072c-0.304,3.382-0.709,6.785-1.246,10.194
				c-0.574,3.414-1.44,6.822-2.571,10.102l-0.882,2.441l-0.918,2.369l-1.811,4.729c-1.222,3.142-2.321,6.323-3.464,9.489
				c-1.107,3.179-2.125,6.386-3.192,9.577c-4.055,12.83-7.264,25.931-9.32,39.193l-1.467,8.661l-0.188,1.106
				c-0.013,0.021-0.003,0.148-0.036,0.082l-0.079-0.116l-0.158-0.231l-0.316-0.463l-1.242-1.827l-1.223-1.812l-1.11-1.734
				l-1.11-1.735l-0.555-0.867l-0.333-0.56l-1.309-2.207c-0.886-1.463-1.67-2.987-2.51-4.477c-1.604-3.025-3.143-6.09-4.489-9.259
				c-0.735-1.552-1.31-3.186-1.907-4.808l-0.78-2.115l-0.62-0.788l-0.783-1.031c-4.113-5.517-7.696-11.352-10.941-17.378
				c-3.227-6.034-6.031-12.301-8.321-18.762c-0.445-1.167-0.788-2.367-1.184-3.542c-0.365-1.186-0.806-2.344-1.103-3.542
				c-0.631-2.385-1.353-4.729-1.815-7.124c-0.259-1.191-0.516-2.378-0.773-3.562c-0.281-1.712-0.023-2.868,0.118-4.132
				c0.358-2.464,0.899-4.799,1.49-7.112c2.427-9.212,5.768-17.874,9.691-26.124c3.954-8.23,8.582-16.021,14.105-23.114
				c2.764-3.542,5.758-6.901,9.025-9.991c1.629-1.55,3.346-3.008,5.11-4.41c0.906-0.672,1.796-1.364,2.715-2.019l1.945-1.296
				l0.002-0.085l0.05-0.785c0.045-0.615,0.102-1.224,0.172-1.83c0.135-1.214,0.311-2.418,0.526-3.615
				c0.426-2.394,0.989-4.761,1.69-7.092c1.415-4.654,3.328-9.19,5.855-13.415c4.992-8.475,12.361-15.713,21.213-20.586
				c8.802-4.757,18.156-8.493,28.029-11.536c9.865-3.033,20.204-5.401,31.054-6.909c8.559-1.138,17.446-1.685,26.32-0.718
				c1.107,0.078,2.217,0.292,3.324,0.507c1.106,0.227,2.211,0.354,3.308,0.74c1.076,0.336,2.242,0.654,3.228,1.016
				c0.993,0.36,1.984,0.72,2.97,1.078c3.928,1.477,7.9,2.73,11.748,4.036c15.494,4.971,29.797,8.92,40.603,11.391
				c9.019,1.896,11.091,2.77,3.537,1.89c-5.761-0.712-11.767-1.792-18.754-3.32c-7.593-1.779-15.203-3.68-22.796-5.918
				c-3.811-1.065-7.599-2.291-11.416-3.489c-3.785-1.228-7.661-2.765-11.297-3.638c-7.647-1.499-15.814-1.351-23.964-0.637
				c-8.173,0.761-16.433,2.183-24.714,4.168c-7.761,1.878-15.162,4.137-22.268,6.787c-3.568,1.292-7.016,2.788-10.429,4.309
				c-1.682,0.811-3.36,1.621-5.037,2.429l-2.415,1.319c-0.798,0.451-1.563,0.954-2.347,1.427
				c-6.158,3.948-11.549,9.115-15.614,15.362c-4.098,6.214-6.951,13.425-8.361,21.142c-0.218,1.171-0.384,2.349-0.521,3.527
				c-0.068,0.589-0.124,1.179-0.167,1.766l-0.058,0.965c-0.024,0.538-0.028,1.075-0.034,1.615l-2.891,1.931
				c-0.736,0.463-1.413,1.016-2.114,1.533c-1.415,1.016-2.72,2.181-4.057,3.302c-2.605,2.331-5.042,4.852-7.352,7.492
				c-2.285,2.664-4.416,5.464-6.436,8.347c-1.996,2.901-3.858,5.897-5.616,8.956c-3.475,6.143-6.51,12.548-9.074,19.136
				c-2.545,6.576-4.769,13.359-6.102,20.18c-0.162,0.85-0.291,1.695-0.391,2.522c-0.027,0.395-0.101,0.839-0.093,1.192
				c-0.001,0.177-0.018,0.389-0.009,0.538l0.037,0.398l1.127,5.153c0.402,1.711,0.913,3.398,1.363,5.098
				c0.442,1.703,1.064,3.356,1.587,5.037c2.26,6.671,5.084,13.157,8.357,19.406c1.656,3.114,3.391,6.189,5.273,9.17
				c1.863,2.99,3.837,5.922,5.947,8.712l0.794,1.036l0.4,0.508l0.398,0.49c0.097,0.205,0.168,0.439,0.254,0.658l0.925,2.488
				l0.908,2.45l1.069,2.402l1.068,2.401c0.368,0.796,0.786,1.573,1.176,2.36c0.783,1.574,1.579,3.142,2.458,4.672
				c0.632,1.129,1.238,2.271,1.917,3.375l0.994,1.669l0.497,0.834l0.138,0.216l0.256,0.398c0.057,0.088,0.061,0.094,0.064,0.096
				l0.018,0.023c0.03,0.06,0.026-0.021,0.031-0.056l0.003-0.055l0.002-0.024l0.149-0.954l0.616-3.929l0.309-1.964l0.405-1.945
				l0.815-3.889c2.082-10.393,4.987-20.589,8.236-30.634l1.53-4.622c0.512-1.54,1.085-3.057,1.625-4.587
				c1.074-3.063,2.232-6.088,3.386-9.116l1.75-4.509c0.522-1.483,1.122-2.941,1.541-4.435c0.492-1.477,0.837-2.991,1.209-4.498
				c0.289-1.537,0.628-3.053,0.827-4.626l0.336-2.344l0.271-2.374c0.194-1.576,0.328-3.18,0.483-4.773l0.425-4.802l0.206-2.405
				l0.331-2.479c0.779-6.63,2.61-13.048,5.081-19.162c0.643-1.519,1.289-3.038,1.983-4.536l1.087-2.23
				c0.179-0.372,0.387-0.737,0.58-1.105c0.212-0.394,0.318-0.613,0.769-1.413l0.585-1.024l1.123-0.225l1.531-0.303l2.417-0.472
				c1.614-0.294,3.214-0.672,4.841-0.897c6.511-0.849,13.09-1.383,19.633-1.123c13.105,0.332,25.942,2.426,38.687,4.463
				c5.506,0.945,10.794,1.682,16.251,2.035c5.435,0.307,10.895,0.264,16.346-0.031c5.451-0.303,10.889-0.938,16.289-1.78
				c2.702-0.418,5.389-0.925,8.065-1.467c1.333-0.294,2.671-0.57,3.993-0.894c0.665-0.153,1.325-0.316,1.981-0.486l0.982-0.255
				l1.64-0.456l4.315,1.913c1.245,0.545,2.444,1.2,3.668,1.795c1.23,0.583,2.4,1.292,3.595,1.951
				c1.203,0.644,2.35,1.392,3.506,2.122c4.605,2.946,8.941,6.384,12.741,10.39c3.747,4.042,7.039,8.585,9.387,13.615
				c2.431,4.988,3.921,10.398,4.693,15.849c0.355,2.527,0.563,5.316,0.595,8.313c0.024,1.5-0.011,3.049-0.058,4.637
				c-0.041,1.564-0.155,3.269-0.092,4.693c0.193,2.928,1.469,6.073,3.071,9.376c1.607,3.314,3.457,6.857,5.033,10.728
				c0.808,1.93,1.529,3.934,2.195,6.021c0.64,2.164,1.109,4.344,1.491,6.556c0.769,4.423,1.291,8.984,1.724,13.68
				c0.434,4.695,0.778,9.521,1.063,14.464c0.124,2.472,0.25,4.972,0.377,7.5c0.029,0.707,0.059,1.418,0.088,2.132l0.02,0.726
				c0.251-0.322,0.504-0.646,0.759-0.973c1.217-1.624,2.509-3.201,3.683-4.886c1.166-1.69,2.338-3.387,3.514-5.09
				c1.168-1.708,2.385-3.392,3.477-5.169c2.218-3.531,4.552-7.01,6.656-10.644l3.229-5.406c1.035-1.826,2.069-3.651,3.104-5.474
				c1.047-1.815,2.037-3.658,3.03-5.493c1.005-1.831,1.979-3.669,2.93-5.51l0.715-1.376l0.185-0.362
				c0.025-0.056,0.077-0.111,0.03-0.168l-0.418-0.972c-0.199-0.508-0.368-1.02-0.552-1.528c-0.38-1.017-0.629-2.045-0.939-3.064
				c-0.243-1.024-0.528-2.044-0.734-3.064c-1.728-8.163-2.535-16.159-3.383-23.834c-0.777-7.67-1.524-15.035-2.228-21.968
				c-0.685-6.855-1.975-13.158-3.773-18.744c-1.771-5.589-4.012-10.428-6.338-14.405c-1.14-2.005-2.343-3.767-3.474-5.343
				c-0.587-0.77-1.139-1.512-1.702-2.171c-0.273-0.34-0.55-0.654-0.821-0.956c-0.085-0.103-0.372-0.413-0.608-0.649
				c-0.24-0.244-0.475-0.483-0.708-0.72c0.209-1.15,0.398-2.188,0.569-3.128c0.155-0.711,0.175-1.364,0.258-1.941
				c0.061-0.58,0.135-1.093,0.168-1.553c0.021-0.461,0.039-0.867,0.055-1.227c0.092-1.442,0.049-2.165,0.034-2.839
				c-0.11-6.27-1.681-11.997-3.946-17.112c-2.308-5.11-5.305-9.664-8.813-13.733c-3.49-4.09-7.495-7.718-12.034-10.913
				c-2.275-1.588-4.699-3.057-7.314-4.316C368.133,55.374,365.325,54.311,362.274,53.746z"/>
		</g>
	</g>
	<g>
		<g>
			<path fill="#B8494B" d="M307.071,246.564c0.103-1.784,0.139-3.569,0.322-5.349c0.078-0.725,0.302-1.444,0.552-2.127
				c0.075-0.208,0.45-0.367,0.708-0.401c0.111-0.015,0.279,0.341,0.41,0.535c0.03,0.045,0.023,0.119,0.027,0.18
				c0.103,1.712,0.385,3.421,0.367,5.128l-0.092,5.507c-0.059,1.835-0.034,3.673-0.184,5.51c-0.15,2.071-0.075,4.163-0.075,6.243
				c0.009,0.888,0,1.776,0.051,2.663c0.057,0.886,0.108,1.771,0.136,2.657c0.025,0.788-0.048,1.596-0.208,2.368
				c-0.252,1.217-0.224,2.43-0.173,3.661c0.08,1.899,0.092,3.803,0.099,5.708c0.001,0.19-0.197,0.502-0.358,0.549
				c-0.164,0.049-0.498-0.102-0.579-0.263c-0.242-0.479-0.502-0.992-0.563-1.521c-0.243-2.079-0.42-4.171-0.606-6.263
				c-0.115-1.292-0.166-2.591-0.31-3.882c-0.141-1.447-0.314-2.895-0.284-4.345c0.005-1.449,0.058-2.9,0.147-4.352
				c0.162-2.587,0.125-5.185,0.186-7.776l0.265-4.438L307.071,246.564z"/>
		</g>
	</g>
	<g>
		<g>
			<path fill="#B8494B" d="M278.471,305.206c-2.352-0.516-4.729-0.939-7.114-1.313c-0.97-0.15-1.932-0.443-2.859-0.732
				c-0.281-0.091-0.505-0.47-0.564-0.731c-0.026-0.112,0.467-0.266,0.732-0.382c0.063-0.027,0.165-0.016,0.249-0.017
				c2.373,0.005,4.769-0.033,7.127,0.341c2.53,0.448,5.069,0.906,7.563,1.68c1.279,0.382,2.444,0.739,3.602,1.114
				c1.16,0.4,2.355,0.632,3.529,0.996c0.672,0.143,1.352,0.262,2.032,0.378c0.341,0.054,0.682,0.122,1.025,0.159l1.034,0.066
				c0.69,0.035,1.38,0.099,2.07,0.103l2.07-0.067l0.881-0.028l0.877-0.113l1.751-0.23c1.165-0.157,2.306-0.487,3.464-0.693
				c1.026-0.22,2.069-0.482,3.116-0.576c1.65-0.166,3.222-0.788,4.808-1.337c1.227-0.436,2.456-0.864,3.661-1.337l1.822-0.681
				c0.603-0.232,1.182-0.495,1.775-0.74c0.245-0.095,0.644-0.088,0.786,0.026c0.135,0.116,0.097,0.507-0.087,0.69
				c-0.525,0.496-1.097,1.016-1.762,1.355c-1.309,0.599-2.622,1.219-3.952,1.77l-4.008,1.608c-1.621,0.697-3.421,1.158-5.128,1.775
				c-3.917,1.174-8.102,1.575-12.192,1.106c-3.635-0.403-7.241-1.178-10.651-2.378l-2.817-0.903l-2.88-0.754L278.471,305.206z"/>
		</g>
	</g>
	<g>
		<g>
			<path fill="#B8494B" d="M325.922,289.032c-0.269-0.549-0.592-1.069-0.881-1.612c-0.119-0.219-0.122-0.527-0.114-0.844
				c0.004-0.098,0.241-0.378,0.418-0.565c0.075-0.082,0.313-0.096,0.466-0.13c0.037-0.008,0.053,0.017,0.074,0.03
				c0.584,0.383,1.269,0.73,1.653,1.296c0.813,1.2,1.589,2.527,1.741,4.051c0.022,0.432,0.115,0.841,0.188,1.26
				c0.051,0.424,0.145,0.845,0.17,1.274l0.05,1.109c-0.001,0.371-0.046,0.745-0.099,1.114c-0.034,0.332-0.232,0.642-0.5,0.897
				c-0.41,0.404-0.555,0.846-0.768,1.289c-0.258,0.713-0.724,1.31-1.167,1.897c-0.045,0.059-0.278,0.036-0.417-0.047
				c-0.143-0.084-0.378-0.327-0.41-0.418c-0.092-0.276-0.201-0.559-0.143-0.731c0.265-0.665,0.421-1.34,0.571-1.992
				c0.03-0.418,0.184-0.805,0.142-1.222c-0.058-0.922-0.053-1.777-0.024-2.72c0.005-0.841-0.258-1.664-0.553-2.471
				c-0.148-0.47-0.342-0.93-0.543-1.389L325.922,289.032z"/>
		</g>
	</g>
	<g>
		<g>
			<path fill="#B8494B" d="M259.98,287.132c0.337-0.665,0.675-1.331,1.13-1.926c0.188-0.242,0.501-0.404,0.838-0.523
				c0.1-0.038,0.445,0.112,0.658,0.251c0.092,0.062,0.173,0.27,0.251,0.411c0.018,0.032,0,0.054-0.005,0.077
				c-0.179,0.655-0.173,1.393-0.432,1.964c-0.565,1.251-0.86,2.554-1.386,3.789c-0.127,0.354-0.213,0.724-0.261,1.096l-0.042,1.115
				l0.081,0.935c0.03,0.31,0.125,0.605,0.154,0.912c0.019,0.276-0.016,0.565-0.111,0.876c-0.167,0.497-0.074,0.953,0.144,1.353
				c0.161,0.312,0.25,0.66,0.431,0.965l0.5,0.95c0.032,0.064-0.077,0.284-0.199,0.394c-0.125,0.113-0.424,0.25-0.522,0.237
				c-0.289-0.038-0.608-0.091-0.765-0.261c-0.651-0.641-1.101-1.452-1.536-2.275c-0.206-0.533-0.431-1.074-0.591-1.63
				c-0.461-1.239-0.449-2.592-0.159-3.837c0.297-1.099,0.48-2.203,0.895-3.231c0.215-0.594,0.499-1.155,0.78-1.712L259.98,287.132z"
				/>
		</g>
	</g>
	<g>
		<g>
			<path fill="#B8494B" d="M303.213,371.733c1.046-0.071,2.093-0.148,3.144-0.128c0.429,0.012,0.865,0.171,1.282,0.365
				c0.127,0.058,0.246,0.421,0.281,0.675c0.014,0.109-0.176,0.303-0.278,0.45c-0.023,0.034-0.066,0.033-0.101,0.042
				c-0.975,0.256-1.93,0.684-2.904,0.792c-2.105,0.23-4.179,0.638-6.298,0.717c-1.197,0.045-2.367,0.337-3.523,0.604
				c-0.995,0.207-1.948,0.55-2.923,0.791c-0.429,0.121-0.894,0.149-1.369,0.092c-0.748-0.083-1.4,0.154-2.063,0.387
				c-0.495,0.212-0.991,0.419-1.496,0.611c-0.499,0.201-0.97,0.451-1.463,0.67c-0.097,0.044-0.354-0.056-0.458-0.184
				c-0.106-0.132-0.188-0.459-0.139-0.571c0.142-0.331,0.306-0.692,0.571-0.882c0.513-0.395,1.071-0.689,1.629-0.996
				c0.555-0.323,1.133-0.57,1.71-0.832c0.71-0.342,1.46-0.541,2.177-0.855c1.615-0.673,3.315-1.048,5.037-1.189
				c1.532-0.139,3.04-0.4,4.563-0.544c0.869-0.075,1.739-0.137,2.609-0.178L303.213,371.733z"/>
		</g>
	</g>
	<g>
		<g>
			<g>
				<path fill="#271A35" d="M176.063,100.238c1.166,1.055,1.689,1.853,2.07,3.018c0.508,1.448,1.389,2.784,2.419,3.984
					c0.504,0.609,1.013,1.207,1.564,1.775c0.536,0.577,1.017,1.187,1.542,1.77c0.712,0.84,1.36,1.746,2.183,2.502
					c2.944,2.905,6.21,5.581,9.827,7.718c0.684,0.41,1.31,0.819,1.944,1.175c0.642,0.345,1.263,0.678,1.886,1.013
					c1.247,0.663,2.484,1.35,3.98,1.981c1.212,0.54,2.315,1.562,2.87,2.428c0.23,0.361,0.088,0.862-0.311,1.004
					c-0.305,0.108-0.631,0.229-0.943,0.223c-1.359-0.037-2.496-0.615-3.745-1.186c-1.187-0.509-2.046-1.28-3.214-1.831
					c-2.176-1.001-4.23-2.251-6.319-3.455c-0.722-0.446-1.43-0.925-2.11-1.435c-1.693-1.224-3.232-2.666-4.792-4.063l-1.899-1.861
					c-0.636-0.616-1.201-1.313-1.797-1.972c-0.398-0.421-0.95-1.135-1.567-1.985c-0.651-0.819-1.273-1.855-1.899-2.848
					c-1.198-2.034-2.02-4.169-2.227-4.92C175.242,102.223,175.551,101.266,176.063,100.238z"/>
			</g>
		</g>
		<g>
			<g>
				<path fill="#271A35" d="M198.275,124.443c-0.536,1.957-1.547,3.183-2.965,4.271c-3.589,2.727-6.93,6.105-11.033,8.227
					c-0.717,0.375-1.459,0.703-2.188,1.05l-2.225,0.97c-5.522,2.403-11.573,3.827-17.72,3.689c-2.325-0.114-4.393-0.314-6.403-0.831
					c-2.032-0.435-3.994-1.156-6.191-2.069c-0.87-0.435-1.732-0.99-2.456-1.581c-0.692-0.642-1.262-1.294-1.63-1.847
					c-0.309-0.463-0.103-0.938,0.416-0.965c0.396-0.021,0.811-0.056,1.2,0.038c0.847,0.21,1.6,0.547,2.39,0.852
					c0.776,0.328,1.522,0.749,2.36,1.05c0.772,0.309,1.464,0.669,2.201,0.918c0.728,0.271,1.451,0.576,2.277,0.706
					c3.016,0.624,6.104,0.767,9.143,0.443c1.072-0.081,2.133-0.314,3.201-0.437c2.619-0.412,5.218-1.086,7.744-2.02
					c2.125-0.792,4.191-1.763,6.213-2.83c1.318-0.692,4.06-2.22,6.55-3.932c2.505-1.688,4.771-3.5,5.538-4.115
					C195.774,125.171,196.883,124.953,198.275,124.443z"/>
			</g>
		</g>
		<g>
			<g>
				<path fill="#271A35" d="M193.627,128.626c0.168,2.592-0.541,4.639-1.748,6.731c-3.059,5.275-6.226,10.831-10.643,15.175
					c-1.566,1.507-3.212,2.917-4.878,4.299c-6.186,5.191-13.254,9.211-20.624,12.351c-5.618,2.363-10.074,3.756-16.055,5.246
					c-2.456,0.633-5.255,0.642-6.944,0.398c-0.707-0.104-0.931-0.585-0.431-0.979c0.381-0.301,0.777-0.627,1.265-0.845
					c1.063-0.481,2.161-0.781,3.284-1.09c1.121-0.317,2.281-0.576,3.484-0.857c2.229-0.615,4.244-0.891,6.424-1.682
					c4.048-1.397,8.022-3.002,11.797-4.971c1.329-0.691,2.639-1.423,3.956-2.125c3.241-1.73,6.346-3.708,9.285-5.911
					c2.469-1.864,4.803-3.905,7.002-6.081c1.42-1.425,4.37-4.478,6.756-7.771c2.453-3.243,4.338-6.658,4.958-7.817
					C191.383,131.07,192.44,130.134,193.627,128.626z"/>
			</g>
		</g>
		<g>
			<g>
				<path fill="#271A35" d="M201.392,126.234c-0.851-3.868-0.931-7.593-0.656-11.276c0.312-3.684,1.072-7.342,2.336-11.127
					c1.616-4.783,3.75-9.429,6.439-13.77c2.683-4.342,5.922-8.368,9.597-11.947c3.672-3.585,7.767-6.721,12.092-9.438
					c4.341-2.705,8.962-4.859,13.638-6.733c6.648-2.53,13.522-4.271,20.442-5.654l4.847-0.904l4.867-0.702l2.435-0.343l2.446-0.261
					c1.632-0.163,3.259-0.371,4.895-0.495c6.54-0.541,13.113-0.697,19.679-0.501c13.125,0.459,26.23,2.634,38.723,6.798
					c9.486,3.178,17.47,7.083,25.015,11.722c7.491,4.721,14.612,10.157,21.763,17.367c2.931,2.959,5.74,6.293,8.085,9.513
					c2.359,3.21,4.223,6.324,5.489,8.719c1.047,2.009,0.888,2.703-0.363,1.341c-0.943-1.047-1.974-2.106-3.06-3.425
					c-4.765-5.723-9.64-11.503-15.613-17.079c-5.589-5.216-10.768-9.457-17.252-13.535c-12.021-7.505-25.448-12.654-39.311-15.428
					l-1.829-0.378l-1.844-0.303l-3.689-0.602l-3.712-0.462l-1.854-0.232l-1.862-0.166c-6.092-0.63-12.232-0.789-18.364-0.643
					c-6.137,0.094-12.263,0.669-18.364,1.427c-10.273,1.343-20.407,3.571-30.048,7.191c-1.544,0.646-3.533,1.426-5.78,2.442
					c-1.108,0.54-2.292,1.117-3.537,1.724c-1.236,0.623-2.476,1.38-3.793,2.106c-5.176,3.044-10.741,7.157-15.237,12.127
					c-0.561,0.62-1.121,1.239-1.678,1.854c-0.518,0.648-1.033,1.294-1.544,1.935l-0.763,0.958l-0.698,0.993
					c-0.462,0.66-0.919,1.314-1.37,1.96c-1.665,2.672-3.167,5.27-4.243,7.763c-2.268,4.937-3.317,9.144-3.813,11.26
					c-0.683,2.974-1.206,5.536-1.65,8.097C201.831,120.689,201.432,123.241,201.392,126.234z"/>
			</g>
		</g>
		<g>
			<g>
				<path fill="#271A35" d="M403.207,113.057c-2.241,0.388-3.972,0.249-5.969-0.227c-5.074-1.193-10.482-0.854-15.607-0.939
					c-1.817-0.043-3.638-0.059-5.453,0.063c-6.747,0.476-13.479,1.856-19.642,4.595c-4.642,2.125-8.02,4.144-11.984,7.419
					c-0.783,0.708-1.688,1.338-2.562,1.882c-0.842,0.581-1.675,1.05-2.366,1.347c-0.576,0.247-1.044-0.014-0.908-0.565
					c0.103-0.421,0.208-0.874,0.45-1.29c0.529-0.906,1.167-1.734,1.94-2.454c0.763-0.733,1.561-1.471,2.466-2.141
					c1.649-1.328,3.285-2.188,5.042-3.353c3.271-2.142,6.806-3.9,10.474-5.298c1.302-0.457,2.598-0.965,3.941-1.289
					c3.283-0.866,6.631-1.429,9.987-1.786c2.829-0.3,5.667-0.452,8.502-0.442c1.848-0.014,5.721,0.163,9.392,0.649
					c3.677,0.447,7.137,1.217,8.3,1.516C400.836,111.164,401.88,112.01,403.207,113.057z"/>
			</g>
		</g>
		<g>
			<g>
				<path fill="#271A35" d="M349.252,118.388c2.744-1.132,5.229-1.271,8.031-0.98c7.07,0.762,14.481,1.441,21.285,3.912
					c2.377,0.897,4.7,1.913,6.993,2.999c8.563,3.998,16.333,9.698,22.735,16.648c1.231,1.306,2.289,2.626,3.356,3.867
					c0.976,1.313,1.968,2.554,2.876,3.856c0.863,1.332,1.804,2.622,2.643,4.04c0.417,0.71,0.843,1.433,1.278,2.174
					c0.444,0.737,0.887,1.499,1.285,2.315c0.666,1.333,1.325,2.749,1.725,4.127c0.4,1.378,0.68,2.658,0.807,3.641
					c0.105,0.822-0.304,1.169-0.839,0.681c-0.408-0.372-0.845-0.754-1.201-1.26c-1.5-2.234-2.669-4.622-4.03-7.17
					c-0.688-1.165-1.28-2.28-1.877-3.397c-0.638-1.09-1.323-2.155-2.087-3.271c-2.94-4.048-6.261-7.805-9.962-11.121
					c-1.273-1.201-2.675-2.257-4-3.393c-3.34-2.698-6.916-5.113-10.712-7.156c-3.197-1.719-6.537-3.177-9.962-4.412
					c-2.232-0.793-6.975-2.362-11.684-3.273c-4.691-0.987-9.275-1.395-10.826-1.511
					C352.916,119.537,351.397,118.915,349.252,118.388z"/>
			</g>
		</g>
		<g>
			<g>
				<path fill="#271A35" d="M224.769,125.871c-0.834-2.333-1.204-4.619-1.318-6.907c-0.105-2.291,0.069-4.597,0.52-7.03
					c1.155-6.141,3.272-12.254,6.752-17.663c1.718-2.709,3.79-5.206,6.125-7.405c2.327-2.203,4.886-4.164,7.641-5.715
					c3.862-2.242,7.998-3.881,12.193-5.224l2.955-0.853c0.982-0.3,1.991-0.475,2.984-0.717c1.98-0.506,4.027-0.77,6.051-1.111
					c4.079-0.473,8.204-0.719,12.313-0.39c4.103,0.316,8.174,1.011,12.137,2.112c3.948,1.146,7.78,2.659,11.449,4.484
					c5.564,2.802,10.122,5.913,14.358,9.401c4.244,3.484,8.201,7.338,12.291,12.097c3.376,3.898,6.248,8.767,7.518,11.91
					c0.532,1.325,0.227,1.846-0.597,1.022c-0.636-0.62-1.328-1.242-2.007-2.05c-2.972-3.513-5.783-7.206-9.142-10.949
					c-3.154-3.488-5.964-6.491-9.606-9.472c-6.744-5.481-14.343-9.931-22.532-12.553l-2.17-0.657
					c-0.722-0.224-1.467-0.361-2.199-0.548c-1.46-0.393-2.951-0.631-4.433-0.906c-3.654-0.571-7.361-0.938-11.073-0.764
					l-1.392,0.024l-1.388,0.123l-2.777,0.249l-2.758,0.441l-1.379,0.22l-1.37,0.306c-1.539,0.344-3.084,0.671-4.585,1.143
					c-0.754,0.222-1.516,0.426-2.265,0.663l-2.218,0.788c-1.499,0.479-2.897,1.187-4.35,1.774l-2.093,1.052l-1.045,0.529
					l-1.005,0.597c-0.437,0.258-0.934,0.552-1.483,0.876c-0.547,0.328-1.104,0.747-1.725,1.163c-0.309,0.211-0.628,0.43-0.956,0.655
					c-0.319,0.237-0.633,0.499-0.963,0.757c-0.649,0.53-1.369,1.043-2.021,1.681c-2.735,2.408-5.456,5.599-7.551,9.098
					c-2.104,3.496-3.526,7.277-4.4,10.479c-0.857,3.214-1.194,5.845-1.341,7.173C225.541,119.498,224.928,122.149,224.769,125.871z"
					/>
			</g>
		</g>
		<g>
			<g>
				<path fill="#271A35" d="M253.982,60.493c1.902-0.979,3.584-1.104,5.476-0.855c4.775,0.64,9.817,0.613,14.538,1.867
					c1.661,0.43,3.286,0.98,4.924,1.48c6.107,1.863,11.994,4.455,17.551,7.658c4.191,2.491,7.223,4.717,10.923,8.056
					c0.745,0.701,1.411,1.549,1.968,2.36c0.521,0.846,0.91,1.675,1.135,2.34c0.187,0.557-0.136,0.967-0.658,0.826
					c-0.398-0.108-0.821-0.21-1.188-0.433c-0.788-0.496-1.477-1.069-2.177-1.663c-0.679-0.612-1.336-1.272-2.074-1.903
					c-0.673-0.61-1.275-1.209-1.919-1.768c-0.629-0.573-1.26-1.147-2.021-1.654c-2.763-1.937-5.679-3.648-8.711-5.116
					c-1.067-0.518-2.15-1.005-3.224-1.507c-2.631-1.252-5.33-2.386-8.1-3.346c-2.33-0.819-4.717-1.475-7.115-2.087
					c-1.56-0.41-4.858-1.195-8.066-1.75c-3.204-0.581-6.306-0.919-7.355-1.044C256.418,61.782,255.412,61.138,253.982,60.493z"/>
			</g>
		</g>
		<g>
			<g>
				<path fill="#271A35" d="M264.986,75.546c-1.017,1.722-2.041,2.739-3.46,3.73c-1.789,1.254-3.309,2.903-4.648,4.643
					c-1.342,1.747-2.49,3.595-3.638,5.392c-0.396,0.641-0.813,1.271-1.163,1.938c-0.384,0.651-0.708,1.332-1.002,2.027
					c-2.22,5.163-2.859,10.992-1.831,16.58c0.811,4.233,1.911,7.397,3.848,11.348c0.769,1.629,1.378,3.534,1.479,4.856
					c0.044,0.548-0.343,0.908-0.806,0.692c-0.353-0.165-0.734-0.337-1.038-0.62c-0.655-0.624-1.212-1.322-1.681-2.093
					c-0.448-0.783-0.848-1.618-1.274-2.48c-0.406-0.806-0.644-1.625-0.936-2.416c-0.142-0.397-0.284-0.795-0.428-1.199
					c-0.126-0.412-0.263-0.827-0.419-1.253c-1.173-3.138-2.023-6.45-2.348-9.862c-0.057-0.599-0.08-1.204-0.115-1.808
					c-0.042-0.604-0.049-1.21,0.002-1.815c0.14-2.974,0.721-5.928,1.674-8.743c0.781-2.38,1.858-4.654,3.151-6.778
					c0.832-1.39,2.806-4.174,5.107-6.442c2.263-2.307,4.754-4.123,5.627-4.689C262.307,75.755,263.514,75.649,264.986,75.546z"/>
			</g>
		</g>
		<g>
			<g>
				<path fill="#271A35" d="M282.791,34.394c-2.766,1.17-5.116,1.701-7.936,2.048c-7.15,0.906-14.111,3.583-20.79,6.004
					c-2.355,0.883-4.716,1.762-6.975,2.87c-8.414,4.053-16.23,9.603-21.964,16.936c-1.042,1.42-2.068,2.722-2.881,4.108
					c-0.42,0.683-0.868,1.334-1.251,2.016c-0.365,0.692-0.728,1.378-1.091,2.066c-0.779,1.347-1.3,2.825-1.961,4.291
					c-0.347,0.728-0.554,1.529-0.836,2.319c-0.261,0.799-0.554,1.608-0.807,2.459c-0.342,1.419-0.848,2.856-1.342,4.182
					c-0.417,1.344-0.888,2.56-1.327,3.469c-0.367,0.756-0.909,0.872-1.086,0.165c-0.135-0.539-0.287-1.113-0.3-1.764
					c-0.024-1.418,0.066-2.848,0.415-4.261c0.319-1.419,0.631-2.883,1.176-4.339c0.483-1.373,0.901-2.672,1.528-3.886
					c0.288-0.616,0.576-1.233,0.868-1.86c0.143-0.315,0.287-0.633,0.433-0.955c0.164-0.313,0.329-0.631,0.497-0.954
					c2.349-4.854,5.497-9.342,9.198-13.297c0.662-0.686,1.314-1.386,1.992-2.059c0.705-0.643,1.417-1.28,2.137-1.904
					c3.598-3.003,7.527-5.56,11.616-7.771c3.447-1.856,6.995-3.516,10.651-4.875c2.376-0.9,7.438-2.579,12.404-3.704
					c4.962-1.143,9.783-1.817,11.427-1.971C278.884,33.497,280.594,33.89,282.791,34.394z"/>
			</g>
		</g>
	</g>
	<path fill="#FFFFFF" d="M316.717,242.75c0,0,21.532-14.333,43.199,0c0,0-15.973,0.333-31.569,2.5"/>
	<path fill="#FFFFFF" d="M270.166,244.433c0,0-20.915-14.85-48.082-1.017c0,0,25-0.167,41.667,3.5"/>
	<g>
		<g>
			<path fill="#09001A" d="M330.872,238.214c-3.237,0.655-6.4,1.701-9.439,3.003c-1.237,0.53-2.526,0.983-3.755,1.465
				c-0.373,0.145-0.856,0.021-1.09-0.131c-0.097-0.071,0.364-0.588,0.604-0.888c0.056-0.072,0.182-0.143,0.28-0.207
				c2.766-1.811,5.695-3.448,8.888-4.46c6.815-2.188,14.366-2.893,21.425-0.974c1.969,0.553,3.935,1.146,5.824,1.948
				c0.479,0.183,0.952,0.381,1.413,0.605l0.698,0.323l0.48,0.232l0.609,0.302c1.514,0.883,3.042,1.721,4.549,2.669l1.941,1.198
				l0.489,0.301l0.245,0.151c-0.05,0.016-0.163,0.016-0.242,0.025l-1.045,0.081l-2.098,0.165l-1.055,0.084l-1.207,0.059
				l-6.778,0.327c-1.497,0.047-3.026,0.075-4.488-0.011c-2.306-0.13-4.602,0.02-6.933,0.195c-3.582,0.388-7.17,0.741-10.762,1.072
				c-0.358,0.033-0.947-0.112-1.037-0.266c-0.093-0.157,0.189-0.518,0.493-0.628c0.903-0.325,1.87-0.675,2.866-0.828
				c3.923-0.582,7.864-1.215,11.825-1.543c2.447-0.225,4.899-0.449,7.344-0.673l3.798-0.299c0.024-0.026-0.014-0.036-0.016-0.037
				c-0.004-0.001,0.04,0.011,0.048-0.01c0.002-0.005,0.002-0.012-0.001-0.021c-0.001-0.004-0.005-0.01-0.016-0.018
				c-0.036-0.021,0.059,0.02-0.152-0.084c-0.595-0.285-1.171-0.617-1.783-0.864c-4.287-1.987-9.057-2.84-13.79-2.876
				c-2.712-0.034-5.43,0.249-8.105,0.773L330.872,238.214z"/>
		</g>
	</g>
	<g>
		<g>
			<path fill="#09001A" d="M253.621,237.202c4.041,0.715,8.005,1.919,11.709,3.67c1.513,0.704,2.928,1.637,4.198,2.631
				c0.385,0.31,0.552,0.846,0.5,1.123c-0.016,0.114-0.757-0.132-1.178-0.221c-0.099-0.02-0.242-0.103-0.362-0.162
				c-3.395-1.711-7.069-2.742-10.686-3.732c-7.848-2.143-16.138-2.059-24.025-0.216l-1.679,0.371l-1.631,0.556l-1.63,0.57
				l-0.689,0.244c-0.051,0.019-0.117,0.039-0.145,0.056l-0.386,0.204c-0.036,0.026-0.148,0.067-0.113,0.078l0.23,0.003l0.354-0.001
				l0.075-0.003l0.018-0.001l0.083,0.003l0.378,0.018l1.514,0.072l6.05,0.322c1.794,0.099,3.618,0.389,5.339,0.707
				c2.717,0.52,5.456,0.76,8.247,0.982c4.301,0.427,8.587,1.103,12.867,1.683c0.427,0.06,1.064,0.352,1.117,0.522
				c0.056,0.175-0.387,0.449-0.771,0.477c-1.144,0.081-2.359,0.171-3.547,0.063c-2.336-0.225-4.675-0.449-7.015-0.674l-1.753-0.172
				l-1.766-0.102l-3.53-0.207c-2.907-0.165-5.815-0.417-8.72-0.534l-4.885-0.168l-6.037-0.294c-3.121-0.181-6.243-0.362-9.367-0.544
				c2.844-1.349,5.833-2.71,8.627-3.993c0.628-0.302,1.246-0.557,1.858-0.786c0.133-0.051,0.35-0.141,0.413-0.159l0.267-0.089
				l0.532-0.179l2.125-0.723l1.061-0.365c0.359-0.104,0.728-0.179,1.09-0.271l2.185-0.529c1.444-0.415,2.941-0.567,4.424-0.791
				c1.479-0.271,2.982-0.298,4.479-0.37l1.283-0.057c0.428-0.012,0.855,0.028,1.283,0.04l2.564,0.113
				c0.854,0.044,1.698,0.196,2.547,0.289c0.847,0.11,1.699,0.193,2.531,0.389L253.621,237.202z"/>
		</g>
	</g>
	<g>
		<path fill="#09001A" d="M345.118,240.034c0-1.162-0.246-2.265-0.684-3.266c-5.668-0.816-10.916-0.223-15.291,0.858
			c-0.234,0.761-0.361,1.57-0.361,2.408c0,1.857,0.627,3.564,1.671,4.936c4.812-0.618,9.586-1.069,13.849-1.395
			C344.819,242.502,345.118,241.304,345.118,240.034z"/>
	</g>
	<g>
		<path fill="#09001A" d="M255.742,238.32c-4.82-0.992-10.552-1.441-16.944-0.596c-0.188,0.71-0.297,1.453-0.297,2.223
			c0,1.526,0.395,2.958,1.084,4.204c4.565,0.283,9.517,0.698,14.345,1.307c1.23-1.501,1.97-3.419,1.97-5.511
			C255.899,239.39,255.842,238.847,255.742,238.32z"/>
	</g>
</g>
</svg>
