<?xml version="1.0" encoding="UTF-8"?>
<svg width="3237px" height="2733px" viewBox="0 0 3237 2733" version="1.1" xmlns="http://www.w3.org/2000/svg" xmlns:xlink="http://www.w3.org/1999/xlink">
    <!-- Generator: Sketch 61.2 (89653) - https://sketch.com -->
    <title>markus</title>
    <desc>Created with Sketch.</desc>
    <g id="Page-1" stroke="none" stroke-width="1" fill="none" fill-rule="evenodd">
        <g id="markus">
            <path d="M1845.55,1830.84 L1840.94,1830.84 C1792.53,1830.23 1743.49,1819.75 1706.17,1810.68 C1631.31,1792.53 1554.91,1747.2 1479.09,1675.96 C1424.2,1624.41 1355.9,1560.24 1320.78,1480.31 C1305.15,1444.74 1297.09,1404.99 1294.65,1351.44 C1294.3,1343.86 1294.03,1336.25 1293.77,1328.62 C1292.6,1295.31 1291.39,1260.87 1282.85,1228.33 C1280.31968,1218.60893 1277.18014,1209.05672 1273.45,1199.73 C1271.72,1195.41 1270.02,1191.48 1268.29,1187.79 C1266.24,1189.14 1264.29,1190.34 1262.29,1191.43 C1248.39915,1199.46367 1232.66594,1203.76645 1216.62,1203.92 L1216.62,1203.92 C1211.5613,1203.92111 1206.51326,1203.45581 1201.54,1202.53 C1198.25584,1201.92319 1195.01285,1201.11161 1191.83,1200.1 C1185.94103,1198.22904 1180.28191,1195.69971 1174.96,1192.56 C1135.68,1169.38 1116.96,1123.34 1101.86,1086.36 C1080.44,1033.86 1068.86,990.28 1065.33,949.18 C1063.42982,925.713627 1064.98303,902.095425 1069.94,879.08 C1074.69,856.63 1079.46,836.58 1089.73,818.49 C1099.13,801.94 1111.65,791.01 1126.93,786.01 C1129.86108,785.00719 1132.87184,784.254498 1135.93,783.76 C1140.12946,783.021519 1144.38612,782.656758 1148.65,782.67 L1149.96,782.67 C1168.28,782.95 1186.89,792.67 1205.44,811.49 C1194.44,796.63 1182.29,786.49 1167.88,779.97 C1156.7,774.97 1145.88,772.39 1135.63,772.39 L1134.52,772.39 C1133.27041,772.389724 1132.2162,771.459793 1132.06,770.22 L1131.61,766.63 C1130.53,758.05 1129.41,749.18 1128.73,740.46 C1127.18,721.07 1125.73,700.46 1126.86,679.92 C1127.53,667.23 1127.97,654.36 1128.39,641.92 C1129.39,614.15 1130.32,585.43 1133.9,557.08 C1143.36,481.92 1166.54,411.19 1202.81,346.84 C1219.51,317.17 1243.18,280.32 1279.3,255.39 C1278.23,255.74 1277.17,256.11 1276.14,256.51 C1275.85398,256.624896 1275.54822,256.682651 1275.24,256.68 C1274.27386,256.68717 1273.39223,256.130366 1272.98354,255.254896 C1272.57484,254.379426 1272.71412,253.346036 1273.34,252.61 C1336.59,177.02 1406.83,121.49 1488.08,82.96 C1533.08,61.63 1578.47,45.96 1623.08,36.29 C1647.19008,31.0166253 1671.55566,26.9879605 1696.08,24.22 C1711.97,22.47 1728.15,21.65 1743.8,20.84 C1755.38,20.25 1767.36,19.64 1779.1,18.66 C1788.68,17.85 1798.35,16.77 1807.71,15.73 C1826.71,13.62 1846.28,11.44 1865.92,11.44 C1869.07,11.44 1872.19,11.44 1875.21,11.6 L1875.69,11.6 C1900.56,12.53 1931.5,13.67 1952.87,29.53 C1953.65313,30.1189633 1954.01802,31.112476 1953.80226,32.0683094 C1953.5865,33.0241427 1952.8302,33.7645642 1951.87,33.96 C1913.87,41.51 1879.19,54.96 1849.97,73.4 C1882.67,57.69 1914.03,45.13 1948.37,40.16 C1961.20984,38.3004528 1974.16621,37.3613916 1987.14,37.35 C2016.04888,37.2170306 2044.75709,42.1551672 2071.96,51.94 C2111.38,66.29 2146.2,91.78 2170.02,123.71 C2175.74,131.39 2181.36,139.09 2187.02,146.78 C2205.02,171.43 2223.63,196.93 2244.72,220.18 C2259.84,236.88 2275.54,254.96 2286.85,276.18 C2295.85,292.96 2305.19,314.69 2298.12,333.87 C2297.85191,334.608777 2297.24568,335.174098 2296.49,335.39 C2296.26625,335.457456 2296.03369,335.491161 2295.8,335.49 C2295.25402,335.49228 2294.72279,335.312859 2294.29,334.98 C2287.98314,330.14492 2281.41667,325.658226 2274.62,321.54 C2281.25,326.84 2287.84,332.34 2294.05,338.2 C2294.8,338.91 2295.54,339.62 2296.26,340.34 C2298.57,342.55 2300.92,344.96 2303.42,347.67 C2319.97,365.78 2326.42,381.3 2326.42,403.03 C2326.42,408.57 2326.74,414.18 2327.05,419.61 C2327.7,431.14 2328.38,443.07 2326.05,455.03 C2323.96,465.74 2321.05,474.67 2317.05,482.33 C2315.0288,485.938943 2312.63218,489.324378 2309.9,492.43 L2308.9,493.67 C2308.42777,494.251318 2307.71896,494.589198 2306.97,494.59 L2306.58,494.59 C2305.70258,494.448599 2304.96705,493.850262 2304.65,493.02 L2304.38,492.33 L2303.45,490.86 C2301.02,489.4 2298.45,487.78 2295.8,485.98 C2296.09,486.64 2296.37,487.3 2296.65,487.98 C2314.65,529.98 2325.18,570.75 2328.99,612.58 C2332.92529,654.9189 2329.08892,697.620541 2317.67,738.58 C2315.9,744.96 2313.95,751.33 2311.9,758.08 C2308.16,770.3 2304.31,782.94 2301.58,795.58 C2301.35526,796.739515 2300.34109,797.57767 2299.16,797.58 L2299.08,797.58 C2297.88974,797.553126 2296.88652,796.68423 2296.69,795.51 C2294.55,782.88 2292.08,770.07 2289.69,757.68 C2287.48,746.26 2285.2,734.44 2283.2,722.84 C2279.31,700.34 2276.72,677.29 2274.2,655 C2271.33,629.48 2268.37,603.09 2263.45,577.51 C2252.25,519.19 2225.72,440.43 2162.96,396.44 C2162.09055,395.832507 2161.70368,394.739344 2161.99745,393.720185 C2162.29122,392.701026 2163.2006,391.981505 2164.26,391.93 C2170.75,391.6 2176.79,391.44 2182.73,391.44 C2197.97178,391.319867 2213.1914,392.625553 2228.19,395.34 C2236.82212,396.983133 2245.30664,399.324151 2253.56,402.34 C2258.66,404.18 2263.76,406.28 2269.13,408.77 C2274.5,411.26 2280.13,414.11 2286.01,417.39 C2278.03595,411.089863 2269.30063,405.818434 2260.01,401.7 C2255.88,399.82 2251.5,398.08 2246.62,396.37 C2232.73223,391.644437 2218.41839,388.278642 2203.88,386.32 C2190.86852,384.521244 2177.74502,383.655702 2164.61,383.73 C2158.01,383.73 2151.16,383.91 2143.68,384.28 C2138.86,384.51 2133.87,384.82 2128.41,385.22 C2118.11,385.98 2107.63,386.96 2097.49,387.92 L2088.99,388.71 C2068.2,390.65 2045.89,392.44 2023.65,392.44 C2005.95419,392.592893 1988.27928,391.187467 1970.83,388.24 C1920.92,379.36 1891.7,359.65 1881.52,327.97 C1868.78,288.37 1887.05,239.67 1923.12,217.08 C1923.41,216.9 1923.39,216.81 1923.37,216.75 C1923.29283,216.512742 1923.07895,216.346395 1922.83,216.33 C1922.71134,216.33407 1922.59513,216.364832 1922.49,216.42 C1895.79,228.36 1877.32,256.06 1873.07,290.53 C1870.5,311.34 1873.31,331.07 1881.18,347.6 C1881.66181,348.620104 1881.3944,349.836855 1880.52926,350.560935 C1879.66413,351.285015 1878.4193,351.333943 1877.5,350.68 C1874.19,348.32 1871.11,346.24 1868.1,344.34 C1844.29,329.34 1814,328.06 1784.71,326.84 C1772.13,326.32 1759.13,325.78 1747.14,324.11 C1710.96,319.06 1664.8,310.24 1628.77,286.59 C1608.52,273.31 1593.21,251.83 1588.49,230.23 C1589.48986,238.192212 1591.63188,245.968795 1594.85,253.32 C1605.09,276.96 1626.25,295.7 1657.74,309.02 C1658.11,309.19 1658.45,309.34 1658.81,309.47 C1659.96136,309.858791 1660.65887,311.02732 1660.45464,312.225272 C1660.25042,313.423224 1659.20515,314.294648 1657.99,314.28 L1657.83,314.28 C1648.25,313.66 1638.59,313.35 1629.12,313.35 C1611.46919,313.342955 1593.83506,314.435068 1576.32,316.62 C1550.33447,319.787924 1524.70911,325.419946 1499.79,333.44 C1496.88,334.39 1493.95,335.38 1491.06,336.44 C1488.15,340.54 1485.26,344.94 1482.25,349.85 C1480.25,353.1 1478.25,356.53 1476.09,360.33 C1458.00937,392.548635 1443.5865,426.687225 1433.09,462.11 C1422.39337,498.05662 1415.91647,535.125967 1413.79,572.57 C1411.92,604.45 1412.93,631.39 1416.88,654.93 C1417.05573,655.973755 1416.54966,657.014003 1415.62,657.52 C1400.72,665.49 1388.78,677.74 1381.38,686.59 C1360.08,712.13 1345.84,742.49 1335.85,766.06 C1323.85,794.51 1314.79,826.06 1309.08,859.89 C1306.29501,876.001685 1304.45852,892.263006 1303.58,908.59 C1303.58,908.59 1303.12,917.09 1303.02,919.05 C1303.13,917.62 1303.25,916.2 1303.39,914.78 C1305.04162,898.186915 1307.53819,881.688831 1310.87,865.35 C1316.64,837.35 1325.44,809.02 1337.77,778.86 C1351.1,746.25 1364.28,721.61 1379.22,701.31 C1389.98,686.68 1401.98,675.45 1415.9,667 C1418.9,665.14 1422.17,663.36 1425.54,661.71 C1425.45,659.22 1425.35,656.71 1425.26,654.23 L1425.07,649.57 L1424.92,646.13 C1423.99,624.81 1423.03,602.76 1423.78,580.88 C1425.14876,544.367508 1430.02113,508.07087 1438.33,472.49 C1446.41066,437.327854 1458.14094,403.105618 1473.33,370.38 C1477.50775,361.309863 1482.18149,352.476508 1487.33,343.92 C1487.62861,343.453128 1488.07611,343.100762 1488.6,342.92 L1489.42,342.64 C1520.242,332.602523 1552.11965,326.156526 1584.42,323.43 C1600.21,322.07 1616.54,321.43 1632.96,321.43 C1647.34,321.43 1662.14,321.95 1676.96,323 C1689.41,323.89 1701.58,325.15 1713.14,326.73 C1725.4,329.61 1737.91,332.03 1751.61,334.17 L1751.87,334.17 C1757.10435,335.385972 1762.43434,336.145487 1767.8,336.44 C1774.12,337.26 1780.18,337.97 1786.2,338.67 C1816.71,342.23 1845.53,345.59 1873.74,359.6 C1880.25,362.83 1887.12,367.06 1894.39,371.55 C1898.44,374.05 1902.63,376.63 1906.85,379.1 C1906.95274,379.157393 1907.04984,379.224356 1907.14,379.3 C1907.71,379.74 1908.28,380.17 1908.87,380.59 C1934.87,399.65 1966.12,408.52 2007.07,408.52 C2036.07,408.52 2066.07,404.07 2095.07,399.77 C2113.52,397.04 2130.95,394.45 2147.99,392.96 L2148.21,392.96 C2148.74318,392.959993 2149.26217,393.131819 2149.69,393.45 C2200.52,431.19 2226.57,492.45 2239.47,537.13 C2251.37,578.27 2258.33,621.52 2265.06,663.35 L2267.06,675.76 C2270.62,697.65 2275.53,719.71 2280.29,741.05 C2285.54,764.61 2290.97,788.97 2294.6,813.25 C2302.31,864.89 2295.77,915.01 2287.78,966.08 C2280.1,1014.97 2278.64,1063.08 2277.24,1109.61 C2274.51,1198.15 2260.47,1283.74 2235.51,1364.02 C2210.22539,1445.73164 2175.76569,1524.316 2132.79,1598.27 C2120.51,1619.34 2106.72,1640.45 2090.63,1662.82 L2090.49,1663.03 C2087.68,1666.94 2084.84,1670.85 2081.96,1674.71 C2074.65,1684.58 2066.8,1694.84 2058.62,1705.17 C2035.26,1734.7 2006.18,1771.46 1969.62,1796.85 C1936.66,1819.7 1896.08,1830.84 1845.55,1830.84 Z M1795.55,1493.91 C1814.32,1500.77 1833.75,1506.21 1853.31,1507.74 C1857.85,1508.1 1862.55,1508.28 1867.31,1508.28 C1894.77,1508.28 1918.7,1502.47 1933.62,1492.28 C1928.35,1493.15 1923.03,1494.42 1917.87,1495.65 C1904.38186,1499.3311 1890.4394,1501.07854 1876.46,1500.84 L1876.46,1500.84 C1869.39,1500.84 1862.37,1500.55 1855.2,1500.22 C1835.19184,1499.44557 1815.2576,1497.33756 1795.53,1493.91 L1795.55,1493.91 Z M1967.28,1421.43 C1978.09,1421.43 1987.95,1421.9 1997.41,1422.84 L2001.41,1423.24 C2016.41,1424.67 2033.41,1426.3 2044.99,1437.24 C2046.44383,1438.63613 2048.38439,1439.41092 2050.4,1439.40011 C2053.13628,1439.41208 2055.72284,1438.15206 2057.4,1435.99 C2058.77325,1434.13888 2059.14724,1431.73039 2058.4,1429.55 C2055.4,1419.55 2047.84,1414.75 2035.17,1414.75 C2033.41,1414.75 2031.55,1414.85 2029.62,1415.04 C2016.62,1416.33 2003.44,1417.14 1990.62,1417.93 C1984.27,1418.32 1977.92,1418.71 1971.62,1419.17 C1961.94,1419.85 1952.11,1420.93 1942.62,1421.98 L1940.62,1422.21 C1950.37,1421.7 1959.08,1421.43 1967.26,1421.43 L1967.28,1421.43 Z M1655.03,1396 C1656.74,1396 1658.31,1396.06 1659.82,1396.2 C1673.93,1397.49 1688.2,1399.4 1702,1401.2 C1707.18,1401.86667 1712.36333,1402.55333 1717.55,1403.26 C1749.13667,1407.26 1780.72667,1411.23 1812.32,1415.17 L1831.32,1417.54 C1838.23333,1418.41333 1844.99333,1419.17667 1851.6,1419.83 L1847.86,1419.17 C1828.14,1415.67 1808.42333,1412.14 1788.71,1408.58 C1768.50333,1404.94 1748.28667,1401.32 1728.06,1397.72 C1721.31,1396.52 1714.55,1395.37 1707.78,1394.23 C1693.99,1391.89 1679.78,1389.47 1665.78,1386.64 C1660.159,1385.40558 1654.60503,1383.88358 1649.14,1382.08 C1640.57,1379.4 1632.48,1376.86 1623.74,1376.86 C1619.55346,1376.8585 1615.38813,1377.45451 1611.37,1378.63 C1609.44642,1379.13446 1608.01707,1380.74938 1607.75,1382.72 C1607.41888,1384.869 1608.38254,1387.01177 1610.21,1388.19 C1616.72273,1392.46849 1624.0909,1395.27379 1631.8,1396.41 C1633.73311,1396.6601 1635.68081,1396.78037 1637.63,1396.77 C1640.44,1396.77 1643.19,1396.57 1646.11,1396.36 C1649.03,1396.15 1652,1396 1655.01,1396 L1655.03,1396 Z M1774.76,1114.06 C1759.63,1123.68 1744.57,1138.56 1737.53,1156.31 C1732.23,1169.68 1732.31,1182.59 1737.76,1194.7 C1750.15,1222.26 1783.04,1223.1 1812.06,1223.84 C1818.51,1224 1824.59,1224.16 1830.25,1224.6 C1841.73,1225.51 1853.79,1227.14 1864.16,1232.81 C1871.63,1236.89 1878.41,1242.66 1884.98,1248.24 C1888.1,1250.9 1891.05,1253.4 1894.08,1255.75 C1907.84235,1266.27869 1924.66245,1272.03284 1941.99,1272.14 C1943.99,1272.14 1945.99,1272.06 1947.9,1271.9 C1960.09,1270.9 1970.9,1266.25 1982.3,1261.31 C1991.97,1257.14 2001.96,1252.82 2012.77,1251.02 C2017.11234,1250.38086 2021.49149,1250.02345 2025.88,1249.95 C2033.2,1249.68 2040.11,1249.42 2046.69,1246.44 C2053.97924,1243.00386 2060.11418,1237.5255 2064.35,1230.67 C2078.35,1209.02 2070.75,1183.09 2065,1169.55 C2061.34,1160.91 2047.72,1132.16 2025.92,1124.55 C2024.85895,1124.29195 2024.09154,1123.37025 2024.03,1122.28 C2023.03,1105.57 2018.22,1091.81 2009.7,1081.37 C2009.59103,1081.48687 2009.51811,1081.6327 2009.49,1081.79 C2010.97067,1088.54569 2012.7964,1095.2211 2014.96,1101.79 C2016.88,1107.99 2018.87,1114.4 2020.27,1120.91 C2021.57,1126.99 2022.86,1133.64 2023.72,1140.74 C2024.07333,1136.74 2024.25,1132.86667 2024.25,1129.12 C2024.24682,1128.08314 2024.88902,1127.15374 2025.86,1126.79 C2026.13938,1126.69096 2026.43359,1126.64023 2026.73,1126.64 C2027.44907,1126.63959 2028.13231,1126.95381 2028.6,1127.5 C2031.69,1131.08 2035,1134.5 2038.19,1137.78 C2045.72,1145.55 2053.51,1153.58 2058.93,1164.37 C2063.52,1173.48 2077.21,1205.08 2060.66,1228.81 C2051.12,1242.51 2035.87,1243.81 2021.12,1245.12 C2014.94,1245.66 2008.55,1246.22 2002.88,1247.73 C1996.1677,1249.65943 1989.56756,1251.95963 1983.11,1254.62 C1972.01,1258.95 1960.54,1263.42 1948.25,1264.18 C1946.91667,1264.26 1945.55667,1264.3 1944.17,1264.3 C1926.35233,1264.2841 1909.26899,1257.19901 1896.67,1244.6 C1894.41,1242.31 1892.4,1239.92 1890.45,1237.6 C1886.97,1233.45 1883.68,1229.53 1879.23,1226.49 C1872.93179,1222.26151 1865.91798,1219.21202 1858.53,1217.49 C1851.96613,1216.02599 1845.25465,1215.328 1838.53,1215.41 C1831.34,1215.41 1823.96,1216.02 1816.82,1216.62 C1809.68,1217.22 1802.16,1217.84 1794.82,1217.84 C1782.02,1217.84 1771.68,1215.9 1762.26,1211.74 C1752.14967,1207.48045 1744.22472,1199.2664 1740.33,1189.01 C1735.9,1177.32 1736.71,1163.28 1742.58,1150.5 C1749.04,1136.44 1760.13,1126.76 1770.86,1117.4 C1772.13,1116.36 1773.44,1115.22 1774.74,1114.06 L1774.76,1114.06 Z M1218.76,1049.77 C1219.04998,1049.7693 1219.33778,1049.82009 1219.61,1049.92 C1220.35936,1050.2006 1220.93091,1050.82041 1221.15,1051.59 C1221.1688,1051.66143 1221.19218,1051.73158 1221.22,1051.8 C1226.83,1067.12 1226.93,1078.74 1221.64,1094.8 C1221.50813,1095.13769 1221.56934,1095.52031 1221.8,1095.8 C1222.13361,1096.25144 1222.65873,1096.52139 1223.22,1096.53023 C1223.4374,1096.53431 1223.65183,1096.47898 1223.84,1096.37 C1231.77,1091.78 1234.03,1083.13 1230.56,1070.65 C1229.15112,1066.1778 1227.37508,1061.82967 1225.25,1057.65 C1224.25,1055.55 1223.25,1053.46 1222.36,1051.36 C1221.98,1050.46 1221.62,1049.58 1221.27,1048.7 C1220.22127,1046.02192 1219.33303,1043.28373 1218.61,1040.5 C1216.71175,1033.16537 1215.91636,1025.58894 1216.25,1018.02 C1216.49,1011.17 1217.25,1004.37 1217.9,997.79 C1218.9,988.2 1219.97,978.29 1219.46,968.38 C1218.73,954.27 1215.69,939.06 1210.15,921.88 C1199.78,889.77 1184.09,863.11 1164.79,844.76 C1151.16,831.76 1134.69,824.389941 1119.6,824.389941 C1115.85746,824.383929 1112.12875,824.84414 1108.5,825.76 C1115.14314,825.777452 1121.74041,826.86124 1128.04,828.97 C1129.06398,829.30067 1129.7579,830.253948 1129.7579,831.33 C1129.7579,832.406052 1129.06398,833.35933 1128.04,833.69 C1110.52,839.33 1096.72,863.56 1092.15,884.59 C1086.88,908.8 1088.44,934.38 1097.15,963.37 C1093.34,944.78 1090.94,925.37 1092.25,906.49 C1094.03,880.98 1105.75,837.81 1138.33,837.81 C1141.16203,837.824375 1143.98452,838.139475 1146.75,838.75 C1147.07919,838.819931 1147.38952,838.959751 1147.66,839.16 C1177.17,860.36 1196.86,903.21 1205.44,936.25 C1212.76,964.4 1213.99,993.25 1214.58,1018.05 C1214.73373,1025.20638 1215.6829,1032.32346 1217.41,1039.27 C1217.68788,1040.43825 1217.09588,1041.63903 1216,1042.13 C1209.26,1045.13 1195.94,1050.13 1182.56,1050.13 C1170.56,1050.13 1161.71,1046.13 1156.35,1038.31 C1158.58,1045.17 1163.74,1051.37 1171.18,1055.61 C1176.42827,1058.57637 1182.36154,1060.11744 1188.39,1060.08 C1197.7,1060.08 1208,1056.57 1217.39,1050.21 C1217.77616,1049.94218 1218.23046,1049.78959 1218.7,1049.77 L1218.76,1049.77 Z M2133.63,921.77 C2153.04886,921.750513 2172.13102,926.840927 2188.96,936.53 C2198.78028,942.311619 2207.48461,949.806825 2214.66,958.66 C2215.73,959.94 2216.74,961.24 2217.75,962.51 C2222.11,968.06 2225.87,972.85 2232.18,975.4 C2232.33575,975.464693 2232.50154,975.50191 2232.67,975.51 C2233.11,975.51 2233.44,975.08 2233.6,974.82 C2234.0522,974.121424 2234.14855,973.250531 2233.86,972.47 C2230.54,965.68 2223.68,960.25 2217.04,955.01 C2214.99,953.39 2212.99,951.8 2211.14,950.21 C2204.07435,944.074049 2196.40519,938.669784 2188.25,934.08 C2172.78966,925.545393 2155.64103,920.516538 2138.02,919.35 C2135.37,919.18 2132.67,919.09 2130.02,919.09 C2113.41924,919.107277 2096.98397,922.389574 2081.65,928.75 C2074.58,931.64 2067.48,934.82 2060.65,937.89 L2053.65,941 C2051.12,942.11 2048.28,943.05 2045.53,944 C2040.01,945.83 2034.32,947.72 2030.53,951.1 C2032.33173,951.6647 2034.21206,951.938141 2036.1,951.91 C2045.17,951.91 2056.43,946.79 2064.65,943.05 C2066.13,942.37 2067.52,941.74 2068.8,941.19 L2075.52,938.19 C2092.92,930.42 2110.91,922.39 2130.52,921.84 C2131.44,921.82 2132.5,921.81 2133.57,921.81 L2133.63,921.77 Z M1993.76,874.49 C1985.54,878.69 1977.52,887.79 1977.29,896.61 C1977.18,901.89 1978.99,907.61 1980.73,913.23 C1981.44,915.49 1982.17,917.83 1982.73,920.06 C1983.87,924.46 1984.86,928.94 1985.82,933.27 C1987.04,938.78 1988.29,944.46 1989.88,949.99 C1991.07,939.44 1990.26,928.08 1987.32,913.61 C1986.92,911.61 1986.4,909.68 1985.9,907.79 C1984.52,902.64 1983.09,897.32 1984.24,891.21 C1985.45,884.83 1988.89,880.54 1992.24,876.4 L1993.76,874.49 Z M1673.14,860.34 C1694.86,860.34 1712.61,868.55 1732.49,887.79 C1733.63,888.9 1734.78,890.04 1735.94,891.19 C1745.14,900.26 1755.47,910.46 1768.08,912.28 C1761.27,906.41 1754.84,900.07 1748.61,893.91 C1741.61,887 1734.38,879.86 1726.7,873.51 C1712.51,861.77 1695.48,856.08 1673.11,855.6 C1672.11,855.6 1671.2,855.6 1670.24,855.6 C1651.83,855.6 1633.42,859.49 1615.62,863.25 L1607.49,864.95 C1593.64,867.79 1580.1,871.15 1568.68,874.05 C1566.04,874.73 1563.22,875.31 1560.5,875.87 C1551.67,877.68 1542.5,879.55 1536.45,885.22 C1535.93064,885.745225 1535.73223,886.50832 1535.93,887.22 C1536.11003,888.02967 1536.70862,888.681634 1537.5,888.93 C1539.36644,889.400851 1541.28513,889.632706 1543.21,889.62 C1548.71,889.62 1554.47,887.92 1560.05,886.27 C1562.31,885.6 1564.55,884.94 1566.77,884.39 L1571.91,883.1 C1582.16,880.55 1592.76,877.91 1602.99,874.79 L1605.46,874.04 C1626.67,867.6 1648.6,860.93 1671.14,860.35 C1671.82,860.37 1672.48,860.37 1673.14,860.37 L1673.14,860.34 Z M2101.3,895.06 L2099.3,895.06 C2083.21,895.51 2068.99,902.39 2055.16,911.31 C2070.9,906.67 2087.09,902.18 2103.61,900.38 C2107.04097,900.01253 2110.48942,899.832263 2113.94,899.84 C2123.16,899.84 2132.3,901.02 2141.14,902.16 C2146.14,902.8 2151.31,903.46 2156.48,903.91 C2150.92,902.44 2145.11,901.4 2139.42,900.39 C2136.95,899.95 2134.5,899.52 2132.1,899.05 L2131.1,898.85 C2121.33,897.03 2111.24,895.09 2101.3,895.09 L2101.3,895.06 Z M1578.08,849.89 C1563.08,852.33 1547.3,855.19 1533.08,860.89 L1530.78,861.81 C1521.02,865.72 1510.17,870.07 1502.5,876.81 C1509.86,875.6 1517.43,872.67 1524.8,869.81 C1528.04,868.55 1531.09,867.37 1534.14,866.32 C1540.34,864.17 1546.58,861.77 1552.62,859.45 C1560.29,856.45 1568.23,853.45 1576.23,850.85 C1577.87,850.323333 1579.50667,849.816667 1581.14,849.33 L1578.08,849.89 Z M1713.08,845.35 C1717.77,847.51 1722.58,849.46 1727.28,851.35 C1730.6,852.7 1733.9,854.05 1737.15,855.45 C1745.32,858.99 1751.43,862.83 1757.15,868.33 C1753.33,861.21 1748.82,854.15 1743.34,850.16 C1738.73,846.8 1730.96,845.16 1719.6,845.16 C1717.37,845.2 1715.16,845.26 1713.08,845.35 Z" id="Shape" fill="#F4BDA9" fill-rule="nonzero"></path>
            <path d="M1848.9,858.16 C1850.12,883.07 1843.46,907.62 1836.9,931.68 C1833.99,942.28 1830.02,954.17 1819.99,958.68 C1810.99,962.68 1800.09,958.91 1792.84,952.23 C1785.59,945.55 1781.08,936.49 1776.39,927.79 C1733.19,847.98 1656.5,787 1569.01,762.89 C1633.78,741.89 1701.69,757.43 1764.9,776.17 C1811.26,789.9 1846.08,800.87 1848.9,858.16 Z" id="Path" fill="#E8958B" fill-rule="nonzero"></path>
            <path d="M2126.01,444.92 C2172.83,470.07 2200.41,522.98 2205.01,575.92 C2209.61,628.86 2193.82,681.75 2171.15,729.82 C2155.84,762.27 2136.23,794.34 2106.06,813.75 C2071.13,836.22 2018.06,817.8 1977.68,827.3 C1979.59,845.87 1981.41,864.45 1983.25,883.03 C1986.17504,879.522765 1989.76363,876.627423 1993.81,874.51 L1992.29,876.42 C1988.96,880.56 1985.52,884.85 1984.29,891.23 C1984.22,891.57 1984.19,891.9 1984.15,892.23 C1984.61,896.93 1985.15,901.62 1985.55,906.32 C1985.68,906.82 1985.81,907.32 1985.95,907.8 C1986.45,909.69 1986.95,911.63 1987.37,913.62 C1990.31,928.09 1991.12,939.45 1989.93,950 C1989.79,949.52 1989.68,949 1989.55,948.55 C1991.12,965.26 1992.73,981.96 1994.24,998.67 C1997.91,1039.08 2001.39,1079.51 2003.83,1120.02 C2005.44,1146.72 2005.41,1176.77 1986.77,1195.96 C1976.18,1206.87 1961.15,1212.3 1946.28,1215.46 C1918.45,1221.39 1886.22,1219.33 1866.05,1199.25 C1862.24,1195.46 1858.61,1190.9 1853.38,1189.62 C1849.1,1188.56 1844.64,1189.96 1840.38,1191.18 C1807.1232,1200.54735 1771.72698,1198.89139 1739.49,1186.46 C1739.76,1187.34 1740,1188.23 1740.32,1189.08 C1744.21472,1199.3364 1752.13967,1207.55045 1762.25,1211.81 C1771.67,1215.97 1782.01,1217.91 1794.81,1217.91 C1802.14,1217.91 1809.6,1217.29 1816.81,1216.69 C1824.02,1216.09 1831.33,1215.48 1838.52,1215.48 C1845.24465,1215.398 1851.95613,1216.09599 1858.52,1217.56 C1865.90798,1219.28202 1872.92179,1222.33151 1879.22,1226.56 C1883.67,1229.56 1886.96,1233.56 1890.44,1237.67 C1892.44,1239.99 1894.44,1242.38 1896.66,1244.67 C1909.25899,1257.26901 1926.34233,1264.3541 1944.16,1264.37 C1945.49333,1264.37 1946.85333,1264.33 1948.24,1264.25 C1960.53,1263.49 1972,1259.02 1983.1,1254.69 C1989.55756,1252.02963 1996.1577,1249.72943 2002.87,1247.8 C2008.54,1246.29 2014.93,1245.73 2021.11,1245.19 C2035.86,1243.91 2051.11,1242.58 2060.65,1228.88 C2077.2,1205.15 2063.51,1173.55 2058.92,1164.44 C2053.5,1153.65 2045.71,1145.62 2038.18,1137.85 C2034.99,1134.56 2031.68,1131.15 2028.59,1127.57 C2028.12231,1127.02381 2027.43907,1126.70959 2026.72,1126.71 C2026.42359,1126.71023 2026.12938,1126.76096 2025.85,1126.86 C2024.87902,1127.22374 2024.23682,1128.15314 2024.24,1129.19 C2024.24,1132.94333 2024.06333,1136.81667 2023.71,1140.81 C2022.85,1133.71 2021.56,1127.06 2020.26,1120.98 C2018.86,1114.47 2016.87,1108.06 2014.95,1101.86 C2012.7864,1095.2911 2010.96067,1088.61569 2009.48,1081.86 C2009.50811,1081.7027 2009.58103,1081.55687 2009.69,1081.44 C2018.21,1091.88 2023.03,1105.64 2024.02,1122.35 C2024.08154,1123.44025 2024.84895,1124.36195 2025.91,1124.62 C2047.71,1132.19 2061.33,1160.94 2064.99,1169.62 C2070.74,1183.16 2078.3,1209.09 2064.34,1230.74 C2060.10418,1237.5955 2053.96924,1243.07386 2046.68,1246.51 C2040.1,1249.51 2033.19,1249.75 2025.87,1250.02 C2021.48149,1250.09345 2017.10234,1250.45086 2012.76,1251.09 C2001.95,1252.89 1991.96,1257.21 1982.29,1261.38 C1970.87,1266.32 1960.08,1270.98 1947.89,1271.97 C1945.89,1272.13 1943.95,1272.21 1941.98,1272.21 C1929.7644,1272.12012 1917.73355,1269.21848 1906.82,1263.73 C1907.82,1265.15 1908.82,1266.58 1909.76,1268.03 C1939.34,1312.9 1947,1367.09 1946.46,1421.67 C1954.77,1420.76 1963.26,1419.87 1971.65,1419.28 C1977.99,1418.82 1984.34,1418.43 1990.65,1418.04 C2003.42,1417.25 2016.65,1416.44 2029.65,1415.15 C2031.58,1414.96 2033.44,1414.86 2035.2,1414.86 C2047.87,1414.86 2055.47,1419.7 2058.43,1429.66 C2059.17724,1431.84039 2058.80325,1434.24888 2057.43,1436.1 C2055.75284,1438.26206 2053.16628,1439.52208 2050.43,1439.51 C2048.41439,1439.52092 2046.47383,1438.74613 2045.02,1437.35 C2033.44,1426.35 2016.44,1424.74 2001.44,1423.35 L1997.44,1422.95 C1987.98,1422.01 1978.12,1421.54 1967.31,1421.54 C1960.82,1421.54 1953.94,1421.72 1946.5,1422.06 C1946.27,1443.47 1944.78,1464.93 1942.87,1485.91 C1934.13,1581.52 1916.72,1681.47 1856.33,1756.11 C1834.56,1783.03 1808.04,1805.5 1779.74,1825.63 C1800.01465,1828.76722 1820.47768,1830.53456 1840.99,1830.92 L1845.6,1830.92 C1896.12,1830.92 1936.71,1819.78 1969.68,1796.92 C2006.22,1771.53 2035.3,1734.77 2058.68,1705.24 C2066.86,1694.91 2074.68,1684.65 2082.02,1674.78 C2084.9,1670.92 2087.74,1667.01 2090.55,1663.1 L2090.69,1662.89 C2106.78,1640.52 2120.57,1619.41 2132.85,1598.34 C2175.82569,1524.386 2210.28539,1445.80164 2235.57,1364.09 C2260.57,1283.81 2274.57,1198.22 2277.3,1109.68 C2278.7,1063.16 2280.16,1015.04 2287.84,966.15 C2295.84,915.08 2302.37,864.96 2294.66,813.32 C2291.03,789.04 2285.6,764.68 2280.35,741.12 C2275.59,719.78 2270.68,697.72 2267.12,675.83 L2265.12,663.42 C2258.39,621.59 2251.43,578.34 2239.53,537.2 C2226.63,492.48 2200.53,431.26 2149.75,393.52 C2149.32217,393.201819 2148.80318,393.03 2148.27,393.03 L2148.05,393.03 C2131.05,394.52 2113.58,397.11 2095.13,399.84 C2067.87,403.84 2039.74,408.01 2012.42,408.5 L2073.51,425.89 C2091.41,430.89 2109.55,436.08 2126.01,444.92 Z M2099.32,895.12 L2101.32,895.12 C2111.26,895.12 2121.32,897.06 2131.11,898.94 L2132.11,899.14 C2134.51,899.61 2136.96,900.04 2139.43,900.48 C2145.12,901.48 2150.93,902.48 2156.49,904 C2151.32,903.55 2146.19,902.89 2141.15,902.25 C2132.31,901.11 2123.15,899.93 2113.95,899.93 C2110.49942,899.922263 2107.05097,900.10253 2103.62,900.47 C2087.1,902.27 2070.91,906.76 2055.17,911.4 C2069.01,902.49 2083.23,895.57 2099.32,895.12 L2099.32,895.12 Z M2216.98,955.05 C2223.62,960.29 2230.48,965.72 2233.8,972.51 C2234.08855,973.290531 2233.9922,974.161424 2233.54,974.86 C2233.38,975.12 2233.05,975.55 2232.61,975.55 C2232.44154,975.54191 2232.27575,975.504693 2232.12,975.44 C2225.81,972.89 2222.05,968.1 2217.69,962.55 C2216.69,961.28 2215.69,959.98 2214.6,958.7 C2207.42461,949.846825 2198.72028,942.351619 2188.9,936.57 C2172.07102,926.880927 2152.98886,921.790513 2133.57,921.81 C2132.5,921.81 2131.44,921.81 2130.37,921.81 C2110.79,922.36 2092.8,930.39 2075.37,938.16 L2068.65,941.16 C2067.37,941.71 2065.98,942.34 2064.5,943.02 C2056.28,946.76 2045.02,951.88 2035.95,951.88 C2034.06206,951.908141 2032.18173,951.6347 2030.38,951.07 C2034.2,947.69 2039.89,945.8 2045.38,943.97 C2048.13,943.06 2050.97,942.12 2053.5,940.97 L2060.5,937.86 C2067.38,934.79 2074.5,931.61 2081.5,928.72 C2096.83397,922.359574 2113.26924,919.077277 2129.87,919.06 C2132.54,919.06 2135.24,919.15 2137.87,919.32 C2155.49103,920.486538 2172.63966,925.515393 2188.1,934.05 C2196.25519,938.639784 2203.92435,944.044049 2210.99,950.18 C2212.93,951.84 2214.93,953.43 2216.98,955.05 L2216.98,955.05 Z" id="Shape" fill="#E8958B" fill-rule="nonzero"></path>
            <path d="M2110.39,1042.17 C2099.61,1038.89 2085.75,1035.7 2078.88,1044.63 C2075.38,1049.18 2075.22,1055.4 2075.42,1061.15 C2076.21846,1084.66925 2080.34272,1107.957 2087.67,1130.32 C2094.67,1151.73 2104.57,1172.08 2114.43,1192.32 L2168.52,1303.58 C2170.52,1307.71 2172.92,1312.2 2177.23,1313.78 C2184.39,1316.4 2191.23,1309.55 2195.66,1303.32 C2237.17,1244.47 2261.16,1171.56 2261.38067,1099.41 C2261.46,1072.51 2254.38,1050.65 2224.17,1048.96 C2184.58,1046.78 2149.91,1054.2 2110.39,1042.17 Z" id="Path" fill="#F4BDA9" fill-rule="nonzero"></path>
            <path d="M1997.39,1422.84 L2001.39,1423.24 C2016.39,1424.67 2033.39,1426.3 2044.97,1437.24 C2046.42383,1438.63613 2048.36439,1439.41092 2050.38,1439.40011 C2053.11628,1439.41208 2055.70284,1438.15206 2057.38,1435.99 C2058.75325,1434.13888 2059.12724,1431.73039 2058.38,1429.55 C2055.38,1419.55 2047.82,1414.75 2035.15,1414.75 C2033.39,1414.75 2031.53,1414.85 2029.6,1415.04 C2016.6,1416.33 2003.42,1417.14 1990.6,1417.93 C1984.25,1418.32 1977.9,1418.71 1971.6,1419.17 C1961.92,1419.85 1952.09,1420.93 1942.6,1421.98 L1940.6,1422.21 C1950.37,1421.66 1959.1,1421.39 1967.26,1421.39 C1978.08,1421.43 1987.93,1421.9 1997.39,1422.84 Z" id="Path"></path>
            <path d="M1610.21,1388.24 C1616.72273,1392.51849 1624.0909,1395.32379 1631.8,1396.46 C1633.73311,1396.7101 1635.68081,1396.83037 1637.63,1396.82 C1640.44,1396.82 1643.19,1396.62 1646.11,1396.41 C1649.03,1396.2 1652,1396 1655.01,1396 C1656.72,1396 1658.29,1396.06 1659.8,1396.2 C1673.91,1397.49 1688.18,1399.4 1701.98,1401.2 C1707.16,1401.86667 1712.34333,1402.55333 1717.53,1403.26 C1749.11667,1407.26 1780.70667,1411.23 1812.3,1415.17 L1831.3,1417.54 C1838.21333,1418.41333 1844.97333,1419.17667 1851.58,1419.83 L1847.84,1419.17 C1828.12,1415.67 1808.40333,1412.14 1788.69,1408.58 C1768.48333,1404.94 1748.26667,1401.32 1728.04,1397.72 C1721.29,1396.52 1714.53,1395.37 1707.76,1394.23 C1693.97,1391.89 1679.76,1389.47 1665.76,1386.64 C1660.139,1385.40558 1654.58503,1383.88358 1649.12,1382.08 C1640.55,1379.4 1632.46,1376.86 1623.72,1376.86 C1619.53346,1376.8585 1615.36813,1377.45451 1611.35,1378.63 C1609.42642,1379.13446 1607.99707,1380.74938 1607.73,1382.72 C1607.38186,1384.88993 1608.35647,1387.05923 1610.21,1388.24 Z" id="Path"></path>
            <path d="M1853.29,1507.74 C1857.83,1508.1 1862.53,1508.28 1867.29,1508.28 C1894.75,1508.28 1918.68,1502.47 1933.6,1492.28 C1928.33,1493.15 1923.01,1494.42 1917.85,1495.65 C1904.36186,1499.3311 1890.4194,1501.07854 1876.44,1500.84 L1876.44,1500.84 C1869.37,1500.84 1862.35,1500.55 1855.18,1500.22 C1835.19191,1499.44291 1815.27781,1497.33491 1795.57,1493.91 C1814.3,1500.77 1833.73,1506.21 1853.29,1507.74 Z" id="Path"></path>
            <path d="M1271.15,1166.83 C1271.15,1176.43 1271.28,1186.13 1271.83,1195.77 C1272.37,1197.05 1272.91,1198.35 1273.45,1199.7 C1277.18014,1209.02672 1280.31968,1218.57893 1282.85,1228.3 C1291.39,1260.84 1292.6,1295.3 1293.77,1328.59 C1294.03,1336.22 1294.3,1343.83 1294.65,1351.41 C1297.09,1404.96 1305.15,1444.71 1320.78,1480.28 C1355.9,1560.21 1424.2,1624.38 1479.09,1675.93 C1554.91,1747.17 1631.31,1792.5 1706.17,1810.65 C1743.49,1819.72 1792.53,1830.2 1840.94,1830.81 L1845.55,1830.81 C1896.07,1830.81 1936.66,1819.67 1969.63,1796.81 C2006.17,1771.42 2035.25,1734.66 2058.63,1705.13 C2066.81,1694.8 2074.63,1684.54 2081.97,1674.67 C2084.85,1670.81 2087.69,1666.9 2090.5,1662.99 L2090.64,1662.78 C2106.73,1640.41 2120.52,1619.3 2132.8,1598.23 C2175.77569,1524.276 2210.23539,1445.69164 2235.52,1363.98 C2240.3,1348.6 2244.67667,1333.02667 2248.65,1317.26 L2192.53,1369.96 C2182.38,1379.49 2172.05,1389.25 2165.53,1401.53 C2159.34,1413.1 2156.87,1426.25 2152.21,1438.53 C2143.95,1460.3 2128.13,1478.94 2108.51,1491.53 C2116.59509,1464.33618 2120.72409,1436.12024 2120.77,1407.75 C2120.77,1382.54 2116.3,1354.82 2097.1,1338.5 C2082.89,1326.41 2063.1,1322.86 2048.19,1311.66 C2028.96,1297.24 2020.68,1272.66 2005.19,1254.24 C2004.85,1253.83 2004.47,1253.47 2004.11,1253.08 C1996.67996,1255.37407 1989.40498,1258.1431 1982.33,1261.37 C1970.91,1266.31 1960.12,1270.97 1947.93,1271.96 C1945.93,1272.12 1943.99,1272.2 1942.02,1272.2 C1924.69245,1272.09284 1907.87235,1266.33869 1894.11,1255.81 C1891.11,1253.46 1888.11,1250.96 1885.01,1248.3 C1878.44,1242.72 1871.66,1236.95 1864.19,1232.87 C1855.8,1228.28 1846.31,1226.36 1836.91,1225.3 C1801.91,1239.93 1773.53,1269.1 1736.85,1278.91 C1704.44,1287.59 1669.55,1279.96 1636.85,1287.27 C1586.07,1298.61 1547.22,1349.51 1549.68,1401.48 C1551.22,1434.23 1566.95,1467.92 1555.21,1498.48 C1533.68,1472.79 1519.11,1439.98 1516.35,1406.58 C1446.35,1390.14 1386.71,1340.38 1349.5,1278.82 C1312.29,1217.26 1295.99,1144.74 1293.14,1072.82 C1292.68,1061.15 1292.58,1049.48 1292.75,1037.82 L1267.92,1040.82 C1270.51,1082.76 1270.9,1124.96 1271.15,1166.83 Z M1942.62,1422.02 C1952.13,1421.02 1961.96,1419.89 1971.62,1419.21 C1977.96,1418.75 1984.31,1418.36 1990.62,1417.97 C2003.39,1417.18 2016.62,1416.37 2029.62,1415.08 C2031.55,1414.89 2033.41,1414.79 2035.17,1414.79 C2047.84,1414.79 2055.44,1419.63 2058.4,1429.59 C2059.14724,1431.77039 2058.77325,1434.17888 2057.4,1436.03 C2055.72284,1438.19206 2053.13628,1439.45208 2050.4,1439.44011 C2048.38439,1439.45092 2046.44383,1438.67613 2044.99,1437.28 C2033.41,1426.28 2016.41,1424.67 2001.41,1423.28 L1997.41,1422.88 C1987.95,1421.94 1978.09,1421.47 1967.28,1421.47 C1959.12,1421.47 1950.39,1421.74 1940.62,1422.29 L1942.62,1422.02 Z M1876.4,1500.84 L1876.4,1500.84 C1890.3794,1501.07854 1904.32186,1499.3311 1917.81,1495.65 C1922.97,1494.42 1928.29,1493.15 1933.56,1492.28 C1918.64,1502.47 1894.71,1508.28 1867.25,1508.28 C1862.52,1508.28 1857.82,1508.1 1853.25,1507.74 C1833.69,1506.21 1814.25,1500.74 1795.49,1493.91 C1815.19781,1497.33491 1835.11191,1499.44291 1855.1,1500.22 C1862.31,1500.55 1869.33,1500.84 1876.4,1500.84 Z M1607.75,1382.77 C1608.01707,1380.79938 1609.44642,1379.18446 1611.37,1378.68 C1615.38813,1377.50451 1619.55346,1376.9085 1623.74,1376.91 C1632.48,1376.91 1640.57,1379.45 1649.14,1382.13 C1654.60503,1383.93358 1660.159,1385.45558 1665.78,1386.69 C1679.72,1389.52 1693.98,1391.94 1707.78,1394.28 C1714.55,1395.42 1721.31,1396.57 1728.06,1397.77 C1748.28,1401.35667 1768.49667,1404.97667 1788.71,1408.63 C1808.43,1412.17 1828.14667,1415.7 1847.86,1419.22 L1851.6,1419.88 C1844.99333,1419.21333 1838.23333,1418.45 1831.32,1417.59 L1812.32,1415.22 C1780.73333,1411.26667 1749.14333,1407.29667 1717.55,1403.31 C1712.37,1402.64333 1707.18667,1401.95667 1702,1401.25 C1688.2,1399.4 1673.93,1397.49 1659.82,1396.25 C1658.31,1396.11 1656.74,1396.05 1655.03,1396.05 C1652.03,1396.05 1649.03,1396.26 1646.13,1396.46 C1643.23,1396.66 1640.46,1396.87 1637.65,1396.87 C1635.70081,1396.88037 1633.75311,1396.7601 1631.82,1396.51 C1624.1109,1395.37379 1616.74273,1392.56849 1610.23,1388.29 C1608.37647,1387.10923 1607.40186,1384.93993 1607.75,1382.77 L1607.75,1382.77 Z" id="Shape" fill="#663E29" fill-rule="nonzero" opacity="0.4"></path>
            <path d="M2317.61,738.49 C2315.85,744.86 2313.89,751.24 2311.83,757.99 C2308.11,770.21 2304.27,782.84 2301.54,795.49 C2301.3039,796.646839 2300.29065,797.480788 2299.11,797.49 L2299.11,797.49 C2297.9183,797.465652 2296.90953,796.603383 2296.7,795.43 C2294.57,782.78 2292.09,769.98 2289.7,757.58 C2287.49,746.17 2285.21,734.36 2283.2,722.75 C2279.33,700.26 2276.73,677.21 2274.2,654.91 C2271.35,629.39 2268.37,603 2263.46,577.42 C2255.6,536.52 2240.22,485.57 2210.06,443.6 C2197.23,425.72 2181.73,409.47 2162.98,396.35 C2162.11163,395.743692 2161.72412,394.652851 2162.01537,393.634597 C2162.30663,392.616343 2163.21236,391.895411 2164.27,391.84 C2170.77,391.51 2176.79,391.37 2182.75,391.37 C2189.61667,391.37 2196.21333,391.593333 2202.54,392.04 C2211.14564,392.61055 2219.71037,393.685733 2228.19,395.26 C2236.82166,396.9051 2245.30602,399.246075 2253.56,402.26 C2258.67,404.1 2263.76,406.2 2269.14,408.68 C2274.52,411.16 2280.08,414.04 2286.01,417.32 C2278.04464,411.004617 2269.30775,405.728881 2260.01,401.62 C2255.86,399.73 2251.5,397.99 2246.61,396.28 C2232.71781,391.580875 2218.40493,388.232049 2203.87,386.28 L2200.8,385.85 C2188.79448,384.36642 2176.70673,383.648302 2164.61,383.7 C2157.99,383.7 2151.16,383.87 2143.67,384.24 C2138.86,384.47 2133.85,384.79 2128.39,385.18 C2121,385.73 2113.54,386.38 2106.14,387.05 L2097.49,387.86 L2088.98,388.68 C2068.19,390.62 2045.87,392.4 2023.64,392.4 C2005.95015,392.560307 1988.28094,391.151455 1970.84,388.19 C1920.9,379.33 1891.68,359.61 1881.51,327.94 C1878.9423,319.831014 1877.59424,311.385388 1877.51,302.88 C1877.35416,281.380652 1883.91627,260.369326 1896.28,242.78 C1903.39882,232.464003 1912.5113,223.677948 1923.08,216.94 C1923.38,216.76 1923.35,216.66 1923.33,216.61 C1923.2515,216.369491 1923.03269,216.202399 1922.78,216.19 C1922.66308,216.198042 1922.54824,216.225062 1922.44,216.27 C1909.55577,222.168289 1898.51848,231.459943 1890.51,243.15 C1881.36,256.15 1875.23,272.37 1873.03,290.38 C1872.515,294.461429 1872.21459,298.567077 1872.13,302.68 C1871.79,318.93 1874.84,334.24 1881.13,347.46 C1881.63259,348.490059 1881.36386,349.730338 1880.48,350.46 C1880.03566,350.834798 1879.47126,351.037131 1878.89,351.03 C1878.37504,351.032165 1877.87327,350.867247 1877.46,350.56 C1874.13,348.21 1871.06,346.12 1868.06,344.24 C1844.24,329.24 1813.96,327.94 1784.66,326.73 C1772.09,326.2 1759.09,325.66 1747.08,324 C1719.9,320.2 1687.08,314.3 1657.17,301.55 C1647.27541,297.382249 1637.77127,292.342378 1628.77,286.49 C1619.42231,280.30001 1611.20073,272.55867 1604.46,263.6 C1596.78435,253.714702 1591.32734,242.292488 1588.46,230.11 C1589.45365,238.075741 1591.6029,245.854149 1594.84,253.2 C1596.33016,256.681789 1598.07141,260.050664 1600.05,263.28 C1608.85,277.86 1622.35,290.28 1640.38,300.46 C1646.00189,303.593159 1651.79049,306.417353 1657.72,308.92 C1658.09,309.06 1658.44,309.24 1658.78,309.36 C1659.92941,309.748296 1660.62664,310.913869 1660.42517,312.110247 C1660.2237,313.306626 1659.18319,314.179562 1657.97,314.17 L1657.82,314.17 C1648.22,313.55 1638.57,313.23 1629.09,313.23 C1611.43914,313.231551 1593.80534,314.326984 1576.29,316.51 C1550.30434,319.671979 1524.67873,325.300706 1499.76,333.32 C1496.86,334.32 1493.93,335.32 1491.03,336.32 C1488.13,340.44 1485.25,344.83 1482.23,349.74 C1480.23,352.99 1478.23,356.41 1476.08,360.21 C1467.37558,375.604949 1459.54973,391.48035 1452.64,407.76 C1445.09982,425.460159 1438.55625,443.56848 1433.04,462 C1430.26,471.28 1427.76333,480.666667 1425.55,490.16 C1423.31667,499.813333 1421.36333,509.57 1419.69,519.43 C1416.72767,536.97441 1414.7247,554.667368 1413.69,572.43 C1413.69,572.83 1413.69,573.2 1413.69,573.59 C1411.88,604.97 1412.92,631.59 1416.84,654.78 C1417.00481,655.824849 1416.50222,656.861945 1415.58,657.38 C1400.69,665.52 1388.76,677.77 1381.37,686.6 C1360.08,712.13 1345.85,742.49 1335.85,766.06 C1323.85,794.51 1314.79,826.06 1309.09,859.89 C1306.30246,875.998242 1304.46263,892.256189 1303.58,908.58 C1303.58,908.58 1303.28,914.16 1303.11,917.34 C1297.35,957.34 1293.26,997.56 1292.67,1037.84 L1267.84,1040.84 C1264.04,981.63 1255.71,923.09 1236.66,867.06 C1228.45,842.85 1217.73,818.49 1198.81,801.27 C1195.83004,798.57519 1192.67298,796.082948 1189.36,793.81 C1182.93149,788.131501 1175.68757,783.449409 1167.87,779.92 C1156.69,774.92 1145.87,772.35 1135.63,772.35 L1134.51,772.35 C1133.26085,772.344061 1132.21109,771.409988 1132.06,770.17 L1131.61,766.6 C1130.52,758.02 1129.4,749.14 1128.71,740.43 C1127.17,721.03 1125.71,700.43 1126.85,679.88 C1127.52,667.18 1127.96,654.33 1128.39,641.88 C1129.33,614.1 1130.32,585.4 1133.89,557.05 C1141.68587,493.704572 1160.00088,432.104762 1188.08,374.79 C1192.70667,365.336667 1197.61667,356.02 1202.81,346.84 C1203.9,344.9 1205.02,342.94 1206.16,340.98 C1222.63,312.43 1245.55,278.7 1279.31,255.38 C1278.24,255.73 1277.17,256.1 1276.13,256.5 C1275.84801,256.616703 1275.54515,256.674553 1275.24,256.67 C1274.27975,256.664421 1273.40829,256.107175 1273.00034,255.237876 C1272.59239,254.368576 1272.72066,253.342166 1273.33,252.6 C1304.73,215.07 1337.85,182.6 1373.19,154.53 C1377.28,151.28 1381.4,148.1 1385.59,144.98 C1400.15,134.013333 1415.09333,123.8 1430.42,114.34 C1436.89,110.34 1443.42,106.46 1450.04,102.74 C1462.44,95.6866667 1475.10667,89.0966667 1488.04,82.97 C1533.04,61.63 1578.42,45.97 1623.04,36.28 C1647.14943,31.0080576 1671.51528,26.9860235 1696.04,24.23 C1711.92,22.47 1728.11,21.65 1743.77,20.86 C1755.35,20.26 1767.3,19.64 1779.06,18.65 C1788.64,17.85 1798.31,16.76 1807.66,15.72 C1826.66,13.61 1846.23,11.43 1865.88,11.43 C1869.03,11.43 1872.15,11.5 1875.18,11.6 L1875.65,11.6 C1900.53,12.52 1931.46,13.66 1952.84,29.53 C1953.63493,30.1086917 1954.02446,31.0941988 1953.84,32.06 C1953.60259,33.0060696 1952.85194,33.7373723 1951.9,33.95 C1913.9,41.51 1879.2,54.95 1850,73.39 C1882.7,57.69 1914,45.13 1948.4,40.15 C1961.24,38.2930515 1974.19642,37.3573283 1987.17,37.35 C2016.07464,37.2185048 2044.77874,42.1531322 2071.98,51.93 C2095.85654,60.6274179 2118.05245,73.3813543 2137.59,89.63 C2149.70361,99.6697383 2160.59202,111.101892 2170.03,123.69 C2175.76,131.38 2181.39,139.09 2187.03,146.76 C2199.55,163.95 2212.4,181.53 2226.19,198.5 C2232.19,205.89 2238.32,213.13 2244.72,220.18 C2259.83,236.87 2275.53,254.96 2286.84,276.18 C2295.84,292.95 2305.2,314.68 2298.13,333.88 C2297.84145,334.606572 2297.23788,335.162302 2296.49,335.39 C2296.26408,335.463041 2296.02733,335.496863 2295.79,335.49 C2295.246,335.490007 2294.71649,335.314672 2294.28,334.99 C2287.98461,330.139091 2281.41725,325.651781 2274.61,321.55 C2281.26,326.83 2287.83,332.34 2294.06,338.19 C2294.8,338.91 2295.55,339.61 2296.27,340.33 C2298.57,342.54 2300.93,344.97 2303.43,347.67 C2319.98,365.78 2326.43,381.3 2326.43,403.03 C2326.43,408.56 2326.76,414.2 2327.05,419.6 C2327.72,431.14 2328.39,443.07 2326.05,455.02 C2323.97,465.74 2321.05,474.67 2317.05,482.33 C2315.02099,485.93891 2312.61775,489.324227 2309.88,492.43 L2308.88,493.67 C2308.40286,494.250593 2307.6915,494.587942 2306.94,494.59 C2306.81043,494.604873 2306.67957,494.604873 2306.55,494.59 C2305.67896,494.451688 2304.94947,493.855879 2304.64,493.03 L2304.36,492.33 L2303.42,490.85 C2300.99,489.41 2298.42,487.77 2295.78,485.98 C2296.05,486.63 2296.35,487.3 2296.62,487.98 C2314.62,529.98 2325.15,570.75 2328.97,612.57 C2332.87773,654.884904 2329.02796,697.557719 2317.61,738.49 L2317.61,738.49 Z" id="Path" fill="#663E29" fill-rule="nonzero"></path>
            <path d="M1647.08,2213.87 C1589.91,2213.87 1529.69,2207.23 1468.08,2194.12 C1350.08,2169.03 1246.54,2120.9 1168.67,2054.93 C1122.44845,2016.0352 1085.49589,1967.30948 1060.51,1912.31 C1046,1880.31 1036.05,1848.31 1030.96,1817.13 C1030.785,1816.07593 1031.3048,1815.02828 1032.25,1814.53 L1038.5,1811.25 C1045.94667,1807.35 1053.41667,1803.46667 1060.91,1799.6 C1089.08,1784.99 1118.21,1769.9 1145.7,1753.24 C1167.07,1740.24 1198,1719.74 1219.77,1691.03 C1239.92,1664.45 1251.18,1632.14 1254.2,1592.26 C1257.06,1554.6 1256.85,1513.81 1253.55,1463.9 C1247.62,1374.18 1232.24,1294.45 1206.55,1220.15 C1206.28852,1219.38992 1206.41004,1218.55037 1206.8763,1217.89562 C1207.34256,1217.24088 1208.0962,1216.85147 1208.9,1216.85 C1209.05786,1216.85231 1209.21518,1216.86904 1209.37,1216.9 C1215.39587,1218.10669 1221.52454,1218.72626 1227.67,1218.75 C1243.33,1218.75 1256.6,1214.36 1266.05,1206.06 C1266.49988,1205.66202 1267.07935,1205.43993 1267.68,1205.43993 C1267.91046,1205.43993 1268.13983,1205.47188 1268.36,1205.54 C1269.16779,1205.76591 1269.80481,1206.38785 1270.05,1207.19 C1281.57,1244.66 1284.23,1284.86 1286.79,1323.73 C1289.35,1362.6 1292,1402.64 1303.49,1439.88 C1327.99,1519.29 1385.7,1581.88 1441.49,1642.39 L1445.95,1647.22 C1454.69,1656.7 1463.49,1666.46 1472.01,1675.91 C1493.14,1699.35 1515.01,1723.6 1538.01,1745.73 C1570.00374,1776.77991 1607.92474,1801.06635 1649.51,1817.14 C1691.59,1833.54 1737.65,1842.22 1786.41,1842.95 L1788.89,1842.95 C1798.3,1843.1 1808.03,1843.25 1817.62,1843.25 C1850.85,1843.25 1886.34,1841.67 1920.7,1830.19 C1956.02,1818.38 1988.19,1795.8 2021.95,1759.11 C2042.08925,1737.09716 2061.08748,1714.06697 2078.87,1690.11 C2079.33898,1689.47671 2080.08198,1689.10521 2080.87,1689.11 C2081.09303,1689.11043 2081.315,1689.14069 2081.53,1689.2 C2082.51568,1689.4675 2083.23507,1690.31407 2083.34,1691.33 C2085.34,1710.5 2090.97,1727.43 2100.01,1741.65 C2110.01,1757.4 2124.35,1770.44 2143.77,1781.53 C2144.49345,1781.94564 2144.95941,1782.69719 2145.01,1783.53 C2150.62,1866.07 2123.92,1951.9 2069.82,2025.23 C2010.03,2106.3 1917.49,2166.29 1809.24,2194.16 C1758.56,2207.21 1704,2213.83 1647.07,2213.83 L1647.08,2213.87 Z" id="Path" fill="#F4BDA9" fill-rule="nonzero"></path>
            <path d="M3196.82,2732.85 C3188.03,2665.65 3176.24,2598.78 3161.55,2533.53 C3143.06,2451.45 3125.34,2377.88 3095.68,2308.81 C3063.08,2232.92 3019.95,2175.75 2963.81,2134.04 C2905.33,2090.61 2837.4,2060.81 2771.71,2031.98 L2764.32,2028.74 C2609.22,1960.66 2450.17,1896.63 2291.61,1838.41 C2276.38,1832.81 2260.81,1827.32 2245.76,1822.01 C2222.93,1814.01 2199.33,1805.64 2176.43,1796.75 C2173.7,1795.75 2170.97,1794.62 2168.27,1793.46 C2167.50422,1793.13266 2166.62526,1793.21154 2165.93,1793.67 C2165.23302,1794.13188 2164.81571,1794.91388 2164.82,1795.75 C2164.98,1886.58 2127.31,1979.96 2058.74,2058.68 C1988.74,2139.1 1890.2,2193.07 1773.91,2214.78 C1732.59974,2222.35841 1690.67951,2226.1176 1648.68,2226.01 C1577.28,2226.01 1502.3,2216.13 1419.44,2195.81 C1284.25,2162.66 1185.44,2110.81 1117.51,2037.34 C1078.09,1994.74 1049.29,1945.17 1034.2,1893.99 C1027.49263,1871.0853 1023.57759,1847.45402 1022.54,1823.61 C1022.4811,1822.28347 1021.38783,1821.23869 1020.06,1821.24 C1019.66344,1821.24377 1019.27318,1821.33963 1018.92,1821.52 C954.98,1854.96 879.08,1894.27 801.08,1932.32 C732.91,1965.57 662.8,1997.85 595.01,2029.07 L562.61,2043.99 C501.8,2072.05 431.48,2105.33 366.87,2145.33 C298.87,2187.44 243.19,2234.96 201.4,2286.57 C159.78,2337.95 127.73,2402.35 103.4,2483.45 C80.8,2558.8 68.32,2636.3 58.2,2708.82 L57.72,2712.26 C56.72,2719.08 55.81,2725.96 54.86,2732.85 L3196.82,2732.85 Z M1345.42,2267.25 C1431.56175,2293.47009 1521.09624,2306.85713 1611.14,2306.98 L1611.14,2306.98 C1648.25042,2306.98417 1685.32411,2304.64619 1722.14,2299.98 C1787.2,2291.69 1846.22,2276.73 1897.55,2255.5 C1950.55,2233.57 2003.86,2201.99 2055.91,2161.63 C2056.02091,2161.52578 2056.16781,2161.46997 2056.32,2161.46997 C2056.56263,2161.4927 2056.79104,2161.5946 2056.97,2161.76 C2056.92842,2161.84097 2056.87054,2161.91247 2056.8,2161.97 C2012,2204.08 1955.43,2239.02 1883.8,2268.79 C1801.04,2303.21 1712.31,2320.66 1620.05,2320.66 C1585.92767,2320.62794 1551.84771,2318.25571 1518.05,2313.56 C1418.15,2299.72 1316.98,2268.16 1216.35,2219.56 C1258.41498,2237.93905 1301.5107,2253.86247 1345.42,2267.25 L1345.42,2267.25 Z" id="Shape" fill="#B71E2D" fill-rule="nonzero"></path>
            <path d="M1652.58,710.19 C1635.07,706.19 1617.24,702.45 1599.31,703.52 C1578.24,704.77 1558.06,712.63 1539.53,722.73 C1501.54384,743.481141 1469.44791,773.53667 1446.25,810.08 C1508.23145,777.109909 1579.81943,766.942209 1648.53,781.35 C1699.77,792.29 1747.4,816.61 1798.63,827.61 C1806.14,829.22 1814.07,830.53 1821.41,828.25 C1841.28,822.09 1844.32,792.6 1831.68,776.08 C1815.85,755.4 1780.1,744.59 1756.04,737.33 C1721.92,727.04 1687.33,718.13 1652.58,710.19 Z" id="Path" fill="#663E29" fill-rule="nonzero"></path>
            <path d="M2216.31,959.73 C2199.87,965.61 2183,971.39 2165.83,974.14 C2157.61737,975.531201 2149.2842,976.080714 2140.96,975.78 C2135.59178,975.552883 2130.24569,974.95479 2124.96,973.99 C2114.27496,971.931365 2103.77152,969.022104 2093.55,965.29 C2078.7,960.08 2062.18,954.6 2048.88,946.16 C2069.22,933.59 2090.97,923.22 2114.04,919.67 C2126.40696,917.73544 2139.01701,917.979113 2151.3,920.39 C2176.88857,925.529242 2199.8789,939.443693 2216.3,959.73 L2216.31,959.73 Z" id="Path" fill="#FFFFFF" fill-rule="nonzero"></path>
            <path d="M1737.68,901.42 C1737.53,904.22 1736.94,907.19 1734.88,909.1 C1733.14,910.69 1730.71,911.21 1728.41,911.63 C1700.10635,916.695171 1671.17546,917.208298 1642.71,913.15 C1612.40573,908.855517 1583.05926,899.409316 1555.94,885.22 C1561.45,887.97 1586,872.22 1593.69,870.83 C1605.97,868.616667 1618.26667,866.433333 1630.58,864.28 L1644.87,861.75 C1661.53,858.75 1678.8,855.82 1695.32,858.58 C1697.80354,858.967817 1700.26136,859.505465 1702.68,860.19 C1721.44,865.42 1738.55,881.97 1737.68,901.42 Z" id="Path" fill="#FFFFFF" fill-rule="nonzero"></path>
            <path d="M2183.92001,941.6 C2183.92986,954.846953 2177.08663,967.156441 2165.83,974.14 C2157.61737,975.531201 2149.2842,976.080714 2140.96,975.78 C2135.59178,975.552883 2130.24569,974.95479 2124.96,973.99 C2116.13161,968.380679 2109.97743,959.408751 2107.92321,949.152773 C2105.869,938.896794 2108.09301,928.246761 2114.08,919.67 C2126.44696,917.73544 2139.05701,917.979113 2151.34,920.39 C2162.27417,922.587777 2172.81769,926.410142 2182.62,931.73 C2183.4819,934.94923 2183.91894,938.267386 2183.92001,941.6 L2183.92001,941.6 Z" id="Path" fill="#663E29" fill-rule="nonzero"></path>
            <circle id="Oval" fill="#1F1D34" fill-rule="nonzero" cx="2145.55" cy="941.6" r="14.69"></circle>
            <path d="M1703.08002,881.75 C1703.09076,896.126295 1695.04571,909.296545 1682.25,915.85 C1669.02098,915.941441 1655.80379,915.038902 1642.71,913.15 C1632.46208,905.978926 1626.35886,894.257763 1626.35988,881.75 C1626.34483,875.672453 1627.79224,869.680479 1630.58,864.28 L1644.87,861.75 C1661.53,858.75 1678.8,855.82 1695.32,858.58 C1700.36378,865.250648 1703.08882,873.387157 1703.08002,881.75 L1703.08002,881.75 Z" id="Path" fill="#663E29" fill-rule="nonzero"></path>
            <circle id="Oval" fill="#1F1D34" fill-rule="nonzero" cx="1664.72" cy="881.74" r="14.69"></circle>
            <path d="M1593.67,891.8 C1602.92,883.8 1614.49,879.55 1626.67,877.22 C1627.20863,872.700009 1628.56398,868.315481 1630.67,864.28 C1618.36333,866.44 1606.06667,868.623333 1593.78,870.83 C1586.09,872.22 1561.54,887.97 1556.03,885.22 C1566.70175,890.818482 1577.74423,895.679846 1589.08,899.77 C1588.92,896.64 1591.27,893.88 1593.67,891.8 Z" id="Path" fill="#ADBDF1" fill-rule="nonzero"></path>
            <path d="M1702.68,860.19 C1700.26136,859.505465 1697.80354,858.967817 1695.32,858.58 C1700.03691,864.841242 1702.72398,872.396434 1703.02,880.23 C1703.52,880.39 1704.02,880.52 1704.53,880.69 C1712.66,883.55 1720.76,887.84 1725.47,895.06 C1728.66029,899.968183 1729.65709,905.985234 1728.22,911.66 L1728.41,911.66 C1730.71,911.24 1733.14,910.72 1734.88,909.13 C1736.94,907.22 1737.53,904.25 1737.68,901.45 C1738.55,881.97 1721.44,865.42 1702.68,860.19 Z" id="Path" fill="#ADBDF1" fill-rule="nonzero"></path>
            <path d="M1647.25,874.79 C1666.01,873.66 1685.25,874.3 1703.02,880.23 C1702.72398,872.396434 1700.03691,864.841242 1695.32,858.58 C1678.8,855.82 1661.53,858.78 1644.87,861.75 L1630.58,864.28 C1628.47398,868.315481 1627.11863,872.700009 1626.58,877.22 C1633.41149,875.972416 1640.31543,875.160776 1647.25,874.79 L1647.25,874.79 Z" id="Path" fill="#1F1D34" fill-rule="nonzero"></path>
            <circle id="Oval" fill="#FFFFFF" fill-rule="nonzero" cx="1678.34" cy="872.17" r="7.89"></circle>
            <path d="M2102.08,943.91 C2103.78,943.416667 2105.49667,942.95 2107.23,942.51 C2107.23,942.2 2107.23,941.9 2107.23,941.6 C2107.21609,933.755283 2109.62212,926.097193 2114.12,919.67 C2091.05,923.22 2069.3,933.59 2048.96,946.16 C2058.71,952.35 2070.2,956.94 2081.5,961.01 C2081.96782,957.730009 2083.44235,954.676138 2085.72,952.27 C2089.98,947.78 2096.08,945.63 2102.08,943.91 Z" id="Path" fill="#ADBDF1" fill-rule="nonzero"></path>
            <path d="M2182.63,931.73 C2183.92419,936.557919 2184.26387,941.591983 2183.63,946.55 C2190.63,950.04 2197.63,955.65 2198.25,963.43 C2198.30365,964.280623 2198.27687,965.134412 2198.17,965.98 C2204.28,963.98 2210.34,961.88 2216.34,959.73 C2207.05144,948.273185 2195.59664,938.758669 2182.63,931.73 L2182.63,931.73 Z" id="Path" fill="#ADBDF1" fill-rule="nonzero"></path>
            <path d="M2107.23,942.49 C2132.4,936.03 2159.79,935.03 2183.07,946.27 L2183.6,946.53 C2184.23387,941.571983 2183.89419,936.537919 2182.6,931.71 C2172.79769,926.390142 2162.25417,922.567777 2151.32,920.37 C2139.03701,917.959113 2126.42696,917.71544 2114.06,919.65 C2109.56212,926.077193 2107.15609,933.735283 2107.16994,941.58 C2107.2,941.9 2107.22,942.2 2107.23,942.49 Z" id="Path" fill="#1F1D34" fill-rule="nonzero"></path>
            <circle id="Oval" fill="#FFFFFF" fill-rule="nonzero" cx="2159.16" cy="932.03" r="7.89"></circle>
            <path d="M2047.81,1388.7 C2029.34,1374.7 2006.25,1368.88 1984.37,1361.35 C1979.51,1359.68 1974.62,1357.85 1969.82,1355.82 C1957.46,1352.6 1945.1,1349.38 1932.58,1347.02 C1852.13,1331.87 1770.28,1321.02 1687.81,1328.44 C1666.44,1330.37 1644.45,1337.1 1628.2,1351.58 C1610.82,1367.05 1601.56,1389.49 1593.72,1411.4 C1583.24,1440.7 1574.19,1471.48 1577.01,1502.47 C1580.14,1536.73 1597.74,1568.39 1620.56,1594.15 C1643.38,1619.91 1671.31,1640.52 1699.02,1660.92 C1716.94,1674.11 1737.09,1687.92 1759.23,1685.86 C1777.23,1684.15 1792.85,1671.72 1802.23,1656.35 C1814.04489,1637.09641 1817.26152,1613.77642 1811.10009,1592.04328 C1804.93866,1570.31014 1789.96173,1552.1481 1769.8,1541.96 C1789.45,1524.17 1817.89,1518.75 1844.26,1521.57 C1870.63,1524.39 1895.58,1534.57 1920.12,1544.57 C1901.79,1564.44 1890.41,1592.04 1894.86,1618.71 C1899.31,1645.38 1922.08,1669.36 1949.1,1670.42 C1965.38,1671.06 1981.18,1663.76 1993.77,1653.42 C2006.36,1643.08 2016.19,1629.83 2025.71,1616.61 C2050.54,1582.14 2074.71,1545.61 2083.38,1504.06 C2092.05,1462.51 2081.71,1414.3 2047.81,1388.7 Z" id="Path" fill="#F4BDA9" fill-rule="nonzero"></path>
            <path d="M1639.24,1385.03 C1660.63422,1399.50268 1680.65787,1415.90453 1699.06,1434.03 C1715.06,1449.74 1730.06,1467.03 1749.8,1477.69 C1768.69,1487.94 1790.42,1491.36 1811.66,1494.61 C1834.72,1498.15 1857.91,1501.69 1881.23,1501.26 C1942.23,1500.13 2002.05,1470.12 2039.43,1421.91 C2016.08103,1394.54442 1984.99413,1374.88894 1950.26,1365.53 C1946.09801,1364.30115 1941.8044,1363.57268 1937.47,1363.36 C1928.88,1363.18 1920.65,1366.45 1912.36,1368.73 C1893.08023,1373.99447 1872.74576,1374.02553 1853.45,1368.82 C1821.7,1360.2 1793.62,1355.99 1760.77,1361.2 C1720.08,1367.62 1679.51,1376.19 1639.24,1385.03 Z" id="Path" fill="#E8958B" fill-rule="nonzero"></path>
            <path d="M2001.43,1423.24 L1997.43,1422.84 C1987.97,1421.9 1978.11,1421.43 1967.3,1421.43 C1960.81,1421.43 1953.93,1421.61 1946.49,1421.95 C1946.32,1437.87 1945.49,1453.82 1944.23,1469.57 C1957.33,1475.98 1969.56,1483.5 1976.94,1499.15 C1990.46,1527.79 1989.94,1562.43 1978.23,1591.54 C1967.17,1619.12 1948.94,1643.42 1926.97,1664.1 C1933.78518,1667.90549 1941.39251,1670.07266 1949.19,1670.43 C1965.47,1671.07 1981.27,1663.77 1993.86,1653.43 C2006.45,1643.09 2016.28,1629.84 2025.8,1616.62 C2050.63,1582.15 2074.8,1545.62 2083.47,1504.07 C2092.14,1462.52 2081.75,1414.3 2047.85,1388.7 C2029.38,1374.7 2006.29,1368.88 1984.41,1361.35 C1979.55,1359.68 1974.66,1357.85 1969.86,1355.82 C1960.24,1353.31 1950.61,1350.82 1940.86,1348.72 C1945.23,1372.39 1946.68,1396.95 1946.44,1421.6 C1954.75,1420.69 1963.24,1419.8 1971.63,1419.21 C1977.97,1418.75 1984.32,1418.36 1990.63,1417.97" id="Path" fill="#E8958B" fill-rule="nonzero"></path>
            <path d="M1950.26,1365.49 C1948.95,1365.14 1947.63,1364.83 1946.26,1364.49 C1953.17327,1370.48934 1957.66633,1378.80007 1958.9,1387.87 C1960.52,1399.87 1956.16,1412.09 1948.35,1421.36 C1956.04,1420.52 1963.86,1419.71 1971.6,1419.17 C1977.94,1418.71 1984.29,1418.32 1990.6,1417.93 C2003.37,1417.14 2016.6,1416.33 2029.6,1415.04 C2030.78,1414.92 2031.93,1414.85 2033.05,1414.81 C2010.5047,1391.08095 1981.8613,1374.01738 1950.26,1365.49 L1950.26,1365.49 Z" id="Path" fill="#E8958B" fill-rule="nonzero" opacity="0.44" style="mix-blend-mode: multiply;"></path>
            <path d="M2001.43,1423.24 L1997.43,1422.84 C1987.97,1421.9 1978.11,1421.43 1967.3,1421.43 C1961.54,1421.43 1955.45,1421.58 1948.96,1421.85 C1956.96,1430.73 1961.25,1442.37 1962.17,1454.2 C1963.17,1466.68 1959.17,1477.63 1952.25,1486.76 C1983.39865,1474.48057 2011.12603,1454.86936 2033.08,1429.59 C2023.23,1425.33 2011.85,1424.23 2001.43,1423.24 Z" id="Path" fill="#E8958B" fill-rule="nonzero" opacity="0.44" style="mix-blend-mode: multiply;"></path>
            <path d="M1169.74,945.39 C1167.29333,964.816667 1165.43,984.31 1164.15,1003.87 C1163.58,1012.54 1163.15,1021.47 1165.94,1029.7 C1170.1293,1041.61516 1180.36374,1050.38535 1192.78,1052.7 C1201.14,1054.16 1211.12,1051.57 1214.78,1043.91 C1217.57,1038.05 1215.89,1031.19 1214.78,1024.8 C1211.5,1005.61 1214.07,985.98 1214.32,966.52 C1214.68,938.6 1210.01,914.09 1183.23,902.18 C1173.75,914.13 1171.6,930.6 1169.74,945.39 Z" id="Path" fill="#E8958B" fill-rule="nonzero"></path>
            <path d="M1272.28,1183.75 C1274.55,1176.12 1273.44,1167.95 1272.28,1160.07 C1270.44,1147.15 1268.59333,1134.23 1266.74,1121.31 C1265.01,1109.17 1263.18,1096.74 1257.41,1085.91 C1250.78,1131.23 1218.18,1171.83 1175.34,1188.08 C1174.67,1191.42 1177.82,1194.22 1180.72,1196 C1201.7,1208.85 1262.65,1216.13 1272.28,1183.75 Z" id="Path" fill="#E8958B" fill-rule="nonzero"></path>
            <path d="M2069.85,2025.27 C2123.95,1951.94 2150.65,1866.11 2145.04,1783.57 C2144.98941,1782.73719 2144.52345,1781.98564 2143.8,1781.57 C2124.38,1770.49 2110.08,1757.49 2100.08,1741.7 C2091.08,1727.48 2085.43,1710.55 2083.41,1691.38 C2083.30507,1690.36407 2082.58568,1689.5175 2081.6,1689.25 C2081.385,1689.19069 2081.16303,1689.16043 2080.94,1689.16 C2080.15198,1689.15521 2079.40898,1689.52671 2078.94,1690.16 C2061.15748,1714.11697 2042.15925,1737.14716 2022.02,1759.16 C1988.26,1795.85 1956.09,1818.43 1920.77,1830.24 C1886.41,1841.72 1850.92,1843.3 1817.69,1843.3 C1808.1,1843.3 1798.37,1843.15 1788.96,1843 L1786.48,1843 C1737.72,1842.27 1691.66,1833.59 1649.58,1817.19 C1607.99474,1801.11635 1570.07374,1776.82991 1538.08,1745.78 C1515.08,1723.65 1493.21,1699.4 1472.08,1675.96 C1463.56,1666.51 1454.76,1656.75 1446.02,1647.27 L1441.56,1642.44 C1426.56,1626.17 1411.42,1609.74 1396.82,1592.89 C1395.91,1593.06 1394.99,1593.24 1394.07,1593.39 C1380.06018,1570.39719 1359.88751,1551.79039 1335.84,1539.68 C1371.84,1635.8 1409.34,1734.41 1478.17,1810.56 C1591.87,1936.35 1777.67,1979.8 1944.88,1951.66 C1958.32097,2006.77151 1967.79854,2062.77471 1973.24,2119.24 C2010.81,2092.6 2043.51,2060.98 2069.85,2025.27 Z" id="Path" fill="#E8958B" fill-rule="nonzero"></path>
            <path d="M1978.41,2221.16 C1978.92,2309.98 1968.81,2398.72 1946.9,2484.81 C1924.77746,2571.89443 1890.39741,2655.39508 1844.79,2732.81 L3196.79,2732.81 C3188,2665.61 3176.21,2598.74 3161.52,2533.49 C3143.03,2451.41 3125.31,2377.84 3095.65,2308.77 C3063.05,2232.88 3019.92,2175.71 2963.78,2134 C2905.3,2090.57 2837.37,2060.77 2771.68,2031.94 L2764.29,2028.7 C2609.19,1960.62 2450.14,1896.59 2291.58,1838.37 C2276.35,1832.77 2260.78,1827.28 2245.73,1821.97 C2222.9,1813.97 2199.3,1805.6 2176.4,1796.71 C2173.67,1795.71 2170.94,1794.58 2168.24,1793.42 C2167.47422,1793.09266 2166.59526,1793.17154 2165.9,1793.63 C2165.20302,1794.09188 2164.78571,1794.87388 2164.79,1795.71 C2164.95,1886.54 2127.28,1979.92 2058.71,2058.64 C2033.89846,2087.05886 2005.59799,2112.23126 1974.48,2133.56 C1976.73333,2160.54 1978.01333,2187.57333 1978.32,2214.66 C2005.21992,2198.55665 2031.11448,2180.83053 2055.86,2161.58 C2055.97091,2161.47578 2056.11781,2161.41846 2056.27,2161.42 C2056.51263,2161.4427 2056.74104,2161.5446 2056.92,2161.71 C2056.87842,2161.79097 2056.82054,2161.86247 2056.75,2161.92 C2032.74068,2184.30497 2006.48872,2204.15647 1978.41,2221.16 Z" id="Path" fill="#B71E2D" fill-rule="nonzero" opacity="0.55" style="mix-blend-mode: multiply;"></path>
            <path d="M2328.94,612.54 C2325.13,570.71 2314.55,529.96 2296.6,487.94 C2296.32,487.28 2296.04,486.62 2295.75,485.94 C2298.43,487.74 2300.97,489.36 2303.4,490.82 L2304.33,492.29 L2304.6,492.98 C2304.91705,493.810262 2305.65258,494.408599 2306.53,494.55 L2306.92,494.55 C2307.66896,494.549198 2308.37777,494.211318 2308.85,493.63 L2309.85,492.39 C2312.58218,489.284378 2314.9788,485.898943 2317,482.29 C2321,474.63 2323.92,465.7 2326,454.99 C2328.33,442.99 2327.65,431.1 2327,419.57 C2326.69,414.14 2326.37,408.57 2326.37,402.99 C2326.37,381.26 2319.89,365.74 2303.37,347.63 C2300.87,344.92 2298.52,342.51 2296.21,340.3 C2295.49,339.58 2294.75,338.87 2294,338.16 C2287.79,332.3 2281.2,326.8 2274.57,321.5 C2281.36667,325.618226 2287.93314,330.10492 2294.24,334.94 C2294.67279,335.272859 2295.20402,335.45228 2295.75,335.45 C2295.98369,335.451161 2296.21625,335.417456 2296.44,335.35 C2297.19568,335.134098 2297.80191,334.568777 2298.07,333.83 C2305.14,314.65 2295.76,292.92 2286.8,276.14 C2278.33,260.26 2267.4,246.14 2256.09,233.02 C2244.49,253.66 2221.75,269.57 2200.75,282.59 C2178.38,296.46 2155.09,310.66 2128.98,313.93 C2089.9,318.82 2048.98,295.4 2033.38,259.25 C2017.78,223.1 2028.86,177.25 2059.24,152.25 C1985.59,174.12 1904.38,157.58 1831.24,181.25 C1785.89,195.95 1744.24,225.92 1696.58,226.83 C1706.64,196.73 1716.70333,166.633333 1726.77,136.54 C1708.25,155.79 1689.22,175.43 1665.23,187.17 C1641.24,198.91 1610.91,201.38 1588.76,186.45 C1565.55,225.72 1524.45,250.52 1484.06,271.75 C1440.045,294.887684 1394.86861,315.745259 1348.71,334.24 C1339.97,337.74 1330.94,341.32 1324.3,347.99 C1317.17,355.15 1313.63,364.99 1310.3,374.56 C1279.88,461.66 1249.17,550.13 1243.58,642.23 C1237.86,736.41 1259.84,831.23 1303.18,915.14 C1303.34,912.14 1303.54,908.57 1303.54,908.57 C1304.41852,892.243006 1306.25501,875.981685 1309.04,859.87 C1314.75,826.06 1323.76,794.49 1335.81,766.04 C1345.81,742.46 1360,712.11 1381.34,686.57 C1388.74,677.72 1400.68,665.47 1415.55,657.34 C1416.47966,656.834003 1416.98573,655.793755 1416.81,654.75 C1412.86,631.21 1411.81,604.27 1413.72,572.39 C1415.86754,534.950326 1422.36457,497.887732 1433.08,461.95 C1443.5765,426.527225 1457.99937,392.388635 1476.08,360.17 C1478.24,356.37 1480.25,352.94 1482.24,349.69 C1485.24,344.78 1488.14,340.38 1491.05,336.28 C1493.94,335.28 1496.87,334.28 1499.78,333.28 C1524.70336,325.269503 1550.33208,319.647525 1576.32,316.49 C1593.83506,314.305068 1611.46919,313.212955 1629.12,313.22 C1638.59,313.22 1648.25,313.53 1657.83,314.15 L1657.99,314.15 C1659.20515,314.164648 1660.25042,313.293224 1660.45464,312.095272 C1660.65887,310.89732 1659.96136,309.728791 1658.81,309.34 C1658.45,309.21 1658.11,309.06 1657.74,308.89 C1626.25,295.57 1605.09,276.83 1594.85,253.19 C1591.63188,245.838795 1589.48986,238.062212 1588.49,230.1 C1593.21,251.7 1608.49,273.18 1628.77,286.46 C1664.77,310.11 1710.96,318.93 1747.14,323.98 C1759.14,325.65 1772.14,326.19 1784.71,326.71 C1814,327.93 1844.29,329.18 1868.1,344.21 C1871.1,346.11 1874.19,348.21 1877.5,350.55 C1878.4193,351.203943 1879.66413,351.155015 1880.52926,350.430935 C1881.3944,349.706855 1881.66181,348.490104 1881.18,347.47 C1873.31,330.94 1870.5,311.21 1873.07,290.4 C1877.32,255.93 1895.79,228.23 1922.49,216.29 C1922.59513,216.234832 1922.71134,216.20407 1922.83,216.2 C1923.07895,216.216395 1923.29283,216.382742 1923.37,216.62 C1923.37,216.68 1923.37,216.77 1923.12,216.95 C1887.05,239.54 1868.78,288.24 1881.52,327.84 C1891.7,359.52 1920.92,379.23 1970.83,388.11 C1988.27928,391.057467 2005.95419,392.462893 2023.65,392.31 C2045.89,392.31 2068.2,390.52 2088.99,388.58 L2097.49,387.79 C2107.63,386.79 2118.11,385.85 2128.41,385.09 C2133.87,384.69 2138.86,384.38 2143.68,384.15 C2151.16,383.78 2158.01,383.6 2164.61,383.6 C2177.74502,383.525702 2190.86852,384.391244 2203.88,386.19 C2218.41839,388.148642 2232.73223,391.514437 2246.62,396.24 C2251.5,397.95 2255.88,399.69 2260.01,401.57 C2269.30063,405.688434 2278.03595,410.959863 2286.01,417.26 C2280.08,413.98 2274.51,411.14 2269.13,408.64 C2263.75,406.14 2258.66,404.05 2253.56,402.21 C2245.30664,399.194151 2236.82212,396.853133 2228.19,395.21 C2213.1914,392.495553 2197.97178,391.189867 2182.73,391.31 C2176.79,391.31 2170.73,391.47 2164.26,391.8 C2163.2006,391.851505 2162.29122,392.571026 2161.99745,393.590185 C2161.70368,394.609344 2162.09055,395.702507 2162.96,396.31 C2225.72,440.31 2252.25,519.06 2263.45,577.38 C2268.37,602.96 2271.33,629.38 2274.2,654.87 C2276.7,677.16 2279.29,700.21 2283.2,722.71 C2285.2,734.31 2287.48,746.13 2289.69,757.55 C2292.08,769.94 2294.55,782.75 2296.69,795.38 C2296.86917,796.570071 2297.8769,797.459737 2299.08,797.49 L2299.14,797.49 C2300.32109,797.48767 2301.33526,796.649515 2301.56,795.49 C2304.29,782.85 2308.14,770.21 2311.88,757.99 C2313.88,751.24 2315.88,744.87 2317.65,738.49 C2329.05274,697.544655 2332.87889,654.86055 2328.94,612.54 Z" id="Path" fill="#4D301F" fill-rule="nonzero"></path>
            <path d="M2219.33,870.92 C2217.59,871.54 2215.75,872.33 2214.78,873.92 C2213.17,876.54 2214.67,879.92 2216.18,882.61 C2219.1,887.863333 2222.02667,893.113333 2224.96,898.36 C2230.6,908.47 2236.29,918.66 2243.87,927.36 C2247.74,931.81 2252.93,936.16 2258.78,935.45 C2265.97,934.58 2269.97,926.72 2271.62,919.67 C2280.56,881.34 2258.49,857.13 2219.33,870.92 Z" id="Path" fill="#F4BDA9" fill-rule="nonzero"></path>
            <path d="M2226.13,198.49 C2219.29,196.996667 2212.43667,195.583333 2205.57,194.25 C2192.57,191.69 2179.65,189.25 2166.57,187.13 C2160.94,186.21 2155.29,185.39 2149.66,184.57 C2148.56,184.43 2147.35,184.25 2146.88,184.2 C2142.98,183.73 2139.09,183.2 2135.2,182.79 C2109.52,179.89 2083.76333,178.03 2057.93,177.21 C1952.36,173.91 1848.78,193.5 1743.93,201.09 C1691.87,204.89 1639.73,204.64 1588.06,196.83 C1544.46,190.23 1496.31,176.36 1460.67,149.35 C1448.12059,140.042664 1437.78678,128.073067 1430.41,114.3 C1436.88,110.3 1443.41,106.42 1450.03,102.7 C1471.03,135.86 1520.2,146.35 1556.03,150.94 C1656.03,163.69 1754.83,143.08 1852.34,122.94 C1946.89,103.39 2041.13,88.11 2137.57,89.62 C2149.68361,99.6597383 2160.57202,111.091892 2170.01,123.68 C2175.74,131.37 2181.37,139.08 2187.01,146.75 C2199.49,163.98 2212.34,181.56 2226.13,198.49 Z" id="Path" fill="#AE724E" fill-rule="nonzero"></path>
            <path d="M2125.01,277.36 C2086.83,250.36 2037.92,244.17 1992.48,241.22 C1960.35,239.11 1928.28,240.22 1896.28,242.68 C1894.37,242.83 1892.46,242.98 1890.55,243.15 C1878.8,244.15 1867.06,245.29 1855.36,246.53 C1772.16,255.41 1688.3,269.02 1604.46,263.53 C1602.99,263.43 1601.53,263.33 1600.07,263.21 C1595.65,262.91 1591.21667,262.536667 1586.77,262.09 C1539.3,257.4 1489.77,245.79 1448.36,221.34 C1427.36,208.93 1409.36,192.56 1396.87,171.48 C1391.99036,163.150949 1388.19623,154.231896 1385.58,144.94 C1381.39,148.06 1377.27,151.24 1373.18,154.49 C1376.46397,171.877742 1383.74188,188.265025 1394.44,202.36 C1419.52,235.49 1457.08,255.78 1495.08,270.49 C1541.56,288.43 1590.7,296.71 1640.36,300.49 C1645.97333,300.91 1651.58,301.273333 1657.18,301.58 C1691.38,303.49 1725.74,303.49 1759.55,303.29 C1796.68,303.04 1834.48,302.15 1872.13,302.74 C1873.92,302.74 1875.68,302.79 1877.47,302.84 C1927.99,303.84 1978.17,307.73 2025.92,319.74 C2035.35,322.09 2045,324.74 2053.98,328.59 C2054.3,328.81 2057.75,330.48 2057.84,330.53 C2060.4,331.91 2062.98,333.2 2065.51,334.69 C2067.72,335.98 2069.9,337.35 2072.06,338.76 C2072.58,339.11 2075.13,341.07 2076.47,342.03 C2078.13,343.55 2080.81,345.95 2081.66,346.77 C2084.73,349.77 2087.36,353.22 2090.36,356.32 C2084.91,350.67 2090.16,356.1 2092.36,359.45 C2095.0461,363.476323 2097.52272,367.63852 2099.78,371.92 C2100.18,372.67 2101.54,375.47 2102.58,377.58 C2103.2,379.29 2105.11,383.98 2105.58,385.34 C2105.78,385.89 2105.95,386.46 2106.12,387.01 C2113.52,386.34 2120.98,385.69 2128.37,385.14 C2133.83,384.75 2138.84,384.43 2143.65,384.2 C2151.14,383.83 2157.97,383.66 2164.59,383.66 C2176.68673,383.608302 2188.77448,384.32642 2200.78,385.81 C2188.46,343.07 2163.73,304.72 2125.01,277.36 Z M2202.52,392.01 C2196.18667,391.563333 2189.59,391.34 2182.73,391.34 C2176.73,391.34 2170.73,391.48 2164.25,391.81 C2163.19236,391.865411 2162.28663,392.586343 2161.99537,393.604597 C2161.70412,394.622851 2162.09163,395.713692 2162.96,396.32 C2181.71,409.44 2197.21,425.69 2210.04,443.57 C2209.38086,426.164186 2206.85982,408.878988 2202.52,392.01 L2202.52,392.01 Z" id="Shape" fill="#AE724E" fill-rule="nonzero"></path>
            <path d="M1351.25,386.99 C1314.97,383.47 1273.72,382.73 1239.93,367.7 C1226.31,361.62 1214.46,352.79 1206.15,340.98 C1205.01,342.98 1203.89,344.9 1202.8,346.84 C1197.62,356.006667 1192.71333,365.323333 1188.08,374.79 C1188.89,376.01 1189.71,377.2 1190.58,378.36 C1207.08,435.17 1265.85,472.89 1314.22,500.77 C1342.99,517.37 1372.34,536.77 1397.71,558.39 C1403.33297,563.135688 1408.67532,568.204238 1413.71,573.57 C1413.71,573.18 1413.71,572.81 1413.71,572.41 C1414.7447,554.647368 1416.74767,536.95441 1419.71,519.41 C1391.24,506.76 1361.87,496.86 1333.37,484.33 C1301.67,470.39 1270.24,452.66 1244.07,429.89 C1236.54216,423.352078 1229.52196,416.251641 1223.07,408.65 C1238.9,419.22 1256.81,427.26 1274.77,433.86 C1293.97,440.86 1313.77,446.03 1333.16,452.53 C1342.01,455.53 1350.79,458.73 1359.7,461.53 C1364.46,462.99 1369.2,464.38 1373.94,465.89 C1376.29,466.66 1378.65,467.43 1380.94,468.23 C1381.44,468.37 1384.94,469.64 1386.72,470.23 C1388.03,470.8 1389.84,471.57 1390.27,471.77 C1392.42,472.77 1394.61,473.77 1396.77,474.77 C1401.06,476.77 1405.32,478.94 1409.51,481.19 C1414.9,484.07 1420.28,487.05 1425.51,490.19 C1427.72333,480.69 1430.22,471.303333 1433,462.03 C1438.51625,443.59848 1445.05982,425.490159 1452.6,407.79 C1420.16,396.2 1385.14,390.29 1351.25,386.99 Z" id="Path" fill="#AE724E" fill-rule="nonzero"></path>
            <path d="M2140.43,1762.85 C2122.55,1750.7 2108.14,1734.85 2098.86,1713.19 C2094.32263,1702.43855 2091.29394,1691.11125 2089.86,1679.53 C2089.07009,1673.5597 2088.60606,1667.55079 2088.47,1661.53 C2085.67,1665.43 2082.83333,1669.31 2079.96,1673.17 C2079.92542,1679.34278 2080.23925,1685.51259 2080.9,1691.65 C2082.84,1709.98 2088.05,1727.46 2097.9,1743.04 C2109.21,1760.8 2124.9,1773.68 2142.53,1783.75 C2145.92,1785.68 2149.4,1787.49 2152.92,1789.23 C2153.48,1783.23 2153.97,1777.25333 2154.39,1771.3 C2149.59032,1768.73252 2144.93042,1765.91187 2140.43,1762.85 L2140.43,1762.85 Z" id="Path" fill="#AF4B4B" fill-rule="nonzero"></path>
            <path d="M1284.9,254.61 C1249.43,277.53 1225.45,311.66 1204.96,348.05 C1168.47,412.79 1145.63,483.68 1136.35,557.38 C1131.19,598.28 1131.49,638.98 1129.35,680.04 C1128.28,700.04 1129.62,720.29 1131.21,740.26 C1131.98,750.11 1133.29,760 1134.53,769.9 C1135.2,775.31 1135.85,780.74 1136.34,786.17 C1133.409,786.652301 1130.52262,787.374734 1127.71,788.33 C1126.71,782.53 1125.93,776.65 1125.28,770.75 C1123.79,757.33 1122.95,743.75 1121.71,730.64 C1119.43,706.64 1116.43,682.37 1115.71,658.33 C1113.23,577.33 1126.17,493.85 1155.27,418.2 C1168.89,382.75 1186.2,349.29 1208.45,318.48 C1224.13,296.76 1243.52,269.42 1268.87,256.92 C1270.94852,255.901355 1273.07799,254.990154 1275.25,254.19 C1277.98309,253.123552 1280.79488,252.270989 1283.66,251.64 C1284.43798,251.453154 1285.23655,251.858593 1285.54481,252.596929 C1285.85308,253.335265 1285.57988,254.188178 1284.9,254.61 L1284.9,254.61 Z" id="Path" fill="#301F14" fill-rule="nonzero"></path>
            <path d="M1275.75,1198.77 C1273.49195,1202.15443 1270.80266,1205.23031 1267.75,1207.92 C1252.65,1221.19 1230.32,1223.53 1208.97,1219.33 C1204.96094,1218.56488 1201.00068,1217.56313 1197.11,1216.33 C1184.68,1212.46 1173.11,1206.54 1164.29,1199.52 C1125.8,1168.96 1105.95,1117.93 1088.59,1073.52 C1068.45,1021.95 1054.43,967.33 1052.8,911.77 C1051.48,866.92 1061.43,805.48 1102.95,779.39 C1109.754,775.059678 1117.35142,772.126085 1125.3,770.76 C1128.35545,770.228319 1131.44882,769.944064 1134.55,769.91 C1146.01,769.71 1157.62,772.62 1168.93,777.7 C1190.61,787.45 1205.39,804.64 1217.15,824.85 C1217.8,825.97 1216.15,827.31 1215.32,826.27 C1199.54,806.87 1176.45,785.54 1149.96,785.14 C1145.40507,785.03583 1140.8507,785.37071 1136.36,786.14 C1133.429,786.622301 1130.54262,787.344734 1127.73,788.3 C1112.58,793.3 1100.79,804.03 1091.91,819.65 C1081.47,838.06 1076.73,859.04 1072.39,879.53 C1067.50947,902.3126 1065.97335,925.684599 1067.83,948.91 C1071.83,996.09 1086.38,1041.73 1104.19,1085.36 C1119.99,1124.15 1138.5,1168.08 1176.25,1190.36 C1181.41537,1193.40525 1186.90646,1195.86065 1192.62,1197.68 C1195.70114,1198.65903 1198.84063,1199.4439 1202.02,1200.03 C1222.11,1203.78 1242.92,1199.54 1261.13,1189.19 C1263.94974,1187.62763 1266.68366,1185.91517 1269.32,1184.06 C1271.63,1188.9 1273.76,1193.81 1275.75,1198.77 Z" id="Path" fill="#AF4B4B" fill-rule="nonzero"></path>
            <path d="M2291.99,423.49 C2283.99,418.85 2276.14,414.61 2268.08,410.86 C2263.08,408.53 2257.93,406.4 2252.7,404.51 C2244.5649,401.55165 2236.20447,399.254203 2227.7,397.64 C2206.87,393.72 2185.51,393.2 2164.35,394.27 C2160.98,394.42 2157.63,394.61 2154.28,394.86 C2152.28,395.01 2150.21,395.16 2148.18,395.36 C2070.34,402.18 1976.46,433.04 1907.43,382.53 C1906.81,382.09 1906.21,381.64 1905.61,381.17 C1894.24706,372.553184 1885.10394,361.34969 1878.94,348.49 C1870.61,331.01 1868.03,310.94 1870.61,290.05 C1874.53,258.23 1891.42,227.42 1921.48,213.98 C1924.86,212.49 1927.66,216.98 1924.48,218.98 C1889.78,240.71 1871.25,287.62 1883.92,326.98 C1896.22,365.25 1935.17,379.14 1971.31,385.57 C2009.7,392.36 2050.21,389.57 2088.81,386.01 C2101.93,384.8 2115.1,383.48 2128.27,382.51 C2133.37667,382.136667 2138.48667,381.823333 2143.6,381.57 C2163.86,380.57 2184.13,380.75 2204.27,383.63 C2218.96795,385.616719 2233.43887,389.022626 2247.48,393.8 C2252.09,395.41 2256.66,397.2 2261.07,399.21 C2273.28,404.74 2284.61,411.81 2293.99,420.86 C2294.71625,421.412285 2294.85728,422.448745 2294.305,423.175 C2293.75272,423.901254 2292.71625,424.042284 2291.99,423.49 L2291.99,423.49 Z" id="Path" fill="#301F14" fill-rule="nonzero"></path>
            <path d="M2330.08,463.96 C2326.26,474.63 2319.61,490.85 2309.69,499.33 C2307.52599,501.246087 2305.04135,502.765979 2302.35,503.82 C2300.98,504.32 2300.17,502.66 2300.64,501.59 C2302.33919,498.179625 2304.46269,494.997734 2306.96,492.12 C2309.79,488.64 2312.77,485.22 2314.85,481.2 C2319.01594,472.77751 2321.97179,463.808987 2323.63,454.56 C2326.98,437.35 2323.95,420.41 2323.95,403.04 C2323.95,380.55 2316.61,365.81 2301.58,349.37 C2299.27,346.86 2296.92,344.43 2294.49,342.1 C2293.79,341.4 2293.07,340.71 2292.33,340.02 C2280.84,329.18 2268.33,319.77 2255.79,309.93 C2255.52,309.73 2255.79,309.21 2256.11,309.33 C2270.18,315.21 2283.42,323.62 2295.77,333.02 C2297.04,333.94 2298.28,334.91 2299.52,335.87 C2304.18,339.52 2308.7,343.29 2313.06,347.11 C2330.06,361.89 2338.96,378.31 2341.17,400.91 C2343.14,421.65 2337.01,444.49 2330.08,463.96 Z" id="Path" fill="#301F14" fill-rule="nonzero"></path>
            <path d="M2299.48,335.87 C2298.00758,338.095361 2296.33388,340.180786 2294.48,342.1 C2293.78,341.4 2293.06,340.71 2292.32,340.02 C2293.72057,337.820256 2294.87422,335.472726 2295.76,333.02 C2302.41,315.02 2293.56,294.08 2284.63,277.36 C2273.63,256.7 2258.48,239.14 2242.86,221.87 C2215.22,191.41 2192.55,158.1 2168.05,125.21 C2143.79,92.69 2109.21,68.16 2071.14,54.29 C2032.14,40.1 1989.73,36.71 1948.75,42.63 C1904.75,49.01 1865.16,68.26 1825.92,88.13 C1825.69,88.25 1825.42,87.95 1825.62,87.78 C1861.12,59.08 1906.28,40.53 1951.4,31.55 C1955.92,30.65 1960.4,29.86 1964.92,29.14 C1966.92,28.82 1968.92,28.52 1971,28.25 C2060.32,15.87 2150.76,52.08 2198.85,129.7 C2212.27,151.38 2224.03,173.53 2240.05,193.52 C2253.8,210.68 2268.5,227.13 2281.35,244.99 C2298.31,268.55 2317.54,308.76 2299.48,335.87 Z" id="Path" fill="#301F14" fill-rule="nonzero"></path>
            <path d="M1959.36,38.76 C1956.93359,36.1027841 1954.25429,33.6880646 1951.36,31.55 C1930.48,16.04 1899.82,15 1875.09,14.08 C1842.7,12.89 1811.42,18.42 1779.27,21.08 C1751.64,23.39 1723.88,23.61 1696.27,26.63 C1671.84673,29.3793307 1647.58127,33.3846352 1623.57,38.63 C1577.06,48.63 1532.02,64.75 1489.08,85.12 C1404.7,125.18 1334.65,183.05 1275.17,254.12 C1272.27,257.573333 1269.39333,261.063333 1266.54,264.59 C1265.77,265.59 1264.3,264.32 1264.9,263.32 C1266.19,261.14 1267.48,258.98 1268.79,256.85 C1297,211.04 1334.48,171.18 1375.53,136.6 C1453.59,70.87 1548.64,26.94 1649.69,11.6 C1674.89,7.78 1700.69,6.86 1726.14,7.16 C1757.8374,7.46193923 1789.52771,6.03649292 1821.07,2.89 C1851.30158,-0.220175916 1881.79764,0.320379674 1911.9,4.5 C1932.07,7.43 1952.01,12.81 1964.83,29.06 C1965.7,30.15 1966.54,31.29 1967.34,32.48 C1970.65,37.43 1963.23,43.01 1959.36,38.76 Z" id="Path" fill="#301F14" fill-rule="nonzero"></path>
            <path d="M1961,395.63 C1942.54,400.27 1923.44,391.58 1905.63,381.19 C1893.9,374.34 1882.72,366.75 1872.63,361.77 C1839.17,345.15 1803.87,343.61 1767.71,338.87 C1766.47,338.73 1765.25,338.58 1764.01,338.4 C1759.79,337.83 1755.58,337.21 1751.34,336.54 L1751.34,336.54 C1738.47,334.54 1725.57,332.1 1712.82,329.1 C1694.09013,324.809673 1675.74752,318.976426 1657.98,311.66 C1657.55,311.51 1657.16,311.34 1656.76,311.17 C1629.76,299.76 1604.52,281.77 1592.57,254.17 C1582.17,230.17 1582.45,201.8 1599.39,180.94 C1599.74,180.55 1600.39,181.09 1600.11,181.51 C1575.18,217.51 1597.11,262.75 1630.11,284.38 C1664.39,306.88 1707.43,315.93 1747.46,321.51 C1786.78,326.99 1834.46,320.07 1869.4,342.1 C1872.62,344.1 1875.8,346.29 1878.92,348.52 C1889.14,355.74 1898.92,363.78 1908.67,371.52 C1924.67,384.19 1941.26,388.14 1960.98,390.96 C1963.45,391.26 1963.18,395.08 1961,395.63 Z" id="Path" fill="#301F14" fill-rule="nonzero"></path>
            <path d="M1772.19,338.87 C1770.71108,338.95 1769.22892,338.95 1767.75,338.87 C1762.23491,338.581609 1756.75653,337.801853 1751.38,336.54 L1751.38,336.54 C1743.38,334.78 1735.38,332.54 1727.92,331.31 C1722.91333,330.49 1717.89333,329.753333 1712.86,329.1 C1700.86,327.46 1688.86,326.25 1676.86,325.38 C1646.18781,323.141436 1615.38775,323.298579 1584.74,325.85 C1552.65681,328.554673 1520.99353,334.957124 1490.38,344.93 C1490.11,345.03 1489.84,345.1 1489.56,345.2 C1486.40667,346.22 1483.28333,347.286667 1480.19,348.4 C1483.12,343.61 1486.19,338.85 1489.54,334.21 C1492.69,333.07 1495.89,331.98 1499.06,330.94 C1524.12991,322.863101 1549.91348,317.197412 1576.06,314.02 C1603.25738,310.644376 1630.71349,309.854176 1658.06,311.66 C1665.06,312.11 1672.06,312.73 1679.06,313.52 C1694.90667,315.293333 1710.65667,317.683333 1726.31,320.69 C1741.31,323.59 1760.59,325.23 1773.78,333.22 C1774.92803,333.942068 1775.46381,335.333667 1775.09641,336.639185 C1774.72902,337.944703 1773.54612,338.852639 1772.19,338.87 L1772.19,338.87 Z" id="Path" fill="#301F14" fill-rule="nonzero"></path>
            <path d="M1499.01,330.94 C1495.62,335.53 1492.47,340.29 1489.51,345.2 C1484.39626,353.67844 1479.75258,362.431653 1475.6,371.42 C1460.47616,403.987267 1448.79609,438.04546 1440.75,473.04 C1432.47175,508.469065 1427.61942,544.612056 1426.26,580.97 C1425.47,603.91 1426.56,626.68 1427.55,649.48 C1427.73,654.06 1427.92,658.65 1428.07,663.24 C1424.33874,665.006372 1420.70365,666.969121 1417.18,669.12 C1416.09,664.53 1415.18,659.87 1414.41,655.18 C1409.82,627.87 1409.69,599.3 1411.28,572.26 C1413.40928,534.631606 1419.91993,497.379948 1430.68,461.26 C1441.24183,425.657328 1455.752,391.34745 1473.94,358.97 C1475.94,355.47 1478.00667,351.956667 1480.14,348.43 C1483.07,343.64 1486.14,338.88 1489.49,334.24 C1492.64,333.07 1495.84,331.98 1499.01,330.94 Z" id="Path" fill="#301F14" fill-rule="nonzero"></path>
            <path d="M1428.08,663.24 C1424.34874,665.006372 1420.71365,666.969121 1417.19,669.12 C1403.43,677.48 1391.77,688.44 1381.19,702.78 C1363.98,726.2 1351.08,752.99 1340.08,779.8 C1328.67,807.7 1319.39,836.3 1313.31,865.85 C1309.98699,882.104673 1307.5037,898.519766 1305.87,915.03 C1304.46,928.95 1304.98,943.19 1302.99,957.03 C1302.9,957.6 1301.99,957.57 1301.85,957.03 C1298.95,941.45 1300.29,924.26 1301.11,908.51 C1302.00603,892.083622 1303.85245,875.722907 1306.64,859.51 C1312.1,827.24 1320.8,795.29 1333.58,765.13 C1345.58,736.9 1359.72,708.7 1379.49,685.04 C1388.87,673.82 1400.85,662.64 1414.42,655.22 C1418.614,652.917121 1423.01291,651.008919 1427.56,649.52 C1427.73,654.06 1427.92,658.65 1428.08,663.24 Z" id="Path" fill="#301F14" fill-rule="nonzero"></path>
            <path d="M1225.02,1098.49 C1222.15,1100.15 1218.13,1097.37 1219.22,1094.02 C1224.22,1078.84 1224.43,1067.93 1218.87,1052.77 C1218.80286,1052.60027 1218.74609,1052.42661 1218.7,1052.25 C1217.20636,1048.19246 1215.94761,1044.05227 1214.93,1039.85 C1213.16152,1032.72964 1212.1889,1025.43497 1212.03,1018.1 C1211.38,990.71 1209.89,963.5 1202.97,936.86 C1194.84,905.56 1175.74,862.42 1146.15,841.17 C1140.35649,836.936229 1133.94892,833.614412 1127.15,831.32 C1117.1046,827.982436 1106.35702,827.351239 1095.99,829.49 C1095.71177,829.551445 1095.42937,829.405263 1095.31891,829.142608 C1095.20845,828.879952 1095.30148,828.575881 1095.54,828.42 C1119.88,814.28 1147.61,825.1 1166.44,842.98 C1188.44,863.87 1203.22,892.57 1212.44,921.14 C1217.32,936.3 1221.05,952.32 1221.86,968.27 C1222.73,985.19 1219.23,1001.33 1218.66,1018.13 C1218.33058,1025.46035 1219.1025,1032.79865 1220.95,1039.9 C1221.64076,1042.57883 1222.4923,1045.2136 1223.5,1047.79 C1223.85,1048.66 1224.2,1049.53 1224.57,1050.4 C1227.35,1056.87 1230.97,1063.2 1232.88,1069.99 C1235.94,1080.93 1235.57,1092.39 1225.02,1098.49 Z" id="Path" fill="#AF4B4B" fill-rule="nonzero"></path>
            <path d="M1223.51,1047.76 C1222.99618,1048.83057 1222.21846,1049.75282 1221.25,1050.44 C1220.41,1051.06 1219.57,1051.66 1218.7,1052.25 C1204.44,1061.93 1185.88,1066.81 1169.88,1057.76 C1157.95,1050.96 1150.09,1038.11 1153.26,1024.37 C1153.28249,1024.32733 1153.32676,1024.30062 1153.375,1024.30062 C1153.42324,1024.30062 1153.46751,1024.32733 1153.49,1024.37 C1159.07,1055.97 1193.87,1049.18 1214.93,1039.85 C1214.93,1039.85 1215,1039.85 1215.03,1039.85 C1216.90389,1038.92264 1219.10853,1038.94867 1220.96,1039.92 C1221.65268,1042.58191 1222.5042,1045.19993 1223.51,1047.76 L1223.51,1047.76 Z" id="Path" fill="#AF4B4B" fill-rule="nonzero"></path>
            <path d="M1147.88,841.56 C1147.29,841.41 1146.72,841.26 1146.15,841.17 C1110.33,833.35 1096.59,879.04 1094.65,906.65 C1092.54,937.18 1100.08,968.54 1108.07,997.78 C1108.19,998.15 1107.6,998.43 1107.45,998.05 C1091.63,962.29 1081.11,923.22 1089.64,884.05 C1093.88,864.53 1107.3,837.72 1127.2,831.32 C1134.39,829.01 1142.43,829.32 1151.2,833.7 C1155.7,835.91 1152.45,842.75 1147.88,841.56 Z" id="Path" fill="#AF4B4B" fill-rule="nonzero"></path>
            <path d="M2066.42,1232.01 C2061.92589,1239.27078 2055.41874,1245.0692 2047.69,1248.7 C2036.63,1253.7 2024.8,1251.51 2013.16,1253.47 C1990.39,1257.26 1971.49,1272.47 1948.08,1274.38 C1928.14824,1275.82769 1908.38017,1269.89442 1892.54,1257.71 C1882.96,1250.29 1873.61,1240.82 1862.95,1234.99 C1852.95,1229.5 1841.27,1227.99 1830.03,1227.07 C1798.83,1224.62 1751.35,1231.07 1735.48,1195.72 C1718.31,1157.57 1755.34,1117.81 1788.31,1104.14 C1788.43,1104.09 1788.51,1104.27 1788.43,1104.34 C1773.77,1120.34 1754.23,1131.11 1744.8,1151.62 C1734.73,1173.57 1740.06,1199.34 1763.23,1209.56 C1794.29,1223.28 1827.23,1207.68 1859.08,1215.17 C1866.76579,1216.93524 1874.06299,1220.09409 1880.61,1224.49 C1887.95,1229.49 1892.24,1236.67 1898.42,1242.9 C1911.49195,1256.03301 1929.58604,1262.90118 1948.08,1261.75 C1967.08,1260.58 1984.08,1250.22 2002.22,1245.38 C2021.32,1240.29 2045.78,1245.85 2058.6,1227.45 C2071.42,1209.05 2066.02,1184.06 2056.69,1165.53 C2049.18,1150.53 2037.12,1141.25 2026.69,1129.17 C2025.87,1128.25 2025.07,1127.29 2024.28,1126.32 C2022.92,1124.66 2024.06,1121.51 2026.46,1122.18 C2026.51963,1122.17063 2026.58037,1122.17063 2026.64,1122.18 C2045.51,1128.71 2059.82,1151.03 2067.24,1168.54 C2075.79,1188.68 2078.79,1212.81 2066.42,1232.01 Z" id="Path" fill="#AF4B4B" fill-rule="nonzero"></path>
            <path d="M2026.71,1129.17 C2026.57301,1141.32084 2025.08384,1153.41867 2022.27,1165.24 C2022.27,1165.36 2022.02,1165.34 2022.04,1165.24 C2023.04,1150.18 2020.98,1136.24 2017.83,1121.51 C2014.97,1108.24 2009.69,1095.59 2007.04,1082.34 C2006.56,1079.99 2009.66,1077.51 2011.5,1079.74 C2021.35,1091.74 2025.56,1106.74 2026.5,1122.21 C2026.66,1124.49 2026.71,1126.84 2026.71,1129.17 Z" id="Path" fill="#AF4B4B" fill-rule="nonzero"></path>
            <path d="M1986.7,891.69 C1985.26,899.36 1988.26,905.63 1989.77,913.15 C1992.45,926.34 1993.96,939.69 1992,953.06 C1991.71,955.12 1988.73,954.77 1988.21,953.06 C1984.93,942.39 1983.15,931.48 1980.35,920.71 C1978.35,913.1 1974.64,904.54 1974.81,896.58 C1975.11,884.75 1987.74,872.42 1998.81,870.04 C1998.99258,869.995136 1999.18434,870.063403 1999.2975,870.213554 C1999.41065,870.363705 1999.42344,870.566846 1999.33,870.73 C1995.08,878.22 1988.41,882.71 1986.7,891.69 Z" id="Path" fill="#AF4B4B" fill-rule="nonzero"></path>
            <path d="M1138.58,2181.3 C1255.21,2247.94 1384.14,2297.5 1517.7,2316.01 C1642.28,2333.27 1768.37,2319.48 1884.78,2271.07 C1948.12,2244.72 2008.27,2210.96 2058.47,2163.77 C2061.28,2161.13 2057.23,2157.44 2054.36,2159.66 C2005.86,2197.27 1953.36,2229.66 1896.58,2253.2 C1840.9,2276.2 1781.44,2289.92 1721.8,2297.51 C1595.8,2313.56 1467.68,2301.67 1346.14,2264.88 C1274.76,2243.28 1205.57,2214.16 1139.14,2180.3 C1138.47,2179.96 1137.9,2180.93 1138.55,2181.3 L1138.58,2181.3 Z" id="Path" fill="#530E24" fill-rule="nonzero"></path>
            <path d="M2309.65,499.33 C2308.76,496.9 2307.84,494.5 2306.92,492.12 C2306.8,491.8 2306.67,491.5 2306.55,491.18 C2306.1,490.46 2305.64,489.74 2305.19,489.01 C2299.96,485.9 2294.86,482.43 2289.97,478.9 C2291.43,482.24 2292.89,485.57 2294.32,488.9 C2311.32,528.73 2322.52,569.46 2326.47,612.75 C2330.39635,654.773274 2326.58674,697.160322 2315.23,737.81 C2310.17,756.04 2303.33,775.39 2299.11,794.96 C2295.11,813.34 2293.53,831.89 2297.82,849.9 C2298.49,852.73 2302.41,851.9 2302.61,849.26 C2303.08,843.4 2303.61,837.62 2304.24,831.89 C2305.85815,815.84293 2308.6862,799.941021 2312.7,784.32 C2318.11,763.8 2325.05,743.71 2330.04,723.1 C2339.59,683.49 2340.95,642.59 2335.65,602.25 C2331.08,567.67 2321.85,532.49 2309.65,499.33 Z" id="Path" fill="#301F14" fill-rule="nonzero"></path>
            <path d="M2231.19,977.74 C2222.71,974.32 2218.42,967.2 2212.69,960.28 C2205.7091,951.659945 2197.2424,944.358263 2187.69,938.72 C2170.31982,928.710746 2150.50863,923.728518 2130.47,924.33 C2108.89,924.93 2089.09,934.95 2069.7,943.46 C2058.78,948.22 2038.89,958.81 2027.16,952.36 C2026.95143,952.22166 2026.81442,951.99843 2026.78552,951.749824 C2026.75661,951.501218 2026.83873,951.252507 2027.01,951.07 C2032.91,944.07 2044.42,942.37 2052.58,938.77 C2061.93,934.63 2071.21,930.36 2080.66,926.49 C2098.84809,918.96389 2118.5147,915.690682 2138.16,916.92 C2156.14325,918.099495 2173.64687,923.220508 2189.43,931.92 C2197.72678,936.594581 2205.52978,942.095879 2212.72,948.34 C2220.66,955.14 2231.42,961.91 2236.06,971.34 C2237.49,974.39 2234.99,979.28 2231.19,977.74 Z" id="Path" fill="#1F1D34" fill-rule="nonzero"></path>
            <path d="M1771.08,915.06004 C1754.41,914.51 1741.95,900.42 1730.79,889.61 C1713.7,873.06 1695.79,862.27 1671.24,862.87 C1648.17,863.46 1625.65,870.56 1603.74,877.21 C1591.74,880.85 1579.58,883.78 1567.41,886.83 C1557.48,889.31 1547.07,893.97 1536.9,891.37 C1533.5,890.48 1532.16,885.84 1534.79,883.37 C1543.4,875.37 1557.01,874.46 1568.1,871.61 C1581.1,868.31 1593.95,865.16 1607.02,862.48 C1628.87,857.97 1650.72,852.61 1673.2,853.11 C1693.74,853.55 1712.26,858.31 1728.31,871.59 C1743.72,884.33 1756.74,899.59 1772.14,912.44 C1772.59114,912.870195 1772.73389,913.532239 1772.50009,914.110113 C1772.26629,914.687987 1771.70336,915.064529 1771.08,915.06004 Z" id="Path" fill="#1F1D34" fill-rule="nonzero"></path>
            <path d="M1669.17,840.1 C1637.62,842.65 1607.43,843.37 1576.97,853.27 C1562.74,857.88 1549.05,863.84 1534.97,868.72 C1522.97,872.87 1509.52,879.64 1496.67,879.91 C1496.58053,879.899695 1496.50437,879.84017 1496.47274,879.755846 C1496.44112,879.671522 1496.45937,879.576592 1496.52,879.51 C1504.96,869.1 1519.99,863.51 1532.17,858.63 C1546.65,852.8 1562.36,849.95 1577.73,847.44 C1607.33,842.6 1639.13,836.44 1669.21,838.68 C1669.60212,838.691046 1669.91105,839.017878 1669.90029,839.41 C1669.88895,839.802122 1669.56212,840.111046 1669.17,840.1 Z" id="Path" fill="#AF4B4B" fill-rule="nonzero"></path>
            <path d="M1764.75,881 C1756.31,869.64 1749.04,863.34 1736.15,857.76 C1725.45,853.15 1714.15,849.13 1703.9,843.6 C1703.8,843.55 1703.9,843.4 1703.9,843.37 C1715.11,842.73 1734.9,841.02 1744.73,848.18 C1754.28,855.13 1760.73,870.18 1765.89,880.28 C1765.98004,880.580852 1765.8587,880.904847 1765.59318,881.07254 C1765.32767,881.240233 1764.98297,881.210578 1764.75,881 Z" id="Path" fill="#AF4B4B" fill-rule="nonzero"></path>
            <path d="M2166.93,906.97 C2145.72,906.8 2125.38,900.57 2103.93,902.9 C2082.6,905.24 2061.93,912.06 2041.44,918.03 C2041.32,918.08 2041.27,917.91 2041.37,917.84 C2058.63,905.56 2077.37,893.25 2099.29,892.63 C2110.5,892.34 2121.66,894.57 2132.63,896.68 C2144.01,898.89 2156.51,900.42 2167.23,904.91 C2168.22,905.33 2168.19,906.97 2166.93,906.97 Z" id="Path" fill="#AF4B4B" fill-rule="nonzero"></path>
            <path d="M1937.38,1492.58 C1915.9,1509 1879.19,1512.25 1853.1,1510.22 C1824.1,1507.93 1795.1,1497.1 1768.52,1485.81 C1768.27,1485.71 1768.44,1485.31 1768.69,1485.39 C1797.36,1493.08 1825.69,1496.39 1855.26,1497.74 C1868.78,1498.36 1882.17,1498.88 1895.66,1497.42 C1909.58,1495.9 1922.72,1491.17 1936.52,1489.33 C1938.45,1489.08 1938.55,1491.69 1937.38,1492.58 Z" id="Path" fill="#AF4B4B" fill-rule="nonzero"></path>
            <path d="M2233.13,1363.23 C2207.85652,1444.74316 2173.47618,1523.14804 2130.64,1596.96 C2117.71,1619.13 2103.5,1640.61 2088.47,1661.5 L2088.47,1661.5 C2085.67,1665.4 2082.83333,1669.28 2079.96,1673.14 C2072.36667,1683.40667 2064.60333,1693.54333 2056.67,1703.55 C2030.55,1736.55 2003.09,1770.55 1968.22,1794.73 C1930.22,1821.12 1886.51,1828.89 1840.97,1828.31 C1796.1,1827.74 1750.26,1818.79 1706.75,1808.22 C1621.25,1787.49 1544.31,1733.78 1480.75,1674.1 C1420.19,1617.2 1357.08,1556.63 1323.08,1479.29 C1305.08,1438.49 1299.14,1395.49 1297.13,1351.29 C1295.22,1310.07 1295.79,1267.85 1285.25,1227.67 C1282.69317,1217.84679 1279.52022,1208.19435 1275.75,1198.77 C1273.75,1193.77 1271.63,1188.9 1269.28,1184.09 C1266.64366,1185.94517 1263.90974,1187.65763 1261.09,1189.22 C1263.6,1195.37 1265.78,1201.62 1267.71,1207.92 C1290.63,1282.46 1278.06,1365.73 1301.15,1440.62 C1326.47,1522.69 1387.3,1587.19 1444.15,1648.9 C1474.59,1681.9 1503.96,1716.39 1536.33,1747.52 C1568.59206,1778.76994 1606.78665,1803.24127 1648.66,1819.49 C1692.51,1836.58 1739.47,1844.77 1786.42,1845.49 C1831.74,1846.19 1878,1847.18 1921.53,1832.65 C1962.53,1818.95 1994.96,1792.26 2023.83,1760.89 C2044.01035,1738.80939 2063.05814,1715.71974 2080.9,1691.71 C2083.92667,1687.71 2086.92667,1683.67333 2089.9,1679.6 C2094.88,1672.78 2099.78333,1665.91667 2104.61,1659.01 C2155.73,1586.09 2201.44,1509.01 2233.24,1425.65 C2248.81341,1384.8624 2261.45881,1343.0163 2271.08,1300.43 C2262.41333,1307.53 2253.69667,1314.58667 2244.93,1321.6 C2241.33,1335.52667 2237.39667,1349.40333 2233.13,1363.23 Z" id="Path" fill="#883D3A" fill-rule="nonzero"></path>
            <path d="M2299.08,794.98 C2294.96,770.65 2289.75,746.44 2285.58,722.3 C2277.25,674.11 2275.09,624.94 2265.84,576.92 C2252.52,507.54 2223.3,435.61 2164.34,394.29 C2157.69397,389.618769 2150.74165,385.39927 2143.53,381.66 C2138.41667,381.913333 2133.30667,382.226667 2128.2,382.6 C2135.16884,386.367529 2141.85328,390.638886 2148.2,395.38 C2193.27,428.84 2221.54,483.93 2237.07,537.76 C2250.07,582.76 2257.07,629.91 2264.61,676.09 C2272.06,722 2285.09,766.91 2292.02,812.81 C2295.39533,812.051899 2298.5504,810.525695 2301.24,808.35 C2300.57333,803.89 2299.85333,799.433333 2299.08,794.98 Z" id="Path" fill="#301F14" fill-rule="nonzero"></path>
            <path d="M2301.24,808.35 C2298.5504,810.525695 2295.39533,812.051899 2292.02,812.81 L2292.14,813.56 C2299.8,864.93 2293.28,914.76 2285.32,965.63 C2277.78,1013.63 2276.21,1060.98 2274.75,1109.48 C2272.70677,1181.07306 2262.70867,1252.2169 2244.94,1321.6 C2253.69333,1314.58667 2262.41,1307.53 2271.09,1300.43 C2280.95066,1257.16273 2287.13602,1213.13932 2289.58,1168.83 C2292.19,1118.88 2288.37,1068.92 2290.85,1018.96 C2293.33,968.61 2305.61,919.15 2306.08,868.67 C2306.1377,856.392276 2305.52344,844.120594 2304.24,831.91 C2303.45,824.04 2302.41,816.19 2301.24,808.35 Z" id="Path" fill="#AF4B4B" fill-rule="nonzero"></path>
            <path d="M2106.67,784.35 C2093.25,789.35 2079.99,796.94 2072.77,809.35 C2065.55,821.76 2066.54,839.67 2078.03,848.22 C2083.75,852.48 2091.03,853.88 2098.18,854.62 C2122.06,857.09 2146.09,853.34 2169.93,850.45 C2193.77,847.56 2218.25,845.56 2241.54,851.45 C2264.83,857.34 2287.03,872.34 2295.64,894.76 C2301.64,886.32 2307.19,877.43 2310.64,867.67 C2319.55,842.52 2312.78,812.52 2293.92,793.67 C2270.92,770.67 2243.55,774.17 2214.1,774.52 C2177.36,774.87 2142.08,771.18 2106.67,784.35 Z" id="Path" fill="#663E29" fill-rule="nonzero"></path>
            <path d="M1798.63,827.61 C1806.14,829.22 1814.07,830.53 1821.41,828.25 C1841.28,822.09 1844.32,792.6 1831.68,776.08 C1818.61,759 1791.95,748.66 1769.51,741.48 C1727.4147,746.578345 1686.8192,760.286051 1650.25,781.75 C1700.84,792.86 1747.98,816.73 1798.63,827.61 Z" id="Path" fill="#4D301F" fill-rule="nonzero"></path>
            <path d="M2293.93,793.58 C2270.93,770.58 2243.56,774.08 2214.11,774.43 C2192.28,774.7 2170.96,773.52 2149.83,775.27 C2159.49633,779.197552 2168.36235,784.860825 2175.99,791.98 C2188.86,804.15 2197.18,820.26 2204.94,836.18 C2206.79,839.97 2208.56,843.81 2210.38,847.62 C2220.87809,847.648402 2231.33648,848.91039 2241.54,851.38 C2264.83,857.23 2287.03,872.27 2295.64,894.69 C2301.64,886.25 2307.19,877.36 2310.64,867.6 C2319.56,842.49 2312.79,812.49 2293.93,793.58 Z" id="Path" fill="#4D301F" fill-rule="nonzero"></path>
            <path d="M2175.53,1799.07 C2213.53,1813.82 2252.45,1826.65 2290.75,1840.74 C2450.19,1899.28 2607.71333,1962.70333 2763.32,2031.01 C2831.83,2061.1 2901.91,2091.16 2962.32,2136.01 C3022.52,2180.74 3064.02,2241.38 3093.39,2309.77 C3123.97,2380.98 3142.13,2458.62 3159.12,2534.05 C3173.9,2599.72333 3185.63,2665.98333 3194.31,2732.83 L3236.08,2732.83 C3219.08,2607.23 3191.9,2483.26 3146.71,2364.46 C3121.06,2297 3088.22,2232.26 3040.35,2177.69 C2991.85,2122.35 2927.66,2084.74 2861.75,2053.79 C2789,2019.63 2714.41,1988.92 2640.15,1958.24 C2562.43667,1926.08667 2484.27,1895.08667 2405.65,1865.24 C2366.71,1850.43333 2327.66667,1835.92333 2288.52,1821.71 C2250.52,1807.92 2211.83,1795.71 2174.4,1780.61 C2171.79,1779.54 2169.24,1778.45 2166.71,1777.33 C2162.47667,1775.43 2158.37667,1773.40667 2154.41,1771.26 C2153.99,1777.26 2153.5,1783.23667 2152.94,1789.19 C2157.60667,1791.51 2162.38667,1793.68333 2167.28,1795.71 C2170.08,1796.91 2172.78,1798 2175.53,1799.07 Z" id="Path" fill="#530E24" fill-rule="nonzero"></path>
            <path d="M57.39,2732.85 C58.4766667,2724.95667 59.5733333,2717.06333 60.68,2709.17 C71.24,2633.44 83.79,2557.51 105.8,2484.17 C126.8,2414.24 157.09,2345.17 203.33,2288.17 C248.92,2231.83 306.76,2185.49 368.18,2147.49 C430.71,2108.77 496.99,2077.05 563.69,2046.29 C643.41,2009.53 723.33,1973.07 802.21,1934.6 C875.43,1898.83 947.88,1861.49 1020.08,1823.72 L1027.98,1819.59 C1027.61,1815.43 1027.31,1811.25 1027.16,1807.08 C1024.7,1808.31 1022.25,1809.56 1019.79,1810.8 C950.01,1845.84667 879.676667,1879.78 808.79,1912.6 C728.73,1949.8 648.71,1986.91 567.52,2021.69 C499.9,2050.69 431.64,2078.91 366.52,2113.21 C302.03,2147.15 241.18,2186.76 189.34,2238.35 C135.22,2292.28 95.28,2358.35 67.8,2429.3 C40.14,2500.64 24.44,2575.67 12.29,2651 C7.88,2678.23 3.86,2705.53 0.03,2732.85 L57.39,2732.85 Z" id="Path" fill="#530E24" fill-rule="nonzero"></path>
            <path d="M1256.08,1463.73 C1250.55,1380.09 1236.34,1298.54 1208.96,1219.33 C1208.24,1217.2 1207.49,1215.04 1206.72,1212.91 C1205.19333,1208.59 1203.62333,1204.30667 1202.01,1200.06 C1198.83063,1199.4739 1195.69114,1198.68903 1192.61,1197.71 C1194.12,1203.91 1195.61,1210.13 1197.1,1216.33 C1212.63,1281.22 1227.41,1346.21 1235.6,1412.61 C1240.85285,1455.88278 1243.62737,1499.42048 1243.91,1543.01 C1244.25,1583.76 1245.39,1628.01 1227.51,1665.67 C1211.88,1698.61 1182.14,1722.25 1151.83,1741.07 C1118.83,1761.56 1083.57,1778.45 1048.99,1796.07 C1043.24333,1799.00333 1037.49,1801.91333 1031.73,1804.8 L1027.17,1807.11 C1027.32,1811.28 1027.62,1815.46 1027.99,1819.62 L1033.46,1816.76 L1039.71,1813.48 C1075.71,1794.63 1112.29,1776.48 1147.04,1755.39 C1174.87,1738.52 1202.04,1718.7 1221.8,1692.56 C1244.25,1662.94 1253.95,1629.21 1256.73,1592.47 C1259.95,1549.71 1258.88,1506.49 1256.08,1463.73 Z" id="Path" fill="#AF4B4B" fill-rule="nonzero"></path>
            <path d="M2167.30051,1795.74 C2167.47,1893.27 2125.13,1986.24 2060.61,2060.31 C1986.75,2145.11 1884.13,2196.73 1774.37,2217.22 C1655.88,2239.35 1535.06,2226.72 1418.85,2198.22 C1307.28,2170.86 1195.11,2124.87 1115.69,2039.02 C1077.59,1997.85 1047.69,1948.64 1031.82,1894.69 C1025.05255,1871.58385 1021.1039,1847.74416 1020.06,1823.69 C1019.92,1820.99 1019.84,1818.31 1019.79,1815.6 C1019.79,1813.99 1019.74,1812.38 1019.79,1810.77 C1023.79,1808.77 1027.79,1806.77 1031.72,1804.77 C1032.21,1808.77 1032.78,1812.77 1033.45,1816.77 C1038.84,1849.68 1049.45,1881.98 1062.82,1911.32 C1087.71942,1965.95013 1124.44002,2014.369 1170.33,2053.08 C1254.88,2124.71 1360.97,2168.84 1468.65,2191.74 C1579.97,2215.42 1697.74,2220.41 1808.65,2191.84 C1910.65,2165.57 2004.73,2109.43 2067.86,2023.84 C2118.58,1955.09 2148.37,1869.24 2142.57,1783.79 C2142.09667,1776.82333 2141.38333,1769.86 2140.43,1762.9 C2148.75191,1768.5023 2157.55284,1773.35787 2166.73,1777.41 C2167.08,1783.49 2167.27,1789.64 2167.30051,1795.74 Z" id="Path" fill="#530E24" fill-rule="nonzero"></path>
            <path d="M1607.34,1380.58 C1616.51,1390.64 1629.08,1393.78 1642.02,1396.31 C1656.55,1399.16 1671.41,1400.74 1686.02,1402.86 C1700.39,1404.93 1714.78,1406.29 1729.24,1407.66 C1744.52,1409.11 1759.67,1411.41 1774.87,1413.56 C1789.87,1415.69 1804.95,1418.03 1820.02,1419.96 C1834.02,1421.75 1848.42,1423.53 1862.52,1423.76 C1877.52,1424.01 1892.52,1425.63 1907.52,1425.51 C1922.52,1425.39 1937.7,1424.36 1952.8,1424.3 C1986.7,1424.19 2020.5,1425.87 2054.24,1428.96 C2060.55,1429.54 2065.24,1422.82 2064.46,1417.17 C2063.58,1410.62 2057.65,1407.4 2051.46,1408.52 C2022.09,1413.86 1992.46,1416.37 1962.72,1418.41 C1934.13,1420.41 1904.82,1423.16 1876.21,1420.3 C1861.49,1418.83 1846.87,1414.93 1832.33,1412.09 C1817.79,1409.25 1803.07,1407.19 1788.4,1404.94 C1773.73,1402.69 1759,1400.65 1744.4,1398.18 C1730.14,1395.76 1716.11,1392.07 1701.85,1389.71 C1671.65,1384.71 1640.57,1382.53 1611.09,1374 C1607.17,1372.87 1604.69,1377.77 1607.26,1380.58 L1607.34,1380.58 Z" id="Path" fill="#AF4B4B" fill-rule="nonzero"></path>
        </g>
    </g>
</svg>