<?xml version="1.0" encoding="iso-8859-1"?>
<!-- Generator: Adobe Illustrator 23.0.1, SVG Export Plug-In . SVG Version: 6.00 Build 0)  -->
<svg version="1.1" xmlns="http://www.w3.org/2000/svg" xmlns:xlink="http://www.w3.org/1999/xlink" x="0px" y="0px" width="600px"
	 height="600px" viewBox="0 0 600 600" enable-background="new 0 0 600 600" xml:space="preserve">
<g id="Layer_3">
	<path fill-rule="evenodd" clip-rule="evenodd" fill="#202C46" d="M525.296,600.489c-108.927,0-218.815,0-327.742,0
		c0.253-0.663,7.248-15.602,7.389-23.158c0.052-2.771,0.679-5.546,1.19-8.291c0.334-1.796,1.442-3.096,3.001-4.151
		c18.159-12.303,36.362-24.544,54.404-37.018c19.955-13.796,39.758-27.811,58.723-42.966c19.464-15.553,38.301-31.835,56.772-48.547
		c0.69-0.624,1.408-1.219,2.248-1.943c6.175,10.905,11.847,21.76,18.904,31.894c-0.317,0.712-0.618,1.45-0.97,2.164
		c-10.073,20.494-21.175,40.405-33.723,59.495c-8.853,13.467-18.352,26.442-29.445,38.183c-5.79,6.126-11.975,11.802-19.011,16.493
		c-0.789,0.527-1.61,1.005-2.533,1.577c-17.456-11.586-30.962-27.017-43.469-43.31c-9.713,3.359-30.044,13.603-32.219,16.204
		c5.242-2.718,10.422-5.533,15.716-8.114c5.303-2.585,10.719-4.938,16.135-7.414c12.78,16.592,26.332,31.988,43.831,43.447
		c0.959-0.585,1.789-1.062,2.588-1.585c6.326-4.148,11.959-9.132,17.248-14.507c9.35-9.504,17.537-19.965,25.158-30.877
		c15.16-21.704,28.174-44.665,39.898-68.375c0.449-0.912,0.915-1.816,1.474-2.924c0.876,0.782,1.522,1.362,2.173,1.939
		c15.329,13.609,30.591,27.296,46.011,40.802c11.928,10.447,24.09,20.616,37.259,29.512c2.913,1.968,5.659,4.2,8.368,6.447
		c7.733,6.414,13.956,14.074,18.708,22.935c3.567,6.653,6.359,13.624,8.587,20.825C523.125,592.965,524.19,596.733,525.296,600.489z
		"/>
	<path fill-rule="evenodd" clip-rule="evenodd" fill="#202C46" d="M197.554,600.489c-42.45,0-84.899,0-127.349,0
		c0.001-0.319-0.049-0.648,0.009-0.955c2.45-12.914,5.588-25.635,10.619-37.825c3.256-7.892,7.962-14.791,14.287-20.527
		c2.724-2.471,5.533-4.881,8.51-7.033c6.229-4.499,12.601-8.799,18.902-13.197c23.699-16.542,47.393-33.092,71.092-49.633
		c0.68-0.475,1.398-0.893,2.254-1.435c-0.067,0.449-0.044,0.625-0.118,0.734c-0.54,0.794-1.095,1.577-1.654,2.356
		c-8.597,11.981-16.675,24.287-23.245,37.52c-3.709,7.47-6.925,15.138-8.555,23.372c-0.443,2.236-0.975,4.479-0.666,7.121
		c11.296-6.935,22.199-14.031,33.605-20.199c0.272,0.349,0.407,0.459,0.459,0.6c0.222,0.599,0.423,1.206,0.625,1.812
		c2.171,6.499,5.131,12.592,9.303,18.058c4.309,5.646,9.552,10.104,16.262,12.68c0.365,0.14,0.696,0.368,1.241,0.662
		c-0.687,0.518-1.23,0.968-1.812,1.358c-4.059,2.714-8.077,5.494-12.211,8.09c-2.128,1.337-3.444,3.114-3.854,5.511
		c-0.432,2.517-0.681,5.065-0.982,7.604c-0.282,2.381-0.384,4.792-0.817,7.143C202.407,590.021,200.066,595.291,197.554,600.489z"/>
	<path fill-rule="evenodd" clip-rule="evenodd" fill="#FAC3AF" d="M177.906,290.603c0.308-13.208,2.262-26.046,5.845-38.676
		c1.546-5.452,2.552-11.065,3.642-16.636c2.532-12.954,5.107-25.902,7.399-38.9c2.056-11.659,3.748-23.383,5.616-35.076
		c0.643-4.03,1.169-8.087,2.052-12.065c0.567-2.555,1.489-5.081,2.597-7.457c11.503-24.668,30.381-39.902,57.412-44.578
		c9.204-1.593,18.475-1.676,27.772-0.997c23.191,1.693,45.478,7.211,66.918,16.098c5.378,2.229,10.512,5.077,15.654,7.833
		c5.01,2.684,8.611,6.786,11.266,11.815c4.243,8.038,7.328,16.523,9.986,25.176c3.104,10.108,5.681,20.353,7.04,30.852
		c0.47,3.635,0.417,7.339,0.584,11.012c0.197,4.309,0.239,8.63,0.615,12.922c0.172,1.958,0.82,3.923,1.536,5.776
		c4.138,10.718,6.743,21.852,9.044,33.064c2.078,10.129,3.77,20.333,3.41,30.717c-0.264,7.593-0.84,15.178-1.426,22.756
		c-0.728,9.429-2.263,18.744-4.413,27.953c-2.871,12.284-7.05,24.087-12.845,35.323c-7.896,15.315-18.8,27.941-32.912,37.87
		c-14.084,9.908-29.225,17.828-45.031,24.546c-8.251,3.507-16.649,6.606-25.23,9.238c-4.18,1.282-8.297,1.467-12.55,0.73
		c-12.631-2.188-25.068-5.161-37.289-9.036c-6.64-2.105-12.271-5.757-16.94-10.94c-4.841-5.374-8.912-11.311-12.929-17.299
		c-14.367-21.413-24.772-44.572-30.87-69.649C180.464,319.015,178.213,304.898,177.906,290.603z"/>
	<g>
		<path fill="#ED9D8F" d="M214.729,402.625c4.018,5.987,8.088,11.925,12.929,17.299c4.668,5.183,10.3,8.834,16.94,10.94
			c12.22,3.875,24.658,6.849,37.289,9.036c4.253,0.736,8.37,0.552,12.55-0.73c8.581-2.632,16.979-5.731,25.23-9.238
			c10.322-4.387,20.353-9.301,29.999-14.933c-69.131,28.994-112.549-1.927-118.144-8.591c-5.673-6.758-19.606-30.035-27.866-73.586
			c-8.26-43.551,8.437-59.736,8.437-59.736s36.282-2.002,37.617-0.668c1.334,1.335,9.261,15.852,9.261,15.852l11.192-37.168
			c9.272-11.806,20.095-2.878,20.095-2.878s23.027,29.869,59.069,25.197c36.042-4.672,24.428-22.318,24.428-22.318l-8.409-9.873
			l-9.167-4.659c0.49-4.929,5.401-7.876,8.091-9.137c-2.104-0.335-4.216-0.627-6.334-0.886l-36.86-0.735
			c-0.081,0.006-0.162,0.012-0.244,0.019l-23.802,4.047c-27.77-4.329-42.563-23.62-42.563-23.62
			c-23.491-66.19,12.303-96.889,38.035-109.851c-0.753-0.064-1.504-0.133-2.259-0.189c-9.297-0.679-18.568-0.596-27.772,0.997
			c-27.03,4.676-45.909,19.91-57.412,44.578c-1.108,2.377-2.029,4.903-2.597,7.457c-0.884,3.978-1.409,8.035-2.052,12.065
			c-1.867,11.693-3.56,23.417-5.616,35.076c-2.292,12.998-4.867,25.946-7.399,38.9c-1.09,5.571-2.096,11.185-3.642,16.636
			c-3.583,12.63-5.537,25.468-5.845,38.676c0.308,14.296,2.558,28.412,5.954,42.373
			C189.957,358.053,200.362,381.212,214.729,402.625z M204.68,202.082c3.833-1.329,7.842-2.228,11.834-3.006
			c7.779-1.516,15.628-2.521,23.576-2.674c3.579-0.069,6.647,1.071,9.129,3.548c3.891,3.885,7.272,8.149,8.144,13.808
			c0.51,3.313,0.333,6.652,0.048,10.247c-0.714-0.27-1.154-0.389-1.55-0.594c-8.707-4.5-18.08-6.809-27.674-8.347
			c-10.059-1.612-20.19-2.26-30.376-2.047c-0.388,0.008-0.777-0.059-1.539-0.121C197.288,207.611,199.813,203.769,204.68,202.082z"
			/>
		<path fill="#ED9D8F" d="M364.698,405.385c5.047-3.551,9.677-7.453,13.912-11.693l-22.847,17.607
			C358.782,409.402,361.769,407.445,364.698,405.385z"/>
	</g>
	<g>
		<path fill-rule="evenodd" clip-rule="evenodd" fill="#ED9D8F" d="M326.57,348.15c10.374,12.026,8.242,38.137,8.2,38.644
			c0.492-0.661,0.857-1.303,1.04-1.912c7.342-24.528-1.836-37.877-1.836-37.877s-13.604-2.997-20.014-3.839
			C319.939,344.168,324.501,345.752,326.57,348.15z"/>
		<path fill-rule="evenodd" clip-rule="evenodd" fill="#ED9D8F" d="M196.755,370.401l-0.279,0.383c0,0,0.28,0.257,0.78,0.711
			C197.089,371.131,196.921,370.766,196.755,370.401z"/>
		<path fill-rule="evenodd" clip-rule="evenodd" fill="#ED9D8F" d="M236.657,392.081L236.657,392.081
			c-13.554-28.093,5.203-47.404,5.203-47.404s9.078-1.06,21.329-1.919c-16.57-2.352-31.667-7.601-31.667-7.601
			c-8.667,2.339-9.752,23.476-8.51,30.202C224.448,373.137,232.318,385.632,236.657,392.081z"/>
	</g>
	<path fill-rule="evenodd" clip-rule="evenodd" fill="#DA8D61" d="M417.139,284.539c-0.032-0.368-0.103-0.737-0.092-1.103
		c0.338-11.118-1.318-22.03-3.478-32.877c-1.827-9.184-4.062-18.273-6.956-27.186c-0.814-2.509-1.819-4.955-2.665-7.455
		c-1.428-4.226-1.917-8.62-1.663-13.029c0.602-10.431-1.015-20.586-3.426-30.662c-3.041-12.706-6.773-25.184-12.374-37.037
		c-0.103-0.217-0.207-0.433-0.303-0.653c-3.22-7.412-8.498-12.797-15.622-16.632c-10.411-5.604-21.363-9.81-32.623-13.278
		c-13.413-4.132-27.089-7.084-41.051-8.557c-12.222-1.289-24.473-1.617-36.597,0.831c-28.018,5.658-46.913,22.262-57.415,48.598
		c-1.312,3.291-1.752,6.969-2.318,10.512c-3.254,20.381-6.158,40.82-10.193,61.069c-1.922,9.649-3.931,19.28-5.911,28.917
		c-0.122,0.596-0.336,1.172-0.858,1.788c-0.307-1.296-0.651-2.585-0.915-3.891c-2.532-12.521-2.78-25.148-1.131-37.761
		c2.005-15.329,1.905-30.654,0.807-46.016c-0.04-0.559-0.093-1.118-0.105-1.678c-0.266-12.173-1.162-9.169,4.254-19.96
		c9.252-18.436,20.844-35.27,35.471-49.903c10.047-10.051,21.306-18.416,34.396-24.146c11.383-4.983,23.252-7.539,35.721-7.048
		c5.545,0.218,10.987,1.037,16.277,2.748c0.923,0.298,1.763,0.511,2.768,0.095c7.958-3.293,16.203-3.418,24.549-2.032
		c12.746,2.115,24.355,7.238,35.345,13.804c19.907,11.896,36.952,26.983,50.182,46.14c8.951,12.962,14.992,27.316,19.555,42.328
		c4.342,14.287,7.234,28.873,8.436,43.749c0.353,4.354,0.029,8.807-0.41,13.171c-0.984,9.794-2.503,19.513-4.621,29.141
		c-1.228,5.581-3.365,10.64-7.081,15.027c-6.261,7.392-12.464,14.833-18.688,22.255c-0.258,0.308-0.478,0.647-0.718,0.972
		C417.504,284.699,417.321,284.618,417.139,284.539z"/>
	<path fill-rule="evenodd" clip-rule="evenodd" fill="#FAC3AF" d="M219.915,411.651c0.657,0.79,1.141,1.383,1.636,1.966
		c2.329,2.744,4.571,5.568,7.013,8.209c4.048,4.378,9.023,7.432,14.659,9.285c13.168,4.328,26.61,7.573,40.313,9.684
		c3.351,0.517,6.659,0.292,9.97-0.673c14.566-4.245,28.511-10.032,42.092-16.729c12.23-6.031,23.936-12.932,34.679-21.384
		c8.112-6.382,15.229-13.693,20.902-22.355c0.262-0.399,0.543-0.789,0.842-1.162c0.092-0.114,0.267-0.161,0.607-0.355
		c-0.185,0.817-0.302,1.491-0.49,2.143c-4.148,14.303-7.52,28.78-9.837,43.496c-0.41,2.607-0.844,5.222-1.025,7.85
		c-0.104,1.52-0.754,2.492-1.83,3.43c-13.345,11.615-26.578,23.359-40.018,34.863c-23.686,20.275-48.991,38.424-74.565,56.204
		c-8.741,6.076-17.518,12.1-26.282,18.144c-0.781,0.538-1.586,1.042-2.75,1.805C230.049,501.214,225.672,456.531,219.915,411.651z"
		/>
	<path fill-rule="evenodd" clip-rule="evenodd" fill="#202C46" d="M195.926,519.684c-11.576,6.086-22.263,13.126-33.483,19.96
		c-0.235-1.567,0.012-2.86,0.238-4.145c1.517-8.597,4.809-16.57,8.638-24.343c5.708-11.592,12.62-22.461,20.008-33.035
		c9.134-13.071,18.969-25.599,29.365-37.688c0.46-0.534,0.961-1.033,1.785-1.915c0.211,1.339,0.402,2.301,0.512,3.272
		c1.424,12.563,2.827,25.127,4.256,37.689c1.166,10.255,2.343,20.511,3.547,30.763c1.185,10.092,2.41,20.179,3.618,30.268
		c0.181,1.51,0.329,3.025,0.562,4.526c0.164,1.059-0.081,1.804-1.036,2.427c-2.882,1.882-5.732,3.813-8.545,5.796
		c-0.905,0.638-1.688,0.615-2.677,0.254c-4.669-1.705-8.721-4.361-12.241-7.836c-6.776-6.688-10.972-14.885-13.847-23.844
		C196.43,521.231,196.233,520.63,195.926,519.684z"/>
	<path fill-rule="evenodd" clip-rule="evenodd" fill="#ED9D8F" d="M440.701,257.923c6.669,0.406,11.921,5.358,12.597,11.793
		c0.452,4.312-0.374,8.441-1.787,12.487c-2.556,7.313-6.335,14.006-10.784,20.284c-4.301,6.067-8.943,11.893-13.44,17.822
		c-0.477,0.63-0.978,1.24-1.455,1.841c0.962,1.679,1.991,3.208,2.755,4.859c2.019,4.362,2.327,8.796,0.024,13.174
		c-1.6,3.042-3.935,5.417-6.861,7.226c-4.805,2.968-10.577,1.762-14.154-1.974c0.672-2.37,1.391-4.81,2.057-7.267
		c2.748-10.137,4.616-20.44,5.599-30.892c0.592-6.291,1.009-12.601,1.377-18.91c0.078-1.339,0.654-2.222,1.446-3.15
		c5.819-6.82,11.645-13.634,17.407-20.501C437.326,262.517,438.988,260.163,440.701,257.923z"/>
	<path fill-rule="evenodd" clip-rule="evenodd" fill="#66312B" d="M398.881,367.247c4.533,11.377,5.266,23.03,2.844,34.875
		c-2.693,13.176-9.134,24.42-18.153,34.544c-1.217-1.588-1.877-2.905-1.658-4.779c1.764-15.141,5.082-29.962,8.993-44.665
		c0.802-3.014,1.836-5.972,2.535-9.008C394.381,374.144,396.7,370.786,398.881,367.247z"/>
	<path fill-rule="evenodd" clip-rule="evenodd" fill="#DA8D61" d="M404.752,412.927c-1.176-1.771-2.328-3.294-3.215-4.959
		c-0.31-0.582-0.084-1.543,0.101-2.28c1.549-6.171,2.28-12.427,2.066-18.789c-0.223-6.606-1.327-13.055-3.702-19.233
		c-0.543-1.413-0.439-2.509,0.191-3.834c1.649-3.462,3.14-7.001,4.842-10.847c0.59,0.747,1.146,1.356,1.595,2.035
		c4.517,6.825,7.009,14.371,7.594,22.493c0.9,12.484-2.685,23.877-8.847,34.583C405.262,412.294,405.1,412.466,404.752,412.927z"/>
	<path fill-rule="evenodd" clip-rule="evenodd" fill="#DA8D61" d="M382.409,230.637c-23.825-6.555-47.861-7.499-72.285-4.422
		c-1.1-4.857-1.159-9.324,2.151-13.276c0.308-0.368,0.625-0.727,0.932-1.097c3.144-3.795,6.957-5.643,12.102-5.402
		c11.359,0.53,22.683,1.093,33.692,4.254c6.544,1.878,12.481,4.921,17.582,9.478c2.734,2.441,4.81,5.339,5.791,8.931
		c0.063,0.23,0.126,0.464,0.152,0.7C382.542,229.952,382.487,230.108,382.409,230.637z"/>
	<path fill-rule="evenodd" clip-rule="evenodd" fill="#DA8D61" d="M256.678,222.94c-1.777-0.806-3.21-1.488-4.668-2.112
		c-8.068-3.454-16.544-5.392-25.187-6.669c-9.351-1.381-18.758-1.987-28.21-1.91c-0.392,0.003-0.784-0.048-1.463-0.092
		c0.633-3.215,2.101-5.798,4.605-7.631c1.453-1.062,3.169-1.888,4.89-2.435c6.266-1.99,12.744-3.062,19.253-3.814
		c4.915-0.568,9.873-0.763,14.813-1.097c2.791-0.189,5.173,0.86,7.266,2.609c3.505,2.93,6.133,6.588,7.835,10.761
		C257.376,214.385,257.267,218.502,256.678,222.94z"/>
	<polygon fill="#FFFFFF" points="317.205,243.718 332.807,248.223 355.834,250.559 371.936,248.223 363.176,240.297 341.15,231.28 
		325.048,237.627 	"/>
	<polygon fill="#FFFFFF" points="256.718,236.292 245.789,236.734 231.188,236.292 215.248,231.37 212.093,229.87 217.756,225.112 
		231.522,221.545 237.279,221.545 248.124,227.949 	"/>
	<path fill="#1D253D" d="M298.01,600.489c70.562,0,141.122,0,211.684,0C440.507,532.608,361.267,569.065,298.01,600.489z"/>
	<path fill="#ED9D8F" d="M370.277,402.009c-10.743,8.452-22.448,15.353-34.679,21.384c-13.581,6.697-27.526,12.484-42.092,16.729
		c-3.311,0.965-6.62,1.189-9.97,0.673c-13.704-2.11-27.145-5.355-40.313-9.684c-5.636-1.853-10.61-4.907-14.659-9.285
		c-2.442-2.641-4.684-5.465-7.013-8.209c-0.495-0.583-0.979-1.176-1.636-1.966c3.665,28.567,6.772,57.055,10.037,85.559
		c18.703-9.987,40.212-18.126,60.048-27.326c52.286-24.252,80.307-63.349,87.031-73.653
		C374.865,398.237,372.619,400.167,370.277,402.009z"/>
	<path fill-rule="evenodd" clip-rule="evenodd" fill="#DB926E" d="M377.03,367.247c-11.353,6.122-20.32,8.75-20.32,5.996
		c0-2.753-2.378-30.715-6.884-36.507c-4.505-5.792-36.292-16.353-41.298-16.704c-5.006-0.351-19.898,5.28-36.418,2.652
		c-16.519-2.628-26.486-8.576-27.822-8.355c-1.337,0.221-25.99,6.603-28.243,8.23c-2.252,1.627-9.848,14.84-10.806,18.058
		c-0.851,2.858-13.884-4.541-25.207-26.758c0.996,6.404,2.285,12.777,3.827,19.116c6.098,25.077,16.502,48.236,30.87,69.649
		c4.018,5.987,8.088,11.925,12.929,17.299c4.668,5.183,10.3,8.834,16.94,10.94c12.22,3.875,24.658,6.849,37.289,9.036
		c4.253,0.736,8.37,0.552,12.55-0.73c8.581-2.632,16.979-5.731,25.23-9.238c15.806-6.718,30.947-14.638,45.031-24.546
		c14.112-9.929,25.016-22.556,32.912-37.87c5.795-11.236,9.974-23.039,12.845-35.323c0.074-0.319,0.143-0.64,0.216-0.96
		C402.857,341.267,385.643,362.603,377.03,367.247z M335.81,384.882c-2.364,7.897-32.538,20.857-44.052,20.023
		c-4.838-0.35-16.019-10.915-31.703-11.214c-15.685-0.299-20.524,2.539-20.524,2.539s-14.517-20.025-16.519-30.871
		c-1.242-6.727-0.157-27.863,8.51-30.202c0,0,19.189,6.676,38.044,8.344c18.855,1.668,38.379-0.246,41.549-0.541
		c3.17-0.294,22.859,4.045,22.859,4.045S343.152,360.353,335.81,384.882z"/>
	<path fill-rule="evenodd" clip-rule="evenodd" fill="#DA8D61" d="M244.871,360.353c0,0,13.849,9.011,28.867,11.013
		c0,0-14.684,10.012-16.686,9.845C255.05,381.044,243.87,372.201,244.871,360.353z"/>
	<path fill-rule="evenodd" clip-rule="evenodd" fill="#FFFFFF" d="M236.657,337.496c1.103,0.228,1.708,0.309,2.288,0.479
		c9.15,2.688,18.433,4.838,27.934,5.635c7.003,0.589,14.062,0.742,21.094,0.707c6.712-0.033,13.421-0.611,20.135-0.843
		c2.058-0.071,4.154,0.041,6.186,0.361c4.812,0.758,9.595,1.691,14.514,2.576c-0.424,1.141-1.449,1.338-2.237,1.739
		c-7.324,3.715-15.083,6.151-23.116,7.772c-9.154,1.846-18.405,2.403-27.703,1.86c-8.948-0.523-17.574-2.453-25.503-6.845
		c-4.315-2.391-8.132-5.401-11.079-9.401C238.331,340.397,237.665,339.132,236.657,337.496z"/>
	<path fill="#1D253D" d="M195.739,521.482c-0.011-0.03-0.021-0.063-0.032-0.093c-0.053-0.142-0.188-0.252-0.459-0.6
		c-11.406,6.168-22.31,13.265-33.605,20.199c-0.309-2.643,0.223-4.885,0.666-7.121c1.63-8.234,4.846-15.902,8.555-23.372
		c6.569-13.233,14.648-25.539,23.245-37.52c0.56-0.779,1.114-1.563,1.654-2.356c0.074-0.109,0.051-0.285,0.118-0.734
		c-0.856,0.542-1.575,0.96-2.254,1.435c-23.699,16.541-47.393,33.091-71.092,49.633c-6.302,4.398-12.674,8.698-18.902,13.197
		c-2.977,2.152-5.786,4.563-8.51,7.033c-6.325,5.736-11.031,12.636-14.287,20.527c-5.031,12.19-8.169,24.911-10.619,37.825
		c-0.058,0.308-0.009,0.636-0.009,0.955c38.231,0,76.462,0,114.693,0C169.411,563.964,180.623,538.161,195.739,521.482z"/>
	<path fill="#1D253D" d="M227.281,479.604c-1.379-12.567-2.732-25.138-4.107-37.705c-0.106-0.973-0.292-1.936-0.498-3.274
		c-0.828,0.879-1.331,1.375-1.792,1.907c-10.444,12.048-20.329,24.536-29.514,37.571c-7.431,10.545-14.385,21.387-20.14,32.955
		c-3.859,7.758-7.183,15.718-8.733,24.309c-0.232,1.283-0.483,2.575-0.254,4.143c11.247-6.789,21.962-13.788,33.562-19.827
		c0.148,0.465,0.271,0.843,0.379,1.184c13.48-14.466,29.734-21.833,33.101-23.26C228.616,491.606,227.94,485.606,227.281,479.604z"
		/>
	<path fill="#3F3B56" d="M503.698,554.324c-2.742-3.172-5.738-6.135-9.023-8.859c-2.709-2.247-5.455-4.479-8.368-6.447
		c-13.169-8.896-25.331-19.064-37.259-29.512c-14.317-12.541-28.502-25.236-42.729-37.882
		C400.355,497.376,400.314,551.419,503.698,554.324z"/>
	<g>
		<path fill="#3F3B56" d="M314.32,343.84c-1.06,4.448-3.427,8.137-6.655,11.139c6.536-1.584,12.869-3.768,18.905-6.828
			c0.788-0.401,1.814-0.599,2.237-1.739C323.897,345.528,319.123,344.597,314.32,343.84z"/>
		<path fill="#3F3B56" d="M244.933,339.637c-2.002-0.524-3.999-1.077-5.988-1.662c-0.579-0.17-1.185-0.251-2.288-0.479
			c1.009,1.636,1.674,2.9,2.513,4.04c2.229,3.025,4.957,5.483,8.021,7.537C245.774,345.267,245.182,342.039,244.933,339.637z"/>
	</g>
	<g>
		<path fill="#66312B" d="M202.874,145.499c10.502-26.336,29.396-42.94,57.415-48.598c12.124-2.448,24.374-2.121,36.597-0.831
			c13.962,1.474,27.638,4.425,41.051,8.557c6.063,1.867,12.032,3.96,17.881,6.358c-10.709-14.242-21.487-34.451-13.745-51.458
			c-2.099-0.524-4.226-0.976-6.387-1.334c-8.346-1.385-16.591-1.261-24.549,2.032c-1.005,0.416-1.845,0.204-2.768-0.095
			c-5.29-1.711-10.732-2.53-16.277-2.748c-12.468-0.49-24.337,2.065-35.721,7.048c-13.09,5.73-24.349,14.094-34.396,24.146
			c-14.627,14.633-26.219,31.468-35.471,49.903c-5.416,10.791-4.52,7.787-4.254,19.96c0.012,0.559,0.065,1.119,0.105,1.678
			c1.098,15.362,1.198,30.688-0.807,46.016c-1.649,12.613-1.401,25.24,1.131,37.761c0.264,1.305,0.608,2.594,0.915,3.891
			c0.522-0.616,0.736-1.192,0.858-1.788c1.98-9.637,3.989-19.268,5.911-28.917c4.035-20.249,6.939-40.688,10.193-61.069
			C201.122,152.468,201.562,148.79,202.874,145.499z"/>
		<path fill="#66312B" d="M401.836,188.73c0.518,4.675,0.723,9.387,0.448,14.158c-0.254,4.409,0.235,8.804,1.663,13.029
			c0.846,2.5,1.851,4.946,2.665,7.455c2.894,8.913,5.129,18.002,6.956,27.186c2.16,10.847,3.816,21.759,3.478,32.877
			c-0.011,0.366,0.06,0.735,0.092,1.103c0.183,0.08,0.365,0.16,0.547,0.24c0.239-0.325,0.46-0.664,0.718-0.972
			c6.224-7.422,12.427-14.863,18.688-22.255c3.716-4.387,5.853-9.445,7.081-15.027c2.118-9.628,3.637-19.347,4.621-29.141
			c0.439-4.365,0.763-8.817,0.41-13.171c-1.202-14.876-4.095-29.462-8.436-43.749c-0.952-3.135-1.975-6.24-3.07-9.311
			C430.635,163.488,419.463,177.096,401.836,188.73z"/>
	</g>
	<path fill="#FFB68E" d="M440.767,160.464c-4.015-13.211-9.178-25.912-16.46-37.604c2.512,21.272,2.677,59.627-20.611,92.24
		c0.084,0.273,0.16,0.547,0.252,0.818c0.337,0.997,0.701,1.985,1.066,2.973c10.452-7.325,28.229-23.941,36.482-55.915
		C441.252,162.138,441.02,161.299,440.767,160.464z"/>
	<path fill="#FFB68E" d="M398.656,92.372c2.128,22.89-0.501,47.854-3.425,66.192c1.23,4.16,2.335,8.361,3.362,12.589
		c12.96-24.649,15.957-47.501,16.343-61.426C409.938,103.481,404.504,97.701,398.656,92.372z"/>
	<path fill="#FFB68E" d="M198.495,117.604c-3.101,4.734-6.002,9.608-8.716,14.611c1.524,16.082,5.498,27.083,9.155,34.111
		c0.536-3.439,1.074-6.878,1.623-10.316c0.566-3.543,1.006-7.221,2.318-10.512c1.063-2.665,2.216-5.226,3.452-7.69
		C202.989,130.855,200.439,123.849,198.495,117.604z"/>
	<path fill="#66312B" d="M309.717,224.1c0.11,0.697,0.246,1.4,0.407,2.114c23.697-2.985,47.028-2.169,70.158,3.869
		C342.967,203.377,317.927,217.659,309.717,224.1z"/>
	<path fill="#66312B" d="M256.894,221.061c-6.169-7.101-25.99-25.045-58.169-8.812c9.415-0.071,18.785,0.535,28.1,1.91
		c8.643,1.277,17.118,3.215,25.187,6.669c1.458,0.624,2.891,1.307,4.668,2.112C256.763,222.307,256.832,221.681,256.894,221.061z"/>
	<path fill="#FFB68E" d="M318.096,225.363c0.532-0.048,1.063-0.099,1.595-0.142l9.953-18.572c-1.443-0.074-2.889-0.142-4.335-0.209
		c-0.923-0.043-1.789,0.004-2.63,0.095C321.487,211.606,319.436,219.941,318.096,225.363z"/>
	<path fill="#FFB68E" d="M331.177,224.606c2.493-0.064,4.983-0.083,7.47-0.05v-17.319c-0.561-0.047-1.123-0.092-1.685-0.135
		C335.309,212.049,332.83,219.573,331.177,224.606z"/>
	<path fill="#FFB68E" d="M248.041,219.273c0.577,0.21,1.152,0.427,1.726,0.651c-0.833-5.597-2.184-14.536-3.294-21.228
		c-1.715-1.072-3.617-1.662-5.76-1.517c-0.652,0.044-1.305,0.083-1.958,0.123L248.041,219.273z"/>
	<path fill="#FFB68E" d="M230.431,214.738c2.274,0.392,4.533,0.842,6.775,1.358l-3.583-18.476c-0.599,0.038-1.197,0.085-1.795,0.128
		L230.431,214.738z"/>
	<path opacity="0.5" fill="#66312B" d="M180.033,313.859c0.996,6.404,2.285,12.777,3.827,19.116
		c6.098,25.077,16.502,48.236,30.87,69.649c4.018,5.987,8.088,11.925,12.929,17.299c4.668,5.183,10.3,8.834,16.94,10.94
		c12.22,3.875,24.658,6.849,37.289,9.036c4.253,0.736,8.37,0.552,12.55-0.73c8.581-2.632,16.979-5.731,25.23-9.238
		c3.557-1.512,7.072-3.094,10.556-4.735c-37.632,6.282-63.853,2.706-88.299-10.111c-28.644-15.018-36.684-74.467-36.684-74.467
		C204.389,343.476,191.356,336.076,180.033,313.859z"/>
	<path opacity="0.4" fill-rule="evenodd" clip-rule="evenodd" fill="#66312B" d="M222.625,361.381
		c-0.346-8.772,1.554-24.243,8.897-26.224c0,0,8.183,2.846,19.109,5.285c8.165-1.192,45.684-7.213,62.836-19.328
		c-2.29-0.628-4.046-1.02-4.939-1.082c-5.006-0.351-19.898,5.28-36.418,2.652c-16.519-2.628-26.486-8.576-27.822-8.355
		c-0.573,0.095-5.425,1.321-10.96,2.817C233.324,317.152,213.563,334.378,222.625,361.381L222.625,361.381z"/>
</g>
<g id="Layer_2">
	<g>
		<g>
			<path fill="#B8494B" d="M440.521,257.227c3.929-0.657,7.736,0.549,10.631,3.647c1.805,1.971,3.089,4.435,3.694,7.016
				c0.621,2.586,0.633,5.225,0.381,7.779c-0.55,5.122-2.194,9.969-4.398,14.351c-0.793,1.539-1.63,3.049-2.484,4.543
				c-0.905,1.46-1.759,2.953-2.678,4.398l-2.074,3.236c-0.694,1.076-1.448,2.106-2.17,3.162c-1.431,2.122-2.992,4.137-4.505,6.19
				c-1.53,2.04-3.14,4.011-4.7,6.022l-2.424,2.945l-1.211,1.472l-0.199,0.245c-0.029,0.043-0.08,0.086-0.093,0.13l0.107,0.133
				c0.047,0.061,0.002-0.011,0.259,0.372c0.384,0.549,0.715,1.126,1.05,1.703c0.638,1.171,1.216,2.383,1.639,3.669
				c1.76,4.931,1.105,10.284-1.464,14.242c-0.557,1.059-1.354,1.9-2.077,2.83c-0.349,0.481-0.809,0.842-1.217,1.268
				c-0.432,0.402-0.822,0.845-1.301,1.222c-1.855,1.545-4.16,2.93-6.987,3.521c-2.319,0.497-4.892,0.105-6.859-0.816
				c-1.991-0.912-3.451-2.199-4.326-3.328c-0.372-0.47-0.48-0.88-0.394-1.114c0.097-0.226,0.393-0.263,0.831-0.11
				c0.688,0.228,1.403,0.403,2.147,0.686c1.612,0.639,3.225,1.089,4.851,1.239c1.624,0.161,3.285-0.048,4.885-0.737
				c0.188-0.076,0.381-0.132,0.563-0.219l0.53-0.295c0.352-0.197,0.709-0.369,1.051-0.568c0.639-0.497,1.33-0.883,1.927-1.434
				c1.225-1.065,2.365-2.25,3.261-3.698c1.625-2.678,2.391-5.766,1.819-8.802c-0.216-1.516-0.721-3.009-1.408-4.422
				c-0.332-0.71-0.721-1.402-1.147-2.064c-0.21-0.351-0.42-0.629-0.679-1c-0.552-0.722-1.073-1.357-1.663-2.038l-0.237-0.276
				l3.256-4.067c0.738-0.925,1.481-1.845,2.238-2.753c3.707-4.647,7.409-9.308,10.722-14.221c2.776-4.14,5.38-8.392,7.585-12.809
				c0.341-0.726,0.775-1.65,1.278-2.721c0.497-1.072,0.957-2.322,1.506-3.65c0.95-2.688,1.85-5.827,2.066-8.905
				c0.021-0.383,0.073-0.77,0.071-1.147c-0.011-0.376-0.022-0.751-0.032-1.123c0.021-0.754-0.154-1.452-0.227-2.157
				c-0.291-1.364-0.682-2.637-1.285-3.655c-1.124-2.092-2.651-3.322-3.445-3.871c-1.105-0.794-2.091-1.476-3.13-2.151
				C443.008,258.432,441.928,257.761,440.521,257.227z"/>
		</g>
	</g>
	<g>
		<g>
			<path fill="#4F1B01" d="M309.655,226.731c-1.015-2.431-1.504-4.899-1.416-7.444c0.037-0.637,0.054-1.277,0.223-1.919
				c0.135-0.643,0.258-1.29,0.542-1.937c0.528-1.271,1.288-2.385,2.153-3.435c1.103-1.323,2.309-2.524,3.598-3.634
				c0.643-0.559,1.311-1.09,2.004-1.605c0.354-0.252,0.71-0.503,1.095-0.743c0.19-0.122,0.409-0.237,0.62-0.355
				c0.267-0.129,0.539-0.241,0.83-0.274l0.432-0.071l0.335-0.03l0.647-0.051c0.436-0.041,0.845-0.045,1.27-0.07
				c0.844-0.049,1.677-0.06,2.516-0.085c1.673-0.034,3.346-0.049,5.017-0.028c6.684,0.07,13.386,0.485,19.93,1.622
				c4.612,0.802,9.183,1.93,13.644,3.57c1.212,0.435,2.391,0.998,3.585,1.494c1.144,0.586,2.296,1.141,3.413,1.781
				c2.244,1.255,4.398,2.705,6.414,4.36c2.007,1.663,3.847,3.606,5.272,5.882c0.735,1.12,1.309,2.358,1.775,3.626
				c0.191,0.493,0.514,1.638,0.721,2.682c0.206,1.063,0.418,2.187,0.572,3.213c-1.563-0.529-3.278-1.072-4.676-1.475
				c-0.849-0.248-1.713-0.462-2.568-0.695c-1.725-0.429-3.453-0.847-5.197-1.204c-1.734-0.394-3.493-0.684-5.241-1.018
				c-1.756-0.293-3.516-0.566-5.276-0.827c-6.419-0.906-12.129-1.31-17.854-1.56c-1.433-0.04-2.866-0.081-4.313-0.122
				c-1.447-0.033-2.91,0.011-4.396,0.014c-2.976-0.026-6.048,0.184-9.322,0.33c-2.683,0.173-5.483,0.361-8.068,0.405
				c-2.575,0.149-4.928,0.235-6.71,0.213c-1.484-0.016-1.889-0.422-0.727-0.834c0.886-0.314,1.818-0.653,2.935-0.907
				c1.217-0.275,2.447-0.519,3.692-0.741c1.247-0.201,2.515-0.326,3.797-0.468c1.285-0.123,2.585-0.248,3.906-0.374
				c1.326-0.065,2.672-0.131,4.044-0.198c1.287-0.055,2.532-0.12,3.758-0.133c1.225,0.01,2.43,0.021,3.635,0.03
				c2.409-0.011,4.815,0.106,7.391,0.166c9.535,0.232,19.065,1.273,28.467,3.084c1.651,0.333,3.308,0.665,4.952,1.063
				c0.824,0.184,1.645,0.398,2.464,0.613c0.41,0.11,0.82,0.209,1.229,0.33l0.295,0.085l0.003,0.002l0.01,0.009
				c0.003,0.001,0.004,0,0.006-0.002l0.002-0.005l-0.03-0.121c0.016,0.028-0.086-0.258-0.15-0.447
				c-0.074-0.203-0.131-0.412-0.218-0.61c-0.177-0.395-0.316-0.805-0.53-1.186c-0.772-1.559-1.822-3.001-3.025-4.33
				c-2.469-2.62-5.502-4.792-8.759-6.59c-2.965-1.65-6.023-2.893-9.253-3.905c-3.245-0.941-6.561-1.707-9.925-2.28
				c-4.362-0.815-13.689-1.948-22.679-2.092c-2.233-0.048-4.492-0.049-6.505,0.081c-0.488-0.07-1.399,0.629-2.158,1.148
				c-0.774,0.559-1.497,1.15-2.155,1.738c-2.678,2.336-4.253,4.656-4.73,5.846c-0.646,1.699-1.043,3.354-1.203,5.036
				C309.578,223.033,309.48,224.747,309.655,226.731z"/>
		</g>
	</g>
	<g>
		<g>
			<path fill="#4F1B01" d="M256.923,223.679c-0.213-2.221-0.407-4.243-0.601-6.253c-0.2-1.992-0.415-3.978-0.935-5.94
				c-0.101-0.296-0.188-0.605-0.3-0.893c-0.135-0.279-0.235-0.541-0.393-0.838c-0.333-0.608-0.674-1.21-1.029-1.802
				c-0.71-1.184-1.47-2.334-2.299-3.421c-1.651-2.166-3.617-4.115-5.898-5.29c-0.568-0.29-1.153-0.532-1.749-0.71
				c-0.299-0.126-0.582-0.11-0.869-0.172l-0.427-0.071l-0.495-0.021c-0.659-0.03-1.315-0.064-2.01-0.031
				c-0.685,0.015-1.365,0.018-2.06,0.072c-2.762,0.136-5.544,0.43-8.303,0.701c-3.895,0.4-7.792,0.865-11.653,1.547
				c-2.21,0.393-4.413,0.821-6.588,1.319c-2.163,0.506-4.346,1.064-6.306,1.824c-1.856,0.744-3.527,2.064-4.744,3.684
				c-0.609,0.817-1.121,1.714-1.521,2.662c-0.107,0.234-0.19,0.478-0.28,0.719l-0.073,0.206l-0.03,0.096
				c-0.017,0.089-0.079,0.224-0.041,0.282l2.707-0.013c1.428,0,2.855,0.028,4.28,0.062c2.852,0.066,5.699,0.209,8.545,0.378
				c5.616,0.367,10.554,0.946,15.489,1.705c4.935,0.756,9.854,1.819,15.382,3.411c1.127,0.354,2.272,0.742,3.396,1.146
				c1.118,0.426,2.188,0.958,3.216,1.436c2.076,0.909,3.791,2.13,5.068,2.99c1.059,0.744,1.09,1.262,0.039,1.04
				c-0.802-0.169-1.639-0.333-2.549-0.654l-1.477-0.548l-1.516-0.481c-1.011-0.329-2.018-0.681-3.031-1.052
				c-1.034-0.321-2.081-0.646-3.144-0.976c-1.061-0.336-2.133-0.691-3.26-0.953c-2.095-0.544-4.039-1.105-6.025-1.523
				c-0.99-0.221-1.973-0.471-2.988-0.663c-1.018-0.173-2.054-0.35-3.125-0.532c-7.948-1.223-16.011-1.773-24.055-1.91
				c-1.411-0.017-2.824-0.025-4.235-0.011l-2.114,0.022l-1.926,0.043l-2.149,0.062l0.006-0.053c0.109-0.799,0.171-1.563,0.33-2.382
				c0.084-0.414,0.169-0.826,0.3-1.225l0.177-0.603c0.054-0.174,0.087-0.245,0.132-0.372c0.335-0.914,0.743-1.801,1.25-2.637
				c0.978-1.69,2.344-3.169,3.92-4.331c0.789-0.584,1.626-1.083,2.549-1.469l0.679-0.299l0.657-0.224l1.313-0.443
				c1.74-0.507,3.478-0.94,5.215-1.327c5.856-1.261,11.732-2.189,17.661-2.836c1.932-0.208,4.924-0.505,8.458-0.62
				c1.777-0.052,3.642-0.088,5.765,0.232c2.206,0.397,4.075,1.52,5.691,2.827c3.217,2.661,5.318,6.03,6.908,8.779
				c0.397,0.721,0.756,1.288,1.086,2.052c0.179,0.356,0.295,0.704,0.402,1.038c0.118,0.333,0.213,0.653,0.278,0.957
				c0.313,1.218,0.408,2.187,0.483,2.837c0.18,1.821,0.064,3.368-0.158,4.867C257.722,220.594,257.377,222.052,256.923,223.679z"/>
		</g>
	</g>
	<g>
		<g>
			<path fill="#B8494B" d="M231.568,335.036c3.203,0.247,5.779,0.829,8.721,1.803c1.875,0.563,3.774,1.101,5.699,1.561
				c1.936,0.414,3.885,0.799,5.832,1.181c1.954,0.349,3.925,0.594,5.872,0.917c0.977,0.144,1.943,0.344,2.918,0.459
				c0.975,0.116,1.946,0.24,2.913,0.378l4.088,0.604c1.361,0.22,2.737,0.248,4.109,0.359c5.093,0.415,10.287,0.453,15.45,0.463
				c5.167-0.011,10.329-0.16,15.468-0.527c1.955-0.166,3.794-0.322,5.576-0.473c0.454-0.038,0.905-0.076,1.353-0.113
				c0.48-0.026,0.854-0.086,1.417-0.084l0.876,0.033c0.319,0.011,0.459,0.066,0.696,0.097l1.287,0.219
				c3.432,0.572,6.876,1.145,10.804,1.8c3.224,0.524,6.656,1.517,8.674,2.35c0.841,0.348,0.964,0.828,0.2,0.965
				c-0.583,0.104-1.196,0.224-1.891,0.219c-3.028-0.027-6.029-0.573-9.281-1.111c-3.049-0.505-5.664-1.138-8.719-1.615l-2.111-0.325
				c-0.272,0.021-0.479,0.007-0.792,0.021l-1.036,0.093l-4.256,0.417c-2.86,0.274-5.732,0.485-8.601,0.65
				c-2.02,0.093-4.048,0.249-6.069,0.239c-4.976,0.051-9.926-0.021-14.906-0.221l-6.313-0.407c-0.525-0.038-1.053-0.057-1.577-0.111
				l-1.565-0.207l-3.128-0.418c-1.356-0.2-3.473-0.415-5.884-0.945c-2.415-0.503-5.194-0.952-7.851-1.672
				c-1.334-0.332-2.654-0.66-3.91-0.972c-1.254-0.317-2.426-0.693-3.496-0.996c-1.067-0.313-2.023-0.595-2.819-0.829
				c-0.788-0.264-1.417-0.475-1.84-0.616C235.109,337.427,233.581,336.369,231.568,335.036z"/>
		</g>
	</g>
	<g>
		<g>
			<path fill="#B8494B" d="M330.536,346.483c-2.198,2.418-4.622,3.797-7.545,4.995c-7.413,2.971-15.205,5.846-23.179,6.983
				l-2.101,0.3l-2.111,0.202c-1.409,0.11-2.809,0.313-4.221,0.37l-3.938,0.246c-1.314,0.06-2.629,0.048-3.943,0.075
				c-2.625,0.102-5.267-0.126-7.899-0.197c-5.261-0.432-10.509-1.23-15.622-2.679c-0.966-0.296-1.903-0.583-2.819-0.863
				c-0.906-0.313-1.772-0.678-2.636-1.006c-0.431-0.168-0.857-0.334-1.282-0.5c-0.412-0.197-0.822-0.393-1.23-0.588
				c-0.811-0.402-1.64-0.753-2.426-1.194c-3.172-1.707-6.199-3.782-9.217-6.691c-0.626-0.59-1.174-1.291-1.735-1.956
				c-0.532-0.694-0.994-1.438-1.431-2.139c-0.795-1.474-1.364-2.893-1.549-4.05c-0.167-0.962,0.199-1.26,0.717-0.678
				c0.192,0.219,0.39,0.442,0.594,0.674c0.207,0.228,0.436,0.459,0.636,0.727c1.775,2.302,3.626,4.56,6.018,6.677
				c0.544,0.509,1.132,0.936,1.667,1.403c0.531,0.474,1.096,0.889,1.669,1.293c0.575,0.401,1.12,0.847,1.735,1.214
				c0.615,0.366,1.245,0.732,1.902,1.099c4.917,2.641,10.352,4.242,15.852,5.237l2.93,0.433c0.489,0.068,0.973,0.162,1.464,0.215
				l1.476,0.143c1.209,0.12,2.415,0.269,3.626,0.373l3.65,0.162c0.609,0.024,1.216,0.064,1.827,0.075l1.834-0.018l3.671-0.04
				c2.055-0.142,4.118-0.209,6.167-0.423c2.046-0.236,4.103-0.409,6.133-0.762c2.665-0.327,8.211-1.379,13.407-2.859
				c5.208-1.45,9.997-3.428,11.585-4.157C326.453,347.585,328.224,347.272,330.536,346.483z"/>
		</g>
	</g>
	<g>
		<g>
			<path fill="#B8494B" d="M394.576,373.975c0.555,2.093,0.381,3.673-0.26,5.394c-0.774,2.189-1.258,4.5-1.704,6.814
				c-0.419,2.324-0.821,4.648-1.487,6.871c-0.455,1.571-0.94,3.135-1.344,4.722l-1.12,4.434c-0.358,1.481-0.677,2.971-1.011,4.458
				c-0.647,2.978-1.342,5.948-1.76,8.963c-0.354,2.282-0.666,4.295-0.979,6.314c-0.336,2.017-0.46,4.063-0.7,6.382
				c-0.176,1.904-0.933,3.909-1.708,5.088c-0.324,0.491-0.938,0.55-1.24,0.086c-0.231-0.353-0.485-0.728-0.591-1.147
				c-0.445-1.83-0.203-3.631-0.011-5.58c0.204-1.825,0.548-3.391,0.793-5.206c0.416-3.368,0.852-6.745,1.333-10.113
				c0.198-1.179,0.389-2.363,0.651-3.529c0.663-2.862,1.29-5.734,2.061-8.567l1.83-7.188c0.442-1.549,1.382-4.795,2.329-7.892
				c0.984-3.087,1.93-6.035,2.311-7.021C392.478,375.874,393.44,375.071,394.576,373.975z"/>
		</g>
	</g>
	<g>
		<g>
			<path fill="#4F1B01" d="M399.039,365.702c2.027,1.677,2.946,3.608,3.491,5.921c0.666,2.943,1.441,5.889,2.024,8.903
				c0.584,3.01,0.969,6.087,0.865,9.126c-0.053,2.144-0.324,4.268-0.54,6.392c-0.865,7.926-3.318,15.588-6.628,22.771
				c-2.582,5.437-4.999,9.371-8.543,14.319c-1.447,2.048-3.626,3.773-5.137,4.576c-0.632,0.336-1.174,0.044-1.087-0.607
				c0.065-0.496,0.123-1.022,0.334-1.509c0.455-1.065,1.083-1.984,1.709-2.936c0.628-0.95,1.333-1.871,2.052-2.839
				c1.258-1.872,2.602-3.337,3.697-5.318c2.065-3.633,3.881-7.393,5.316-11.278c0.46-1.385,0.98-2.747,1.413-4.134
				c1.165-3.376,2.114-6.834,2.704-10.365c0.485-2.977,0.738-5.987,0.812-9.004c0.085-1.964,0.03-6.103-0.477-10.044
				c-0.472-3.944-1.403-7.644-1.741-8.886C398.84,369.044,399.079,367.63,399.039,365.702z"/>
		</g>
	</g>
	<g>
		<g>
			<path fill="#4F1B01" d="M404.981,351.943c2.334,0.962,3.672,2.524,4.706,4.533c1.309,2.557,2.652,5.123,3.816,7.811
				c1.156,2.682,2.098,5.498,2.502,8.372c0.276,2.027,0.395,4.063,0.463,6.097c0.32,7.593-1.171,15.111-3.548,22.209
				c-0.489,1.336-0.933,2.604-1.42,3.806c-0.519,1.189-0.978,2.362-1.518,3.498c-0.273,0.566-0.545,1.134-0.82,1.706
				c-0.138,0.287-0.275,0.575-0.415,0.865l-0.221,0.454l-0.419,0.764c-0.569,1.038-1.148,2.094-1.742,3.176
				c-0.302,0.553-0.607,1.111-0.918,1.679l-0.235,0.431l-0.118,0.217l-0.06,0.109c-0.02,0.038-0.039,0.09-0.064,0.026
				c-0.191-0.276-0.385-0.555-0.579-0.836c-0.641-0.925-1.301-1.941-1.917-2.944c-0.597-0.973-1.295-2.149-1.393-2.465
				c-0.455-1.022-0.783-2.011-0.945-2.807c-0.135-0.664,0.284-1.118,0.869-0.893c0.446,0.172,0.924,0.346,1.324,0.658
				c0.434,0.343,0.833,0.711,1.209,1.101c0.188,0.194,0.371,0.395,0.549,0.6l0.215,0.169c0.12,0.098,0.212,0.188,0.298,0.281
				l0.123,0.14c0.018,0.056,0.044-0.041,0.066-0.078l0.068-0.144c0.167-0.355,0.338-0.579,0.544-0.875
				c0.009-0.001,0.102-0.18,0.151-0.268l0.179-0.33l0.353-0.667c0.234-0.45,0.463-0.913,0.682-1.399
				c1.554-3.627,2.875-7.338,3.803-11.124l0.475-2.001c0.128-0.673,0.262-1.344,0.415-2.009c0.716-3.277,1.186-6.609,1.271-9.963
				c0.075-2.823-0.127-5.649-0.551-8.44c-0.075-0.454-0.173-1.032-0.284-1.702c-0.12-0.668-0.294-1.419-0.458-2.233
				c-0.396-1.611-0.886-3.446-1.516-5.195c-1.22-3.517-2.917-6.672-3.517-7.718C405.576,355.074,405.488,353.714,404.981,351.943z"
				/>
		</g>
	</g>
	<g>
		<g>
			<path fill="#B8494B" d="M222.673,437.463c-1.259-0.711-1.612-1.398-1.602-2.25c0.025-2.156-1.203-4.22-1.31-6.357
				c-0.043-0.755-0.045-1.513-0.138-2.261c-0.363-2.783-0.634-5.584-1.179-8.34c-0.413-2.092-0.704-3.693-1.2-5.796
				c-0.205-0.861,0.135-1.897,0.656-2.576c0.218-0.283,0.801-0.443,1.186-0.31c0.294,0.102,0.613,0.206,0.797,0.363
				c0.79,0.686,0.909,1.511,1.104,2.389c0.183,0.823,0.083,1.582,0.303,2.399c0.412,1.513,0.776,3.036,1.15,4.559
				c0.131,0.536,0.271,1.073,0.339,1.618l0.432,4.032c0.124,1.132,0.301,2.256,0.411,3.389c0.123,1.479,0.374,6.217,0.362,7.189
				C223.976,436.193,223.343,436.746,222.673,437.463z"/>
		</g>
	</g>
	<g>
		<g>
			<path fill="#020E28" d="M197.665,600.552c1.593-3.689,2.868-7.357,3.867-10.986c0.989-3.643,1.659-7.233,1.674-10.851l0.08-2.857
				c0.074-0.96,0.147-1.922,0.221-2.886c0.154-0.978,0.23-1.944,0.463-2.94l0.351-1.494l0.554-1.523
				c0.227-0.507,0.543-1.017,0.828-1.518l0.607-0.711l0.313-0.348c0.116-0.107,0.25-0.197,0.377-0.295l0.773-0.554l0.602-0.4
				l1.21-0.804c1.623-1.067,3.269-2.149,4.945-3.252c4.251-2.747,8.503-5.632,12.757-8.526c4.247-2.903,8.504-5.814,12.77-8.729
				c2.126-1.468,4.254-2.935,6.384-4.404l6.339-4.486c4.224-2.997,8.452-5.998,12.68-8.999c4.225-3.003,8.452-6.006,12.675-9.007
				c4.161-3.078,8.319-6.154,12.47-9.225c8.275-6.172,16.716-12.082,24.704-18.439c5.743-4.347,11.301-8.938,16.932-13.431
				c2.807-2.26,5.555-4.592,8.333-6.889c2.771-2.306,5.548-4.605,8.273-6.971l7.915-6.796l7.849-6.874l7.804-6.923l3.879-3.484
				l5.553-5.048l3.349,6.151l2.28,4.123c1.529,2.743,3.066,5.481,4.632,8.198c1.564,2.718,3.142,5.428,4.772,8.086
				c0.81,1.334,1.641,2.651,2.488,3.935c0.426,0.638,0.848,1.289,1.292,1.878l0.328,0.453l0.164,0.227
				c0.034,0.044,0.041,0.061,0.097,0.127l0.169,0.199l1.357,1.595l-1.594,3.341l-1.134,2.31l-2.301,4.598
				c-1.546,3.058-3.131,6.093-4.727,9.123c-3.206,6.053-6.511,12.05-9.916,17.99c-6.807,11.882-14.037,23.527-21.842,34.8
				c-5.866,8.422-11.707,16.143-17.84,23.265c-6.162,7.092-12.569,13.644-19.786,19.384c-1.87,1.358-3.653,2.823-5.642,4.046
				l-1.661,1.08l-1.352,0.869c-0.113,0.067-0.226,0.156-0.339,0.206l-0.35-0.207l-0.7-0.414c-0.451-0.262-0.981-0.588-1.284-0.784
				L311.569,585l-1.479-0.965c-3.808-2.695-7.493-5.589-11.048-8.738c-7.237-6.182-13.834-13.451-20.731-21.277
				c-2.684-3.33-5.364-6.786-8.011-10.207c-0.058-0.075-0.051-0.067-0.048-0.065l0.002-0.001l0.003-0.004l0.003-0.012
				c-0.009-0.004-0.027-0.003-0.056,0.001c-0.945,0.391-1.886,0.779-2.82,1.165c-1.93,0.815-3.835,1.62-5.697,2.406
				c-7.438,3.175-14.121,6.229-19.018,8.705c-4.021,2.136-5.291,2.202-2.248-0.063c2.296-1.778,4.848-3.446,7.926-5.255
				c1.7-0.94,3.402-1.895,5.132-2.807c1.739-0.892,3.482-1.794,5.25-2.664c1.775-0.852,3.551-1.727,5.36-2.554
				c0.904-0.415,1.811-0.83,2.72-1.247c1.082-0.477,2.167-0.953,3.255-1.433l1.177-0.504c0.045-0.006,0.106-0.076,0.139-0.029
				l0.1,0.126l0.202,0.252l0.404,0.504l1.366,1.706c0.628,0.783,1.257,1.568,1.889,2.356c1.26,1.579,2.529,3.169,3.807,4.772
				c0.64,0.8,1.282,1.603,1.927,2.411c0.686,0.771,1.376,1.545,2.068,2.323c1.384,1.555,2.78,3.124,4.189,4.708
				c0.662,0.74,1.318,1.476,1.97,2.205c0.688,0.694,1.37,1.384,2.048,2.069c1.353,1.374,2.689,2.73,4.014,4.075
				c1.291,1.384,2.725,2.584,4.083,3.857c1.386,1.239,2.711,2.545,4.136,3.723c1.429,1.173,2.858,2.347,4.294,3.524
				c1.474,1.119,2.975,2.221,4.496,3.302c0.672,0.44,1.346,0.883,2.024,1.327l0.172,0.103c0.059,0.018,0.119-0.063,0.179-0.09
				l0.791-0.516c0.794-0.526,1.607-1.031,2.398-1.585c0.775-0.581,1.556-1.165,2.343-1.755c5.788-4.422,11.074-9.538,16.042-14.94
				c4.966-5.411,9.614-11.13,14.051-17.013c8.862-11.779,16.905-24.194,24.43-36.901c5.287-8.954,10.337-18.083,15.198-27.277
				c1.527-2.886,3.027-5.786,4.508-8.696l2.192-4.376l1.077-2.193l0.468-0.966l0.013-0.02l-0.052-0.063l-0.637-0.876
				c-0.507-0.677-0.94-1.349-1.388-2.022c-0.889-1.348-1.735-2.695-2.558-4.054c-1.658-2.711-3.245-5.442-4.817-8.183
				c-1.574-2.738-3.114-5.491-4.648-8.248l-2.285-4.143l-0.897-1.643l-0.149-0.284l-0.11,0.093l-1.643,1.479l-3.643,3.272
				l-7.324,6.502c-16.263,14.284-32.758,28.313-49.842,41.651c-1.396,1.081-2.983,2.311-4.736,3.668
				c-1.754,1.356-3.659,2.862-5.784,4.361c-4.215,3.049-9.001,6.512-14.149,10.236c-2.574,1.862-5.239,3.789-7.967,5.762
				c-2.733,1.966-5.503,4.018-8.389,5.977c-5.739,3.969-11.629,8.043-17.457,12.074c-11.618,8.116-23.152,15.809-32.66,22.227
				c-2.382,1.6-4.641,3.116-6.748,4.532c-2.135,1.4-4.117,2.7-5.918,3.881c-1.802,1.18-3.422,2.241-4.834,3.166
				c-0.165,0.111-0.375,0.239-0.494,0.329c-0.114,0.084-0.226,0.166-0.336,0.246c-0.248,0.123-0.385,0.385-0.57,0.563
				c-0.194,0.164-0.304,0.44-0.438,0.657c-0.125,0.23-0.273,0.419-0.346,0.674c-0.127,0.33-0.252,0.658-0.377,0.983
				c-0.107,0.342-0.184,0.705-0.278,1.052c-0.207,0.685-0.308,1.421-0.437,2.131c-0.143,0.705-0.219,1.428-0.304,2.139
				c-0.083,0.711-0.188,1.407-0.232,2.113c-0.117,1.402-0.231,2.764-0.404,4.217c-0.09,0.71-0.24,1.4-0.359,2.092
				c-0.163,0.679-0.325,1.354-0.487,2.029c-0.729,2.67-1.705,5.218-2.852,7.768C200.559,595.375,199.245,597.941,197.665,600.552z"
				/>
		</g>
	</g>
	<g>
		<g>
			<path fill="#020E28" d="M235.304,546.85c-2.245-9.287-3.45-17.379-4.432-26.859c-2.485-23.989-6.294-48.507-8.914-72.511
				l-0.345-3.175l-0.17-1.587l-0.032-0.306l0.001-0.023l0.002-0.049l0-0.249c-0.019-0.045-0.094,0.063-0.153,0.104l-0.105,0.099
				l-0.841,0.962l-2.07,2.41c-1.374,1.613-2.737,3.237-4.081,4.878c-10.015,12.216-19.564,24.843-28.207,38.039
				c-4.296,6.61-8.353,13.372-11.964,20.344c-0.908,1.74-1.747,3.511-2.605,5.272c-0.785,1.79-1.654,3.55-2.355,5.369
				c-1.538,3.593-2.756,7.289-3.785,11.009c-0.218,0.906-0.434,1.806-0.646,2.689c-0.215,0.883-0.314,1.763-0.474,2.614
				c-0.035,0.209-0.069,0.416-0.103,0.619l-0.014,0.189c-0.004,0.113-0.02,0.238-0.012,0.317c0.393-0.255,0.781-0.507,1.165-0.756
				c1.408-0.887,2.801-1.764,4.184-2.635c2.794-1.736,5.548-3.447,8.304-5.16c2.756-1.71,5.546-3.386,8.384-5.088
				c1.419-0.851,2.888-1.674,4.353-2.526c0.743-0.441,1.432-0.821,2.331-1.275c1.469-0.757,2.947-1.52,4.436-2.288
				c0.293,1.171,0.588,2.401,0.921,3.588c0.15,0.482,0.301,0.97,0.454,1.462c0.1,0.292,0.2,0.588,0.3,0.885
				c0.414,1.189,0.878,2.41,1.398,3.646c1.039,2.47,2.273,5.018,3.754,7.509c2.442,4.152,5.433,8.197,8.719,11.366
				c1.635,1.59,3.33,2.965,4.971,4.117c1.652,1.134,3.249,2.035,4.664,2.75c2.376,1.111,2.862,1.873,0.625,1.517
				c-1.702-0.28-3.499-0.727-5.457-1.623c-4.286-1.945-8.08-5.031-11.288-8.691c-3.214-3.676-5.862-7.945-8.078-12.595
				c-0.839-1.766-1.568-3.524-2.207-5.277c-0.322-0.875-0.615-1.752-0.894-2.627c-0.134-0.445-0.152-0.532-0.212-0.789
				c-0.351,0.142-0.236,0.086-1.745,0.854c-1.144,0.644-2.288,1.287-3.441,1.936c-2.302,1.301-4.607,2.711-7.001,4.163l-9.957,6.241
				l-12.997,8.281l0.556-6.487l0.213-1.603l0.156-0.965l0.306-1.846l0.845-3.619c0.304-1.198,0.689-2.367,1.031-3.553
				c1.484-4.694,3.335-9.233,5.366-13.669c2.62-5.657,5.583-11.147,8.769-16.467c7.854-13.072,16.778-25.389,26.105-37.361
				c3.942-5.033,7.956-10.007,12.078-14.896l3.108-3.653l2.933-3.362l2.949-3.314l0.093-0.104c0.019,0.002,0.015,0.08,0.023,0.117
				l0.033,0.278l0.066,0.557l0.133,1.114l0.266,2.225l0.529,4.442l0.545,4.835c1.8,16.496,7.554,69.208,8.729,79.978
				C235.295,534.181,235.222,539.602,235.304,546.85z"/>
		</g>
	</g>
	<g>
		<g>
			<path fill="#020E28" d="M198.724,467.565c-4.065,4.259-7.987,7.324-12.802,10.55c-12.186,8.162-23.987,17.586-36.109,25.866
				c-4.275,2.923-8.585,5.781-12.839,8.733c-7.917,5.477-15.848,11.034-23.859,16.403c-7.937,5.396-15.783,10.951-21.829,18.119
				c-2.275,2.727-4.144,5.488-5.752,8.283c-1.579,2.798-2.718,5.783-3.985,8.683c-0.332,0.717-0.58,1.479-0.844,2.234
				c-0.263,0.756-0.526,1.514-0.791,2.274c-0.506,1.532-1.117,3.037-1.545,4.648c-0.465,1.595-0.938,3.218-1.423,4.881
				c-0.497,1.659-0.876,3.403-1.337,5.178c-1.465,5.837-3.306,12.157-4.611,15.93c-0.546,1.564-1.2,1.85-1.322,0.454
				c-0.087-1.065-0.173-2.186-0.092-3.473c0.425-5.596,1.731-11.156,3.285-17.122c0.739-2.796,1.611-5.365,2.411-7.948
				c0.921-2.555,1.841-5.107,2.827-7.84l1.559-3.742l0.783-1.872l0.393-0.937l0.465-0.915c0.624-1.219,1.224-2.452,1.957-3.613
				l1.057-1.767l1.161-1.699c3.106-4.536,6.925-8.533,11.015-12.1c2.877-2.519,5.885-4.876,8.974-7.043
				c3.793-2.677,7.641-5.208,11.439-7.773l11.357-7.79l19.103-13.233c8.31-5.733,34.941-23.938,40.419-27.606
				C191.622,470.761,194.7,469.458,198.724,467.565z"/>
		</g>
	</g>
	<g>
		<g>
			<path fill="#020E28" d="M400.836,466.017c4.927,2.912,8.677,5.953,12.784,9.796c10.372,9.753,21.982,18.702,32.61,28.17
				c3.761,3.327,7.509,6.652,11.311,9.93l2.659,2.285l2.697,2.229l5.397,4.458c3.557,3.051,7.303,5.748,10.986,8.565
				c1.808,1.429,3.813,2.704,5.715,4.073l2.881,2.048l2.85,2.11c3.778,2.854,7.446,5.908,10.865,9.256
				c5.146,5.141,9.017,10.344,12.312,15.857c3.313,5.516,6.001,11.39,8.541,18.232c1.118,2.788,1.86,5.829,2.552,8.605
				c0.64,2.79,0.983,5.379,1.205,7.321c0.169,1.626-0.32,2.122-1.009,0.942c-0.526-0.899-1.089-1.836-1.56-2.981
				c-0.519-1.249-0.966-2.522-1.441-3.795c-0.496-1.267-0.966-2.552-1.421-3.857c-0.855-2.634-1.921-5.253-2.929-8.011
				c-2.121-5.061-3.808-9.568-6.676-14.243c-2.63-4.322-5.55-8.464-8.963-12.173c-3.396-3.722-7.168-7.084-11.183-10.181
				c-2.805-2.201-5.789-4.231-8.72-6.328c-3.667-2.466-7.24-5.303-10.836-8.024c-1.826-1.344-3.522-2.798-5.248-4.228l-5.173-4.292
				c-2.93-2.384-5.766-4.859-8.626-7.312c-2.853-2.459-5.727-4.897-8.555-7.381c-3.663-3.263-11.389-10.063-18.668-16.717
				c-7.318-6.609-14.229-13.033-16.572-15.215C405.366,472.081,403.472,469.441,400.836,466.017z"/>
		</g>
	</g>
	<g>
		<g>
			<path fill="#4F1B01" d="M242.294,71.829c-1.592,1.196-3.17,2.382-4.737,3.559c-0.772,0.6-1.585,1.138-2.314,1.779
				c-0.736,0.634-1.469,1.265-2.199,1.894c-1.443,1.277-2.95,2.454-4.315,3.779c-1.366,1.32-2.725,2.634-4.077,3.941
				c-5.267,5.363-10.203,10.862-14.668,16.744c-4.514,5.836-8.777,11.879-12.737,18.285c-3.971,6.392-7.782,13.074-11.238,20.217
				c-0.539,1.132-1.086,2.263-1.578,3.404c-0.523,1.158-1.014,2.271-1.107,3.184c-0.231,2.289-0.141,4.863-0.041,7.369
				c0.254,5.077,0.508,10.163,0.763,15.254c0.219,5.113,0.35,10.249,0.234,15.409c-0.06,2.58-0.184,5.165-0.404,7.752
				c-0.237,2.609-0.532,5.132-0.817,7.668c-0.309,2.538-0.501,5.073-0.743,7.61c-0.23,2.537-0.318,5.071-0.481,7.608
				c-0.099,5.066-0.099,10.139,0.468,15.169l0.391,3.774l0.616,3.75l0.112,0.654c0.025,0.149,0.052,0.296,0.089,0.434l0.195,0.812
				l0.093,0.383c0.015,0.05,0.03,0.151,0.045,0.159l0.044-0.224l0.168-0.858l0.151-0.8l0.537-2.645
				c4.104-20.139,7.824-40.281,10.818-60.557c0.774-5.065,1.549-10.126,2.322-15.182c0.818-5.073,1.504-10.063,2.671-15.378
				c0.819-2.604,1.817-4.989,2.922-7.375c1.107-2.372,2.329-4.682,3.655-6.929c2.649-4.494,5.72-8.734,9.179-12.626
				c4.879-5.485,10.508-10.342,16.779-14.186c6.242-3.88,13.064-6.813,20.132-8.727c7.063-1.983,14.366-2.876,21.615-3.164
				c7.261-0.292,14.513,0.038,21.704,0.798c13.395,1.412,26.59,4.193,39.481,7.972c6.445,1.893,12.811,4.071,19.062,6.572
				c6.246,2.51,12.4,5.3,18.251,8.842c2.907,1.811,5.781,3.721,8.276,6.516c0.564,0.7,1.051,1.42,1.577,2.132l0.769,1.073
				l0.66,1.112l1.316,2.226c0.412,0.751,0.777,1.518,1.168,2.277c3.053,6.094,5.418,12.411,7.542,18.79
				c2.106,6.386,3.925,12.854,5.473,19.392c1.51,6.551,2.857,13.136,3.466,19.939l0.193,2.563l0.017,2.628
				c-0.011,1.724-0.087,3.31-0.129,4.972c-0.001,3.266,0.011,6.549,0.556,9.66c0.475,3.134,1.604,6.022,2.858,9.196
				c1.18,3.279,2.082,6.46,3.009,9.702c1.785,6.467,3.359,12.984,4.697,19.56c1.329,6.576,2.435,13.209,3.095,19.925
				c0.151,1.681,0.336,3.357,0.392,5.054c0.09,1.691,0.19,3.38,0.154,5.088l-0.002,1.219l-0.029,0.455l-0.015,0.227
				c-0.001,0.035-0.008,0.082-0.005,0.107l0.076-0.086l0.304-0.343l1.733-1.982l3.262-3.77c2.18-2.51,4.295-5.065,6.43-7.606
				c2.074-2.578,4.202-5.131,6.144-7.771c0.489-0.656,1.006-1.308,1.474-1.967l1.311-1.994l0.657-0.995
				c0.24-0.331,0.327-0.666,0.502-0.996c0.331-0.629,0.579-1.395,0.841-2.138c1.007-3.015,1.758-6.235,2.432-9.452
				c0.652-3.23,1.249-6.481,1.757-9.752c0.787-4.965,1.443-9.884,1.961-14.74c0.268-2.428,0.469-4.839,0.627-7.22
				c0.056-1.18,0.116-2.368,0.087-3.456c-0.04-1.146-0.137-2.339-0.238-3.517c-0.843-9.451-2.369-18.664-4.374-27.59
				c-2.006-8.931-4.521-17.594-7.603-25.967c-3.05-8.385-6.806-16.428-11.26-24.04l-1.659-2.864
				c-0.58-0.938-1.219-1.836-1.825-2.757l-1.841-2.749l-0.921-1.375l-0.987-1.332c-2.618-3.563-5.454-6.989-8.452-10.298
				c-2.989-3.317-6.129-6.533-9.441-9.611c-3.304-3.086-6.73-6.091-10.336-8.937c-7.177-5.729-14.95-10.974-23.343-15.533
				c-8.409-4.485-17.492-8.337-27.247-10.39c-4.631-0.961-9.402-1.485-14.115-1.292c-0.589,0.029-1.18,0.038-1.766,0.081
				l-1.747,0.203c-1.174,0.093-2.31,0.356-3.452,0.577l-0.857,0.168l-0.833,0.242l-1.667,0.478
				c-0.565,0.133-1.078,0.398-1.619,0.589l-2.433,0.948c-1.723-0.671-1.991-0.753-2.753-0.991c-0.676-0.226-1.372-0.413-2.069-0.596
				c-0.69-0.199-1.393-0.363-2.1-0.509c-0.706-0.143-1.399-0.334-2.113-0.439c-1.42-0.229-2.826-0.508-4.249-0.633
				c-0.709-0.081-1.416-0.161-2.12-0.24c-0.706-0.065-1.414-0.084-2.118-0.128c-0.704-0.039-1.406-0.078-2.104-0.117
				c-0.7-0.028-1.398,0.002-2.093-0.001c-1.389,0.025-2.771-0.033-4.132,0.108c-1.362,0.105-2.716,0.178-4.05,0.302
				c-1.329,0.187-2.642,0.371-3.939,0.553c-1.307,0.139-2.564,0.459-3.816,0.717c-1.247,0.279-2.492,0.501-3.694,0.813
				c-1.194,0.348-2.369,0.69-3.525,1.026c-1.154,0.344-2.307,0.628-3.382,1.073c-1.09,0.407-2.159,0.805-3.205,1.195
				c-1.042,0.403-2.092,0.729-3.047,1.213c-1.947,0.893-3.801,1.743-5.551,2.545c-7.932,4.336-10.103,4.956-3.843,0.83
				c0.598-0.394,1.2-0.789,1.807-1.188c0.607-0.401,1.214-0.814,1.872-1.15c1.3-0.711,2.626-1.437,3.987-2.183
				c0.687-0.364,1.37-0.764,2.091-1.11c0.733-0.322,1.476-0.649,2.232-0.982c1.523-0.637,3.064-1.393,4.74-1.977
				c7.407-2.774,15.308-4.479,23.382-4.86c2.02-0.054,4.045-0.17,6.078-0.048c2.036,0.02,4.066,0.238,6.106,0.434
				c2.031,0.274,4.066,0.582,6.087,1.031c1.014,0.209,2.017,0.489,3.026,0.75l1.508,0.454l0.964,0.331l2.23-0.899
				c0.957-0.342,1.943-0.598,2.918-0.899c1.971-0.5,3.977-0.913,6.007-1.114c4.057-0.456,8.168-0.366,12.244,0.1
				c8.146,1.026,16.132,3.471,23.839,6.787c7.396,3.171,14.194,6.973,20.581,11.129c6.402,4.142,12.362,8.698,18.042,13.57
				c5.685,4.869,11.044,10.118,16.113,15.812c1.291,1.402,2.492,2.896,3.745,4.357c1.196,1.51,2.441,2.994,3.594,4.568
				c0.584,0.781,1.169,1.565,1.756,2.352c0.547,0.816,1.097,1.635,1.647,2.456c1.087,1.652,2.248,3.277,3.3,4.987
				c1.839,3.225,3.835,6.37,5.425,9.725c0.82,1.664,1.72,3.292,2.474,4.986l2.251,5.086c2.848,6.842,5.41,13.811,7.417,20.94
				c4.105,14.24,6.908,28.797,8.021,43.657c0.076,0.904,0.064,1.977,0.044,2.91c-0.039,0.945-0.068,1.896-0.143,2.82
				c-0.118,1.866-0.292,3.709-0.473,5.554c-0.363,3.687-0.833,7.351-1.34,11.012c-1.061,7.322-2.232,14.604-4.188,21.881
				c-0.273,0.913-0.486,1.817-0.837,2.738l-0.484,1.376c-0.161,0.458-0.419,0.941-0.628,1.41l-0.333,0.706
				c-0.117,0.226-0.259,0.411-0.388,0.618l-0.791,1.21c-0.535,0.792-1.04,1.647-1.605,2.383l-3.374,4.456l-3.479,4.323
				c-2.353,2.845-4.712,5.682-7.117,8.471l-3.611,4.183l-6.257,7.082l-1.254,1.41l-0.628,0.706l-0.314,0.353l-0.158,0.177
				l-0.039,0.044c-0.004-0.007,0.001-0.035,0.001-0.052l0.005-0.116l0.185-3.701l0.184-3.711l0.143-3.899
				c0.054-2.552-0.119-5.061-0.255-7.603c-0.414-5.074-1.106-10.147-1.955-15.203c-1.778-10.098-4.128-20.145-6.993-29.981
				c-0.454-1.503-0.904-3.009-1.394-4.479c-0.246-0.751-0.483-1.403-0.766-2.15l-0.864-2.243c-0.571-1.525-1.129-3.132-1.51-4.788
				c-0.421-1.654-0.634-3.326-0.829-4.985c-0.118-1.65-0.26-3.306-0.242-4.928l-0.025-2.444l0.073-2.42l0.074-2.419l-0.01-2.234
				c0.028-0.734-0.088-1.52-0.128-2.28c-0.069-0.767-0.09-1.527-0.197-2.3c-0.701-6.171-1.939-12.363-3.374-18.487
				c-1.445-6.129-3.175-12.198-5.126-18.178c-1.97-5.969-4.16-11.881-6.86-17.478l-1.046-2.073l-0.525-1.035l-0.584-0.985
				l-1.164-1.973c-0.385-0.661-0.861-1.218-1.284-1.834c-0.864-1.282-1.748-2.217-2.896-3.19c-1.114-0.958-2.349-1.848-3.621-2.695
				c-5.139-3.363-10.838-6.081-16.612-8.526c-5.785-2.45-11.727-4.569-17.738-6.461c-10.126-3.195-20.484-5.676-30.948-7.432
				c-10.461-1.746-21.066-2.681-31.611-2.404c-10.537,0.272-21.002,2.075-30.667,6.075c-9.647,3.99-18.369,10.123-25.429,17.83
				c-4.594,4.996-9.833,12.105-13.902,21.302c-0.499,1.148-0.987,2.327-1.424,3.532c-0.21,0.6-0.439,1.213-0.601,1.805
				c-0.125,0.635-0.251,1.275-0.378,1.919c-0.244,1.305-0.542,2.558-0.758,3.957c-0.224,1.387-0.452,2.792-0.682,4.215
				c-0.904,5.705-1.853,11.692-2.836,17.896c-1.005,6.21-2.045,12.637-3.11,19.218c-1.2,6.568-2.377,13.302-3.665,20.102
				c-1.377,6.779-2.692,13.665-4.159,20.545c-1.023,4.772-2.048,9.554-3.072,14.334l-0.991,4.347l-0.495,2.169l-0.247,1.084
				l-0.061,0.27c-0.021,0.001-0.04-0.16-0.061-0.232l-0.122-0.559c-0.646-2.972-1.291-5.942-1.936-8.908
				c-0.315-1.48-0.666-2.952-0.914-4.437l-0.405-2.219l-0.19-1.049l-0.104-0.657c-0.266-1.753-0.596-3.491-0.72-5.257
				c-0.159-1.759-0.364-3.51-0.483-5.262c-0.064-1.755-0.128-3.504-0.192-5.247c-0.073-6.975,0.457-13.804,1.15-20.405
				c0.372-3.279,0.795-6.575,1.087-9.688c0.161-1.57,0.221-3.146,0.328-4.7c0.042-1.563,0.126-3.108,0.133-4.647
				c0.084-6.152-0.145-12.098-0.423-17.757c-0.257-5.674-0.68-11.011-0.638-16.174c0.01-0.648,0.018-1.289,0.093-1.966
				c0.035-0.339,0.045-0.652,0.103-1.007c0.085-0.374,0.17-0.747,0.255-1.118c0.438-1.278,0.944-2.338,1.421-3.423
				c0.978-2.142,1.961-4.158,2.935-6.059c3.861-7.62,7.459-13.417,9.908-17.291c6.93-10.797,13.78-19.437,21.278-27.205
				C223.795,85.102,231.949,78.132,242.294,71.829z"/>
		</g>
	</g>
	<g>
		<g>
			<path fill="#4F1B01" d="M185.17,251.163c-1.804,6.734-3.058,13.076-4.083,19.427c-1.021,6.351-1.749,12.743-1.908,19.635
				c-0.095,2.182,0.023,4.358,0.084,6.545c0.153,2.196,0.28,4.397,0.526,6.595c0.412,4.401,1.074,8.792,1.807,13.174
				c1.547,8.755,3.659,17.44,6.273,25.965c5.231,17.055,12.477,33.434,21.57,48.455l4.859,7.969
				c1.634,2.644,3.404,5.182,5.099,7.778l1.289,1.935l1.378,1.854l2.758,3.709c0.445,0.635,0.944,1.211,1.447,1.783l1.496,1.73
				l1.496,1.731c0.519,0.551,1.08,1.045,1.618,1.57l1.516,1.449c0.485,0.514,1.08,0.854,1.613,1.293l1.642,1.246l1.773,1.057
				c0.573,0.365,1.206,0.692,1.849,1.014c0.627,0.306,1.295,0.694,1.886,0.927l0.908,0.399l0.985,0.366
				c0.656,0.247,1.317,0.489,2.003,0.707c5.434,1.807,11.057,3.313,16.671,4.722c5.623,1.397,11.284,2.679,16.955,3.712
				c2.821,0.476,5.699,0.985,8.431,1.125c0.65-0.001,1.292,0.027,1.9-0.036c0.291-0.037,0.596-0.081,0.941-0.159
				c0.334-0.07,0.662-0.128,1.007-0.219c1.362-0.316,2.746-0.706,4.12-1.111c5.511-1.64,10.972-3.6,16.365-5.694
				c5.397-2.095,10.729-4.366,15.984-6.792c10.506-4.858,20.742-10.322,30.372-16.665c7.308-4.821,13.823-9.884,19.515-15.389
				c2.838-2.763,5.417-5.66,7.773-8.692c1.132-1.573,2.259-3.141,3.385-4.705l0.843-1.173l0.766-1.225l1.533-2.448
				c8.136-13.083,13.787-27.757,17.564-45.031c1.541-7.095,2.845-14.581,3.805-21.499c0.957-6.917,1.628-13.254,2.173-18.015
				c0.439-3.971,1.081-4.872,1.293-1.59c0.177,2.504,0.314,5.137,0.288,8.222c-0.12,6.728-0.652,13.528-1.609,20.455
				c-0.961,6.925-2.31,13.989-4.266,21.195c-1.829,6.753-3.897,12.987-6.5,19.006c-1.198,3.053-2.696,5.975-4.127,8.987
				c-0.712,1.509-1.589,2.951-2.385,4.458c-0.825,1.491-1.604,3.034-2.57,4.503l-2.571,4.143c-0.412,0.701-0.891,1.359-1.365,2.02
				l-1.417,1.985c-1.853,2.657-3.842,5.291-6.063,7.701c-4.378,4.875-9.254,9.243-14.393,13.226
				c-10.304,7.949-21.518,14.545-33.053,20.384c-8.135,4.088-16.474,7.817-24.981,11.064c-5.232,1.996-10.508,3.853-15.935,5.431
				c-1.358,0.395-2.734,0.758-4.158,1.083l-1.102,0.223c-0.393,0.062-0.827,0.129-1.23,0.162c-0.781-0.001-1.638,0.056-2.357-0.016
				c-2.968-0.176-5.71-0.674-8.5-1.143c-5.532-1.01-10.979-2.241-16.405-3.58c-5.423-1.35-10.813-2.796-16.184-4.484
				c-2.261-0.764-4.52-1.45-6.847-2.594c-1.062-0.567-2.122-1.027-3.187-1.704c-1.063-0.635-2.145-1.238-3.103-2.031
				c-2.061-1.421-3.743-3.175-5.514-4.852c-0.839-0.87-1.588-1.801-2.386-2.698c-0.774-0.913-1.599-1.796-2.331-2.734l-4.272-5.695
				c-1.375-1.926-2.646-3.91-3.972-5.862l-1.97-2.939c-0.648-0.984-1.241-1.998-1.863-2.995l-3.692-6.01
				c-3.199-5.222-7.939-13.559-12.328-23.733c-0.546-1.273-1.102-2.568-1.666-3.883c-0.547-1.32-1.056-2.68-1.596-4.044
				c-1.106-2.72-2.065-5.566-3.091-8.431c-1.919-5.773-3.784-11.736-5.251-17.737c-3.051-11.971-4.968-23.935-5.813-33.911
				c-0.413-4.977-0.544-9.522-0.393-13.272c0.071-1.876,0.205-3.559,0.302-5.026c0.151-1.461,0.28-2.708,0.384-3.709
				c0.68-5.598,1.769-10.299,3.098-14.835C181.444,260.397,183.011,255.998,185.17,251.163z"/>
		</g>
	</g>
	<path fill-rule="evenodd" clip-rule="evenodd" fill="#09001A" d="M403.223,239.212c-1.334-3.003-21.025-14.684-54.897-16.273
		c-33.874-1.589-51.894,6.929-68.413,5.593c-16.52-1.335-24.028-10.846-52.926-15.852c-28.898-5.006-58.797-1.03-60.374,1.335
		c-1.001,1.501-2.169,14.684-1.669,16.62c0.501,1.937,2.837,1.734,4.171,4.738c1.336,3.003,0.334,21.024,10.816,31.395
		c10.482,10.37,61.102,8.986,71.614,5.816c10.512-3.17,13.182-15.518,17.187-25.53c4.005-10.012,17.354-5.506,19.523-0.835
		c2.169,4.672,5.84,27.365,18.189,35.708c12.347,8.343,61.904,9.01,70.748,7.008c8.844-2.002,14.518-18.021,17.021-23.527
		c2.503-5.507,5.507-6.174,7.175-7.487C403.055,256.61,404.558,242.216,403.223,239.212z M254.882,264.909
		c-6.174,8.009-65.243,8.009-73.752-2.67c-8.51-10.68-8.816-42.892-4.287-45.42c14.345-8.01,82.878,3.538,86.927,16.553
		C266.907,243.455,261.057,256.9,254.882,264.909z M380.862,281.595c-5.339,5.84-53.82,5.038-69.581-2.336
		c-14.264-6.674-21.024-42.716-13.182-46.387c20.65-9.666,86.768-4.839,93.275,6.34
		C397.883,250.392,386.202,275.755,380.862,281.595z"/>
	<g>
		<g>
			<path fill="#B8494B" d="M268.465,253.871c0.499-1.869,0.982-3.745,1.513-5.603c0.218-0.756,0.585-1.482,0.96-2.171
				c0.115-0.209,0.516-0.323,0.779-0.322c0.113,0,0.21,0.408,0.301,0.637c0.022,0.054,0.001,0.132-0.007,0.198
				c-0.228,1.862-0.305,3.759-0.737,5.577c-0.917,3.918-1.771,7.857-3.098,11.674c-0.747,2.148-1.263,4.381-1.92,6.568
				c-0.555,1.867-1.005,3.764-1.616,5.615c-0.275,0.823-0.65,1.634-1.091,2.374c-0.696,1.167-1.124,2.42-1.541,3.704
				c-0.71,1.96-1.486,3.898-2.263,5.829c-0.078,0.192-0.386,0.422-0.55,0.399c-0.169-0.022-0.409-0.319-0.417-0.516
				c-0.023-0.585-0.051-1.207,0.107-1.76c0.607-2.183,1.352-4.31,1.92-6.51c0.373-1.349,0.807-2.682,1.151-4.037
				c0.744-3.045,1.63-6.038,2.667-9.005c0.885-2.656,1.626-5.366,2.371-8.071l1.315-4.626L268.465,253.871z"/>
		</g>
	</g>
	<g>
		<g>
			<path fill="#B8494B" d="M243.251,294.87c0.331-0.634,0.676-1.266,1.152-1.81c0.189-0.225,0.513-0.355,0.85-0.44
				c0.102-0.027,0.429,0.154,0.627,0.315c0.085,0.071,0.156,0.276,0.226,0.418c0.017,0.033-0.001,0.05-0.007,0.071
				c-0.197,0.594-0.19,1.291-0.438,1.8c-0.533,1.134-0.782,2.323-1.242,3.478c-0.149,0.327-0.19,0.678-0.216,1.028
				c-0.044,0.349-0.014,0.702-0.003,1.052c-0.018,0.6,0.177,1.183,0.219,1.774c0.05,0.262,0.003,0.546-0.127,0.849
				c-0.226,0.485-0.084,0.904,0.052,1.319c0.182,0.652,0.456,1.279,0.664,1.941c0.021,0.065-0.121,0.26-0.26,0.348
				c-0.142,0.09-0.46,0.182-0.553,0.157c-0.275-0.071-0.577-0.154-0.7-0.328c-0.234-0.344-0.488-0.686-0.676-1.061l-0.545-1.15
				c-0.215-0.483-0.297-1.011-0.506-1.51c-0.205-0.567-0.301-1.171-0.355-1.771c0.008-0.605,0.001-1.215,0.167-1.806
				c0.207-1.056,0.422-2.099,0.763-3.105c0.228-0.562,0.472-1.114,0.762-1.642L243.251,294.87z"/>
		</g>
	</g>
	<g>
		<g>
			<path fill="#B8494B" d="M311.569,302.806c-0.204-0.556-0.457-1.093-0.691-1.637c-0.092-0.224-0.068-0.522-0.032-0.831
				c0.013-0.095,0.27-0.356,0.458-0.533c0.08-0.077,0.318-0.074,0.474-0.097c0.037-0.005,0.052,0.02,0.072,0.035
				c0.556,0.423,1.198,0.833,1.526,1.434c0.674,1.277,1.281,2.692,1.212,4.204c-0.014,0.421,0.011,0.833,0.011,1.252
				c0.02,0.418,0.042,0.837-0.004,1.255c-0.022,0.716-0.11,1.432-0.273,2.133c-0.098,0.304-0.308,0.583-0.582,0.807
				c-0.415,0.36-0.63,0.759-0.833,1.185c-0.275,0.678-0.754,1.234-1.18,1.806c-0.044,0.057-0.275,0.031-0.415-0.051
				c-0.145-0.085-0.38-0.324-0.411-0.416c-0.092-0.272-0.199-0.556-0.139-0.728c0.266-0.666,0.462-1.332,0.653-1.985
				c0.094-0.408,0.207-0.807,0.257-1.217c0.009-0.938,0.172-1.782,0.298-2.698c0.154-0.819-0.042-1.646-0.193-2.461
				c-0.097-0.468-0.211-0.935-0.359-1.397L311.569,302.806z"/>
		</g>
	</g>
	<g>
		<g>
			<path fill="#B8494B" d="M258.421,315.282l-6.991-4.02c-0.944-0.554-1.825-1.24-2.659-1.918c-0.253-0.207-0.331-0.662-0.284-0.927
				c0.021-0.114,0.568-0.035,0.882-0.028c0.074,0.002,0.172,0.058,0.257,0.093c2.381,1.048,4.842,1.935,7.121,3.202l3.693,2.027
				l3.66,2.164c0.632,0.395,1.155,0.652,1.71,0.968c0.529,0.346,1.136,0.532,1.721,0.766c0.298,0.104,0.577,0.259,0.89,0.328
				l0.933,0.228l0.933,0.242l0.971,0.13c2.93,0.412,6.034,0.068,9.062-0.549c1.3-0.196,2.585-0.587,3.875-0.876
				c1.293-0.312,2.643-0.621,3.967-0.904c1.186-0.253,2.417-0.415,3.599-0.48c1.866-0.087,3.691-0.348,5.538-0.691
				c1.424-0.266,2.854-0.492,4.292-0.673c1.436-0.188,2.866-0.393,4.311-0.541c0.287-0.031,0.764,0.116,0.837,0.271
				c0.077,0.157-0.143,0.518-0.382,0.626c-0.712,0.321-1.465,0.658-2.249,0.823l-4.637,0.915l-4.622,0.981
				c-1.911,0.368-3.799,0.826-5.671,1.322c-4.137,1.064-8.516,2.3-13.057,2.488c-0.999,0.104-2.039,0.011-3.055,0.033
				c-1.02,0.007-2.059-0.179-3.086-0.258c-2.038-0.405-4.135-0.93-5.933-2.082l-0.787-0.451l-0.704-0.44l-1.402-0.881
				c-0.941-0.581-1.855-1.19-2.819-1.75L258.421,315.282z"/>
		</g>
	</g>
	<path fill="#498089" d="M244.387,236.569c1.145-1.738,1.818-3.813,1.824-6.049c0.004-1.545-0.31-3.017-0.879-4.355l-8.015-4.762
		l-5.757-0.015l-3.982,1.021c-2.153,2.015-3.509,4.871-3.518,8.052c-0.003,1.278,0.221,2.501,0.616,3.645l6.512,2.029
		L244.387,236.569z"/>
	<path fill="#498089" d="M357.873,238.303l-15.516-6.399c-3.59,1.824-6.06,5.539-6.07,9.842c-0.008,2.762,1.003,5.285,2.67,7.229
		l15.143,1.576c2.627-2.019,4.329-5.179,4.339-8.747C358.441,240.58,358.237,239.405,357.873,238.303z"/>
	<path fill="#09001A" d="M231.188,236.292l9.355,0.283c0.886-1.717,1.409-3.749,1.409-5.938c0-1.545-0.289-4.23-0.752-5.567
		l-6.457-3.526h-3.221l-3.979,1.031c-2.148,2.021-3.497,4.88-3.497,8.062c0,1.278,0.227,2.5,0.626,3.643L231.188,236.292z"/>
	<path fill="#09001A" d="M350.922,250.061c1.924-2.031,3.159-5.043,3.159-8.432c0-1.225-0.58-3.568-0.876-4.669l-11.429-4.873
		c-2.962,1.741-5.04,4.814-5.409,8.4c-0.031,0.377-0.065,0.754-0.065,1.142c0,2.762,1.018,5.282,2.689,7.222L350.922,250.061z"/>
	<g>
		<g>
			<path fill="#09001A" d="M234.916,220.04c1.551-0.068,3.105-0.119,4.655,0.001c0.631,0.051,1.262,0.307,1.854,0.614
				c0.18,0.093,0.314,0.589,0.33,0.932c0.008,0.147-0.29,0.38-0.454,0.563c-0.038,0.043-0.099,0.036-0.15,0.045
				c-1.439,0.229-2.856,0.73-4.268,0.826c-3.06,0.21-6.047,0.772-9.076,1.062c-1.714,0.166-3.359,0.723-4.956,1.292
				c-1.371,0.48-2.653,1.142-3.922,1.775c-0.578,0.265-1.184,0.484-1.858,0.573c-1.035,0.184-1.885,0.733-2.653,1.377
				c-1.2,0.981-2.336,2.041-3.316,3.251c-0.1,0.117-0.477,0.152-0.674,0.054c-0.203-0.1-0.473-0.466-0.466-0.642
				c0.021-0.512,0.041-1.1,0.307-1.503c1.035-1.597,2.388-2.986,3.865-4.193c0.918-0.744,1.923-1.362,2.903-2.01
				c2.202-1.464,4.696-2.379,7.238-2.836c2.263-0.419,4.491-0.907,6.754-1.143c1.291-0.133,2.584-0.215,3.876-0.254L234.916,220.04z
				"/>
		</g>
	</g>
	<g>
		<g>
			<path fill="#09001A" d="M237.655,223.861c-1.185-0.439-2.404-0.779-3.611-1.13c-0.491-0.146-0.96-0.419-1.416-0.699
				c-0.138-0.086-0.217-0.463-0.233-0.723c-0.007-0.113,0.283-0.265,0.44-0.382c0.038-0.028,0.093-0.017,0.14-0.018
				c1.306-0.01,2.641-0.056,3.893,0.279c2.678,0.723,5.346,1.639,7.682,3.174c0.667,0.41,1.326,0.834,2.001,1.234
				c0.685,0.384,1.348,0.807,1.995,1.251c1.131,0.718,2.204,1.525,3.253,2.359c0.44,0.403,0.823,0.893,1.12,1.418
				c0.485,0.811,1.09,1.47,1.721,2.136c1.015,0.987,1.829,2.152,2.678,3.272c0.083,0.113,0.057,0.411-0.055,0.53
				c-0.115,0.123-0.455,0.225-0.591,0.179c-0.403-0.139-0.83-0.279-1.101-0.544c-1.037-1.074-2.148-2.063-3.245-3.053
				c-0.702-0.583-1.393-1.183-2.121-1.727c-0.854-0.563-1.673-1.155-2.487-1.754c-0.844-0.557-1.622-1.212-2.468-1.781
				c-0.369-0.265-0.747-0.52-1.128-0.769c-0.39-0.235-0.792-0.449-1.191-0.668c-0.792-0.455-1.634-0.808-2.45-1.216
				c-0.951-0.424-1.902-0.855-2.882-1.213L237.655,223.861z"/>
		</g>
	</g>
	<g>
		<g>
			<path fill="#09001A" d="M218.355,233.53c-1.544-0.492-3.045-1.147-4.517-1.836c-0.59-0.32-1.12-0.749-1.596-1.232
				c-0.146-0.149-0.116-0.546-0.028-0.789c0.038-0.104,0.396-0.127,0.6-0.18c0.048-0.012,0.102,0.02,0.151,0.037
				c0.729,0.218,1.454,0.423,2.193,0.594c0.746,0.165,1.475,0.348,2.174,0.611c1.529,0.516,3.094,0.953,4.643,1.41
				c1.58,0.375,3.144,0.799,4.696,1.313c1.781,0.457,3.626,0.696,5.444,1.008c1.56,0.223,3.147,0.239,4.709,0.431
				c0.697,0.077,1.4,0.254,2.065,0.513c1.048,0.441,2.139,0.396,3.237,0.442c1.698,0.03,3.396,0.128,5.097,0.231
				c0.169,0.011,0.44,0.227,0.476,0.389c0.037,0.168-0.112,0.492-0.26,0.564c-0.441,0.213-0.915,0.443-1.395,0.475
				c-1.886,0.122-3.785,0.178-5.686,0.242l-0.882,0.018l-0.879-0.059c-0.586-0.039-1.173-0.075-1.761-0.088
				c-1.318-0.028-2.634-0.11-3.944-0.239c-1.31-0.127-2.595-0.474-3.882-0.764c-1.142-0.294-2.304-0.472-3.447-0.763l-3.422-0.903
				c-1.309-0.316-2.565-0.835-3.839-1.271L218.355,233.53z"/>
		</g>
	</g>
	<g>
		<g>
			<path fill="#09001A" d="M338.61,233.005c-2.228-0.297-4.477-0.448-6.717-0.571c-0.912-0.052-1.832-0.279-2.727-0.508
				c-0.272-0.071-0.536-0.538-0.642-0.872c-0.041-0.145,0.397-0.428,0.631-0.629c0.055-0.048,0.154-0.049,0.233-0.063
				c2.235-0.383,4.506-0.812,6.775-0.69c4.86,0.286,9.784,0.962,14.376,2.775c2.573,1.018,5.203,1.949,7.707,3.186
				c2.138,1.038,4.246,2.182,6.187,3.582c0.875,0.606,1.642,1.4,2.28,2.235c0.992,1.332,2.148,2.424,3.293,3.586
				c1.739,1.813,3.322,3.784,4.633,5.918c0.137,0.21,0.129,0.686-0.025,0.842c-0.157,0.162-0.649,0.221-0.855,0.105
				c-0.609-0.35-1.252-0.704-1.678-1.214c-1.747-1.957-3.587-3.808-5.59-5.458c-1.242-1.009-2.482-2.032-3.854-2.854
				c-3.056-1.86-6.153-3.563-9.407-5.115c-2.893-1.403-6.036-2.271-9.186-3.002c-1.804-0.417-3.625-0.771-5.464-1.036
				L338.61,233.005z"/>
		</g>
	</g>
	<g>
		<g>
			<path fill="#09001A" d="M336.503,232.511c1.211-0.298,2.419-0.619,3.659-0.793c0.504-0.075,1.041,0.003,1.559,0.123
				c0.157,0.036,0.347,0.376,0.418,0.623c0.03,0.106-0.164,0.329-0.264,0.492c-0.023,0.038-0.072,0.044-0.111,0.06
				c-1.1,0.417-2.141,1.043-3.251,1.351c-2.397,0.687-4.707,1.604-7.115,2.268c-1.36,0.376-2.628,1.023-3.894,1.632
				c-1.074,0.537-2.105,1.149-3.142,1.737c-0.472,0.246-0.991,0.43-1.523,0.554c-0.844,0.189-1.575,0.589-2.236,1.1l-1.581,1.118
				l-1.545,1.17c-0.103,0.077-0.399,0.05-0.527-0.054c-0.132-0.107-0.259-0.427-0.22-0.558c0.116-0.386,0.245-0.807,0.507-1.077
				c1.008-1.092,2.175-2.013,3.341-2.934c0.745-0.529,1.496-1.066,2.258-1.573c1.672-1.206,3.526-2.113,5.468-2.773
				c1.728-0.589,3.413-1.279,5.154-1.805c0.993-0.306,1.998-0.564,3.003-0.819L336.503,232.511z"/>
		</g>
	</g>
	<g>
		<g>
			<path fill="#09001A" d="M340.236,250.123c-1.699-0.208-3.404-0.366-5.089-0.681c-0.688-0.133-1.354-0.393-1.986-0.71
				c-0.192-0.095-0.307-0.482-0.312-0.742c-0.002-0.111,0.351-0.246,0.544-0.359c0.046-0.026,0.114-0.013,0.171-0.012
				c1.63,0.024,3.272-0.135,4.884-0.005c3.471,0.307,6.952,0.372,10.428,0.719c1.96,0.256,3.945,0.107,5.917,0.083l2.522-0.071
				c0.838-0.067,1.674-0.147,2.512-0.192c0.746-0.042,1.513,0.012,2.253,0.154c1.167,0.219,2.324,0.198,3.477-0.001
				c1.786-0.253,3.581-0.438,5.382-0.62c0.18-0.018,0.497,0.15,0.561,0.305c0.065,0.159-0.04,0.504-0.185,0.6
				c-0.43,0.284-0.892,0.59-1.391,0.701c-1.964,0.419-3.947,0.846-5.943,1.148c-1.236,0.146-2.483,0.229-3.718,0.402
				c-2.771,0.463-5.563,0.388-8.352,0.267l-7.452-0.398l-4.24-0.424L340.236,250.123z"/>
		</g>
	</g>
	<g>
		<g>
			<path fill="#4F1B01" d="M306.943,67.593c0.329-1.723,0.647-3.453,1.195-5.127c0.215-0.684,0.641-1.314,1.108-1.89
				c0.141-0.176,0.663-0.201,0.999-0.133c0.145,0.03,0.284,0.406,0.416,0.63c0.031,0.052,0.008,0.117,0.002,0.175
				c-0.19,1.62-0.057,3.297-0.331,4.868c-0.559,3.415-0.692,6.854-1.078,10.29c-0.224,1.944-0.024,3.912,0.172,5.846l0.343,2.468
				c0.176,0.811,0.345,1.62,0.48,2.436c0.098,0.732,0.168,1.481,0.101,2.24c-0.11,1.199,0.141,2.331,0.561,3.417
				c0.316,0.84,0.53,1.721,0.879,2.549l0.993,2.516c0.064,0.168-0.071,0.551-0.25,0.681c-0.184,0.133-0.642,0.177-0.798,0.073
				c-0.462-0.308-0.965-0.647-1.229-1.104c-1.1-1.772-1.852-3.723-2.624-5.667c-0.387-1.228-0.77-2.468-1.128-3.709
				c-0.377-1.396-0.765-2.806-0.887-4.248c-0.08-0.718-0.154-1.438-0.196-2.16c-0.01-0.723-0.004-1.447,0.015-2.169
				c0.076-2.571,0.101-5.138,0.379-7.687l0.286-2.174l0.376-2.159L306.943,67.593z"/>
		</g>
	</g>
	<path opacity="0.3" fill="#FFFFFF" d="M298.1,232.872c-7.842,3.671-1.082,39.713,13.182,46.387
		c15.761,7.374,64.242,8.176,69.581,2.336c5.34-5.84,17.02-31.203,10.513-42.383C384.867,228.033,318.75,223.206,298.1,232.872z"/>
	<path opacity="0.3" fill="#FFFFFF" d="M176.843,216.819c-4.53,2.529-4.223,34.741,4.287,45.42
		c8.51,10.679,67.578,10.679,73.752,2.67c6.174-8.009,12.024-21.454,8.888-31.537C259.722,220.357,191.188,208.809,176.843,216.819z
		"/>
	<path opacity="0.3" fill="#FFFFFF" d="M206.275,214.78c-5.046,5.596-9.647,11.576-15.325,16.615
		c-5.895,5.234-11.019,11.072-15.152,17.75c1.171,5.316,2.921,10.069,5.332,13.094c1.463,1.836,4.42,3.356,8.346,4.575
		c0.754-0.539,1.432-1.145,2.021-1.815c3.581-4.061,6.54-8.647,9.949-12.856c3.995-4.935,7.549-10.271,12.455-14.406
		c6.615-5.567,11.729-12.379,16.76-19.24C222.686,216.781,214.192,215.486,206.275,214.78z"/>
	<path opacity="0.3" fill="#FFFFFF" d="M249.625,223.84l-6.765,7.484c-5.222,5.875-10.069,12.08-15.694,17.59
		c-6.314,6.188-11.968,12.878-16.755,20.318c-0.203,0.314-0.423,0.616-0.632,0.926c5.987,0.443,12.255,0.561,18.162,0.372
		c1.401-1.824,2.801-3.649,4.257-5.428c4.019-4.916,7.751-10.105,12.374-14.48c6.476-6.12,11.869-13.133,17.249-20.142
		C259.407,228.133,255.092,225.881,249.625,223.84z"/>
	<path opacity="0.3" fill="#FFFFFF" d="M335.309,227.685c-0.584,0.627-1.172,1.248-1.751,1.879
		c-5.311,5.804-10.06,12.094-15.987,17.354c-6.652,5.908-12.331,12.58-16.703,20.367c-0.009,0.016-0.019,0.03-0.028,0.045
		c2.715,5.465,6.251,9.969,10.442,11.93c1.662,0.777,3.692,1.481,5.993,2.113c0.295-0.272,0.58-0.553,0.843-0.851
		c3.581-4.062,6.539-8.648,9.947-12.857c3.995-4.935,7.55-10.271,12.456-14.406c8.148-6.858,14.018-15.604,20.262-24.003
		C352.715,228.261,343.88,227.711,335.309,227.685z"/>
	<path opacity="0.3" fill="#FFFFFF" d="M391.375,239.212c-1.195-2.054-4.409-3.893-8.979-5.467
		c-1.067,1.227-2.135,2.454-3.214,3.671c-0.222-0.19-0.44-0.378-0.664-0.57l-9.038,10c-5.223,5.875-10.069,12.08-15.694,17.59
		c-6.278,6.153-11.902,12.805-16.673,20.194c5.945,0.543,12.123,0.816,17.911,0.821c1.247-1.622,2.498-3.243,3.793-4.827
		c4.018-4.916,7.751-10.105,12.373-14.48c7.994-7.556,14.343-16.47,21.049-25.059C391.995,240.429,391.715,239.797,391.375,239.212z
		"/>
	<g>
		<g>
			<path fill="#4F1B01" d="M380.435,125.62c3.73,1.104,6.51,2.9,9.413,5.309c7.309,6.132,14.893,12.467,21.029,19.847
				c1.066,1.309,2.204,2.559,3.19,3.928l3.051,4.035c7.59,10.015,14.014,20.847,19.735,31.99c1.029,2.146,1.998,4.166,2.936,6.123
				c0.94,1.957,1.88,3.842,2.632,5.81c0.802,1.948,1.604,3.899,2.436,5.921c0.818,2.027,1.763,4.09,2.5,6.386
				c1.304,3.736,2.263,7.957,2.57,10.549c0.127,1.082-0.286,1.459-0.853,0.719c-0.434-0.565-0.898-1.152-1.283-1.889
				c-1.674-3.215-2.81-6.66-4.094-10.374c-1.393-3.408-2.427-6.444-3.864-9.838l-0.998-2.352c-0.36-0.772-0.752-1.53-1.126-2.296
				l-2.261-4.584c-0.759-1.525-1.487-3.064-2.268-4.576l-2.514-4.444l-1.767-3.13c-0.597-1.038-1.131-2.114-1.781-3.118
				l-4.579-7.542c-1.581-2.479-3.294-4.872-4.94-7.31l-1.053-1.533l-1.128-1.476l-2.27-2.943l-2.27-2.944l-2.41-2.828
				c-0.521-0.616-1.186-1.401-1.955-2.31c-0.388-0.452-0.787-0.948-1.233-1.446c-0.455-0.489-0.933-1.003-1.427-1.536
				c-0.989-1.066-2.048-2.208-3.136-3.379c-1.094-1.165-2.295-2.283-3.441-3.433c-0.578-0.57-1.153-1.137-1.72-1.696
				c-0.588-0.535-1.167-1.062-1.733-1.576c-1.14-1.016-2.192-2.019-3.197-2.864c-2.017-1.681-3.601-3.033-4.445-3.658
				c-1.157-0.912-2.062-1.807-2.96-2.691C382.339,127.559,381.492,126.629,380.435,125.62z"/>
		</g>
	</g>
	<g>
		<g>
			<path fill="#4F1B01" d="M438.477,152.824c-2.514-2.876-4.654-5.657-6.783-8.442c-1.098-1.369-2.166-2.757-3.233-4.188
				c-1.064-1.432-2.113-2.918-3.296-4.387c-11.478-15.28-26.44-28.42-42.634-38.225c-5.735-3.434-11.694-6.496-17.935-8.91
				c-4.484-1.754-9.103-3.132-13.767-4.313c-4.686-1.092-9.436-1.903-14.224-2.372c-4.786-0.469-9.608-0.588-14.403-0.323
				c-2.397,0.122-4.786,0.363-7.159,0.682c-1.183,0.179-2.364,0.362-3.533,0.592c-0.586,0.108-1.163,0.242-1.743,0.366l-0.858,0.206
				l-1.317,0.362l-1.434-0.543l-0.992-0.348c-0.666-0.224-1.334-0.449-2.01-0.655c-1.345-0.426-2.707-0.809-4.071-1.178
				c-2.733-0.73-5.496-1.348-8.276-1.868c-9.305-1.727-17.69-2.261-26.02-1.814c-8.313,0.484-16.661,1.864-25.552,5.204
				c-7.346,2.6-14.83,6.661-19.271,9.292c-1.864,1.075-2.591,0.97-1.336-0.313c0.971-0.959,1.938-2.067,3.287-3.076
				c5.825-4.491,12.694-7.913,20.479-10.298c7.3-2.288,13.936-3.149,21.518-3.725c3.517-0.232,7.043-0.269,10.567-0.168
				c3.522,0.127,7.038,0.422,10.536,0.863c6.997,0.892,13.906,2.379,20.661,4.545l2.079,0.706l0.012-0.006l0.005-0.004l0.183-0.05
				l0.76-0.192c0.507-0.132,1.01-0.231,1.515-0.347c1.01-0.208,2.018-0.412,3.032-0.567c2.023-0.345,4.057-0.569,6.09-0.749
				c12.246-0.959,24.597,0.396,36.352,3.755c1.251,0.309,2.461,0.755,3.693,1.126c1.228,0.386,2.458,0.762,3.657,1.232l3.619,1.338
				l3.553,1.504l1.773,0.757c0.588,0.26,1.158,0.557,1.738,0.834l3.466,1.689c1.148,0.576,2.256,1.229,3.386,1.84
				c1.114,0.638,2.271,1.205,3.349,1.904c1.413,0.894,3.245,1.988,5.306,3.342c1.011,0.706,2.091,1.459,3.227,2.251
				c0.567,0.396,1.148,0.803,1.742,1.218c0.589,0.422,1.16,0.892,1.759,1.348c1.188,0.923,2.416,1.879,3.675,2.858
				c1.246,0.994,2.453,2.092,3.713,3.161c2.553,2.104,4.939,4.515,7.379,6.813c9.602,9.384,17.255,19.712,19.725,23.262
				C434.04,143.723,435.845,147.706,438.477,152.824z"/>
		</g>
	</g>
	<g>
	</g>
	<g>
	</g>
	<g>
	</g>
	<g>
	</g>
	<g>
	</g>
	<g>
	</g>
</g>
</svg>
