<svg xmlns="http://www.w3.org/2000/svg" viewBox="0 0 484.61 435.5"><defs><style>.cls-1{fill:#f9c2ae;}.cls-2{fill:#ed9a90;}.cls-3{fill:#fff;}.cls-4{fill:#b2c2f6;opacity:0.55;}.cls-5{fill:#565e80;}.cls-6{fill:#b0857e;}.cls-10,.cls-7{fill:#83585b;}.cls-7{opacity:0.6;}.cls-8{fill:#54424c;}.cls-9{fill:none;}.cls-11{fill:#46373f;}.cls-12{fill:#86545d;}.cls-13{fill:#b44b4b;}.cls-14{fill:#663b45;}.cls-15{fill:#362329;}.cls-16{fill:#5886ad;}</style></defs><title>Element 1</title><g id="Ebene_2" data-name="Ebene 2"><g id="Layer_1" data-name="Layer 1"><path class="cls-1" d="M294.77,342.47a55.74,55.74,0,0,1-24.5-5.94c-11.59-5.64-23-14.79-35-28a134.47,134.47,0,0,1-23.65-35.78c-1-2.3-2-4.7-2.82-7.11v0c-.17-.47-.34-.95-.5-1.43-.9-2.66-1.73-5.44-2.46-8.28v0c-1-3.76-1.87-7.84-2.71-12.48-.17-1-.35-2-.51-3-.07-.4-.14-.81-.2-1.22l-.09-.57c-.91-5.78-1.63-11.57-2.34-17.48a263.09,263.09,0,0,1-2-44.69.53.53,0,0,1,.42-.5h.11a.54.54,0,0,1,.48.29c.43.86.84,1.65,1.25,2.39l.82,1.46c.28-1.61.65-3.64,1.15-5.64a121.49,121.49,0,0,1,4.94-15.2A128.51,128.51,0,0,1,214,144.62c1.14-2.07,2.48-4.08,3.78-6l.83-1.24c.43-.64.85-1.28,1.27-1.94-.11-.69-.21-1.38-.31-2.07a85.53,85.53,0,0,1-1.1-12.27,79.76,79.76,0,0,1,2.61-19.82,71.85,71.85,0,0,1,7.51-18.61,76.52,76.52,0,0,1,4.87-7.3.5.5,0,0,1,.36-.21h.07a.52.52,0,0,1,.33.12,39.22,39.22,0,0,0,4.43,3c11,6.45,23.76,7.5,36.1,8.52,2.55.21,5.18.43,7.75.69,8.66.88,16.82,3.2,26.42,6.41,4.37,1.46,7.91,2.76,11.14,4.11.86.35,1.64.68,2.36,1l0,0h0c1.2-.48,2.45-1,3.71-1.41.18-.07.37-.13.57-.19a74.7,74.7,0,0,1,10.61-2.64,101.31,101.31,0,0,1,17-1.3c1.92,0,4,0,6.07.12a141.3,141.3,0,0,1,17,2l2.33.38a.53.53,0,0,1,.33.19,26.49,26.49,0,0,1,2.25,3.16,42.88,42.88,0,0,1,5,12.36c2.51,10.41,1.05,20.94-.65,30.83a88.78,88.78,0,0,0-1.69,14.28,60,60,0,0,0,1.87,13.44c.78,3.54,1.64,7.13,2.46,10.6l.81,3.44c.38,1.59.72,3.32,1.06,5.43a.28.28,0,0,1,0,.09.31.31,0,0,1,0,.09c-1.31,8.33-1.82,16.91-2.31,25.21-.37,6.29-.76,12.79-1.49,19.16A137.52,137.52,0,0,1,384,252.93q-.3,1.19-.63,2.37A116.7,116.7,0,0,1,374.94,277a137.26,137.26,0,0,1-20,28.83c-.76.85-1.51,1.68-2.25,2.45s-1.57,1.67-2.42,2.54c-12,12.24-23.17,20.93-34.23,26.58a46.25,46.25,0,0,1-21.24,5.08Zm72.15-79.19c-.7,1.47-1.35,2.9-2,4.32-1.86,4.36-3.43,8.29-3.81,12.32a.17.17,0,0,0,.15-.07c.88-2.25,1.6-4.64,2.3-7,.61-2,1.24-4.08,2-6.08Q366.23,265,366.92,263.28ZM352.3,251.65q.24.82.51,1.62c.93,2.9,1.81,5.65.51,9.2a29.63,29.63,0,0,1-4.11,7c-.53.74-1.07,1.49-1.59,2.27,3.21-2.47,6-6.62,6.57-10A16.19,16.19,0,0,0,352.3,251.65Zm-13.63,8.89a25.4,25.4,0,0,0-5.57.86l-.68.15c-3.08.71-6.31,1.21-8.91,1.62-2.88.45-5.67.81-8.39,1.09,2.38-.18,4.84-.43,7.4-.73l1.65-.2c2.57-.32,5.23-.64,7.88-.81l1.13-.06a19.55,19.55,0,0,0,7-1.21c.1-.05.13-.21.11-.34s-.07-.25-.18-.26A10.1,10.1,0,0,0,338.67,260.54Zm-75.39.51c-.12,0-.16.1-.17.18a.18.18,0,0,0,.13.21c4.74,1.29,9.78,1.54,14.66,1.77l1.21.06c-1.11-.19-2.22-.41-3.31-.61a68.44,68.44,0,0,0-12.51-1.61v0Zm25.48-28a4.6,4.6,0,0,0,1.56.48,6.81,6.81,0,0,1,1.72.5,17.47,17.47,0,0,1,3.42,2.33c.41.32.82.65,1.24,1a12.45,12.45,0,0,0,7.52,2.62h.15a22.1,22.1,0,0,0,9-2.43c.84-.38,1.67-.83,2.47-1.26s1.42-.76,2.15-1.11a12.72,12.72,0,0,1,2.66-.83,10.89,10.89,0,0,0,2.46-.79.2.2,0,0,0,0-.18,2.55,2.55,0,0,0-1.67-.58c-1.48,0-3.15,1-4.49,1.86l-.26.16c-3.36,2-7.54,4.61-12.27,4.61h-.27a10.82,10.82,0,0,1-6.95-2.45c-.49-.41-.95-.86-1.39-1.29a22.08,22.08,0,0,0-1.87-1.65,7.69,7.69,0,0,0-3.91-1.56A1.42,1.42,0,0,0,288.76,233.1Zm-9-16.1a10.8,10.8,0,0,0-1.36,2.6l-.11.26a20.52,20.52,0,0,0-2,7.91c0,2.74,1.93,6.72,5.25,6.72a3.25,3.25,0,0,0,.44,0,.35.35,0,0,0,.34-.31c0-.1,0-.23-.23-.31a7.09,7.09,0,0,1-4.52-3.78C275.86,226.28,278,221,279.74,217Zm49.45-4a39.58,39.58,0,0,0,1.57,4.17c2.09,5,4.46,10.74-1,14.33,2.39-.67,4.29-3.7,4.56-6.28.22-2.07-.76-4.27-1.7-6.18A37.12,37.12,0,0,0,329.19,213ZM342,174.33a34.09,34.09,0,0,1,8.24,1.07l.7.17c3.42.84,7.3,1.8,9.87,4.26a23.1,23.1,0,0,1,2,2.32,13.56,13.56,0,0,0,3.1,3.17c-.71-.8-1.39-1.64-2.06-2.45a30.76,30.76,0,0,0-5-5.22,24,24,0,0,0-10.06-4.07,28.45,28.45,0,0,0-5.56-.57,24.27,24.27,0,0,0-5.42.61c-1.54.36-6,1.38-7.92,3.87a27.44,27.44,0,0,0,3.24-1.23,20.15,20.15,0,0,1,5-1.66A25.81,25.81,0,0,1,342,174.33Zm5.74-5.52a47.34,47.34,0,0,1,12.74,1.56,39.28,39.28,0,0,1,12.05,5.74,31.55,31.55,0,0,1,5.27,4.49,18.92,18.92,0,0,1,1.68,2.21c.22.31.43.62.66.93s.39.53.64.82c0-.37.09-.76.12-1.16a26.09,26.09,0,0,0-2.55-13c-2.38-4.89-6.75-7.65-13.36-8.46a64,64,0,0,0-7.66-.48,43.63,43.63,0,0,0-13.14,1.87,31.85,31.85,0,0,0-8,3.76,24.9,24.9,0,0,0-3.25,2.45,10,10,0,0,0-1,1.1H332c.6-.09,1.22-.24,1.82-.38s1.08-.26,1.6-.35a75.16,75.16,0,0,1,8.87-1C345.47,168.84,346.65,168.81,347.75,168.81Zm-26.47,1.08a36.26,36.26,0,0,0-1.84,6.79C320,174.45,320.57,172.23,321.28,169.89Zm-63.07-4.28h.88A32,32,0,0,1,270,168a53.7,53.7,0,0,1,7.51,3.87l1.66,1c-4.66-5.82-13.1-8.27-19.67-8.61-.6,0-1.21,0-1.8,0a28.87,28.87,0,0,0-10.34,1.8c-2.65,1-5.81,2.42-7.8,4.64,1.19-.43,2.36-1,3.49-1.48a36.3,36.3,0,0,1,4.6-1.87A36.83,36.83,0,0,1,258.21,165.61Zm-15.64-9.54a43.64,43.64,0,0,1,14.6,3l1.29.47c4.47,1.63,9.09,3.31,13.9,3.32h0a18.8,18.8,0,0,0,6.25-1,11.26,11.26,0,0,0,1.61-.73,3.93,3.93,0,0,0,0-1.53c-.64-2.93-4.43-5-7.66-6.38a142.75,142.75,0,0,0-19.72-7.2,33.15,33.15,0,0,0-8.63-1.51,12.79,12.79,0,0,0-8,2.61c-4.25,3.22-7,8.18-9.43,13l-.11.23a.15.15,0,0,0,0,.17.05.05,0,0,0,0,0l.54-.3c4-2.17,8.36-5.35,12.22-5.87C240.62,154.27,241.32,156.07,242.57,156.07Z"/><path class="cls-2" d="M215,255.38c-3.53-15.69-5.48-30-4.28-45.93,1.57-20.69,5.27-41.26,7.17-61.87a65,65,0,0,0,.06-9.17l-.13.19c-1.3,1.94-2.64,4-3.78,6a128.51,128.51,0,0,0-6.86,14.62,121.49,121.49,0,0,0-4.94,15.2c-.5,2-.87,4-1.15,5.64l-.82-1.46c-.41-.74-.82-1.53-1.25-2.39a.54.54,0,0,0-.48-.29h-.11a.53.53,0,0,0-.42.5,263.09,263.09,0,0,0,2,44.69c.71,5.91,1.43,11.7,2.34,17.48l.09.57c.06.41.13.82.2,1.22.16,1,.34,2,.51,3,.84,4.64,1.73,8.72,2.71,12.48v0c.24.95.5,1.9.77,2.83C210.12,258.05,213.67,257,215,255.38Z"/><path class="cls-2" d="M391.26,189.73c-.34-2.11-.68-3.84-1.06-5.43l-.81-3.44c-.82-3.47-1.68-7.06-2.46-10.6a60,60,0,0,1-1.87-13.44,88.78,88.78,0,0,1,1.69-14.28l.24-1.41c-1.14,2.59-2.61,5.14-3.32,7.87a99.11,99.11,0,0,0-1.78,10.88,123.65,123.65,0,0,0-1.31,17.47,24.35,24.35,0,0,1,.33,6.05c0,.4-.07.79-.12,1.16l-.1-.12q.15,3.94.48,7.93c.78,9.52,1.94,19,3.35,28.56,1,6.82.76,13.67.76,20.57,0,1.89,0,3.8.07,5.73.89-4.22,1.6-8.55,2.11-12.95.73-6.37,1.12-12.87,1.49-19.16.49-8.3,1-16.88,2.31-25.21a.31.31,0,0,0,0-.09A.28.28,0,0,0,391.26,189.73Z"/><path class="cls-2" d="M244.46,81.12a46.29,46.29,0,0,1-5.78-2.86,39.22,39.22,0,0,1-4.43-3,.52.52,0,0,0-.33-.12h-.07a.5.5,0,0,0-.36.21,76.52,76.52,0,0,0-4.87,7.3,71.85,71.85,0,0,0-7.51,18.61c-.38,1.49-.7,2.95-1,4.4a85.74,85.74,0,0,1,6.32-9.51A53.31,53.31,0,0,1,244.46,81.12Z"/><path class="cls-3" d="M81.52,435.5a178.12,178.12,0,0,0-5.86-21.19,198.41,198.41,0,0,0-12.74-28.64c-2.44-4.53-5.17-9-7.82-13.26-2.51-4.06-5.1-8.27-7.42-12.53a.44.44,0,0,0-.3-.23l-.12,0a.46.46,0,0,0-.25.08C37.8,366,30.75,372.92,25.46,380.93,14.72,397.2,10,416.61,5.63,435.5Z"/><path class="cls-1" d="M210.35,309.47l0,.12a371.29,371.29,0,0,0,20,39.78c16.68,28.53,38,53.08,54.76,71.28,4.69,5.1,8.89,10,12.69,14.85H337c2.48-15.88,5.2-31.34,7.88-46.08l.18-1c2.24-12.32,4.56-25.05,5.48-37.8a195.6,195.6,0,0,0-.75-35.06.48.48,0,0,0-.31-.4.47.47,0,0,0-.17,0,.5.5,0,0,0-.31.14c-1.3,1.33-2.65,2.67-4,4-8.65,8.28-28.54,14.51-42.06,16.75a40.78,40.78,0,0,1-5.32.52c-13.34.42-25.28-5.66-32.95-10.83-20.17-13.61-36.34-32.72-45.55-53.8a.48.48,0,0,0-.44-.29l-.11,0a.48.48,0,0,0-.34.53l.06.44c.63,4.63,1.1,9.25,1.47,13.17.26,2.68.37,5.3.45,8-.46-2.32-.91-4.7-1.26-7.08-.24-1.64-.47-3.29-.7-4.94a.49.49,0,0,0-.27-.38.54.54,0,0,0-.21-.05.46.46,0,0,0-.27.11l-.64.49c-.43.34-.88.68-1.3,1.06a31.63,31.63,0,0,0-2.77,2.89,26.25,26.25,0,0,0-1.6,2.19,24,24,0,0,1-2,2.61.51.51,0,0,0-.13.29,86.4,86.4,0,0,0,1,16.62Q210.2,308.5,210.35,309.47Z"/><path class="cls-3" d="M219.13,359.56a.47.47,0,0,1-.42-.24c-.92-1.58-1.74-3-2.49-4.36C212.15,347.68,208,340,204,332.25c-2.15-4.11-4.15-8.24-5.83-11.74-.19-.41-.39-.81-.59-1.22-1.88-3.87-3.83-7.87-3.86-12.26s1.7-8.45,3.64-12.63c.48-1,1-2.07,1.52-3.08a.5.5,0,0,1,.19-.19l.21-.12a.3.3,0,0,0,.12-.37.47.47,0,0,1,0-.37c1-1.84,2.07-3.66,3.21-5.41a81.34,81.34,0,0,1,13.26-15.42.42.42,0,0,1,.3-.12.25.25,0,0,1,.17,0,.48.48,0,0,1,.31.39l.06.45.42,3.27c.25,2.07.54,4.27.88,6.74h0a.5.5,0,0,1-.25.49,22.21,22.21,0,0,0-5.33,4.76,25.24,25.24,0,0,0-2.21,2.78.49.49,0,0,1-.37.21.63.63,0,0,1-.19,0,.5.5,0,0,1-.29-.52,29.57,29.57,0,0,1,3.73-11.28s0,0,0-.05a.22.22,0,0,0-.14-.11c-4.77,6.74-5.06,15.41-4.66,23.78.06,1.19.13,2.28.21,3.35a.5.5,0,0,1-.09.32v0l.12.32,0,.13a175.8,175.8,0,0,0,3.92,24.1c.92,4.17,2,8.42,3,12.53,1.43,5.86,2.9,11.93,4.11,17.94a.49.49,0,0,1-.29.55A.4.4,0,0,1,219.13,359.56Z"/><path class="cls-3" d="M57.29,373c3.25,5.06,6.31,10.26,9.09,15.46a198.43,198.43,0,0,1,18,47.05H242.3c-1-.74-1.89-1.49-2.82-2.26a137.67,137.67,0,0,1-10.24-9.37c-2.61-2.66-5.86-6-7.52-10-1.81-4.37-1.08-9.09-.43-13.25a98.8,98.8,0,0,0,1.28-14.78,118.73,118.73,0,0,0-1.76-20.13.36.36,0,0,0-.07-.18c-2.72-4.34-5.39-8.81-8-13.14l-.94-1.57a264.65,264.65,0,0,1-13-24.75l-.66-1.41c-3.35-7.21-6.81-14.67-4.71-22.65a48.38,48.38,0,0,1,3.22-8.59.5.5,0,0,0,.05-.21.5.5,0,0,0-.23-.42.48.48,0,0,0-.26-.07.36.36,0,0,0-.2.06c-8.38,4.51-17.2,8.55-25.73,12.46l-5.2,2.38c-11.24,5.19-23,10.37-35,15.41-8.91,3.75-18.06,7.32-26.92,10.79C92.6,338,81.65,342.25,71,346.86A147.11,147.11,0,0,0,48,359.07a.48.48,0,0,0-.21.34.5.5,0,0,0,.11.39A110.93,110.93,0,0,1,57.29,373Z"/><path class="cls-3" d="M361.14,323.18c.51,1.89,1,3.84,1.59,5.75,2.53,8.81,4.75,15.9,7,22.31s4.95,13.1,7.91,19.55l.18.39c2.44,5.31,5,10.81,5.57,16.73,1.33,13.34-6.54,25.56-12.86,35.38-2.75,4.27-5.22,8.32-7.45,12.21H468.7q.42-8.08.49-16.28c.07-8.52-.16-17-.66-25.13-.24-3.77-.63-7.59-1-11.29s-.8-7.79-1-11.68a.52.52,0,0,0-.07-.21c-.67-1.19-1.31-2.29-2-3.35a79.39,79.39,0,0,0-15.64-17.71c-12.11-10.5-26.73-17.55-43.2-25-8.11-3.69-16.65-7.3-25.4-10.73-3.93-1.55-8-3-11.87-4.41-3.42-1.24-7-2.51-10.41-3.84l-.18,0a.42.42,0,0,0-.34.17c-.33.4-.66.79-1,1.18a.48.48,0,0,0-.08.49C358.28,312.71,359.73,318,361.14,323.18Z"/><path class="cls-3" d="M469.89,395.78l.13,1.5a334.81,334.81,0,0,1,1.11,38.22h11.33l0-.25c-1.74-15.17-3.54-30.87-8.1-45.63a99.49,99.49,0,0,0-6.15-15.45v0a.49.49,0,0,0-.43-.26.32.32,0,0,0-.14,0,.48.48,0,0,0-.3.55A199.22,199.22,0,0,1,469.89,395.78Z"/><path class="cls-3" d="M360.73,435.5c2.72-5,5.51-9.71,8.14-14,7.47-12.31,13.95-24.46,11.25-37.82-1-4.77-3-9.24-5-13.56-.74-1.61-1.5-3.28-2.19-4.93-2.48-5.93-4.78-12.25-7-19.33-1.79-5.66-3.5-11.8-5.52-19.9A152.46,152.46,0,0,1,356.71,308a.49.49,0,0,0-.33-.4l-.15,0a.49.49,0,0,0-.34.17c-2,2.27-4,4.52-6.1,6.69a.46.46,0,0,0-.13.45c3.44,14.72,2.63,30,1.72,40.14-1.43,16.14-4.4,32.32-7.27,48-1.67,9.14-3.41,18.6-4.82,27.95q-.33,2.22-.66,4.5Z"/><path class="cls-3" d="M217.47,342c2.07,8.13,4.2,16.54,5.71,24.94.33,1.82.63,3.64.88,5.39,0,0,0,0,0,.06a106.57,106.57,0,0,1,1.13,21.75c-.11,1.87-.41,3.8-.7,5.66a39.07,39.07,0,0,0-.72,8.82c.33,4.82,3.4,8.39,6.79,11.92a148.09,148.09,0,0,0,17,15h47.24c-5.38-6.82-11.14-13.37-17-19.94a412.22,412.22,0,0,1-28.06-34.29c-16.86-23.53-29.23-45.68-37.82-67.73a.46.46,0,0,0-.45-.3h-.11a.48.48,0,0,0-.33.55c1.44,8.35,3.45,16.5,5.74,25.52Z"/><path class="cls-4" d="M81.52,435.5a178.12,178.12,0,0,0-5.86-21.19,198.41,198.41,0,0,0-12.74-28.64c-2.44-4.53-5.17-9-7.82-13.26-2.51-4.06-5.1-8.27-7.42-12.53a.44.44,0,0,0-.3-.23l-.12,0a.46.46,0,0,0-.25.08C37.8,366,30.75,372.92,25.46,380.93,14.72,397.2,10,416.61,5.63,435.5Z"/><path class="cls-4" d="M219.13,359.56a.47.47,0,0,1-.42-.24c-.92-1.58-1.74-3-2.49-4.36C212.15,347.68,208,340,204,332.25c-2.15-4.11-4.15-8.24-5.83-11.74-.19-.41-.39-.81-.59-1.22-1.88-3.87-3.83-7.87-3.86-12.26s1.7-8.45,3.64-12.63c.48-1,1-2.07,1.52-3.08a.5.5,0,0,1,.19-.19l.21-.12a.3.3,0,0,0,.12-.37.47.47,0,0,1,0-.37c1-1.84,2.07-3.66,3.21-5.41a81.34,81.34,0,0,1,13.26-15.42.42.42,0,0,1,.3-.12.25.25,0,0,1,.17,0,.48.48,0,0,1,.31.39l.06.45.42,3.27c.25,2.07.54,4.27.88,6.74h0a.5.5,0,0,1-.25.49,22.21,22.21,0,0,0-5.33,4.76,25.24,25.24,0,0,0-2.21,2.78.49.49,0,0,1-.37.21.63.63,0,0,1-.19,0,.5.5,0,0,1-.29-.52,29.57,29.57,0,0,1,3.73-11.28s0,0,0-.05a.22.22,0,0,0-.14-.11c-4.77,6.74-5.06,15.41-4.66,23.78.06,1.19.13,2.28.21,3.35a.5.5,0,0,1-.09.32v0l.12.32,0,.13a175.8,175.8,0,0,0,3.92,24.1c.92,4.17,2,8.42,3,12.53,1.43,5.86,2.9,11.93,4.11,17.94a.49.49,0,0,1-.29.55A.4.4,0,0,1,219.13,359.56Z"/><path class="cls-2" d="M306.16,335.29c-1.06.28-2.14.52-3.23.7a40.78,40.78,0,0,1-5.32.52c-13.34.42-25.28-5.66-32.95-10.83-20.17-13.61-36.34-32.72-45.55-53.8a.48.48,0,0,0-.44-.29l-.11,0a.48.48,0,0,0-.34.53l.06.44c.63,4.63,1.1,9.25,1.47,13.17.26,2.68.37,5.3.45,8-.46-2.32-.91-4.7-1.26-7.08-.24-1.64-.47-3.29-.7-4.94a.49.49,0,0,0-.27-.38.54.54,0,0,0-.21-.05.46.46,0,0,0-.27.11l-.64.49c-.43.34-.88.68-1.3,1.06a31.63,31.63,0,0,0-2.77,2.89,26.25,26.25,0,0,0-1.6,2.19,24,24,0,0,1-2,2.61.51.51,0,0,0-.13.29,86.4,86.4,0,0,0,1,16.62q.12,1,.27,2l0,.12a371.29,371.29,0,0,0,20,39.78,359.52,359.52,0,0,0,34.47,48.24c-2.39-11.8-4.12-23.76-5.84-35.68C275.42,354.56,292.39,346.76,306.16,335.29Z"/><path class="cls-4" d="M57.29,373c3.25,5.06,6.31,10.26,9.09,15.46a198.43,198.43,0,0,1,18,47.05H242.3c-1-.74-1.89-1.49-2.82-2.26a137.67,137.67,0,0,1-10.24-9.37c-2.61-2.66-5.86-6-7.52-10-1.81-4.37-1.08-9.09-.43-13.25a98.8,98.8,0,0,0,1.28-14.78,118.73,118.73,0,0,0-1.76-20.13.36.36,0,0,0-.07-.18c-2.72-4.34-5.39-8.81-8-13.14l-.94-1.57a264.65,264.65,0,0,1-13-24.75l-.66-1.41c-3.35-7.21-6.81-14.67-4.71-22.65a48.38,48.38,0,0,1,3.22-8.59.5.5,0,0,0,.05-.21.5.5,0,0,0-.23-.42.48.48,0,0,0-.26-.07.36.36,0,0,0-.2.06c-8.38,4.51-17.2,8.55-25.73,12.46l-5.2,2.38c-11.24,5.19-23,10.37-35,15.41-8.91,3.75-18.06,7.32-26.92,10.79C92.6,338,81.65,342.25,71,346.86A147.11,147.11,0,0,0,48,359.07a.48.48,0,0,0-.21.34.5.5,0,0,0,.11.39A110.93,110.93,0,0,1,57.29,373Z"/><path class="cls-4" d="M217.47,342c2.07,8.13,4.2,16.54,5.71,24.94.33,1.82.63,3.64.88,5.39,0,0,0,0,0,.06a106.57,106.57,0,0,1,1.13,21.75c-.11,1.87-.41,3.8-.7,5.66a39.07,39.07,0,0,0-.72,8.82c.33,4.82,3.4,8.39,6.79,11.92a148.09,148.09,0,0,0,17,15h28.28q-1.77-4.28-3.29-8.63a215.74,215.74,0,0,1-7-25.28c-5.24-6.24-10.73-13.11-15.89-20.32-16.86-23.53-29.23-45.68-37.82-67.73a.46.46,0,0,0-.45-.3h-.11a.48.48,0,0,0-.33.55c1.44,8.35,3.45,16.5,5.74,25.52Z"/><path class="cls-4" d="M363.08,435.5H468.7q.42-8.08.49-16.28c0-1.37,0-2.73,0-4.1a172.51,172.51,0,0,0-36.27-23,169.91,169.91,0,0,0-52.42-14.83,38.45,38.45,0,0,1,2.88,10.62c1.33,13.34-6.54,25.56-12.86,35.38C367.78,427.56,365.31,431.61,363.08,435.5Z"/><path class="cls-4" d="M471.13,435.5h11.33l0-.25c-.35-3-.7-6.06-1.07-9.11q-4.94-4.89-10.23-9.39Q471.42,426.22,471.13,435.5Z"/><path class="cls-4" d="M360.73,435.5c2.72-5,5.51-9.71,8.14-14,7.47-12.31,13.95-24.46,11.25-37.82a40.88,40.88,0,0,0-2-6.63,170,170,0,0,0-29.42-.45c-1.37,8.92-3,17.78-4.59,26.48-1.67,9.14-3.41,18.6-4.82,27.95q-.33,2.22-.66,4.5Z"/><path class="cls-4" d="M247.61,435.5h47.24c-5.38-6.82-11.14-13.37-17-19.94-5-5.62-11-12.41-17.06-19.9-12.11,5.37-24.17,10.9-36.49,15.66,1.06,3.52,3.58,6.38,6.3,9.22A148.09,148.09,0,0,0,247.61,435.5Z"/><path class="cls-4" d="M57.29,373c3.25,5.06,6.31,10.26,9.09,15.46a198.43,198.43,0,0,1,18,47.05H242.3c-1-.74-1.89-1.49-2.82-2.26a137.67,137.67,0,0,1-10.24-9.37c-2.61-2.66-5.86-6-7.52-10-.19-.47-.35-.94-.49-1.41-4.65,1.73-9.34,3.35-14.08,4.8-17.58,5.36-36.24,8.33-54.31,5a83,83,0,0,1-44.51-24c-4.56-4.74-8.63-10.15-10.88-16.4-5.4-15,.57-31.75,8.52-45.46q1.43-2.44,2.93-4.83l-5.72,2.24C92.6,338,81.65,342.25,71,346.86A147.11,147.11,0,0,0,48,359.07a.48.48,0,0,0-.21.34.5.5,0,0,0,.11.39A110.93,110.93,0,0,1,57.29,373Z"/><path class="cls-4" d="M81.52,435.5a178.12,178.12,0,0,0-5.86-21.19,198.41,198.41,0,0,0-12.74-28.64c-2.44-4.53-5.17-9-7.82-13.26-2.51-4.06-5.1-8.27-7.42-12.53a.44.44,0,0,0-.3-.23l-.12,0a.46.46,0,0,0-.25.08C37.8,366,30.75,372.92,25.46,380.93,14.72,397.2,10,416.61,5.63,435.5Z"/><path class="cls-5" d="M224.53,372.26c-1.43-2.12-2.81-4.27-4.18-6.45-3.06-4.87-6-9.82-8.92-14.72a266.07,266.07,0,0,1-13.07-24.79c-3.55-7.7-7.68-15.72-5.39-24.4a48.84,48.84,0,0,1,3.25-8.67h0c.46-1,.95-1.91,1.46-2.85a83.63,83.63,0,0,1,6.07-9.51,69.21,69.21,0,0,1,12.2-13l.77-.62c.39-.3.78-.6,1.18-.89s.75-.55,1.13-.82c.15.44.31.87.48,1.3h0q-.69.58-1.38,1.2l-.81.73c-.38.33-.75.67-1.12,1A81.13,81.13,0,0,0,203,285.13q-1.71,2.61-3.19,5.38c-.19.34-.38.69-.55,1-.53,1-1,2-1.51,3.06-1.79,3.84-3.64,8.08-3.61,12.42.05,4.74,2.42,9.12,4.41,13.27,1.89,3.93,3.81,7.86,5.82,11.73q6,11.43,12.24,22.69,1.22,2.19,2.48,4.36h0c1.5,2.59,3,5.18,4.53,7.77Q224.14,369.55,224.53,372.26Z"/><path class="cls-5" d="M208.45,292c1.88-1.37,3.17-4,4.68-5.83a32,32,0,0,1,2.73-2.85,29.61,29.61,0,0,0,3.22-2.78.43.43,0,0,0-.42-.7c-2.45.76-4.87,3.44-6.55,5.33s-3.7,4.3-3.76,6.77a.07.07,0,0,0,.1.06Z"/><path class="cls-5" d="M344.43,389.33c-2.8,15.38-5.48,30.75-7.89,46.17h2.57c.21-1.48.42-2.95.65-4.43,3.82-25.35,9.81-50.37,12.09-75.95,1.2-13.44,1.34-27.13-1.73-40.3-.15-.64-.3-1.27-.46-1.91a.32.32,0,0,0-.62.11c.11.87.2,1.73.3,2.6a194.45,194.45,0,0,1,.74,35C349.14,363.64,346.76,376.48,344.43,389.33Z"/><path class="cls-5" d="M365.48,346c2.08,6.55,4.39,13,7,19.37,2.53,6,5.83,11.9,7.15,18.39,2.75,13.62-4.46,26.39-11.19,37.47-2.86,4.7-5.64,9.46-8.28,14.29h3.43c2.32-4,4.77-8,7.3-11.94,6.76-10.49,14.26-22.48,12.93-35.7-.61-6.14-3.25-11.76-5.79-17.28q-4.4-9.56-7.89-19.5c-2.58-7.34-4.85-14.8-7-22.28s-3.91-15.12-6.81-22.35c-.06-.17-.34-.15-.32.05a141.75,141.75,0,0,0,3.89,19.55C361.62,332.75,363.39,339.41,365.48,346Z"/><path class="cls-5" d="M208.05,303.63c0,.28,0,.55.07.82a179.13,179.13,0,0,0,3.93,24.16c2.25,10.14,5,20.25,7.06,30.47h0q.69,3.36,1.24,6.73a118.78,118.78,0,0,1,1.75,20.05,97.77,97.77,0,0,1-1.27,14.7c-.71,4.54-1.35,9.15.46,13.52,1.65,4,4.69,7.14,7.63,10.13a134.25,134.25,0,0,0,10.27,9.4c.78.65,1.58,1.26,2.37,1.89h6.83a148.44,148.44,0,0,1-17.49-15.3c-3.14-3.27-6.32-6.8-6.66-11.62s1.15-9.65,1.43-14.41a107.75,107.75,0,0,0-1.14-21.9h0q-.39-2.72-.89-5.41c-1.68-9.34-4.1-18.58-6.4-27.65-2.13-8.44-4.24-16.9-5.73-25.48-.25-1.44-.49-2.88-.7-4.32l-.27-1.95a85.52,85.52,0,0,1-1-16.52c.06-1,.16-2,.29-3a29.23,29.23,0,0,1,3.67-11.09c.34-.56-.54-1.23-.93-.69-4.88,6.9-5.14,15.87-4.75,24.09Q207.93,302,208.05,303.63Z"/><path class="cls-5" d="M211.51,313.72c9.43,24.22,22.86,46.89,37.87,67.84a409.62,409.62,0,0,0,28.1,34.33c5.77,6.43,11.44,12.88,16.77,19.61h4.13c-4.08-5.21-8.4-10.25-12.93-15.18-20.29-22.07-39.44-45.09-54.7-71.2a373,373,0,0,1-19.94-39.72q-1.23-2.81-2.4-5.63a.27.27,0,0,0-.36-.14.22.22,0,0,0-.12.29c.07.18.12.36.19.53C209.18,307.57,210.31,310.65,211.51,313.72Z"/><path class="cls-5" d="M6.11,435.5c4.37-18.8,9.07-38.14,19.74-54.3,10.81-16.38,28-26.36,45.37-33.9,19.48-8.45,39.49-15.57,59.06-23.81q17.61-7.41,35-15.41C176.39,303,187.7,298,198.44,292a5.2,5.2,0,0,1,.67-2.16.79.79,0,0,0-.3,0c-10.77,4.42-21.25,9.59-31.91,14.27s-21.4,9.24-32.19,13.66c-20.28,8.32-40.95,15.46-61.32,23.51-17.65,7-35.32,15.81-47.8,30.87-13,15.75-18.9,36-23.76,55.72Q.9,431.71,0,435.5Z"/><path class="cls-5" d="M357.77,306.29c7.39,2.85,14.91,5.35,22.28,8.25q12.81,5,25.38,10.72C420.3,332,436,339.35,448.52,350.21a79.4,79.4,0,0,1,15.54,17.61c.69,1.09,1.34,2.2,2,3.33s1.18,2.14,1.73,3.23h0a99.87,99.87,0,0,1,6.13,15.37c4.56,14.79,6.33,30.36,8.09,45.74h2.63c-1.33-13.91-2.73-27.89-5.61-41.53-3.46-16.41-10.2-31.32-22.58-42.61s-28-18.52-42.7-25.64c-9.33-4.53-18.75-8.84-28.36-12.7-8.37-3.35-16.84-6.77-25.5-9.29-1-.3-2-.58-3-.85-.62.77-1.24,1.52-1.89,2.26a1,1,0,0,0,.25.14Z"/><path class="cls-5" d="M468.72,419.22q-.08,8.14-.48,16.28h3.36a338.52,338.52,0,0,0-1.11-38.26c-.82-9.47-1.57-19.43-4.06-28.62a.27.27,0,0,0-.52.09c.33,8.47,1.62,16.94,2.15,25.41S468.79,410.85,468.72,419.22Z"/><path class="cls-5" d="M62.5,385.9a197.41,197.41,0,0,1,12.72,28.58,180.25,180.25,0,0,1,5.82,21h3.85a198.67,198.67,0,0,0-18.1-47.28q-4.25-7.94-9.11-15.49a105,105,0,0,0-10.09-14c-.39-.43-1,.15-.73.62C51.7,368.42,57.64,376.84,62.5,385.9Z"/><path class="cls-2" d="M272.82,223c-1.45,1.13-3,2.14-4.42,3.32-4,3.34-6.77,7.89-9.47,12.34a56.62,56.62,0,0,0,11.82-6.93c4.86-4,6.86-8.31,8.09-14.21C276.8,219.26,275,221.28,272.82,223Z"/><path class="cls-6" d="M360,276.64c-2.82,5.52-6.29,11.58-12.28,13.19q2-11.25,3.95-22.49a19.16,19.16,0,0,1-4.09,4.41c.52-.78,1.06-1.53,1.59-2.27a45.2,45.2,0,0,0,2.9-4.4c.24-1.39,1.23-2.71,1.47-4.1.31-1.78-.12-3.67-.1-5.47-.2-.74-.43-1.49-.67-2.24-.17-.53-.35-1.07-.51-1.62a16.94,16.94,0,0,1,1.15,2.6,11.35,11.35,0,0,0-.43-2.44c-1.3-4.35-5.34-7.24-9.21-9.61-7.15-4.37-15.52-8.21-23.6-7.74a10.92,10.92,0,0,0-2.2.73c-.74.35-1.46.74-2.16,1.11s-1.64.88-2.47,1.26a22.1,22.1,0,0,1-9,2.43h-.15a12.51,12.51,0,0,1-7.52-2.62c-.42-.31-.83-.63-1.24-1a17.43,17.43,0,0,0-3.42-2.32,6.45,6.45,0,0,0-1.72-.51,4.4,4.4,0,0,1-1.56-.49,1,1,0,0,1,.37-.35,20.65,20.65,0,0,0-7.78.36l-.73.13a9.32,9.32,0,0,0,1.43.61.28.28,0,0,1,.23.31.36.36,0,0,1-.34.32l-.44,0a4.13,4.13,0,0,1-2.6-1,162.76,162.76,0,0,0-19.07,4.29c-3.47,1-7,2.39-9.59,4.88-4.19,4-5.37,10.19-5.67,16a78.06,78.06,0,0,0,1.3,18.75c.3,1.59.51,3.61-1.11,4.35a2.73,2.73,0,0,1-1.44.18c-3.8-.49-6.06-4.16-7.59-7.58a75.72,75.72,0,0,1-4.26-12.29,38.45,38.45,0,0,0-16.32-22.37,21.49,21.49,0,0,1-3.78-3.2c-4.49-4.8-6.88-11.18-8.58-17.53a107.15,107.15,0,0,1-2.74-40.77c-.34-.62-.68-1.28-1-2a.53.53,0,0,0-.48-.3h-.11a.53.53,0,0,0-.42.5,263.09,263.09,0,0,0,2,44.69c.71,5.91,1.43,11.7,2.34,17.48l.09.57c.06.41.13.82.2,1.22.16,1,.33,2,.52,3,.83,4.64,1.71,8.72,2.7,12.48v0c.73,2.84,1.56,5.62,2.46,8.28.16.48.33,1,.5,1.43,0,0,0,0,0,0,.85,2.41,1.8,4.81,2.82,7.12a134.83,134.83,0,0,0,23.65,35.77c12,13.17,23.39,22.32,35,28a55.74,55.74,0,0,0,24.5,5.94h0A46.24,46.24,0,0,0,316,337.39c11.06-5.65,22.25-14.34,34.23-26.58.85-.88,1.67-1.73,2.42-2.54s1.49-1.6,2.25-2.45a137.26,137.26,0,0,0,20-28.83,116.68,116.68,0,0,0,8.43-21.69c.23-.8.44-1.58.64-2.38a134.07,134.07,0,0,0,3.44-18.64c.52-4.47.86-9,1.15-13.5Zm-17.67-.58c-1.05,5-3.61,9.55-6.21,14-5.76,9.79-12.75,20.1-23.62,23.37a42.28,42.28,0,0,1-10.87,1.42q-6.07.21-12.15,0a20.37,20.37,0,0,1-7.49-1.2c-3.28-1.39-5.64-4.29-7.84-7.1-7.47-9.52-14.95-19.91-16.18-32-.44-4.37.59-11.34,5.26-13.14h0c-.1,0-.14-.1-.13-.22a.17.17,0,0,1,.17-.17v0c.47,0,.94,0,1.42,0,.78,0,1.58.09,2.37.17,2.93.29,5.86.85,8.72,1.39,1.09.21,2.2.43,3.31.63-.4,0-.81,0-1.21-.06-2.35-.12-4.73-.23-7.1-.47a38.91,38.91,0,0,0,7.85.85c6.46.41,12.92.73,19.39.81A182.78,182.78,0,0,0,324.91,263c2.31-.37,5-.82,7.51-1.39l.68-.16a25.4,25.4,0,0,1,5.57-.86,10.1,10.1,0,0,1,1.48.11c.11,0,.16.17.18.26a.35.35,0,0,1-.11.34,7.34,7.34,0,0,1-.82.32C342.72,265.44,343.42,271.06,342.37,276.06Zm23.2-9.23c-.73,2-1.36,4.07-2,6.07-.7,2.31-1.42,4.7-2.3,7a.16.16,0,0,1-.15.07c.38-4,2-8,3.81-12.32.61-1.42,1.26-2.85,2-4.31Q366.23,265,365.57,266.83Z"/><path class="cls-2" d="M327.84,229.6c-2,.49-4,1-6,1.42a32.79,32.79,0,0,1-14.4,3.9c-5.82.21-10.67-1.62-15.58-4l-1.44-.56a18.82,18.82,0,0,0-2.25-.1c-2,0-4,.44-6.05.34-1.52-.08-5.9-2.41-4.11.63,1.16,1.95,3.89,3.24,5.89,4.07,7.94,3.3,16.77,3.63,25.37,3.68a43.48,43.48,0,0,0,9.27-.65,23.09,23.09,0,0,0,15.09-11A15,15,0,0,1,327.84,229.6Z"/><path class="cls-2" d="M331.73,229.76c.06-.1.11-.2.16-.3s.17-.37.2-.42q.32-.79.66-1.59a2.62,2.62,0,0,1,.3-.51,3,3,0,0,0-.74-.38,7.41,7.41,0,0,0-5.95.71,11.2,11.2,0,0,0-4.6,4.07c-1.62,3,3,5.75,4.62,2.7a5.37,5.37,0,0,1,3.38-2.37A3.9,3.9,0,0,1,331.73,229.76Z"/><path class="cls-2" d="M292.35,232.45c-.59-2.58-3.64-3.85-5.88-4.65-2.51-.89-5.55-1.53-8-.18-3,1.66-.32,6.29,2.7,4.62.75-.41,2.49.29,3.22.51a16.38,16.38,0,0,1,2.79,1.12C288,237.23,293.13,235.81,292.35,232.45Z"/><path class="cls-7" d="M323.39,333.17c-4.78-5.95-10.34-11.26-17.63-12.89-4.58-1-9.34-.44-14,0-12.92,1.08-26.66.45-37.69-6.37-7-4.34-12.39-10.86-17.62-17.26-5.65-6.91-11.35-13.9-15.45-21.84-5.94-11.53-8.23-24.58-9-37.58-.22-.22-.44-.43-.65-.66-4.49-4.8-6.88-11.18-8.58-17.53a107.1,107.1,0,0,1-2.74-40.76l-.48-.91c-.19-.35-.37-.71-.56-1.08a.54.54,0,0,0-.44-.29h-.15l-.13.05a.57.57,0,0,0-.2.18.51.51,0,0,0-.09.27c-.32,6.59-.33,13.42,0,20.55.31,7.64,1,15.65,2,24.14.57,4.73,1.15,9.38,1.82,14,.17,1.16.34,2.31.52,3.47l.09.57c.06.41.13.82.2,1.22s.15.87.22,1.31.19,1.14.3,1.71q.5,2.77,1,5.31c.53,2.54,1.09,4.92,1.68,7.17v0c.53,2.06,1.12,4.1,1.74,6.08.24.74.48,1.48.72,2.2.16.48.33,1,.5,1.43,0,0,0,0,0,0,.85,2.41,1.8,4.81,2.82,7.12a134.83,134.83,0,0,0,23.65,35.77c8.78,9.67,17.28,17.17,25.77,22.71a85.33,85.33,0,0,0,9.21,5.25,55.74,55.74,0,0,0,24.5,5.94h0a46.36,46.36,0,0,0,18.74-3.89c.84-.37,1.67-.77,2.5-1.19Q319.68,335.52,323.39,333.17Z"/><path class="cls-8" d="M405.8,62.88s0,0,0,0h0c-.11-.37-.22-.74-.34-1.11A92.5,92.5,0,0,0,394.9,40.36c-.51-.8-1-1.56-1.5-2.29a.51.51,0,0,0-.44-.25.71.71,0,0,0-.25.06.54.54,0,0,0-.25.67c.22.57.43,1.14.62,1.72a35.5,35.5,0,0,1,1.79,10.15c-.58-1.79-1.07-3.62-1.54-5.39-.42-1.58-.85-3.19-1.36-4.79a35.13,35.13,0,0,0-3.14-7.38,34.16,34.16,0,0,0-9.54-10.32c-.66-.48-1.33-.93-2-1.36a36.82,36.82,0,0,0-18-5.46c-.53,0-1.05,0-1.58,0h-.89a40.19,40.19,0,0,0-7.33.86h0A42.47,42.47,0,0,0,324,33a47.66,47.66,0,0,0-5.39,9.75h0a51,51,0,0,0-2.77,9.16,52.35,52.35,0,0,0-1.05,11.21c0,.39,0,.77,0,1.16a54.38,54.38,0,0,0,1,8c.19,1,.39,1.93.62,2.89.1.45.2.89.32,1.34.82,3.34,1.82,6.61,2.81,9.84.82,2.67,1.66,5.42,2.39,8.17h0c.19.72.37,1.42.54,2.14l0,.1a.49.49,0,0,0,.25.33.82.82,0,0,0,.19.1l.17,0a.52.52,0,0,0,.24-.05,56.31,56.31,0,0,1,12.15-3.95,72.41,72.41,0,0,1,15.6-1.73c1.92,0,3.85.08,5.74.24a154.33,154.33,0,0,1,21,3.39l.64.14,2.47.55a72.48,72.48,0,0,0,8.42,1.4,56.83,56.83,0,0,1-6-.6l-.74-.11h-.08a.52.52,0,0,0-.46.27.53.53,0,0,0,0,.6,38,38,0,0,1,5.75,10.56c2.87,8.2,3.39,17.52,1.65,29.34-.26,1.7-.55,3.44-.83,5.12a110.26,110.26,0,0,0-1.54,11.47,74.83,74.83,0,0,0,.72,16.13c.46,3,1.12,6,1.76,8.84.46,2.05.93,4.17,1.33,6.28l.06.31a.52.52,0,0,0,.52.43.54.54,0,0,0,.53-.44c.54-2.77,1.19-5.58,1.92-8.34.16-.65.35-1.3.53-2h.21a8.62,8.62,0,0,1,3,.56.58.58,0,0,0,.19,0,.52.52,0,0,0,.29-.09.51.51,0,0,0,.24-.42c.18-4.12.46-8.56.87-13.64a.19.19,0,0,0,0-.08l.12-1.4a.2.2,0,0,1,0-.07c.27-3.21.57-6.44.85-9.45,1-10.06,2.34-20,4.09-29.6.21-1.17.43-2.34.65-3.51,1-5.42,2-10.94,2.8-16.52h0c.51-3.66.92-7.33,1.13-11,.12-2,.16-4.1.12-6.13A76.57,76.57,0,0,0,405.8,62.88Zm-72.16,7.27h0a49.07,49.07,0,0,1,3-7,47.91,47.91,0,0,1,4.89-7.74,26.69,26.69,0,0,1,8.23-7.16c5-2.68,11-3.23,16.88-3.68l.59-.05c6.22-.49,12.6-1,18-4h0a20,20,0,0,0,4.2-3.1c.06-.06.1-.06.11-.06a.21.21,0,0,1,.18.14c0,.05,0,.1,0,.17a20.27,20.27,0,0,1-3.24,2.76c-5.72,4-12.87,4.64-19.81,5.29-1.4.14-2.83.28-4.25.44h0a54,54,0,0,0-7.71,1.35,25.12,25.12,0,0,0-12.12,7.46,44.65,44.65,0,0,0-8.79,15.22q-.27.74-.51,1.47c-.14.41-.27.81-.4,1.21.11-.4.22-.79.34-1.19S333.47,70.64,333.64,70.15Z"/><path class="cls-8" d="M322.14,96.72a.52.52,0,0,1-.21,0l-.95-.41c-1.86-.81-3.79-1.64-5.6-2.52a85.6,85.6,0,0,0-19.74-7c-1-.21-2-.4-3.07-.58a.53.53,0,0,1-.42-.37c-.56-1.75-1.21-3.51-1.84-5.22-.81-2.22-1.66-4.51-2.33-6.82A104.14,104.14,0,0,1,284.93,60c-1.23-8.23-2.21-18.95,1.13-28.82,2.3-6.79,6.94-13.19,13.42-18.51,4.6-3.76,9.81-6.44,14.85-9L315,3.3a.83.83,0,0,1,.21-.06c1.39-.08,2.78-.12,4.14-.12a63.66,63.66,0,0,1,12.6,1.22A62.23,62.23,0,0,1,346.12,9a56,56,0,0,1,7.34,4.35.51.51,0,0,1,.22.57.52.52,0,0,1-.46.4c-20.7,2.25-37.3,20.21-39.49,42.69-1.41,14.55,4,28.47,8.9,39a.54.54,0,0,1-.11.6A.51.51,0,0,1,322.14,96.72Z"/><path class="cls-1" d="M386.81,251.67a.6.6,0,0,1-.28-.08.52.52,0,0,1-.24-.56,167.15,167.15,0,0,0,2.55-19.65.53.53,0,0,1,.45-.49h.09a.53.53,0,0,1,.49.32,8.79,8.79,0,0,0,.87,1.6,14.09,14.09,0,0,0-.71-3l-.18-.58a11.61,11.61,0,0,0-.66-1.82.64.64,0,0,1-.05-.24c.27-4.25.48-8.54.67-12.69.18-3.68.36-7.48.59-11.21.19-3.22.39-5.87.6-8.35.2-2.3.41-4.37.64-6.33v0a117,117,0,0,1,2-11.78.54.54,0,0,1,.52-.42h.06a8.92,8.92,0,0,1,3.82,1.3,10.14,10.14,0,0,1,1.94,1.56c2.61,2.65,4.33,7.06,4.58,11.79.36,6.7-1.52,13.34-3.34,19.75-.26.92-.52,1.83-.77,2.73-.86,3.11-1.7,6.27-2.51,9.33-1.15,4.32-2.34,8.78-3.58,13.14-.18.64-.36,1.31-.55,2-1.27,4.7-2.85,10.55-6.66,13.59A.54.54,0,0,1,386.81,251.67Zm10.37-61.8a.3.3,0,0,1,.13,0,.52.52,0,0,1,.4.42,43.84,43.84,0,0,1,.65,9.54,37.93,37.93,0,0,0-.32-10.54l0-.06a.53.53,0,0,1,.1-.62,10.08,10.08,0,0,0,1.28-1.45,8.1,8.1,0,0,0-3.18,2.79,11.08,11.08,0,0,0-2.27,4.81c.26-.45.5-.9.74-1.35a23.7,23.7,0,0,1,1.92-3.17,1.46,1.46,0,0,1,.16-.19A.51.51,0,0,1,397.18,189.87Z"/><path class="cls-8" d="M233.34,75.2a65.94,65.94,0,0,0-5,7.31A79.62,79.62,0,0,0,220.26,101c-.39,1.32-.74,2.67-1,4a72,72,0,0,0-1.64,12.45c-.06,1.18-.08,2.38-.08,3.58A58.91,58.91,0,0,0,219,135.22a.56.56,0,0,1-.09.45A81.49,81.49,0,0,0,214,143.1l-.43.72a95.54,95.54,0,0,0-7.26,14.37,102.67,102.67,0,0,0-4.84,15.53c-.25,1.06-.49,2.15-.73,3.25a.54.54,0,0,1-.5.42h0a.53.53,0,0,1-.5-.35c-.55-1.54-1-2.93-1.48-4.25-.35-1-.69-2.07-1-3.1a.42.42,0,0,0,0-.06,131.3,131.3,0,0,1-3.47-12.76s0,0,0-.06c-.26-1.2-.49-2.39-.69-3.52l0-.1a136.57,136.57,0,0,1-2.33-29.5A119.3,119.3,0,0,1,206,70.52c1.7-3,3.6-6.1,5.66-9.13.72-1.07,1.46-2.14,2.23-3.2s1.4-1.84,2.15-2.74l1.6-1.89c.93-1.09,1.9-2.22,2.79-3.36a.55.55,0,0,1,.42-.2l.18,0a.56.56,0,0,1,.36.51c0,9,4.18,17.5,11.86,23.93A.53.53,0,0,1,233.34,75.2Z"/><path class="cls-8" d="M310.12,4.74A57.37,57.37,0,0,0,298.63,12a43.34,43.34,0,0,0-13.77,18.14c-3.84,10-3,21.46-2,29.18,0,.17.05.34.07.52.22,1.73.47,3.4.73,5,0,0,0,0,0,.06q.47,2.76,1,5.26c.29,1.34.6,2.63.94,3.87.1.4.21.8.32,1.19a55.73,55.73,0,0,0,3.7,9.75.53.53,0,0,1-.48.77h-.06c-4.62-.58-9.36-.82-13.94-1.05-7.67-.39-15.61-.8-23.25-2.77a48.17,48.17,0,0,1-16.67-7.78c-.41-.29-.73-.54-1-.78-5.88-4.68-9.58-10.39-11-17a29.64,29.64,0,0,1-.47-9.26l.08-.65a35.17,35.17,0,0,1,6.29-15.58,43.08,43.08,0,0,1,10.78-10.58,62.87,62.87,0,0,1,21.19-9,112.29,112.29,0,0,1,14.72-2.13l3.8-.39h.06a.54.54,0,0,1,.51.37.53.53,0,0,1-.26.63A75,75,0,0,0,268.78,17c-4.81,3.82-10.7,9.78-12.68,17.15A51.13,51.13,0,0,1,273,16.42c7.53-4.78,16.81-8.49,27.57-11a89,89,0,0,1,9.27-1.68h.07a.53.53,0,0,1,.51.38A.53.53,0,0,1,310.12,4.74Z"/><path class="cls-2" d="M200.06,238a.39.39,0,0,1-.18,0,29.73,29.73,0,0,1-5.36-2.41,36.09,36.09,0,0,1-8.35-7.19c-4.79-5.48-8.31-12.49-10.74-21.41a122.8,122.8,0,0,1-4.08-23c-.7-9.41.49-16.41,3.74-22,1.46-2.55,4.66-7,9.57-8.38a10.37,10.37,0,0,1,2.82-.39,9.93,9.93,0,0,1,3.48.62.54.54,0,0,1,.33.39,97,97,0,0,0,6.42,19.37.61.61,0,0,1,0,.27c-1.47,14.35-.35,29,.8,41.56q.34,3.72.66,7.45c.4,4.79.82,9.74,1.38,14.59a.54.54,0,0,1-.53.6Zm-6.27-24.51a.54.54,0,0,1,.42.21,19.91,19.91,0,0,0,1.68,1.9.17.17,0,0,0,.1,0,29.27,29.27,0,0,0-2.15-4.06c-.58-1-1.17-2-1.67-3a23.11,23.11,0,0,1-2.49-9.28,43.75,43.75,0,0,1,1.4-10.68,67.19,67.19,0,0,0,1.25-7.08c.4-4.13.39-10.23-2-15.83a13.93,13.93,0,0,0-2.83-4.36c2.43,2.83,3.46,7.56,3.9,11.16.64,5.29-.67,10-2.06,14.92q-.31,1.11-.63,2.25c-1.45,5.35-1.43,9.73,0,13.79a43.92,43.92,0,0,0,3.79,7.93.52.52,0,0,1,0,.54.56.56,0,0,1-.47.28,9.39,9.39,0,0,0-1.81.2c-1,.2-3.31.81-4.19,2.36a11.16,11.16,0,0,0,1.74-.59,10.54,10.54,0,0,1,2.83-.79h.39a11.89,11.89,0,0,1,1.19.08,11.19,11.19,0,0,0,1.13.09l.33,0Zm-7.72-53.34a.51.51,0,0,1,0,.13.57.57,0,0,1-.28.45c-2.26,1.23-4.24,4.41-5.72,9.18-.21.68-.39,1.37-.56,2.08.14-.44.28-.88.43-1.31a25.15,25.15,0,0,1,2.71-5.53,21.45,21.45,0,0,1,1.66-2.09,16.09,16.09,0,0,0,1.77-2.28.52.52,0,0,1,.38-.26h.15A5.42,5.42,0,0,0,186.07,160.13Z"/><path class="cls-9" d="M270.13,262.56l.67.19a46.31,46.31,0,0,1-7.53-1.3,6,6,0,0,1,1.44-.36,5.71,5.71,0,0,1,.84-.07,4.58,4.58,0,0,1,1.53.24C268.12,261.61,269.08,262.22,270.13,262.56Z"/><path class="cls-9" d="M339.4,261.57a22.86,22.86,0,0,1-6.22.89l-1.13.06c-2.65.17-5.31.49-7.88.81l-1.66.2c-2.55.3-5,.55-7.39.73,2.72-.28,5.51-.64,8.39-1.09l1.4-.22q6-.81,11.83-2.18a3,3,0,0,1,1.5-.09,2.57,2.57,0,0,1,1.14.87Z"/><path class="cls-1" d="M263.22,259.87c11.26-3.45,23-6.94,34.63-5.12a54,54,0,0,0,5.66.83,45.89,45.89,0,0,0,6.19-.35,55.67,55.67,0,0,1,30,5.94,107.33,107.33,0,0,1-14,11.44,36.4,36.4,0,0,1-16.85,6.16,39.34,39.34,0,0,1-9.5-.63,70.13,70.13,0,0,1-35.19-17.21,2.74,2.74,0,0,0,2.08.34A17.12,17.12,0,0,0,263.22,259.87Z"/><path class="cls-2" d="M328.8,258.41c-3.23-.86-6.42-2-9.79-2.08s-6.51.75-9.8,1.08c-3.46.35-6.89-.24-10.32-.72-7.31-1-14.41-.19-21.55,1.51-3.68.87-8.15,1.21-11.9,2.63a7.6,7.6,0,0,1,.74.44,3.35,3.35,0,0,1-1.61-.08l-.11.05a70.1,70.1,0,0,0,34.83,16.9,39.34,39.34,0,0,0,9.5.63,36.4,36.4,0,0,0,16.85-6.16A103.61,103.61,0,0,0,339,261.77,58.78,58.78,0,0,0,328.8,258.41Z"/><path class="cls-6" d="M291.56,283.61c-1.17.38-2.48,1-2.81,2.16a3.68,3.68,0,0,0,.18,2,25.77,25.77,0,0,0,4.09,8.12,11.79,11.79,0,0,0,2.92,2.89c2.64,1.7,6.14,1.59,9.05.41a24.81,24.81,0,0,0,7.6-5.45c1.49-1.44,3-3.1,3.21-5.17C316.66,278.09,296.58,282,291.56,283.61Z"/><path class="cls-10" d="M288.38,240.58a33.47,33.47,0,0,0,38.5-5.6,25.94,25.94,0,0,0-6.67-.52,10.92,10.92,0,0,0-2.2.73c-.74.35-1.46.74-2.16,1.11s-1.64.88-2.47,1.26a22.1,22.1,0,0,1-9,2.43h-.15a12.51,12.51,0,0,1-7.52-2.62c-.42-.31-.83-.63-1.24-1a17.43,17.43,0,0,0-3.42-2.32,6.45,6.45,0,0,0-1.72-.51,4.4,4.4,0,0,1-1.56-.49,1,1,0,0,1,.37-.35,20.65,20.65,0,0,0-7.78.36l-.73.13a9.32,9.32,0,0,0,1.43.61.28.28,0,0,1,.23.31.36.36,0,0,1-.34.32l-.44,0a4.13,4.13,0,0,1-2.6-1l-.85.15C280.72,236.55,285.76,239.26,288.38,240.58Z"/><path class="cls-1" d="M228.47,169.6c1.41.87,3.23.64,4.81.18,2.49-.72,8.26-2.94,8.86-5.91.56-2.82-3.28-5.44-5.73-5.46C232.21,158.38,222.05,165.64,228.47,169.6Z"/><path class="cls-1" d="M366,179a2.79,2.79,0,0,0,.15,1.92c1.25,3.48,4.34,6.6,8,6.57,1.35,0,2.88-.62,3.26-1.92s-.62-2.7-1.57-3.76a14.47,14.47,0,0,0-3.72-3.31C370.9,177.77,366.77,177.07,366,179Z"/><path class="cls-1" d="M187.09,215a4,4,0,0,0-.39,1.85A15.49,15.49,0,0,0,190,227.44a4.11,4.11,0,0,0,3,1.73,3.17,3.17,0,0,0,2.34-1.29,6.75,6.75,0,0,0,1.12-2.52,16.59,16.59,0,0,0,.24-7.15c-.35-1.89-1.4-4.31-3.35-5.05S188.06,213.27,187.09,215Z"/><path class="cls-1" d="M175.58,197.63c.33,1.32.86,2.79,2.12,3.29,1.16-.88,1.06-2.63.85-4.07l-1.5-10.36c-.17-1.16-.18-7.75-2.48-7-1.42.46-.63,7.13-.54,8.44A54.91,54.91,0,0,0,175.58,197.63Z"/><path class="cls-2" d="M400.94,180.33a10.34,10.34,0,0,0-1-1.11,10.14,10.14,0,0,0-1.94-1.56,8.92,8.92,0,0,0-3.82-1.3h-.06a.54.54,0,0,0-.52.42,117,117,0,0,0-2,11.78v0c0,.39-.09.79-.13,1.2C393.79,185.73,396.89,182.06,400.94,180.33Z"/><path class="cls-2" d="M388.5,235.39A155.35,155.35,0,0,1,386.29,251a.52.52,0,0,0,.24.56.6.6,0,0,0,.28.08.54.54,0,0,0,.34-.12c3.56-2.84,5.17-8.13,6.4-12.64a11.66,11.66,0,0,1-2.41-1.17A11.44,11.44,0,0,1,388.5,235.39Z"/><path class="cls-11" d="M395.33,115.21c-1.47-5.22-4-10.19-4.5-15.58-.92-9.37,4.21-18.15,9.15-26.16a49.63,49.63,0,0,1-33.55,11.58,58.4,58.4,0,0,0,19.22-22.46,81.14,81.14,0,0,1-45,9.74,223.88,223.88,0,0,1,11.71-24.15c-10.72,4-16.47,15-19.52,24.63a48.34,48.34,0,0,1,3.77-9.71c3.72-7.23,8.14-12.24,13.12-14.89a24.88,24.88,0,0,1,3.44-1.47q2.94-5.16,6.14-10.16c-21,5-37.86,23.93-40.44,45.33-1.21-3.8-2.38-7.64-3.39-11.51a120,120,0,0,0,4.07,15.88c.82,2.68,1.65,5.42,2.39,8.18q.35.77.69,1.5a.54.54,0,0,1-.11.6s0,0,0,0l0,.11a.51.51,0,0,0,.24.33.75.75,0,0,0,.2.09.51.51,0,0,0,.17,0,.69.69,0,0,0,.24-.05,55.76,55.76,0,0,1,12.15-3.95,71.71,71.71,0,0,1,15.6-1.73c1.92,0,3.85.08,5.73.24a156,156,0,0,1,21,3.39l.64.14,2.47.55a70.41,70.41,0,0,0,8.42,1.4,54.31,54.31,0,0,1-6-.6l-.74-.11h-.08a.52.52,0,0,0-.46.27.53.53,0,0,0,0,.6,38,38,0,0,1,5.75,10.56c2.87,8.2,3.39,17.52,1.65,29.34-.26,1.71-.55,3.44-.83,5.12a113.21,113.21,0,0,0-1.54,11.46,74.29,74.29,0,0,0,.72,16.14c.46,3,1.12,6,1.76,8.84.46,2.05.93,4.18,1.33,6.28l.06.31a.53.53,0,0,0,.52.43h0a.54.54,0,0,0,.53-.43c.54-2.78,1.19-5.59,1.92-8.35.17-.65.34-1.3.53-2h.21a8.62,8.62,0,0,1,3,.56.58.58,0,0,0,.19,0,.52.52,0,0,0,.29-.09.54.54,0,0,0,.24-.42c.18-4.12.46-8.56.87-13.64a.22.22,0,0,0,0-.08l.12-1.4a.17.17,0,0,1,0-.07c.26-3.21.57-6.44.85-9.45.15-1.55.31-3.09.48-4.63a35.67,35.67,0,0,1-1.56-5.17C397.32,132.29,397.65,123.49,395.33,115.21Z"/><path class="cls-11" d="M313.51,61.39a70.48,70.48,0,0,1-1.12-13.6c.24-11.64,4.37-23.67,13.3-31.12A79.55,79.55,0,0,0,283.83,44a86.76,86.76,0,0,0,1.1,16A104.14,104.14,0,0,0,288,73.78c.67,2.31,1.52,4.6,2.33,6.82.63,1.71,1.28,3.47,1.84,5.22a.53.53,0,0,0,.42.37c1.07.18,2.11.37,3.07.58a85.6,85.6,0,0,1,19.74,7c1.81.88,3.74,1.71,5.6,2.52l.95.41a.52.52,0,0,0,.21,0,.55.55,0,0,0,.34-.13c-.17-.71-.36-1.42-.54-2.13C317.75,85.25,313.42,73.66,313.51,61.39Z"/><path class="cls-11" d="M215.46,94.22c-3.27,14.86-13.44,26.72-24.81,37.25A149.81,149.81,0,0,0,193,153.19l0,.1c.2,1.13.43,2.32.69,3.52,0,0,0,0,0,.06.86,4,2,8.17,3.47,12.76,0,0,0,0,0,.05.33,1,.67,2.08,1,3.11.45,1.32.93,2.71,1.48,4.25a.53.53,0,0,0,.5.35h0a.54.54,0,0,0,.49-.42c.24-1.1.48-2.19.72-3.25a103.87,103.87,0,0,1,4.85-15.53,97.06,97.06,0,0,1,7.26-14.38l.43-.71a81.49,81.49,0,0,1,4.85-7.43.56.56,0,0,0,.09-.45,58.85,58.85,0,0,1-1.45-14.14A71.65,71.65,0,0,1,220.26,101a80,80,0,0,1,8.11-18.51,66.92,66.92,0,0,1,5-7.31.54.54,0,0,0-.08-.74c-7.68-6.43-11.89-14.93-11.86-23.93a.53.53,0,0,0-.36-.5.57.57,0,0,0-.18,0,.53.53,0,0,0-.42.2c-.89,1.14-1.86,2.27-2.79,3.36s-1.78,2.08-2.62,3.15C215.76,69.25,218.14,82,215.46,94.22Z"/><path class="cls-11" d="M267.54,30.1a75.54,75.54,0,0,0-21.86,36.36,57,57,0,0,1-5-39.71,55.65,55.65,0,0,1,3-8.84c-1.32.74-2.6,1.52-3.82,2.35-9.4,6.41-15.78,16.19-17.07,26.17l-.08.64a28.77,28.77,0,0,0,.48,9.26c1.41,6.58,5.11,12.29,11,17,.29.24.62.49,1,.78a48.26,48.26,0,0,0,16.67,7.78c7.64,2,15.58,2.37,23.25,2.77,4.58.23,9.32.47,13.93,1.05h.07a.53.53,0,0,0,.48-.77c-3.22-6.45-5.37-14.59-6.76-25.64a90.5,90.5,0,0,1-.81-13,76.37,76.37,0,0,0-10.56,19.52A39,39,0,0,1,267.54,30.1Z"/><path class="cls-12" d="M405.8,62.88s0,0,0,0h0c-.11-.37-.22-.74-.34-1.11A92.5,92.5,0,0,0,394.9,40.36l-1.82-.09q-.56,0-1.11,0c-1.84,0-3.7,0-5.54.13l-1.21.09h0a76.11,76.11,0,0,0-18.6,4.06l-.87.3c-1.13.41-2.26.83-3.37,1.27h0c-6.74,2.64-13.25,5.81-19.83,8.81l-1,.46c-3.58,1.61-7.19,3.17-10.88,4.54a90.65,90.65,0,0,1-15.78,4.33l-1.27.22a98.79,98.79,0,0,1-27.74.6c-.66-.07-1.31-.16-2-.25h0l-.23,0a103.78,103.78,0,0,1-23.72-6.27,61.52,61.52,0,0,1-7.7-3.66h0c-7.79-4.45-14.35-10.86-16.26-20a31.64,31.64,0,0,1-.12-11.44,41.16,41.16,0,0,0-6.74,7.45,34.32,34.32,0,0,0,11.36,25.28c8.43,7.76,19.52,12.53,30.37,15.78a101.07,101.07,0,0,0,15.09,3.26c.87.12,1.74.24,2.61.33a108.25,108.25,0,0,0,11.1.69h0q4.27.06,8.51-.23c2.36-.15,4.69-.38,7-.68l1.28-.17a132.79,132.79,0,0,0,16.75-3.48l.06,0q4.86-1.34,9.65-3h0l2-.71c5.79-2.09,11.53-4.32,17.39-6.23,3.08-1,6.19-1.93,9.34-2.69,1.26-.31,2.53-.6,3.8-.85.78-.15,1.55-.27,2.33-.41l.48-.09h0l.5,0c2.38-.21,4.74-.38,7.13-.37,1.32,0,2.65.06,4,.16l1.59.14.39,0h0l.39.09a49.79,49.79,0,0,1,7.51,1.91l.58.22h0c.11.06.79.36,1.06.5A32.35,32.35,0,0,1,405,62.32a2.7,2.7,0,0,1,.39.27h0l0,0h0l0,0,.09.06,0,0h0Z"/><path class="cls-12" d="M409.06,83.71c0,2,0,4.08-.12,6.13-.21,3.68-.62,7.35-1.13,11a56.47,56.47,0,0,0-6.14-11.31c-5.57-7.85-13.23-14-22.68-16.23-10.83-2.58-22.47-1-33.38.23-9.6,1.11-19.21,2.43-28.87,2.9l-1.31.07c-1.47.06-2.95.1-4.43.12-3.8,0-7.6-.1-11.39-.45h0c-1.81-.15-3.62-.36-5.41-.61-2-.28-4-.59-6-1-.89-.19-1.77-.38-2.64-.61a31.28,31.28,0,0,1-7.24-2.79.83.83,0,0,1,.41-1.54c2,0,3.93.22,5.89.46.81.1,1.61.21,2.41.33,4.07.58,8.14,1.34,12.24,1.67a117.14,117.14,0,0,0,15.22.18l1.29-.07c1.3-.07,2.59-.17,3.89-.28,4.67-.41,9.31-1.05,13.95-1.78h.1c3.05-.49,6.1-1,9.14-1.52h0c4.5-.77,9-1.52,13.51-2.13,11.11-1.5,22.69-2.35,33.3,2A45.53,45.53,0,0,1,409.06,83.71Z"/><path class="cls-12" d="M349.5,16.56h0a43,43,0,0,0-9.63,5.28c-8.1,5.87-14.16,13.89-21.23,20.87h0c-.72.72-1.44,1.41-2.18,2.1l-.24.22a55.86,55.86,0,0,1-29.5,14.32c-.61.1-1.22.18-1.83.25s-1.32.14-2,.19A71.92,71.92,0,0,1,268,59.2,54.15,54.15,0,0,1,258.44,57c-2.11-.67-4.14-1.52-6.23-2.17h0a23.13,23.13,0,0,0-2.87-.71.77.77,0,0,0-.74,1.27c3.38,4.08,9.14,6,14.08,7.51a53,53,0,0,0,15.84,2.18c1.71,0,3.42-.11,5.13-.26a1.66,1.66,0,0,1,.22,0h0c.62-.06,1.25-.13,1.87-.21A59.72,59.72,0,0,0,310.11,56c1.43-.9,2.81-1.87,4.15-2.89.54-.41,1.07-.84,1.6-1.26,6.57-5.33,12.19-11.83,18.24-17.71,7.4-7.19,23.74-16.9,34.46-17.75l-10.35-1.64Z"/><path class="cls-12" d="M219.22,105.05a72,72,0,0,0-1.64,12.45q-1.12-2.3-2.08-4.66a75.13,75.13,0,0,1-4.9-22.66,129.52,129.52,0,0,1,.5-23.79c.19-1.66.36-3.33.58-5,.72-1.07,1.46-2.14,2.23-3.2s1.4-1.84,2.15-2.74c-.08,3.66-.32,7.29-.44,10.94a174.09,174.09,0,0,0,.44,21.91A95.51,95.51,0,0,0,219.22,105.05Z"/><path class="cls-2" d="M344.75,243.22c-.19-.67-2.05-1.86-2.58-2.41a33.83,33.83,0,0,1-2.44-2.79,36.73,36.73,0,0,1-4-6.43c-1.67-3.41-4.49-9.69-3.46-13.52,1.18.62,1.91,2.34,2.63,3.46,1.41,2.22,2.77,4.46,4,6.8A77.37,77.37,0,0,1,344.75,243.22Z"/><path class="cls-2" d="M392.13,215.47a12.33,12.33,0,0,1,2.17,3.64,5.62,5.62,0,0,1-1.38,4.86,16.53,16.53,0,0,1-4.13,3.19,13.6,13.6,0,0,1,.07-5.24c.29-2.09.49-4.2.63-6.31.08-1.32-.33-4,.6-5A15.52,15.52,0,0,0,392.13,215.47Z"/><path class="cls-2" d="M342.66,166.79c-7.1,0-25.79,8.32-18.22,17.56,5.78,7.06,20,5.81,27.95,5.41,4.9-.25,9.53-.74,14.13-2.58.12-3.74-5.19-6.73-7.95-8.58-1.74-1.17-5.45-2.62-5.29-5.26s4.09-3.79,5.48-5.35A99.46,99.46,0,0,0,342.66,166.79Z"/><path class="cls-2" d="M276.45,156.06c4.3,4.5,11,7.17,12.77,13.8a9.58,9.58,0,0,1-4.16,10.6c-10.79,6.06-25.95,4.17-36.38-1.66a67.39,67.39,0,0,1-6.76-4.83c-1.22-.89-3-2.17-3.6-3.55,3.25-.8,6.65-2.68,9.81-3.93,1.94-.77,5-1.77,4.86-4.25-.1-1.82-1.67-2.71-3.27-3.32-3.72-1.41-8.2-2.11-11.55-4.34,2.29-1.22,5.62-1.49,8.17-1.5a122.5,122.5,0,0,1,13.82.48c3,.32,6.1.81,9.08,1.35C271.43,155.3,273.14,157,276.45,156.06Z"/><path class="cls-2" d="M378.84,110.78c3.68,5.16,8.43,13.36,9.49,20.73a58.55,58.55,0,0,0-.93-19.8,42.88,42.88,0,0,0-5-12.36,26.49,26.49,0,0,0-2.25-3.16.53.53,0,0,0-.33-.19l-2.33-.38a141.3,141.3,0,0,0-17-2c-2.11-.08-4.15-.12-6.07-.12-1.6,0-3.16,0-4.67.08a46.26,46.26,0,0,1,14.11,3.68C369.94,100,375,105.43,378.84,110.78Z"/><path class="cls-13" d="M203.15,240.32a11.33,11.33,0,0,1-2.77-.16,26.15,26.15,0,0,1-8.78-3.58,36.12,36.12,0,0,1-10.12-9.28c-5.75-7.68-8.63-17.12-10.53-26.41-1.82-8.83-3.46-18.11-2.47-27.14.88-8,4.18-16.88,11.47-21.21a13.06,13.06,0,0,1,10.21-1.28,9.43,9.43,0,0,1,3.38,1.84l0,.1c.2,1.17.43,2.34.68,3.49a8,8,0,0,0-3.47-2.44,9.76,9.76,0,0,0-6-.22c-4.08,1.13-7.21,4.58-9.26,8.14-3.77,6.54-4.21,14.36-3.67,21.73a123.53,123.53,0,0,0,4.06,22.89c2.11,7.74,5.32,15.12,10.64,21.2a35.88,35.88,0,0,0,8.22,7.08,29,29,0,0,0,5.26,2.37c.94.36,1.87.7,2.8,1.09C203,239.13,203,239.73,203.15,240.32Z"/><path class="cls-13" d="M322.86,166.66c-1.82,5.71-3.48,11.12-4,17.15-.54,5.66-.56,11.38-.63,17.06a.07.07,0,0,1-.15,0,121.28,121.28,0,0,1,.09-18.48c.54-5.37,1.47-11.22,4.21-15.95A.29.29,0,0,1,322.86,166.66Z"/><path class="cls-13" d="M281.83,235c-3.83.4-6.23-3.88-6.28-7.22a21,21,0,0,1,2.06-8.13c.7-1.67,1.36-3.43,3.11-4.18.06,0,.1,0,.08.08-2.4,5.55-7.11,15,1.25,17.79A.85.85,0,0,1,281.83,235Z"/><path class="cls-13" d="M323.37,234c-1.61.84-3.44.82-5.13,1.64s-3.06,1.64-4.64,2.37a22.09,22.09,0,0,1-9.39,2.47,13,13,0,0,1-7.83-2.72,28.58,28.58,0,0,0-4.57-3.23c-1.23-.59-2.56-.37-3.62-1.22a.21.21,0,0,1,0-.27c1.07-2.31,4.73-.54,6.16.54,1.18.89,2.15,2,3.28,3a10.24,10.24,0,0,0,6.61,2.32c4.53.1,8.52-2.25,12.25-4.53,2-1.24,4.88-3.13,7-1.39A.67.67,0,0,1,323.37,234Z"/><path class="cls-13" d="M334.89,225.28c-.29,2.83-2.58,6.52-5.61,6.86-.45.05-.56-.6-.22-.81,7.38-4.37,1.08-12.59-.48-18.52-.11-.42.48-.85.79-.46a36.23,36.23,0,0,1,3.77,6.46C334.09,220.75,335.13,223.05,334.89,225.28Z"/><path class="cls-13" d="M340.44,261.73c-2.56,1.17-5.58,1.16-8.36,1.33-3.18.19-6.34.62-9.5,1a150.49,150.49,0,0,1-19.79,1.16c-6.88-.08-13.72-.77-20.57-1.23-6.36-.43-12.92-.35-19.12-2a.74.74,0,0,1,.19-1.44c6.42,0,12.72,1.84,19,2.73a138.83,138.83,0,0,0,20.48,1.18,141.41,141.41,0,0,0,20.64-1.79c3-.47,5.93-.94,8.87-1.61,2.58-.58,5.29-1.3,7.93-.91A.89.89,0,0,1,340.44,261.73Z"/><path class="cls-14" d="M354.71,261.83c-.71,4.06-4.19,8.66-7.57,10.92a.36.36,0,0,1-.5-.48c2.12-3.36,4.78-6.18,6.17-10,1.78-4.84-.71-8.14-1.57-12.7,0-.11.13-.24.22-.13A16.59,16.59,0,0,1,354.71,261.83Z"/><path class="cls-14" d="M371.06,254.25c-1.64,4.26-3.41,8.47-5,12.76s-2.63,8.8-4.29,13c-.23.58-1.25.57-1.18-.16.4-4.28,2.18-8.57,3.86-12.5,1.94-4.52,4.15-8.86,6.52-13.17C371,254.18,371.07,254.21,371.06,254.25Z"/><path class="cls-15" d="M235.52,73.65c-.44.52-.88,1-1.28,1.58-.11.14-.22.29-.32.44a78.12,78.12,0,0,0-4.84,7.25,71.69,71.69,0,0,0-7.45,18.47,80.31,80.31,0,0,0-2.6,19.69,83.82,83.82,0,0,0,1.1,12.2l.33,2.26c-.45.71-.91,1.42-1.37,2.11-.25-.75-.46-1.52-.66-2.31A59.94,59.94,0,0,1,217,121.08a72.7,72.7,0,0,1,2.78-20.21,80.59,80.59,0,0,1,8.17-18.64,65.43,65.43,0,0,1,5-7.36c.18-.24.38-.48.57-.72l1-1.26C234.85,73.16,235.18,73.41,235.52,73.65Z"/><path class="cls-15" d="M326.38,98.1c-1.32.44-2.61,1-3.9,1.49l-.24-.11c-.79-.35-1.57-.68-2.36-1-3.65-1.52-7.33-2.83-11.1-4.09-8.64-2.89-17.2-5.46-26.3-6.39-15-1.52-30.68-1.42-44.07-9.27a41.25,41.25,0,0,1-4.49-3.06c-.34-.26-.67-.53-1-.8-7.28-6.09-12.09-14.66-12.06-24.34,0-.76,0-1.54.1-2.32,0-.06,0-.1,0-.16,1.19-13.57,10.35-24.66,21.94-31.14a66.87,66.87,0,0,1,19.77-7,91.67,91.67,0,0,1,19.8-2.05h0c1.37,0,2.74.11,4.09.25.14,0,.19.23,0,.26-2.33.41-4.66.7-7,1h0c-6.17.67-12.36,1.07-18.46,2.51a62.58,62.58,0,0,0-21,8.89c-8.69,5.93-15.49,15.38-16.84,25.79l-.08.64a28.47,28.47,0,0,0,.47,9.08,29.05,29.05,0,0,0,10.82,16.68c.32.27.65.52,1,.76A47.55,47.55,0,0,0,252,81.34c12.14,3.13,24.76,2.27,37.11,3.81q1.77.21,3.54.51c1,.17,2.07.36,3.1.58a86.3,86.3,0,0,1,19.86,7c2.09,1,4.3,2,6.52,2.92l.89.38.09.05C324.21,97.09,325.3,97.58,326.38,98.1Z"/><path class="cls-15" d="M403.39,94.61c-6.15,3.66-13.25,3.47-20.11,2.46l-.74-.11-2.79-.43a157.85,157.85,0,0,0-19.29-2.41,111.82,111.82,0,0,0-23,1.17,73.46,73.46,0,0,0-10.54,2.62l-.56.19c-1.32.44-2.61,1-3.9,1.49l-.24-.11c-.79-.35-1.57-.68-2.36-1a24.92,24.92,0,0,1,2.61-1.55l.56-.28.07,0a55.89,55.89,0,0,1,12.27-4,71.61,71.61,0,0,1,21.5-1.5A158.55,158.55,0,0,1,378,94.52l.78.17,2.34.52c7.38,1.61,15.23,2.8,22.2-.79A.11.11,0,1,1,403.39,94.61Z"/><path class="cls-15" d="M392.18,188.63h0q-.37,3.15-.64,6.33c-.27-1.72-.52-3.43-.81-5.14h0c-.29-1.81-.62-3.61-1.05-5.4-1.1-4.68-2.24-9.35-3.27-14a61,61,0,0,1-1.88-13.56,89,89,0,0,1,1.69-14.37c1.75-10.13,3.11-20.47.66-30.62A42.57,42.57,0,0,0,382,99.63a25.69,25.69,0,0,0-2.21-3.1c-.57-.7-1.17-1.36-1.79-2l.78.17,2.34.52c.51.57,1,1.15,1.46,1.75a38.59,38.59,0,0,1,5.84,10.72c3.32,9.5,3.12,19.76,1.67,29.59-.82,5.51-2,11-2.36,16.54a73.41,73.41,0,0,0,.71,16c.79,5.07,2.13,10,3.08,15.09l.06.31h0C391.75,186.35,392,187.48,392.18,188.63Z"/><path class="cls-15" d="M359.28,16.26c-.81,0-1.63,0-2.44,0-1.24-.81-2.46-1.64-3.68-2.46a54.09,54.09,0,0,0-7.27-4.3,61.3,61.3,0,0,0-14.1-4.62,65.43,65.43,0,0,0-16.6-1.08c-1.76.09-3.53.25-5.29.47h0a89,89,0,0,0-9.22,1.67c-9.48,2.23-19.15,5.71-27.41,11-7.78,4.93-13.3,11.42-17.75,19.4-.12.22-.42.06-.38-.15,1.29-8,7.18-14.63,13.31-19.5A75,75,0,0,1,279.63,9.3h0c.94-.5,1.9-1,2.86-1.46h0A78,78,0,0,1,314.19,0a70.71,70.71,0,0,1,24.86,3.8c6.09,2.13,13,5.23,18,9.74a24.18,24.18,0,0,1,2,2A.91.91,0,0,1,359.28,16.26Z"/><path class="cls-15" d="M395.42,51.21a.41.41,0,0,1-.81.11c-2.11-6.17-2.87-12.45-6.24-18.19A34.23,34.23,0,0,0,377,21.63a36.13,36.13,0,0,0-17.7-5.37c-.81,0-1.63,0-2.44,0a41.58,41.58,0,0,0-32.38,17,49.9,49.9,0,0,0-9.12,29.81c.18,11.67,5,22.33,7.69,33.49l0,.08,0,.13c.07.32-.4.55-.55.23a.2.2,0,0,1,0-.08c-.12-.24-.23-.49-.35-.74C316.41,83.87,311.86,70.74,313.2,57c2.07-21.37,17.95-40.78,40-43.17l.53-.06c1.13-.11,2.24-.16,3.35-.16,15.43-.05,29.53,9.77,35.44,23.62.17.39.33.78.48,1.18A36.07,36.07,0,0,1,395.42,51.21Z"/><path class="cls-15" d="M220.46,135.54c-.45.71-.91,1.42-1.37,2.11-1.58,2.39-3.22,4.75-4.59,7.23a127.77,127.77,0,0,0-6.83,14.56,119.92,119.92,0,0,0-4.92,15.14c-.5,2-.87,4-1.2,6l-.06.35a.37.37,0,0,1-.58,0c-.38-.64-.75-1.3-1.12-2,.14-.68.28-1.35.43-2,.24-1.11.49-2.19.73-3.25A104.25,104.25,0,0,1,205.82,158a98.83,98.83,0,0,1,7.3-14.45,91.17,91.17,0,0,1,5.31-8.2c.55-.71,1.11-1.4,1.7-2.06Z"/><path class="cls-15" d="M410.24,90.82c-.39,10.29-2.56,20.42-4.41,30.52-1.91,10.45-3.28,21-4.25,31.55h0c0,.22,0,.45-.06.67s0,.39,0,.59h0c-.63,7.29-1,14.62-1.57,21.92-.09,1.17-.19,2.34-.29,3.51a10.47,10.47,0,0,0-1.84-1.48c0-1,.07-2,.12-3,.19-4.57.5-9.15.87-13.72h0l.12-1.47h0c.26-3.16.56-6.32.86-9.46q1.42-14.91,4.1-29.65c1.88-10.26,4-20.53,4.56-31a76.4,76.4,0,0,0-3.46-27.9c-2.73-8.53-7.07-16.13-12-23.55l-.56-.84a.27.27,0,0,1,.42-.32c6.74,7.43,11.29,16.95,14.13,26.51A83.9,83.9,0,0,1,410.24,90.82Z"/><path class="cls-13" d="M402.75,211.39c-2.84,9.63-6.05,19.19-8.52,28.92C393.05,245,391,252.85,386,254.77a6.51,6.51,0,0,1-3.18.38c.22-.79.43-1.57.63-2.36a8.73,8.73,0,0,0,3.32-1.66c4.22-3.37,5.62-10.35,7-15.32,2.13-7.45,4-15,6.09-22.46,2-7.19,4.5-14.75,4.09-22.31-.21-4-1.62-8.6-4.42-11.45a10.47,10.47,0,0,0-1.84-1.48,8.46,8.46,0,0,0-3.6-1.22l-.69,0c.2-.79.42-1.57.64-2.35.21,0,.42,0,.63,0a9.6,9.6,0,0,1,3.14.59,11,11,0,0,1,2,1,15.67,15.67,0,0,1,6.54,9C408.87,193.93,405.22,203,402.75,211.39Z"/><path class="cls-13" d="M182.57,159.32c6,.21,7.76,8.46,8.33,13.18.72,6-1.14,11.29-2.68,17-1.28,4.75-1.65,9.41.06,14.12,1.55,4.22,4,9.18,7.23,12.37.38.39,1.19,0,1-.56-1-2.52-2.65-4.7-3.83-7.12a22.64,22.64,0,0,1-2.43-9.07c-.2-6,2.05-11.75,2.64-17.69a33.67,33.67,0,0,0-2-16.09c-1.45-3.44-4.19-7-8.28-6.71a.3.3,0,0,0,0,.6Z"/><path class="cls-13" d="M185.91,215.31c1.68-.31,3.08-1.28,4.84-1.44,1.29-.12,3,.55,4.14-.22a.57.57,0,0,0,.25-.62c-.72-1.74-3.37-1.52-4.92-1.21-1.79.36-4,1.23-4.75,3.05-.11.27.2.48.44.44Z"/><path class="cls-13" d="M178.45,185c.11-4.77.43-9.6,2-14.14a24.57,24.57,0,0,1,2.64-5.4c1.06-1.6,2.58-2.87,3.51-4.51a.6.6,0,0,0-.82-.82c-3.28,1.59-5.2,6.35-6.22,9.63A39.36,39.36,0,0,0,178.42,185s0,0,0,0Z"/><path class="cls-13" d="M391.27,234a.1.1,0,0,1-.16.06,8.61,8.61,0,0,1-1.73-2.67c-.14-.29-.26-.6-.39-.91-.64-1.55-1.34-2.86-1.14-4.55a.42.42,0,0,1,.71-.3,5.24,5.24,0,0,1,1.11,1.52h0a15.54,15.54,0,0,1,.81,2.28A11.42,11.42,0,0,1,391.27,234Z"/><path class="cls-13" d="M400.24,186.78A7.92,7.92,0,0,1,398.5,189a17.25,17.25,0,0,0-1.32,1.39,1.33,1.33,0,0,0-.14.19,45.46,45.46,0,0,0-2.74,4.66c-.23.39-1,.25-.92-.25a11.29,11.29,0,0,1,2.42-5.36c1.06-1.33,2.48-3,4.28-3.14A.19.19,0,0,1,400.24,186.78Z"/><path class="cls-13" d="M396.67,208.84s-.09,0-.08,0a45.43,45.43,0,0,0,.59-18.43c0-.25-.09-.5-.14-.75-.18-.92,1.11-1.34,1.46-.64a1,1,0,0,1,.07.22A36.64,36.64,0,0,1,396.67,208.84Z"/><path class="cls-3" d="M364.08,182.61a9.67,9.67,0,0,0-2,.22l-2.22.21a15,15,0,0,1-4.58-.29l-.48-.11-.34-.08c-1.55-.34-3.09-.7-4.64-1.06l-.56-.12-3.4-.79-.55-.12L343,180l-2.42-.51-.31-.06-.5-.09a9.17,9.17,0,0,1-3.48-1.69c-1.26-.83-2.46-1.72-3.66-2.64a22.72,22.72,0,0,1,6.23-1.47c.16,0,.37,0,.46.13a23.75,23.75,0,0,1,2.92-.35,27.55,27.55,0,0,1,3.4,0c.4,0,.81.06,1.21.1.56.07,1.11.15,1.66.24l.44.09a24.74,24.74,0,0,1,2.54.62l.51.17a25.58,25.58,0,0,1,3.45,1.38l.72.37a26.48,26.48,0,0,1,7.16,5.49C363.6,182,363.85,182.32,364.08,182.61Z"/><path class="cls-3" d="M350,176.38a1.61,1.61,0,0,0,1.38,2.42,1.4,1.4,0,1,0,0-2.79,1.72,1.72,0,0,0-1,.26,1.93,1.93,0,0,0-.75,1,1.25,1.25,0,0,0,.07.91,1.46,1.46,0,0,0,.57.66,1.77,1.77,0,0,0,2.22-.24,1.4,1.4,0,0,0,0-2,1.69,1.69,0,0,0-1.39-.45A1.62,1.62,0,0,0,350,177a1.41,1.41,0,0,0,.84,2.05,1.67,1.67,0,0,0,2.1-1.08,1.57,1.57,0,1,0-3,.12,1.65,1.65,0,1,0,.72-1.84,1.52,1.52,0,0,0,.2,2.69,1.6,1.6,0,0,0,2.19-1,1.72,1.72,0,0,0-1.25-2.12,2.17,2.17,0,0,0-2.12.86,1.39,1.39,0,0,0,2,2c.07-.08.26-.22.29-.32,0,.09-.23.17-.31.19a.74.74,0,0,1-1-.58.7.7,0,0,1-.25-.72l.36-.61a1.25,1.25,0,0,1,1.35-.19l.5.5.1.24v.74l-.1.25-.5.5q.24-.16-.39,0a.89.89,0,0,1-1.13-.45l-.19-.71a1.14,1.14,0,0,1,1.39-1.06l.62.36a1.19,1.19,0,0,1,.26,1l-.36.61-.19.15-.7.19-1-.56-.19-.71v.06l.19-.7c1.29-.23,1.69-.41,1.19-.54l.83,2-1.78.21v-2a1,1,0,0,1,.69-.28c.51.2.66.23.47.1l.64,1.57a1.13,1.13,0,0,1-1,.79V176l.26,0,.62.36.15,1.38a1.39,1.39,0,0,0-.5-1.9,1.42,1.42,0,0,0-1.91.5Z"/><path class="cls-3" d="M278.37,171c-3.73.52-6.74,2-10.41,1.84a5.63,5.63,0,0,1-.58,0c-.12,0-.24,0-.36,0-1.58-.11-3.16-.27-4.74-.45l-.87-.1-2.31-.28-.85-.1-2.54-.3-2.18-.23-.46-.06-.41,0h-.11c-4.37-.43-5.88-2-10.15-3A44.9,44.9,0,0,1,253.15,165l.71-.12.25,0a29.92,29.92,0,0,1,3.28-.37,24.28,24.28,0,0,1,2.83,0l-1.34-.29a34.4,34.4,0,0,1,8.87,1.83l.1,0,.81.28C272.41,167.59,275.27,168.3,278.37,171Z"/><path class="cls-3" d="M262.06,167.65a2,2,0,0,0,0,1,1.6,1.6,0,0,0,1.09,1.07,1.57,1.57,0,0,0,2-1.52,1.55,1.55,0,0,0-2.33-1.25,1.72,1.72,0,0,0-.64,2.31,1.69,1.69,0,0,0,2.25.6,1.61,1.61,0,0,0,.44-2.36,1.55,1.55,0,0,0-2.35-.16,1.59,1.59,0,0,0,.17,2.35,1.62,1.62,0,0,0,2.45-1,1.64,1.64,0,0,0-1.15-2,1.58,1.58,0,0,0-2,1.53,1.66,1.66,0,0,0,2.08,1.55,1.67,1.67,0,1,0-.8-3.25,1.76,1.76,0,0,0-1.35,1.69,1.68,1.68,0,0,0,1.65,1.66,1.64,1.64,0,0,0,1.47-2.25,1.71,1.71,0,0,0-2.41-.72,1.63,1.63,0,0,0-.49,2.56,1.57,1.57,0,0,0,1.32.43,1.45,1.45,0,0,0,1.23-1.09,1.48,1.48,0,0,0-.14-1.07,1.4,1.4,0,0,0-2.55.33v0l.36-.61,0,0,.62-.36,1.14.31.36.62,0,.25-.19.7a.84.84,0,0,1-.39.33,1,1,0,0,1-1.13-.23l-.36-.61q3.56-.85,1.52.7c-.61.15-1.05-.21-1.33-1.06l.19-.71c-.29.61.31.64,1.79.09l.19.7-.14.53-.5.5a1.2,1.2,0,0,1-1.55-.38l-.19-.71a1.07,1.07,0,0,1,.76-1l1.35.36-.51,2h-.75l-.52-1.94.62-.35c.45-.12.7.16.75.82.79.71.64,1.17-.44,1.39l-.7-.19.05,0-.5-.5,0,0-.19-.7v.05l.19-.71.67-.5H264l.23.09.5.5a1.2,1.2,0,0,1,.07.75,1.5,1.5,0,0,0-.14-1.08,1.4,1.4,0,0,0-2.55.33Z"/><path class="cls-11" d="M378.84,170.16c-2.74-5.64-7.77-8-13.77-8.75-7-.85-14.31-.72-21,1.41a32,32,0,0,0-8.14,3.82,25,25,0,0,0-3.32,2.51,8.35,8.35,0,0,0-1.71,2.12,8,8,0,0,0,1.19-.11c1.16-.18,2.34-.54,3.44-.73a74.12,74.12,0,0,1,8.79-1,51.06,51.06,0,0,1,16.06,1.46,38.69,38.69,0,0,1,11.88,5.66,31.22,31.22,0,0,1,5.18,4.41,32.16,32.16,0,0,1,2.3,3.09,11,11,0,0,0,1.43,1.66,18.78,18.78,0,0,0,.3-2.27A26.47,26.47,0,0,0,378.84,170.16Z"/><path class="cls-15" d="M320.19,1.14c-1.65.92-3.32,1.78-5,2.64-5.33,2.73-10.64,5.4-15.37,9.28-5.88,4.83-10.79,11-13.25,18.26-3.09,9.11-2.51,19.2-1.11,28.57a104.29,104.29,0,0,0,3,13.74c1.19,4.07,2.87,8,4.17,12l.39,1.26a1.32,1.32,0,0,1-2.41,1c-.54-.9-1.05-1.83-1.52-2.78-3.92-7.84-5.75-17.36-6.82-25.81-1.22-9.7-1.49-20.17,2.06-29.44a43.77,43.77,0,0,1,13.93-18.37A58.59,58.59,0,0,1,309.9,4.25h0a37.59,37.59,0,0,1,10.26-3.17S320.23,1.12,320.19,1.14Z"/><path class="cls-15" d="M390.06,38c-9.22,9.72-23.5,6.88-35.28,10-14.73,3.88-21.12,20.49-23.67,34,0,0-.08,0-.07,0a42.7,42.7,0,0,1,5.1-19c3-5.91,7.35-11.94,13.34-15.12,12.22-6.49,29-.64,39.57-10.77A.71.71,0,0,1,390.06,38Z"/><path class="cls-14" d="M394.74,174.5c-.21.8-.39,1.6-.58,2.39a118.34,118.34,0,0,0-2,11.74h0q-.37,3.15-.64,6.33h0c-.25,2.78-.44,5.56-.61,8.33-.49,7.93-.74,15.91-1.26,23.87h0c-.08,1.42-.18,2.83-.29,4.24a169.47,169.47,0,0,1-2.57,19.71c-.15.81-.32,1.63-.5,2.44l-.27,1.2c-4.5,19.24-15,36.75-28.09,51.74-.82.93-1.64,1.85-2.48,2.76-.39.44-.78.87-1.18,1.29l-.64.68q-3.52,3.74-7.22,7.23l-.92.86q-2.34,2.19-4.74,4.28c-11.15,9.73-23.46,20.1-38.64,22.06-15.66,2-31-4-43.68-12.87-21.66-15.19-40.12-36.87-50.25-61.53-.51-1.23-1-2.46-1.45-3.71-.22-.56-.42-1.13-.63-1.7l-.45-1.3c-.32-.95-.63-1.9-.92-2.85h0a129.53,129.53,0,0,1-4.37-21.54c-.11-.9-.22-1.81-.32-2.72-.84-7.33-1.36-14.72-2-22.05-1.27-13.78-2.22-27.85-.8-41.66.14-1.41.31-2.81.51-4.21.33,1,.67,2.07,1,3.1-.09,1.28-.16,2.57-.22,3.85h0a263,263,0,0,0,2,44.59c.7,5.84,1.43,11.67,2.34,17.46.09.6.18,1.2.29,1.79.16,1,.33,2,.51,3,.76,4.19,1.62,8.34,2.7,12.45v0q1.08,4.15,2.46,8.25c.16.48.33,1,.51,1.45h0c.84,2.39,1.77,4.74,2.8,7.08a134.77,134.77,0,0,0,23.55,35.63c9.94,11,21.44,21.32,34.83,27.84,14.44,7,30.72,8.28,45.26.86,12.75-6.51,24.12-16.28,34.09-26.47.81-.84,1.62-1.68,2.41-2.54s1.51-1.61,2.24-2.44a136.21,136.21,0,0,0,19.95-28.71,115.06,115.06,0,0,0,8.4-21.6c.22-.79.43-1.57.63-2.36a132.8,132.8,0,0,0,3.43-18.57c1.7-14.76,1.5-29.71,3.81-44.39h0c.23-1.43.48-2.85.75-4.28l.06-.3h0c.56-2.83,1.2-5.61,1.93-8.37.2-.79.42-1.57.64-2.35C394.32,174.5,394.53,174.49,394.74,174.5Z"/><path class="cls-15" d="M223.32,46.49l-.08.64a33.46,33.46,0,0,1-2.37,3.4c-2.11,2.71-4.56,5.24-6.53,8a127,127,0,0,0-7.85,12.27,118.1,118.1,0,0,0-15.27,52.93,136,136,0,0,0,2.32,29.39l0,.1c.2,1.17.43,2.34.68,3.49h0a128.64,128.64,0,0,0,3.48,12.81h0c.33,1,.67,2.07,1,3.1.48,1.41,1,2.82,1.47,4.24.44,1.22.88,2.45,1.33,3.68a0,0,0,0,1,0,0,.29.29,0,0,1-.07.32.37.37,0,0,1-.58,0c-.38-.64-.75-1.3-1.12-2s-.85-1.59-1.26-2.4h0c-.45-.9-.89-1.81-1.31-2.74a98.24,98.24,0,0,1-6.45-19.48c-.22-1-.42-2-.61-3-.13-.65-.25-1.3-.36-2a118.18,118.18,0,0,1,4.75-57.67,116.51,116.51,0,0,1,11.89-25,113,113,0,0,1,7.88-11A58,58,0,0,1,221,48.21,18.35,18.35,0,0,1,223.32,46.49Z"/><path class="cls-2" d="M292.21,205.66c-.47.41-1.11.84-1.67.55s-.58-1-.56-1.6c.13-3.12,3.39-31.81,8.62-25.82,2.17,2.49,1.95,9.11,1.82,12.16C300.19,196.87,296.53,201.81,292.21,205.66Z"/><path class="cls-16" d="M269,168.74a8.36,8.36,0,0,1-1.06,4.07,5.63,5.63,0,0,1-.58,0c-.12,0-.24,0-.36,0-1.58-.11-3.16-.27-4.74-.45l-.87-.1-2.31-.28-.85-.1-2.54-.3-2.18-.23-.46-.06-.41,0a8.31,8.31,0,0,1-.37-2.45,8.4,8.4,0,0,1,.86-3.71c.09-.18.19-.36.29-.53a31.4,31.4,0,0,1,3.61-.41,29.69,29.69,0,0,1,3.13,0l-1.48-.33a37.53,37.53,0,0,1,9.78,2,5.05,5.05,0,0,1,.18.55A8.31,8.31,0,0,1,269,168.74Z"/><path class="cls-15" d="M264.21,168.77a3.3,3.3,0,0,0-1.11-3.24l-.82-.09-2.13-.2-.79-.07a3.28,3.28,0,0,0-1.64,2.19,3.32,3.32,0,1,0,6.49,1.41Z"/><circle class="cls-3" cx="258.41" cy="167.71" r="1.8"/><path class="cls-16" d="M356.44,179a8.3,8.3,0,0,1-1.2,3.76l-.48-.11-.34-.08c-1.55-.34-3.09-.7-4.64-1.06l-.56-.12-3.4-.79-.55-.12L343,180l-2.42-.51-.31-.06-.5-.09a7.21,7.21,0,0,1,0-1.47,8.17,8.17,0,0,1,1.44-4.14,31.5,31.5,0,0,1,3.63-.17,29.68,29.68,0,0,1,3.12.19l-1.08-.32-.37-.1c.68.09,1.36.21,2,.34l.44.09c1,.22,2.05.48,3.05.79A36.22,36.22,0,0,1,356.1,176a2.76,2.76,0,0,1,.08.27A8.45,8.45,0,0,1,356.44,179Z"/><path class="cls-15" d="M351.34,178.35a3.24,3.24,0,0,0-.56-3.5l-.51-.06-3.11-.41-.5-.07a3.18,3.18,0,0,0-1.21,1.4,3.23,3.23,0,1,0,5.89,2.64Z"/><circle class="cls-3" cx="345.84" cy="177.04" r="1.8"/><path class="cls-15" d="M280.89,174.14c-3.57-2-6.74-4.1-10.58-5.62A33.47,33.47,0,0,0,259.06,166a37.27,37.27,0,0,0-11.85,1.73c-3.43,1-6.57,3.08-10,4-.05,0-.1,0-.07-.08,2-3.18,6-5.05,9.4-6.34a31.79,31.79,0,0,1,13-1.87c7.86.41,17.12,3.48,21.8,10.24C281.51,174,281.15,174.28,280.89,174.14Z"/><path class="cls-15" d="M367.5,186.61c-2.85-1.21-4.28-4.29-6.43-6.35-2.77-2.66-7.2-3.61-10.84-4.51a32.32,32.32,0,0,0-12.42-.83c-3.43.51-6.21,2.54-9.49,3.24a.22.22,0,0,1-.24-.32c1.61-3,6-4.33,9.14-5.05a27.64,27.64,0,0,1,11.77,0,25.93,25.93,0,0,1,10.79,4.38c3.17,2.41,5.44,6,8.17,8.9A.38.38,0,0,1,367.5,186.61Z"/><path class="cls-11" d="M280.71,159.47c-.71-3.3-5-5.43-8-6.75A145.49,145.49,0,0,0,253,145.49c-6-1.65-11.84-2.8-17.12,1.2-4.34,3.29-7.22,8.41-9.58,13.23l-.11.23a.74.74,0,0,0,.51,1.06l.78-.44.36-.18a53.51,53.51,0,0,1,11.5-5.37c4-1.24,7.52,0,11.34,1.42,4.38,1.6,8.76,3.22,13.15,4.8,2,.72,4,1.29,6.1,1.82a22.58,22.58,0,0,0,2.47.14,18.89,18.89,0,0,0,6.43-1.05,12.29,12.29,0,0,0,1.91-.88A4.5,4.5,0,0,0,280.71,159.47Z"/><path class="cls-8" d="M378.84,170.16a15.33,15.33,0,0,0-2-3,11.27,11.27,0,0,1-1,.65,28.53,28.53,0,0,1-14,3.56,38.86,38.86,0,0,1,10.44,5.23,31.22,31.22,0,0,1,5.18,4.41,32.16,32.16,0,0,1,2.3,3.09,11,11,0,0,0,1.43,1.66,18.78,18.78,0,0,0,.3-2.27A26.47,26.47,0,0,0,378.84,170.16Z"/><path class="cls-8" d="M227.44,160.77l.36-.18a53.51,53.51,0,0,1,11.5-5.37c4-1.24,7.52,0,11.34,1.42l3.36,1.23a15.65,15.65,0,0,1-3.16-3,20.34,20.34,0,0,1-3-6.18,18.33,18.33,0,0,1-.95-4.5c-3.85-.5-7.59-.11-11.06,2.53-4.34,3.29-7.22,8.41-9.58,13.23l-.11.23a.74.74,0,0,0,.51,1.06Z"/><path class="cls-9" d="M330.83,173.57c.6.48,1.2,1,1.81,1.41a46.88,46.88,0,0,0,6.17,4.15l.81.42a45.75,45.75,0,0,0,6.29,2.45,19.46,19.46,0,0,0,9,1.37c.86,0,1.72-.09,2.58-.16,2.22-.14,4.43-.35,6.63-.6.83-.09,1.66-.19,2.48-.3"/><path class="cls-15" d="M249.89,170.67c6.27,1.7,13.16,2.91,19.67,2.2.11,0,.17-.2,0-.22-6.46-1.14-13.17-1.38-19.7-2,0,0,0,0,0,0Z"/><path class="cls-15" d="M337.91,178.69a86.57,86.57,0,0,0,9.82,3.2c2.93.75,6.2,1.74,9.24,1.56.15,0,.26-.25.09-.33-2.81-1.21-6.08-1.55-9.06-2.2q-5-1.11-10.08-2.28s0,0,0,.05Z"/></g></g></svg>